<svg width="325" height="129" viewBox="0 0 325 129" fill="none" xmlns="http://www.w3.org/2000/svg">
	

 <path id="rexblob" fill="#0F2C65" >
                            <animate attributeName="d" dur="2s" repeatCount="indefinite" values="
                            	M131.452 62.8523C130.261 45.7784 124.125 32.1457 115.103 22C105.741 11.4709 93.2724 4.69739 80 1.7308C67.0519 -1.16332 53.339 -0.434266 41 3.96563C30.969 7.54253 21.8459 13.5455 14.7797 22C6.49264 31.9154 1.0347 45.2028 0.259295 61.9035C-1.42041 82.4781 5.19384 98.2467 16.2362 109.213C29.1595 122.046 48.1477 128.302 67.0044 127.984C87.5108 127.639 103.935 120.422 115.103 109.213C127.097 97.1755 133.03 80.534 131.452 62.8523Z;
                            	M131.452 62.8523C130.261 45.7784 122.521 33.6457 113.5 23.5C104.138 12.9709 93.2722 4.69739 79.9998 1.7308C67.0517 -1.16332 53.3388 -0.434265 40.9998 3.96563C30.9688 7.54253 21.8457 13.5455 14.7795 22C6.49242 31.9154 4.27541 44.2993 3.5 61C1.8203 81.5746 5.19362 98.2467 16.236 109.213C29.1592 122.046 48.6431 125.318 67.4998 125C88.0062 124.655 103.934 120.422 115.103 109.213C127.097 97.1755 133.03 80.534 131.452 62.8523Z;
                            	M129 63C127.809 45.9261 123.021 31.1457 114 21C104.638 10.4709 90.7721 6.9322 77.4998 3.96561C64.5516 1.07149 49.3388 2.60012 36.9998 7.00001C26.9687 10.5769 21.8457 13.5455 14.7795 22C6.49242 31.9154 2.77502 40.2993 1.99962 57C0.319913 77.5746 8.95759 98.2468 20 109.213C32.9232 122.046 46.6433 127.818 65.5 127.5C86.0064 127.155 102.831 118.209 114 107C123.5 94.5 129 82.1477 129 63Z;
                            	M129.5 70.0001C128.309 52.9263 125 39.5001 115.5 25.0001C106.138 14.471 95.2723 5.46667 81.9999 2.50007C69.0517 -0.394045 53.8389 -0.434225 41.4999 3.96567C31.4688 7.54257 22.0659 16.5455 14.9998 25.0001C6.7127 34.9154 1.2752 43.7994 0.499791 60.5001C-1.17991 81.0747 5.95741 93.5342 16.9998 104.5C29.923 117.334 46.6432 124.818 65.4999 124.5C91 124.5 92.5001 125.5 108.5 114C121.717 104.5 129.5 94.0001 129.5 70.0001Z;
                            	M131.452 62.8523C130.261 45.7784 124.125 32.1457 115.103 22C105.741 11.4709 93.2724 4.69739 80 1.7308C67.0519 -1.16332 53.339 -0.434266 41 3.96563C30.969 7.54253 21.8459 13.5455 14.7797 22C6.49264 31.9154 1.0347 45.2028 0.259295 61.9035C-1.42041 82.4781 5.19384 98.2467 16.2362 109.213C29.1595 122.046 48.1477 128.302 67.0044 127.984C87.5108 127.639 103.935 120.422 115.103 109.213C127.097 97.1755 133.03 80.534 131.452 62.8523Z;"></animate>
                        </path>  
<path d="M281.769 63.6301L261.917 35.8409C260.121 33.3211 261.917 29.8219 265.018 29.8219H277.352C278.637 29.8219 279.811 30.4442 280.514 31.5154C283.779 36.453 290.879 46.6954 292.94 49.9701L305.192 31.5256C305.896 30.4646 307.09 29.8219 308.365 29.8219H319.76C322.861 29.8219 324.657 33.3211 322.862 35.8409L303.427 63.0792L323.729 91.7051C325.514 94.2249 323.718 97.7138 320.627 97.7138H308.487C307.233 97.7138 306.049 97.0915 305.345 96.051L292.267 76.8719C290.084 80.1568 282.738 90.9501 279.423 96.0101C278.719 97.0813 277.536 97.7138 276.25 97.7138H264.988C261.896 97.7138 260.091 94.2249 261.876 91.7051L281.769 63.6301V63.6301Z" fill="#0F2C65"/>
<path d="M104.332 86.2267C104.026 86.594 96.5587 95.2144 83.0109 95.2144C69.5448 95.2144 61.9139 86.645 61.5875 86.288C60.4857 85.023 59.9348 83.4009 60.047 81.7278C60.1592 80.0548 60.9244 78.5245 62.1894 77.4227C63.3728 76.3924 64.8418 75.8823 66.3108 75.8823C68.0451 75.8823 69.606 76.7698 71.024 77.9838C72.5542 79.2998 75.4107 82.646 83.0109 82.646C90.6009 82.646 93.2024 79.4121 94.7734 78.0654C96.0282 76.9841 97.3646 76.0251 99.0377 75.8925C100.711 75.7599 102.333 76.2801 103.618 77.3717C104.893 78.4633 105.679 79.9833 105.812 81.6564C105.944 83.3295 105.424 84.9515 104.332 86.237V86.2267Z" fill="white"/>
<path d="M159.39 97.9893C163.553 97.9893 166.929 94.6023 166.929 90.4502V88.5731V66.9457C166.929 52.3165 175.07 47.7666 184.456 47.7666C185.894 47.7666 187.476 47.9094 189.21 48.2053C189.608 48.2053 189.944 47.8584 189.975 47.4401V30.5156C189.975 30.1483 189.659 29.8423 189.271 29.7811C188.118 29.6689 186.965 29.5464 185.7 29.5464C179.906 29.5464 170.52 31.1991 166.379 40.1664V33.9025C166.379 31.801 164.675 30.0973 162.573 30.0973H152.392C150.291 30.0973 148.587 31.801 148.587 33.9025V90.44C148.587 94.6023 151.974 97.9791 156.126 97.9791" fill="#0F2C65"/>
<path d="M86.1224 56.2748C89.0197 58.1825 92.9167 57.3766 94.8244 54.4793C96.7321 51.582 95.9262 47.685 93.0289 45.7773L70.3711 30.8829C68.6674 29.8729 66.7495 29.373 64.8316 29.373C62.8831 29.373 60.9244 29.8933 59.1901 30.9441L36.9403 44.3083C33.6758 46.267 31.6763 49.7967 31.6763 53.6121V83.8192V88.2977C31.6763 91.7663 34.4919 94.5819 37.9605 94.5819H39.2357C42.7042 94.5819 45.5199 91.7663 45.5199 88.2977V84.2885V58.0907C45.5199 55.6627 46.6013 53.6938 48.8762 52.1635L61.8323 44.3185C63.7604 43.1555 66.1782 43.1963 68.0655 44.4307L86.1326 56.2952L86.1224 56.2748Z" fill="white"/>
<path fill-rule="evenodd" clip-rule="evenodd" d="M192.474 63.4975C192.474 41.8413 208.478 27.7636 225.86 27.7612C246.831 27.7636 259.387 41.1477 259.387 62.9466C259.387 64.8849 259.172 67.8332 259.172 67.8332C259.152 68.2515 258.805 68.5983 258.407 68.5983H211.612C211.051 68.5983 210.572 69.1084 210.633 69.6695C211.582 78.0757 218.917 84.0538 227.66 84.0538C236.417 84.0538 240.559 80.1423 242.14 78.6498C242.271 78.5254 242.385 78.4178 242.483 78.3307C244.033 76.9535 245.727 75.7905 247.818 75.6171C249.909 75.4436 251.94 76.1068 253.541 77.4636C255.143 78.8306 256.112 80.7281 256.285 82.8194C256.459 84.9108 255.796 86.9409 254.439 88.5426C254.051 89.0016 244.462 99.7848 227.527 99.7848C208.899 99.7848 192.474 86.4002 192.474 63.4975ZM225.86 27.7612C225.861 27.7612 225.863 27.7612 225.864 27.7612H225.854C225.856 27.7612 225.858 27.7612 225.86 27.7612ZM212.051 56.0401H240.248C240.809 56.0401 241.289 55.5504 241.228 54.9893C240.554 48.6133 236.066 42.6556 226.129 42.6556C217.162 42.6556 211.99 49.0316 211.072 54.9587C210.99 55.53 211.47 56.0401 212.051 56.0401Z" fill="#0F2C65"/>


</svg>
