<svg width="300" height="81" viewBox="0 0 300 81" fill="none" xmlns="http://www.w3.org/2000/svg">
<path d="M41.5244 74.6236C41.4673 73.0113 39.5088 72.2115 38.3498 73.3389C34.1829 77.3851 27.8688 79.9022 19.3637 79.9022C8.48314 79.9022 0 73.6231 0 63.9879C0 51.0449 12.5315 46.1072 39.5397 43.2668C40.4967 43.1663 41.2301 42.3623 41.2301 41.4055V41.0384C41.2301 27.8288 33.3967 24.91 24.9137 24.91C15.7236 24.91 9.90578 29.6685 8.6851 36.4196C8.52264 37.3286 7.75425 38.0103 6.82339 38.0103H3.67075C2.45888 38.0103 1.55875 36.8829 1.83538 35.703C4.23719 25.5304 13.1857 18.9541 25.344 18.9541C38.9425 18.9541 47.9701 24.5822 47.9701 41.9035C47.9701 49.9133 47.8603 55.218 47.8603 59.8761C47.8603 65.7839 48.1193 70.9967 48.409 76.5288C48.4663 77.5995 47.6055 78.4995 46.5299 78.4995H43.4739C42.4595 78.4995 41.6297 77.7042 41.5945 76.6949L41.5198 74.6324L41.5244 74.6236ZM20.8873 73.9464C31.7678 73.9464 41.555 68.4231 41.555 51.862V51.1412C41.555 50.0223 40.5716 49.1527 39.4518 49.2796C17.1287 51.8359 7.50397 55.0562 7.50397 63.8743C7.50397 70.0442 13.1594 73.9419 20.8829 73.9419L20.8873 73.9464Z" fill="black"/>
<path d="M69.1506 1.87459V8.84857C69.1506 9.88417 68.3076 10.7232 67.2669 10.7232H64.2855C63.2451 10.7232 62.4019 9.88417 62.4019 8.84857V1.87459C62.4019 0.838975 63.2451 0 64.2855 0H67.2669C68.3076 0 69.1506 0.838975 69.1506 1.87459ZM69.1506 22.1192V76.6176C69.1506 77.6533 68.3076 78.4922 67.2669 78.4922H64.2855C63.2451 78.4922 62.4019 77.6533 62.4019 76.6176V22.1192C62.4019 21.0836 63.2451 20.2446 64.2855 20.2446H67.2669C68.3076 20.2446 69.1506 21.0836 69.1506 22.1192Z" fill="black"/>
<path d="M110.267 25.0837C110.267 26.1237 109.411 26.9715 108.366 26.9539C107.98 26.9496 107.602 26.9496 107.22 26.9496C95.1454 26.9496 91.2288 35.6102 91.2288 47.9501V76.6064C91.2288 77.6421 90.3858 78.481 89.3451 78.481H86.4735C85.4328 78.481 84.5898 77.6421 84.5898 76.6064V22.1124C84.5898 21.0768 85.4328 20.2378 86.4735 20.2378H89.13C90.1705 20.2378 91.0137 21.0768 91.0137 22.1124V24.4851C91.0137 26.1893 93.0949 26.9888 94.2718 25.7524C97.8547 21.99 103.225 19.8052 108.309 19.8052C108.336 19.8052 108.362 19.8052 108.384 19.8052C109.42 19.8052 110.267 20.6441 110.267 21.6798V25.0881V25.0837Z" fill="black"/>
<path d="M180.484 25.0837C180.484 26.1237 179.627 26.9715 178.583 26.9539C178.196 26.9496 177.818 26.9496 177.437 26.9496C165.362 26.9496 161.445 35.6102 161.445 47.9501V76.6064C161.445 77.6421 160.602 78.481 159.561 78.481H156.69C155.649 78.481 154.806 77.6421 154.806 76.6064V22.1124C154.806 21.0768 155.649 20.2378 156.69 20.2378H159.346C160.387 20.2378 161.23 21.0768 161.23 22.1124V24.4851C161.23 26.1893 163.311 26.9888 164.488 25.7524C168.071 21.99 173.441 19.8052 178.525 19.8052C178.552 19.8052 178.578 19.8052 178.6 19.8052C179.636 19.8052 180.484 20.6441 180.484 21.6798V25.0881V25.0837Z" fill="black"/>
<path d="M183.997 49.5757C183.997 30.7381 195.747 19.2634 211.409 19.2634C227.071 19.2634 237.658 32.1803 237.566 49.436C237.561 50.4672 236.718 51.3061 235.677 51.3061H192.928C191.839 51.3061 190.965 52.2283 191.049 53.3074C192.046 66.1674 200.674 73.7137 212.059 73.7137C220.709 73.7137 226.926 69.5408 229.5 62.2958C229.767 61.5486 230.474 61.0461 231.269 61.0461H234.479C235.77 61.0461 236.67 62.3134 236.261 63.5325C232.744 73.9978 223.546 79.8838 211.62 79.8838C194.434 79.8838 183.988 67.6486 183.988 49.5715L183.997 49.5757ZM193.345 45.1363H228.143C229.262 45.1363 230.127 44.1662 230.018 43.0561C229.104 33.9323 222.224 25.3242 211.304 25.3242C201.069 25.3242 193.53 31.4592 191.497 42.9119C191.29 44.0657 192.168 45.1318 193.345 45.1318V45.1363Z" fill="black"/>
<path d="M246.229 49.5757C246.229 30.7381 257.98 19.2634 273.641 19.2634C289.304 19.2634 299.889 32.1803 299.796 49.436C299.794 50.4672 298.95 51.3061 297.909 51.3061H255.161C254.07 51.3061 253.198 52.2283 253.281 53.3074C254.276 66.1674 262.904 73.7137 274.291 73.7137C282.942 73.7137 289.158 69.5408 291.731 62.2958C292 61.5486 292.706 61.0461 293.5 61.0461H296.711C298.002 61.0461 298.902 62.3134 298.492 63.5325C294.977 73.9978 285.776 79.8838 273.852 79.8838C256.666 79.8838 246.22 67.6486 246.22 49.5715L246.229 49.5757ZM255.578 45.1363H290.374C291.495 45.1363 292.359 44.1662 292.249 43.0561C291.337 33.9323 284.455 25.3242 273.535 25.3242C263.301 25.3242 255.761 31.4592 253.729 42.9119C253.522 44.0657 254.399 45.1318 255.578 45.1318V45.1363Z" fill="black"/>
<path d="M132.744 14.096V8.99227C132.744 7.95665 131.901 7.11768 130.861 7.11768H127.765C126.724 7.11768 125.881 7.95665 125.881 8.99227V18.3564C125.881 19.3921 125.039 20.231 123.998 20.231H118.07C117.029 20.231 116.187 21.07 116.187 22.1056V24.2118C116.187 25.2473 117.029 26.0865 118.07 26.0865H123.998C125.039 26.0865 125.881 26.9254 125.881 27.9609V64.6574C125.881 76.1408 128.279 78.5267 138.729 78.5267H142.4C143.441 78.5267 144.284 77.6878 144.284 76.6521V74.3317C144.284 73.2963 143.441 72.4574 142.4 72.4574H134.624C133.583 72.4574 132.74 71.6182 132.74 70.5827V27.9523C132.74 26.9166 133.583 26.0777 134.624 26.0777H142.4C143.441 26.0777 144.284 25.2388 144.284 24.2031V22.1013C144.284 21.0656 143.441 20.2267 142.4 20.2267H134.852C133.658 20.2267 132.692 19.261 132.701 18.0724C132.705 17.1373 132.718 15.8439 132.744 14.0917V14.096Z" fill="black"/>
</svg>
