<svg width="517" height="567" viewBox="0 0 517 567" fill="none" xmlns="http://www.w3.org/2000/svg">
<path d="M196.23 529.517C195.35 529.517 194.517 529.364 193.73 529.057C192.957 528.751 192.27 528.311 191.67 527.737C191.07 527.151 190.597 526.444 190.25 525.617C189.904 524.791 189.73 523.864 189.73 522.837C189.73 521.824 189.904 520.911 190.25 520.097C190.597 519.284 191.07 518.591 191.67 518.017C192.27 517.444 192.957 517.004 193.73 516.697C194.517 516.391 195.35 516.237 196.23 516.237C197.11 516.237 197.937 516.391 198.71 516.697C199.497 517.004 200.19 517.444 200.79 518.017C201.39 518.591 201.864 519.284 202.21 520.097C202.557 520.911 202.73 521.824 202.73 522.837C202.73 523.864 202.557 524.791 202.21 525.617C201.864 526.444 201.39 527.151 200.79 527.737C200.19 528.311 199.497 528.751 198.71 529.057C197.937 529.364 197.11 529.517 196.23 529.517ZM196.23 528.597C196.977 528.597 197.677 528.464 198.33 528.197C198.997 527.917 199.577 527.524 200.07 527.017C200.577 526.497 200.97 525.891 201.25 525.197C201.53 524.491 201.67 523.704 201.67 522.837C201.67 521.984 201.53 521.211 201.25 520.517C200.97 519.811 200.577 519.211 200.07 518.717C199.577 518.224 198.997 517.844 198.33 517.577C197.677 517.297 196.977 517.157 196.23 517.157C195.47 517.157 194.764 517.297 194.11 517.577C193.457 517.844 192.877 518.224 192.37 518.717C191.877 519.211 191.484 519.811 191.19 520.517C190.91 521.211 190.77 521.984 190.77 522.837C190.77 523.704 190.91 524.491 191.19 525.197C191.484 525.891 191.877 526.497 192.37 527.017C192.877 527.524 193.457 527.917 194.11 528.197C194.764 528.464 195.47 528.597 196.23 528.597ZM196.41 526.737C195.704 526.737 195.07 526.584 194.51 526.277C193.964 525.971 193.524 525.531 193.19 524.957C192.87 524.384 192.71 523.697 192.71 522.897C192.71 522.097 192.884 521.411 193.23 520.837C193.59 520.251 194.05 519.797 194.61 519.477C195.184 519.157 195.797 518.997 196.45 518.997C197.024 518.997 197.517 519.111 197.93 519.337C198.344 519.564 198.704 519.844 199.01 520.177L198.19 521.037C197.964 520.784 197.717 520.591 197.45 520.457C197.184 520.324 196.884 520.257 196.55 520.257C196.084 520.257 195.677 520.371 195.33 520.597C194.984 520.824 194.71 521.137 194.51 521.537C194.324 521.937 194.23 522.391 194.23 522.897C194.23 523.684 194.43 524.311 194.83 524.777C195.244 525.244 195.79 525.477 196.47 525.477C196.91 525.477 197.264 525.404 197.53 525.257C197.797 525.111 198.07 524.917 198.35 524.677L199.07 525.617C198.71 525.951 198.317 526.224 197.89 526.437C197.477 526.637 196.984 526.737 196.41 526.737ZM213.096 529.557C212.269 529.557 211.549 529.377 210.936 529.017C210.336 528.657 209.849 528.111 209.476 527.377L210.796 526.477C211.049 526.931 211.356 527.264 211.716 527.477C212.089 527.691 212.496 527.797 212.936 527.797C213.629 527.797 214.136 527.597 214.456 527.197C214.789 526.784 214.956 526.084 214.956 525.097V516.217H216.956V525.277C216.956 526.064 216.823 526.784 216.556 527.437C216.289 528.077 215.869 528.591 215.296 528.977C214.736 529.364 214.003 529.557 213.096 529.557ZM224.702 529.557C223.889 529.557 223.136 529.357 222.442 528.957C221.749 528.557 221.182 527.977 220.742 527.217C220.316 526.444 220.102 525.517 220.102 524.437C220.102 523.357 220.316 522.437 220.742 521.677C221.182 520.904 221.749 520.317 222.442 519.917C223.136 519.504 223.889 519.297 224.702 519.297C225.502 519.297 226.249 519.504 226.942 519.917C227.636 520.317 228.196 520.904 228.622 521.677C229.062 522.437 229.282 523.357 229.282 524.437C229.282 525.517 229.062 526.444 228.622 527.217C228.196 527.977 227.636 528.557 226.942 528.957C226.249 529.357 225.502 529.557 224.702 529.557ZM224.702 527.937C225.222 527.937 225.669 527.791 226.042 527.497C226.429 527.204 226.722 526.797 226.922 526.277C227.136 525.757 227.242 525.144 227.242 524.437C227.242 523.744 227.136 523.137 226.922 522.617C226.722 522.084 226.429 521.671 226.042 521.377C225.669 521.084 225.222 520.937 224.702 520.937C224.182 520.937 223.729 521.084 223.342 521.377C222.969 521.671 222.676 522.084 222.462 522.617C222.249 523.137 222.142 523.744 222.142 524.437C222.142 525.144 222.249 525.757 222.462 526.277C222.676 526.797 222.969 527.204 223.342 527.497C223.729 527.791 224.182 527.937 224.702 527.937ZM232.32 529.317V519.537H233.94L234.1 520.917H234.16C234.613 520.464 235.1 520.084 235.62 519.777C236.14 519.457 236.733 519.297 237.4 519.297C238.44 519.297 239.2 519.631 239.68 520.297C240.16 520.964 240.4 521.917 240.4 523.157V529.317H238.42V523.417C238.42 522.551 238.287 521.937 238.02 521.577C237.753 521.204 237.327 521.017 236.74 521.017C236.273 521.017 235.86 521.131 235.5 521.357C235.14 521.584 234.74 521.917 234.3 522.357V529.317H232.32ZM243.975 529.317V519.537H245.595L245.755 520.917H245.815C246.268 520.464 246.755 520.084 247.275 519.777C247.795 519.457 248.388 519.297 249.055 519.297C250.095 519.297 250.855 519.631 251.335 520.297C251.815 520.964 252.055 521.917 252.055 523.157V529.317H250.075V523.417C250.075 522.551 249.942 521.937 249.675 521.577C249.408 521.204 248.982 521.017 248.395 521.017C247.928 521.017 247.515 521.131 247.155 521.357C246.795 521.584 246.395 521.917 245.955 522.357V529.317H243.975ZM256.03 533.417C255.79 533.417 255.57 533.397 255.37 533.357C255.17 533.317 254.983 533.271 254.81 533.217L255.21 531.697C255.343 531.737 255.463 531.764 255.57 531.777C255.69 531.804 255.803 531.817 255.91 531.817C256.443 531.817 256.876 531.637 257.21 531.277C257.556 530.917 257.816 530.471 257.99 529.937L258.19 529.257L254.31 519.537H256.33L258.17 524.637C258.316 525.064 258.463 525.517 258.61 525.997C258.77 526.464 258.923 526.931 259.07 527.397H259.15C259.283 526.944 259.416 526.484 259.55 526.017C259.683 525.537 259.81 525.077 259.93 524.637L261.53 519.537H263.45L259.85 529.937C259.596 530.631 259.303 531.237 258.97 531.757C258.636 532.277 258.23 532.684 257.75 532.977C257.283 533.271 256.71 533.417 256.03 533.417ZM274.362 529.557C273.442 529.557 272.589 529.391 271.802 529.057C271.016 528.711 270.316 528.231 269.702 527.617L270.802 526.317C271.269 526.784 271.816 527.151 272.442 527.417C273.082 527.684 273.736 527.817 274.402 527.817C275.202 527.817 275.816 527.644 276.242 527.297C276.682 526.937 276.902 526.471 276.902 525.897C276.902 525.497 276.809 525.177 276.622 524.937C276.449 524.684 276.202 524.477 275.882 524.317C275.562 524.144 275.202 523.971 274.802 523.797L272.962 522.997C272.536 522.811 272.116 522.571 271.702 522.277C271.302 521.984 270.969 521.617 270.702 521.177C270.436 520.737 270.302 520.197 270.302 519.557C270.302 518.877 270.482 518.271 270.842 517.737C271.216 517.191 271.722 516.764 272.362 516.457C273.002 516.137 273.742 515.977 274.582 515.977C275.369 515.977 276.102 516.124 276.782 516.417C277.462 516.711 278.042 517.097 278.522 517.577L277.462 518.877C277.049 518.517 276.596 518.237 276.102 518.037C275.622 517.824 275.116 517.717 274.582 517.717C273.902 517.717 273.356 517.871 272.942 518.177C272.529 518.484 272.322 518.904 272.322 519.437C272.322 519.824 272.422 520.137 272.622 520.377C272.836 520.617 273.109 520.817 273.442 520.977C273.776 521.137 274.116 521.297 274.462 521.457L276.282 522.237C276.802 522.451 277.262 522.711 277.662 523.017C278.062 523.311 278.376 523.677 278.602 524.117C278.829 524.557 278.942 525.097 278.942 525.737C278.942 526.444 278.762 527.091 278.402 527.677C278.042 528.251 277.516 528.711 276.822 529.057C276.142 529.391 275.322 529.557 274.362 529.557ZM285.844 529.557C284.95 529.557 284.15 529.357 283.444 528.957C282.737 528.544 282.177 527.957 281.764 527.197C281.35 526.437 281.144 525.517 281.144 524.437C281.144 523.357 281.364 522.437 281.804 521.677C282.257 520.904 282.85 520.317 283.584 519.917C284.317 519.504 285.104 519.297 285.944 519.297C286.584 519.297 287.137 519.404 287.604 519.617C288.07 519.831 288.477 520.097 288.824 520.417L287.864 521.657C287.637 521.444 287.37 521.271 287.064 521.137C286.77 521.004 286.43 520.937 286.044 520.937C285.497 520.937 285.01 521.084 284.584 521.377C284.157 521.671 283.817 522.077 283.564 522.597C283.31 523.117 283.184 523.731 283.184 524.437C283.184 525.144 283.304 525.757 283.544 526.277C283.784 526.797 284.117 527.204 284.544 527.497C284.97 527.791 285.464 527.937 286.024 527.937C286.437 527.937 286.824 527.857 287.184 527.697C287.544 527.537 287.864 527.331 288.144 527.077L288.984 528.297C288.57 528.684 288.097 528.991 287.564 529.217C287.03 529.444 286.457 529.557 285.844 529.557ZM291.623 529.317V515.137H293.603V518.897L293.523 520.857C293.95 520.431 294.417 520.064 294.923 519.757C295.443 519.451 296.037 519.297 296.703 519.297C297.743 519.297 298.503 519.631 298.983 520.297C299.463 520.964 299.703 521.917 299.703 523.157V529.317H297.723V523.417C297.723 522.551 297.59 521.937 297.323 521.577C297.057 521.204 296.63 521.017 296.043 521.017C295.577 521.017 295.163 521.131 294.803 521.357C294.443 521.584 294.043 521.917 293.603 522.357V529.317H291.623ZM303.239 529.317V519.537H304.859L305.019 520.917H305.079C305.532 520.464 306.019 520.084 306.539 519.777C307.059 519.457 307.652 519.297 308.319 519.297C309.359 519.297 310.119 519.631 310.599 520.297C311.079 520.964 311.319 521.917 311.319 523.157V529.317H309.339V523.417C309.339 522.551 309.206 521.937 308.939 521.577C308.672 521.204 308.246 521.017 307.659 521.017C307.192 521.017 306.779 521.131 306.419 521.357C306.059 521.584 305.659 521.917 305.219 522.357V529.317H303.239ZM318.974 529.557C318.067 529.557 317.254 529.357 316.534 528.957C315.814 528.544 315.24 527.957 314.814 527.197C314.4 526.437 314.194 525.517 314.194 524.437C314.194 523.371 314.407 522.457 314.834 521.697C315.26 520.924 315.814 520.331 316.494 519.917C317.174 519.504 317.894 519.297 318.654 519.297C319.52 519.297 320.247 519.497 320.834 519.897C321.42 520.284 321.86 520.824 322.154 521.517C322.46 522.197 322.614 522.997 322.614 523.917C322.614 524.104 322.607 524.291 322.594 524.477C322.58 524.664 322.554 524.844 322.514 525.017H315.634V523.477H320.854C320.854 522.651 320.674 522.017 320.314 521.577C319.954 521.124 319.414 520.897 318.694 520.897C318.28 520.897 317.88 521.011 317.494 521.237C317.107 521.451 316.787 521.817 316.534 522.337C316.28 522.844 316.154 523.537 316.154 524.417C316.154 525.217 316.294 525.877 316.574 526.397C316.854 526.917 317.227 527.311 317.694 527.577C318.16 527.831 318.66 527.957 319.194 527.957C319.647 527.957 320.067 527.897 320.454 527.777C320.854 527.644 321.22 527.471 321.554 527.257L322.254 528.537C321.814 528.844 321.314 529.091 320.754 529.277C320.207 529.464 319.614 529.557 318.974 529.557ZM325.493 529.317V519.537H327.473V529.317H325.493ZM326.493 517.677C326.133 517.677 325.833 517.571 325.593 517.357C325.366 517.131 325.253 516.837 325.253 516.477C325.253 516.131 325.366 515.851 325.593 515.637C325.833 515.411 326.133 515.297 326.493 515.297C326.866 515.297 327.166 515.411 327.393 515.637C327.62 515.851 327.733 516.131 327.733 516.477C327.733 516.837 327.62 517.131 327.393 517.357C327.166 517.571 326.866 517.677 326.493 517.677ZM334.551 529.557C333.338 529.557 332.365 529.111 331.631 528.217C330.898 527.311 330.531 526.051 330.531 524.437C330.531 523.384 330.725 522.477 331.111 521.717C331.511 520.944 332.031 520.351 332.671 519.937C333.311 519.511 333.991 519.297 334.711 519.297C335.285 519.297 335.771 519.397 336.171 519.597C336.571 519.784 336.971 520.051 337.371 520.397L337.291 518.777V515.137H339.271V529.317H337.651L337.491 528.217H337.431C337.058 528.577 336.625 528.891 336.131 529.157C335.638 529.424 335.111 529.557 334.551 529.557ZM335.031 527.917C335.445 527.917 335.831 527.817 336.191 527.617C336.565 527.417 336.931 527.111 337.291 526.697V521.857C336.918 521.524 336.551 521.291 336.191 521.157C335.845 521.024 335.485 520.957 335.111 520.957C334.645 520.957 334.218 521.097 333.831 521.377C333.458 521.657 333.151 522.057 332.911 522.577C332.685 523.097 332.571 523.711 332.571 524.417C332.571 525.537 332.785 526.404 333.211 527.017C333.638 527.617 334.245 527.917 335.031 527.917ZM347.043 529.557C346.136 529.557 345.323 529.357 344.603 528.957C343.883 528.544 343.31 527.957 342.883 527.197C342.47 526.437 342.263 525.517 342.263 524.437C342.263 523.371 342.476 522.457 342.903 521.697C343.33 520.924 343.883 520.331 344.563 519.917C345.243 519.504 345.963 519.297 346.723 519.297C347.59 519.297 348.316 519.497 348.903 519.897C349.49 520.284 349.93 520.824 350.223 521.517C350.53 522.197 350.683 522.997 350.683 523.917C350.683 524.104 350.676 524.291 350.663 524.477C350.65 524.664 350.623 524.844 350.583 525.017H343.703V523.477H348.923C348.923 522.651 348.743 522.017 348.383 521.577C348.023 521.124 347.483 520.897 346.763 520.897C346.35 520.897 345.95 521.011 345.563 521.237C345.176 521.451 344.856 521.817 344.603 522.337C344.35 522.844 344.223 523.537 344.223 524.417C344.223 525.217 344.363 525.877 344.643 526.397C344.923 526.917 345.296 527.311 345.763 527.577C346.23 527.831 346.73 527.957 347.263 527.957C347.716 527.957 348.136 527.897 348.523 527.777C348.923 527.644 349.29 527.471 349.623 527.257L350.323 528.537C349.883 528.844 349.383 529.091 348.823 529.277C348.276 529.464 347.683 529.557 347.043 529.557ZM353.583 529.317V519.537H355.203L355.363 521.297H355.423C355.756 520.671 356.163 520.184 356.643 519.837C357.136 519.477 357.656 519.297 358.203 519.297C358.429 519.297 358.623 519.317 358.783 519.357C358.956 519.384 359.116 519.431 359.263 519.497L358.863 521.197C358.716 521.157 358.576 521.131 358.443 521.117C358.309 521.091 358.143 521.077 357.943 521.077C357.543 521.077 357.123 521.237 356.683 521.557C356.243 521.864 355.869 522.411 355.563 523.197V529.317H353.583Z" fill="#B84B86"/>
<path d="M239.015 47V37.19H241.64C242.64 37.19 243.495 37.37 244.205 37.73C244.915 38.09 245.46 38.63 245.84 39.35C246.22 40.07 246.41 40.97 246.41 42.05C246.41 43.13 246.22 44.04 245.84 44.78C245.47 45.51 244.935 46.065 244.235 46.445C243.535 46.815 242.7 47 241.73 47H239.015ZM240.755 45.59H241.52C242.18 45.59 242.74 45.465 243.2 45.215C243.67 44.955 244.025 44.565 244.265 44.045C244.505 43.525 244.625 42.86 244.625 42.05C244.625 41.25 244.505 40.595 244.265 40.085C244.025 39.575 243.67 39.2 243.2 38.96C242.74 38.72 242.18 38.6 241.52 38.6H240.755V45.59ZM248.24 47V39.635H249.965V47H248.24ZM249.095 38.345C248.795 38.345 248.545 38.255 248.345 38.075C248.155 37.895 248.06 37.655 248.06 37.355C248.06 37.055 248.155 36.82 248.345 36.65C248.545 36.47 248.795 36.38 249.095 36.38C249.405 36.38 249.655 36.47 249.845 36.65C250.035 36.82 250.13 37.055 250.13 37.355C250.13 37.655 250.035 37.895 249.845 38.075C249.655 38.255 249.405 38.345 249.095 38.345ZM253.95 47.18C253.52 47.18 253.14 47.09 252.81 46.91C252.48 46.73 252.22 46.48 252.03 46.16C251.85 45.83 251.76 45.45 251.76 45.02C251.76 44.19 252.105 43.565 252.795 43.145C253.495 42.715 254.6 42.42 256.11 42.26C256.1 42.01 256.05 41.78 255.96 41.57C255.88 41.36 255.74 41.195 255.54 41.075C255.35 40.945 255.09 40.88 254.76 40.88C254.4 40.88 254.045 40.945 253.695 41.075C253.355 41.205 253.02 41.37 252.69 41.57L252.06 40.4C252.33 40.23 252.625 40.075 252.945 39.935C253.265 39.785 253.605 39.67 253.965 39.59C254.325 39.5 254.7 39.455 255.09 39.455C255.7 39.455 256.205 39.58 256.605 39.83C257.015 40.07 257.32 40.43 257.52 40.91C257.73 41.38 257.835 41.96 257.835 42.65V47H256.41L256.29 46.19H256.23C255.89 46.47 255.535 46.705 255.165 46.895C254.795 47.085 254.39 47.18 253.95 47.18ZM254.49 45.77C254.79 45.77 255.065 45.71 255.315 45.59C255.575 45.46 255.84 45.27 256.11 45.02V43.46C255.44 43.54 254.91 43.645 254.52 43.775C254.13 43.905 253.85 44.065 253.68 44.255C253.52 44.435 253.44 44.65 253.44 44.9C253.44 45.21 253.54 45.435 253.74 45.575C253.94 45.705 254.19 45.77 254.49 45.77ZM262.465 50.255C261.875 50.255 261.35 50.185 260.89 50.045C260.43 49.905 260.065 49.69 259.795 49.4C259.535 49.12 259.405 48.765 259.405 48.335C259.405 48.025 259.495 47.735 259.675 47.465C259.865 47.205 260.125 46.97 260.455 46.76V46.7C260.275 46.58 260.12 46.42 259.99 46.22C259.86 46.02 259.795 45.77 259.795 45.47C259.795 45.19 259.875 44.93 260.035 44.69C260.205 44.45 260.395 44.255 260.605 44.105V44.045C260.355 43.855 260.13 43.59 259.93 43.25C259.74 42.91 259.645 42.525 259.645 42.095C259.645 41.535 259.78 41.06 260.05 40.67C260.32 40.27 260.675 39.97 261.115 39.77C261.555 39.56 262.035 39.455 262.555 39.455C262.755 39.455 262.95 39.47 263.14 39.5C263.33 39.53 263.495 39.575 263.635 39.635H266.275V40.91H264.895V40.97C265.035 41.12 265.145 41.295 265.225 41.495C265.305 41.685 265.345 41.91 265.345 42.17C265.345 42.71 265.22 43.165 264.97 43.535C264.72 43.905 264.385 44.185 263.965 44.375C263.545 44.565 263.075 44.66 262.555 44.66C262.395 44.66 262.23 44.645 262.06 44.615C261.89 44.585 261.72 44.535 261.55 44.465C261.45 44.565 261.365 44.665 261.295 44.765C261.225 44.865 261.19 45 261.19 45.17C261.19 45.38 261.28 45.545 261.46 45.665C261.64 45.785 261.95 45.845 262.39 45.845H263.695C264.585 45.845 265.255 45.99 265.705 46.28C266.165 46.56 266.395 47.02 266.395 47.66C266.395 48.14 266.235 48.575 265.915 48.965C265.595 49.365 265.14 49.68 264.55 49.91C263.96 50.14 263.265 50.255 262.465 50.255ZM262.555 43.58C262.785 43.58 262.995 43.525 263.185 43.415C263.385 43.295 263.54 43.125 263.65 42.905C263.77 42.675 263.83 42.405 263.83 42.095C263.83 41.625 263.705 41.265 263.455 41.015C263.215 40.765 262.915 40.64 262.555 40.64C262.195 40.64 261.89 40.765 261.64 41.015C261.39 41.265 261.265 41.625 261.265 42.095C261.265 42.405 261.325 42.675 261.445 42.905C261.565 43.125 261.72 43.295 261.91 43.415C262.1 43.525 262.315 43.58 262.555 43.58ZM262.735 49.13C263.125 49.13 263.47 49.075 263.77 48.965C264.07 48.865 264.305 48.72 264.475 48.53C264.645 48.35 264.73 48.155 264.73 47.945C264.73 47.655 264.615 47.46 264.385 47.36C264.165 47.26 263.845 47.21 263.425 47.21H262.42C262.22 47.21 262.04 47.2 261.88 47.18C261.72 47.16 261.565 47.135 261.415 47.105C261.225 47.255 261.08 47.41 260.98 47.57C260.89 47.73 260.845 47.9 260.845 48.08C260.845 48.41 261.015 48.665 261.355 48.845C261.695 49.035 262.155 49.13 262.735 49.13ZM267.693 47V39.635H269.118L269.238 40.625H269.298C269.628 40.305 269.988 40.03 270.378 39.8C270.768 39.57 271.213 39.455 271.713 39.455C272.503 39.455 273.078 39.71 273.438 40.22C273.798 40.73 273.978 41.45 273.978 42.38V47H272.253V42.605C272.253 41.995 272.163 41.565 271.983 41.315C271.803 41.065 271.508 40.94 271.098 40.94C270.778 40.94 270.493 41.02 270.243 41.18C270.003 41.33 269.728 41.555 269.418 41.855V47H267.693ZM279.101 47.18C278.491 47.18 277.921 47.03 277.391 46.73C276.861 46.42 276.431 45.98 276.101 45.41C275.771 44.83 275.606 44.135 275.606 43.325C275.606 42.505 275.771 41.81 276.101 41.24C276.431 40.66 276.861 40.22 277.391 39.92C277.921 39.61 278.491 39.455 279.101 39.455C279.721 39.455 280.296 39.61 280.826 39.92C281.356 40.22 281.786 40.66 282.116 41.24C282.446 41.81 282.611 42.505 282.611 43.325C282.611 44.135 282.446 44.83 282.116 45.41C281.786 45.98 281.356 46.42 280.826 46.73C280.296 47.03 279.721 47.18 279.101 47.18ZM279.101 45.77C279.461 45.77 279.771 45.67 280.031 45.47C280.291 45.27 280.491 44.985 280.631 44.615C280.771 44.245 280.841 43.815 280.841 43.325C280.841 42.835 280.771 42.405 280.631 42.035C280.491 41.665 280.291 41.38 280.031 41.18C279.771 40.97 279.461 40.865 279.101 40.865C278.741 40.865 278.431 40.97 278.171 41.18C277.921 41.38 277.726 41.665 277.586 42.035C277.446 42.405 277.376 42.835 277.376 43.325C277.376 43.815 277.446 44.245 277.586 44.615C277.726 44.985 277.921 45.27 278.171 45.47C278.431 45.67 278.741 45.77 279.101 45.77ZM286.315 47.18C285.805 47.18 285.3 47.085 284.8 46.895C284.31 46.705 283.885 46.44 283.525 46.1L284.29 45.11C284.62 45.38 284.955 45.575 285.295 45.695C285.635 45.815 285.995 45.875 286.375 45.875C286.775 45.875 287.07 45.79 287.26 45.62C287.45 45.45 287.545 45.24 287.545 44.99C287.545 44.79 287.47 44.62 287.32 44.48C287.18 44.34 286.995 44.22 286.765 44.12C286.535 44.02 286.28 43.92 286 43.82C285.64 43.69 285.305 43.535 284.995 43.355C284.685 43.165 284.43 42.935 284.23 42.665C284.04 42.385 283.945 42.05 283.945 41.66C283.945 41.01 284.185 40.48 284.665 40.07C285.145 39.66 285.795 39.455 286.615 39.455C287.115 39.455 287.575 39.54 287.995 39.71C288.415 39.87 288.775 40.08 289.075 40.34L288.31 41.315C288.05 41.125 287.785 40.985 287.515 40.895C287.245 40.805 286.96 40.76 286.66 40.76C286.29 40.76 286.015 40.84 285.835 41C285.655 41.16 285.565 41.35 285.565 41.57C285.565 41.75 285.62 41.905 285.73 42.035C285.85 42.155 286.02 42.265 286.24 42.365C286.46 42.455 286.725 42.55 287.035 42.65C287.415 42.78 287.77 42.94 288.1 43.13C288.43 43.31 288.69 43.545 288.88 43.835C289.08 44.115 289.18 44.47 289.18 44.9C289.18 45.32 289.07 45.705 288.85 46.055C288.63 46.395 288.305 46.67 287.875 46.88C287.455 47.08 286.935 47.18 286.315 47.18ZM293.885 47.18C293.195 47.18 292.57 47.03 292.01 46.73C291.46 46.42 291.025 45.98 290.705 45.41C290.385 44.83 290.225 44.13 290.225 43.31C290.225 42.51 290.39 41.825 290.72 41.255C291.05 40.675 291.475 40.23 291.995 39.92C292.515 39.61 293.065 39.455 293.645 39.455C294.315 39.455 294.875 39.605 295.325 39.905C295.775 40.205 296.11 40.62 296.33 41.15C296.56 41.67 296.675 42.27 296.675 42.95C296.675 43.11 296.665 43.265 296.645 43.415C296.635 43.565 296.615 43.71 296.585 43.85H291.515V42.53H295.145C295.145 42 295.025 41.585 294.785 41.285C294.545 40.975 294.175 40.82 293.675 40.82C293.395 40.82 293.12 40.895 292.85 41.045C292.59 41.195 292.37 41.45 292.19 41.81C292.02 42.17 291.935 42.67 291.935 43.31C291.935 43.89 292.035 44.365 292.235 44.735C292.435 45.095 292.7 45.365 293.03 45.545C293.36 45.715 293.715 45.8 294.095 45.8C294.415 45.8 294.715 45.755 294.995 45.665C295.285 45.575 295.555 45.45 295.805 45.29L296.405 46.4C296.065 46.64 295.675 46.83 295.235 46.97C294.805 47.11 294.355 47.18 293.885 47.18ZM247.836 64.18C247.156 64.18 246.546 64.03 246.006 63.73C245.466 63.42 245.036 62.98 244.716 62.41C244.406 61.83 244.251 61.135 244.251 60.325C244.251 59.505 244.421 58.81 244.761 58.24C245.101 57.66 245.551 57.22 246.111 56.92C246.681 56.61 247.291 56.455 247.941 56.455C248.411 56.455 248.821 56.535 249.171 56.695C249.531 56.845 249.841 57.04 250.101 57.28L249.276 58.36C249.116 58.21 248.931 58.09 248.721 58C248.521 57.91 248.291 57.865 248.031 57.865C247.641 57.865 247.296 57.97 246.996 58.18C246.696 58.38 246.456 58.665 246.276 59.035C246.106 59.395 246.021 59.825 246.021 60.325C246.021 60.815 246.106 61.245 246.276 61.615C246.446 61.975 246.676 62.26 246.966 62.47C247.266 62.67 247.611 62.77 248.001 62.77C248.291 62.77 248.561 62.715 248.811 62.605C249.071 62.495 249.301 62.355 249.501 62.185L250.206 63.25C249.896 63.53 249.536 63.755 249.126 63.925C248.726 64.095 248.296 64.18 247.836 64.18ZM253.85 64.18C253.06 64.18 252.485 63.925 252.125 63.415C251.765 62.905 251.585 62.185 251.585 61.255V56.635H253.31V61.03C253.31 61.64 253.4 62.07 253.58 62.32C253.76 62.57 254.05 62.695 254.45 62.695C254.77 62.695 255.05 62.615 255.29 62.455C255.54 62.295 255.805 62.035 256.085 61.675V56.635H257.81V64H256.4L256.265 62.92H256.22C255.9 63.3 255.55 63.605 255.17 63.835C254.79 64.065 254.35 64.18 253.85 64.18ZM259.995 64V56.635H261.42L261.54 57.94H261.6C261.86 57.46 262.17 57.095 262.53 56.845C262.9 56.585 263.285 56.455 263.685 56.455C263.875 56.455 264.035 56.465 264.165 56.485C264.295 56.505 264.415 56.545 264.525 56.605L264.18 58.075C264.06 58.045 263.95 58.025 263.85 58.015C263.75 57.995 263.62 57.985 263.46 57.985C263.17 57.985 262.865 58.1 262.545 58.33C262.225 58.55 261.95 58.94 261.72 59.5V64H259.995ZM265.591 64V56.635H267.016L267.136 57.94H267.196C267.456 57.46 267.766 57.095 268.126 56.845C268.496 56.585 268.881 56.455 269.281 56.455C269.471 56.455 269.631 56.465 269.761 56.485C269.891 56.505 270.011 56.545 270.121 56.605L269.776 58.075C269.656 58.045 269.546 58.025 269.446 58.015C269.346 57.995 269.216 57.985 269.056 57.985C268.766 57.985 268.461 58.1 268.141 58.33C267.821 58.55 267.546 58.94 267.316 59.5V64H265.591ZM274.205 64.18C273.515 64.18 272.89 64.03 272.33 63.73C271.78 63.42 271.345 62.98 271.025 62.41C270.705 61.83 270.545 61.13 270.545 60.31C270.545 59.51 270.71 58.825 271.04 58.255C271.37 57.675 271.795 57.23 272.315 56.92C272.835 56.61 273.385 56.455 273.965 56.455C274.635 56.455 275.195 56.605 275.645 56.905C276.095 57.205 276.43 57.62 276.65 58.15C276.88 58.67 276.995 59.27 276.995 59.95C276.995 60.11 276.985 60.265 276.965 60.415C276.955 60.565 276.935 60.71 276.905 60.85H271.835V59.53H275.465C275.465 59 275.345 58.585 275.105 58.285C274.865 57.975 274.495 57.82 273.995 57.82C273.715 57.82 273.44 57.895 273.17 58.045C272.91 58.195 272.69 58.45 272.51 58.81C272.34 59.17 272.255 59.67 272.255 60.31C272.255 60.89 272.355 61.365 272.555 61.735C272.755 62.095 273.02 62.365 273.35 62.545C273.68 62.715 274.035 62.8 274.415 62.8C274.735 62.8 275.035 62.755 275.315 62.665C275.605 62.575 275.875 62.45 276.125 62.29L276.725 63.4C276.385 63.64 275.995 63.83 275.555 63.97C275.125 64.11 274.675 64.18 274.205 64.18ZM278.642 64V56.635H280.067L280.187 57.625H280.247C280.577 57.305 280.937 57.03 281.327 56.8C281.717 56.57 282.162 56.455 282.662 56.455C283.452 56.455 284.027 56.71 284.387 57.22C284.747 57.73 284.927 58.45 284.927 59.38V64H283.202V59.605C283.202 58.995 283.112 58.565 282.932 58.315C282.752 58.065 282.457 57.94 282.047 57.94C281.727 57.94 281.442 58.02 281.192 58.18C280.952 58.33 280.677 58.555 280.367 58.855V64H278.642ZM289.631 64.15C288.781 64.15 288.176 63.905 287.816 63.415C287.466 62.915 287.291 62.27 287.291 61.48V58H286.241V56.71L287.381 56.635L287.591 54.325H289.031V56.635H290.906V58H289.031V61.48C289.031 61.91 289.116 62.235 289.286 62.455C289.456 62.665 289.716 62.77 290.066 62.77C290.196 62.77 290.326 62.76 290.456 62.74C290.586 62.72 290.711 62.68 290.831 62.62L291.146 63.835C290.956 63.925 290.731 64 290.471 64.06C290.211 64.12 289.931 64.15 289.631 64.15ZM242.424 81.18C241.744 81.18 241.134 81.03 240.594 80.73C240.054 80.42 239.624 79.98 239.304 79.41C238.994 78.83 238.839 78.135 238.839 77.325C238.839 76.505 239.009 75.81 239.349 75.24C239.689 74.66 240.139 74.22 240.699 73.92C241.269 73.61 241.879 73.455 242.529 73.455C242.999 73.455 243.409 73.535 243.759 73.695C244.119 73.845 244.429 74.04 244.689 74.28L243.864 75.36C243.704 75.21 243.519 75.09 243.309 75C243.109 74.91 242.879 74.865 242.619 74.865C242.229 74.865 241.884 74.97 241.584 75.18C241.284 75.38 241.044 75.665 240.864 76.035C240.694 76.395 240.609 76.825 240.609 77.325C240.609 77.815 240.694 78.245 240.864 78.615C241.034 78.975 241.264 79.26 241.554 79.47C241.854 79.67 242.199 79.77 242.589 79.77C242.879 79.77 243.149 79.715 243.399 79.605C243.659 79.495 243.889 79.355 244.089 79.185L244.794 80.25C244.484 80.53 244.124 80.755 243.714 80.925C243.314 81.095 242.884 81.18 242.424 81.18ZM248.896 81.18C248.286 81.18 247.716 81.03 247.186 80.73C246.656 80.42 246.226 79.98 245.896 79.41C245.566 78.83 245.401 78.135 245.401 77.325C245.401 76.505 245.566 75.81 245.896 75.24C246.226 74.66 246.656 74.22 247.186 73.92C247.716 73.61 248.286 73.455 248.896 73.455C249.516 73.455 250.091 73.61 250.621 73.92C251.151 74.22 251.581 74.66 251.911 75.24C252.241 75.81 252.406 76.505 252.406 77.325C252.406 78.135 252.241 78.83 251.911 79.41C251.581 79.98 251.151 80.42 250.621 80.73C250.091 81.03 249.516 81.18 248.896 81.18ZM248.896 79.77C249.256 79.77 249.566 79.67 249.826 79.47C250.086 79.27 250.286 78.985 250.426 78.615C250.566 78.245 250.636 77.815 250.636 77.325C250.636 76.835 250.566 76.405 250.426 76.035C250.286 75.665 250.086 75.38 249.826 75.18C249.566 74.97 249.256 74.865 248.896 74.865C248.536 74.865 248.226 74.97 247.966 75.18C247.716 75.38 247.521 75.665 247.381 76.035C247.241 76.405 247.171 76.835 247.171 77.325C247.171 77.815 247.241 78.245 247.381 78.615C247.521 78.985 247.716 79.27 247.966 79.47C248.226 79.67 248.536 79.77 248.896 79.77ZM254.114 81V73.635H255.539L255.659 74.625H255.719C256.049 74.305 256.409 74.03 256.799 73.8C257.189 73.57 257.634 73.455 258.134 73.455C258.924 73.455 259.499 73.71 259.859 74.22C260.219 74.73 260.399 75.45 260.399 76.38V81H258.674V76.605C258.674 75.995 258.584 75.565 258.404 75.315C258.224 75.065 257.929 74.94 257.519 74.94C257.199 74.94 256.914 75.02 256.664 75.18C256.424 75.33 256.149 75.555 255.839 75.855V81H254.114ZM265.087 81.18C264.167 81.18 263.432 80.84 262.882 80.16C262.332 79.48 262.057 78.535 262.057 77.325C262.057 76.525 262.202 75.835 262.492 75.255C262.792 74.675 263.177 74.23 263.647 73.92C264.127 73.61 264.637 73.455 265.177 73.455C265.597 73.455 265.952 73.525 266.242 73.665C266.542 73.805 266.832 74.005 267.112 74.265L267.052 73.08V70.41H268.777V81H267.352L267.232 80.205H267.172C266.902 80.475 266.587 80.705 266.227 80.895C265.867 81.085 265.487 81.18 265.087 81.18ZM265.507 79.755C265.797 79.755 266.067 79.69 266.317 79.56C266.567 79.42 266.812 79.21 267.052 78.93V75.495C266.802 75.265 266.552 75.105 266.302 75.015C266.052 74.925 265.802 74.88 265.552 74.88C265.232 74.88 264.942 74.975 264.682 75.165C264.432 75.355 264.227 75.63 264.067 75.99C263.917 76.35 263.842 76.79 263.842 77.31C263.842 78.1 263.987 78.705 264.277 79.125C264.567 79.545 264.977 79.755 265.507 79.755ZM270.974 81V73.635H272.699V81H270.974ZM271.829 72.345C271.529 72.345 271.279 72.255 271.079 72.075C270.889 71.895 270.794 71.655 270.794 71.355C270.794 71.055 270.889 70.82 271.079 70.65C271.279 70.47 271.529 70.38 271.829 70.38C272.139 70.38 272.389 70.47 272.579 70.65C272.769 70.82 272.864 71.055 272.864 71.355C272.864 71.655 272.769 71.895 272.579 72.075C272.389 72.255 272.139 72.345 271.829 72.345ZM277.495 81.15C276.645 81.15 276.04 80.905 275.68 80.415C275.33 79.915 275.155 79.27 275.155 78.48V75H274.105V73.71L275.245 73.635L275.455 71.325H276.895V73.635H278.77V75H276.895V78.48C276.895 78.91 276.98 79.235 277.15 79.455C277.32 79.665 277.58 79.77 277.93 79.77C278.06 79.77 278.19 79.76 278.32 79.74C278.45 79.72 278.575 79.68 278.695 79.62L279.01 80.835C278.82 80.925 278.595 81 278.335 81.06C278.075 81.12 277.795 81.15 277.495 81.15ZM280.32 81V73.635H282.045V81H280.32ZM281.175 72.345C280.875 72.345 280.625 72.255 280.425 72.075C280.235 71.895 280.14 71.655 280.14 71.355C280.14 71.055 280.235 70.82 280.425 70.65C280.625 70.47 280.875 70.38 281.175 70.38C281.485 70.38 281.735 70.47 281.925 70.65C282.115 70.82 282.21 71.055 282.21 71.355C282.21 71.655 282.115 71.895 281.925 72.075C281.735 72.255 281.485 72.345 281.175 72.345ZM287.26 81.18C286.65 81.18 286.08 81.03 285.55 80.73C285.02 80.42 284.59 79.98 284.26 79.41C283.93 78.83 283.765 78.135 283.765 77.325C283.765 76.505 283.93 75.81 284.26 75.24C284.59 74.66 285.02 74.22 285.55 73.92C286.08 73.61 286.65 73.455 287.26 73.455C287.88 73.455 288.455 73.61 288.985 73.92C289.515 74.22 289.945 74.66 290.275 75.24C290.605 75.81 290.77 76.505 290.77 77.325C290.77 78.135 290.605 78.83 290.275 79.41C289.945 79.98 289.515 80.42 288.985 80.73C288.455 81.03 287.88 81.18 287.26 81.18ZM287.26 79.77C287.62 79.77 287.93 79.67 288.19 79.47C288.45 79.27 288.65 78.985 288.79 78.615C288.93 78.245 289 77.815 289 77.325C289 76.835 288.93 76.405 288.79 76.035C288.65 75.665 288.45 75.38 288.19 75.18C287.93 74.97 287.62 74.865 287.26 74.865C286.9 74.865 286.59 74.97 286.33 75.18C286.08 75.38 285.885 75.665 285.745 76.035C285.605 76.405 285.535 76.835 285.535 77.325C285.535 77.815 285.605 78.245 285.745 78.615C285.885 78.985 286.08 79.27 286.33 79.47C286.59 79.67 286.9 79.77 287.26 79.77ZM292.478 81V73.635H293.903L294.023 74.625H294.083C294.413 74.305 294.773 74.03 295.163 73.8C295.553 73.57 295.998 73.455 296.498 73.455C297.288 73.455 297.863 73.71 298.223 74.22C298.583 74.73 298.763 75.45 298.763 76.38V81H297.038V76.605C297.038 75.995 296.948 75.565 296.768 75.315C296.588 75.065 296.293 74.94 295.883 74.94C295.563 74.94 295.278 75.02 295.028 75.18C294.788 75.33 294.513 75.555 294.203 75.855V81H292.478Z" fill="#F4F6F4"/>
<path d="M427.965 224V214.19H433.875V215.66H429.705V218.165H433.23V219.635H429.705V222.53H434.025V224H427.965ZM434.445 224L436.785 220.16L434.595 216.635H436.455L437.28 218.03C437.39 218.23 437.5 218.435 437.61 218.645C437.72 218.855 437.835 219.065 437.955 219.275H438.015C438.105 219.065 438.2 218.855 438.3 218.645C438.4 218.435 438.495 218.23 438.585 218.03L439.29 216.635H441.075L438.9 220.355L441.24 224H439.38L438.48 222.545C438.36 222.325 438.235 222.105 438.105 221.885C437.985 221.665 437.86 221.45 437.73 221.24H437.67C437.56 221.45 437.45 221.665 437.34 221.885C437.23 222.095 437.125 222.315 437.025 222.545L436.245 224H434.445ZM442.552 226.91V216.635H443.977L444.097 217.415H444.157C444.467 217.145 444.812 216.92 445.192 216.74C445.572 216.55 445.967 216.455 446.377 216.455C446.987 216.455 447.507 216.61 447.937 216.92C448.367 217.23 448.697 217.665 448.927 218.225C449.157 218.785 449.272 219.445 449.272 220.205C449.272 221.045 449.122 221.76 448.822 222.35C448.522 222.94 448.132 223.395 447.652 223.715C447.182 224.025 446.672 224.18 446.122 224.18C445.802 224.18 445.482 224.11 445.162 223.97C444.842 223.83 444.532 223.63 444.232 223.37L444.277 224.6V226.91H442.552ZM445.762 222.755C446.092 222.755 446.387 222.66 446.647 222.47C446.907 222.28 447.112 222 447.262 221.63C447.412 221.25 447.487 220.78 447.487 220.22C447.487 219.73 447.432 219.31 447.322 218.96C447.212 218.61 447.037 218.345 446.797 218.165C446.567 217.975 446.267 217.88 445.897 217.88C445.627 217.88 445.362 217.95 445.102 218.09C444.842 218.22 444.567 218.425 444.277 218.705V222.14C444.547 222.36 444.807 222.52 445.057 222.62C445.317 222.71 445.552 222.755 445.762 222.755ZM452.698 224.15C452.288 224.15 451.958 224.07 451.708 223.91C451.468 223.74 451.293 223.5 451.183 223.19C451.073 222.88 451.018 222.51 451.018 222.08V213.41H452.743V222.17C452.743 222.39 452.783 222.54 452.863 222.62C452.943 222.7 453.033 222.74 453.133 222.74C453.173 222.74 453.208 222.74 453.238 222.74C453.278 222.73 453.328 222.72 453.388 222.71L453.613 224C453.513 224.04 453.383 224.075 453.223 224.105C453.073 224.135 452.898 224.15 452.698 224.15ZM458.106 224.18C457.496 224.18 456.926 224.03 456.396 223.73C455.866 223.42 455.436 222.98 455.106 222.41C454.776 221.83 454.611 221.135 454.611 220.325C454.611 219.505 454.776 218.81 455.106 218.24C455.436 217.66 455.866 217.22 456.396 216.92C456.926 216.61 457.496 216.455 458.106 216.455C458.726 216.455 459.301 216.61 459.831 216.92C460.361 217.22 460.791 217.66 461.121 218.24C461.451 218.81 461.616 219.505 461.616 220.325C461.616 221.135 461.451 221.83 461.121 222.41C460.791 222.98 460.361 223.42 459.831 223.73C459.301 224.03 458.726 224.18 458.106 224.18ZM458.106 222.77C458.466 222.77 458.776 222.67 459.036 222.47C459.296 222.27 459.496 221.985 459.636 221.615C459.776 221.245 459.846 220.815 459.846 220.325C459.846 219.835 459.776 219.405 459.636 219.035C459.496 218.665 459.296 218.38 459.036 218.18C458.776 217.97 458.466 217.865 458.106 217.865C457.746 217.865 457.436 217.97 457.176 218.18C456.926 218.38 456.731 218.665 456.591 219.035C456.451 219.405 456.381 219.835 456.381 220.325C456.381 220.815 456.451 221.245 456.591 221.615C456.731 221.985 456.926 222.27 457.176 222.47C457.436 222.67 457.746 222.77 458.106 222.77ZM463.323 224V216.635H464.748L464.868 217.94H464.928C465.188 217.46 465.498 217.095 465.858 216.845C466.228 216.585 466.613 216.455 467.013 216.455C467.203 216.455 467.363 216.465 467.493 216.485C467.623 216.505 467.743 216.545 467.853 216.605L467.508 218.075C467.388 218.045 467.278 218.025 467.178 218.015C467.078 217.995 466.948 217.985 466.788 217.985C466.498 217.985 466.193 218.1 465.873 218.33C465.553 218.55 465.278 218.94 465.048 219.5V224H463.323ZM471.937 224.18C471.247 224.18 470.622 224.03 470.062 223.73C469.512 223.42 469.077 222.98 468.757 222.41C468.437 221.83 468.277 221.13 468.277 220.31C468.277 219.51 468.442 218.825 468.772 218.255C469.102 217.675 469.527 217.23 470.047 216.92C470.567 216.61 471.117 216.455 471.697 216.455C472.367 216.455 472.927 216.605 473.377 216.905C473.827 217.205 474.162 217.62 474.382 218.15C474.612 218.67 474.727 219.27 474.727 219.95C474.727 220.11 474.717 220.265 474.697 220.415C474.687 220.565 474.667 220.71 474.637 220.85H469.567V219.53H473.197C473.197 219 473.077 218.585 472.837 218.285C472.597 217.975 472.227 217.82 471.727 217.82C471.447 217.82 471.172 217.895 470.902 218.045C470.642 218.195 470.422 218.45 470.242 218.81C470.072 219.17 469.987 219.67 469.987 220.31C469.987 220.89 470.087 221.365 470.287 221.735C470.487 222.095 470.752 222.365 471.082 222.545C471.412 222.715 471.767 222.8 472.147 222.8C472.467 222.8 472.767 222.755 473.047 222.665C473.337 222.575 473.607 222.45 473.857 222.29L474.457 223.4C474.117 223.64 473.727 223.83 473.287 223.97C472.857 224.11 472.407 224.18 471.937 224.18ZM425.288 243.91V233.635H426.713L426.833 234.415H426.893C427.203 234.145 427.548 233.92 427.928 233.74C428.308 233.55 428.703 233.455 429.113 233.455C429.723 233.455 430.243 233.61 430.673 233.92C431.103 234.23 431.433 234.665 431.663 235.225C431.893 235.785 432.008 236.445 432.008 237.205C432.008 238.045 431.858 238.76 431.558 239.35C431.258 239.94 430.868 240.395 430.388 240.715C429.918 241.025 429.408 241.18 428.858 241.18C428.538 241.18 428.218 241.11 427.898 240.97C427.578 240.83 427.268 240.63 426.968 240.37L427.013 241.6V243.91H425.288ZM428.498 239.755C428.828 239.755 429.123 239.66 429.383 239.47C429.643 239.28 429.848 239 429.998 238.63C430.148 238.25 430.223 237.78 430.223 237.22C430.223 236.73 430.168 236.31 430.058 235.96C429.948 235.61 429.773 235.345 429.533 235.165C429.303 234.975 429.003 234.88 428.633 234.88C428.363 234.88 428.098 234.95 427.838 235.09C427.578 235.22 427.303 235.425 427.013 235.705V239.14C427.283 239.36 427.543 239.52 427.793 239.62C428.053 239.71 428.288 239.755 428.498 239.755ZM436.77 241.18C436.16 241.18 435.59 241.03 435.06 240.73C434.53 240.42 434.1 239.98 433.77 239.41C433.44 238.83 433.275 238.135 433.275 237.325C433.275 236.505 433.44 235.81 433.77 235.24C434.1 234.66 434.53 234.22 435.06 233.92C435.59 233.61 436.16 233.455 436.77 233.455C437.39 233.455 437.965 233.61 438.495 233.92C439.025 234.22 439.455 234.66 439.785 235.24C440.115 235.81 440.28 236.505 440.28 237.325C440.28 238.135 440.115 238.83 439.785 239.41C439.455 239.98 439.025 240.42 438.495 240.73C437.965 241.03 437.39 241.18 436.77 241.18ZM436.77 239.77C437.13 239.77 437.44 239.67 437.7 239.47C437.96 239.27 438.16 238.985 438.3 238.615C438.44 238.245 438.51 237.815 438.51 237.325C438.51 236.835 438.44 236.405 438.3 236.035C438.16 235.665 437.96 235.38 437.7 235.18C437.44 234.97 437.13 234.865 436.77 234.865C436.41 234.865 436.1 234.97 435.84 235.18C435.59 235.38 435.395 235.665 435.255 236.035C435.115 236.405 435.045 236.835 435.045 237.325C435.045 237.815 435.115 238.245 435.255 238.615C435.395 238.985 435.59 239.27 435.84 239.47C436.1 239.67 436.41 239.77 436.77 239.77ZM443.984 241.18C443.474 241.18 442.969 241.085 442.469 240.895C441.979 240.705 441.554 240.44 441.194 240.1L441.959 239.11C442.289 239.38 442.624 239.575 442.964 239.695C443.304 239.815 443.664 239.875 444.044 239.875C444.444 239.875 444.739 239.79 444.929 239.62C445.119 239.45 445.214 239.24 445.214 238.99C445.214 238.79 445.139 238.62 444.989 238.48C444.849 238.34 444.664 238.22 444.434 238.12C444.204 238.02 443.949 237.92 443.669 237.82C443.309 237.69 442.974 237.535 442.664 237.355C442.354 237.165 442.099 236.935 441.899 236.665C441.709 236.385 441.614 236.05 441.614 235.66C441.614 235.01 441.854 234.48 442.334 234.07C442.814 233.66 443.464 233.455 444.284 233.455C444.784 233.455 445.244 233.54 445.664 233.71C446.084 233.87 446.444 234.08 446.744 234.34L445.979 235.315C445.719 235.125 445.454 234.985 445.184 234.895C444.914 234.805 444.629 234.76 444.329 234.76C443.959 234.76 443.684 234.84 443.504 235C443.324 235.16 443.234 235.35 443.234 235.57C443.234 235.75 443.289 235.905 443.399 236.035C443.519 236.155 443.689 236.265 443.909 236.365C444.129 236.455 444.394 236.55 444.704 236.65C445.084 236.78 445.439 236.94 445.769 237.13C446.099 237.31 446.359 237.545 446.549 237.835C446.749 238.115 446.849 238.47 446.849 238.9C446.849 239.32 446.739 239.705 446.519 240.055C446.299 240.395 445.974 240.67 445.544 240.88C445.124 241.08 444.604 241.18 443.984 241.18ZM450.444 241.18C449.934 241.18 449.429 241.085 448.929 240.895C448.439 240.705 448.014 240.44 447.654 240.1L448.419 239.11C448.749 239.38 449.084 239.575 449.424 239.695C449.764 239.815 450.124 239.875 450.504 239.875C450.904 239.875 451.199 239.79 451.389 239.62C451.579 239.45 451.674 239.24 451.674 238.99C451.674 238.79 451.599 238.62 451.449 238.48C451.309 238.34 451.124 238.22 450.894 238.12C450.664 238.02 450.409 237.92 450.129 237.82C449.769 237.69 449.434 237.535 449.124 237.355C448.814 237.165 448.559 236.935 448.359 236.665C448.169 236.385 448.074 236.05 448.074 235.66C448.074 235.01 448.314 234.48 448.794 234.07C449.274 233.66 449.924 233.455 450.744 233.455C451.244 233.455 451.704 233.54 452.124 233.71C452.544 233.87 452.904 234.08 453.204 234.34L452.439 235.315C452.179 235.125 451.914 234.985 451.644 234.895C451.374 234.805 451.089 234.76 450.789 234.76C450.419 234.76 450.144 234.84 449.964 235C449.784 235.16 449.694 235.35 449.694 235.57C449.694 235.75 449.749 235.905 449.859 236.035C449.979 236.155 450.149 236.265 450.369 236.365C450.589 236.455 450.854 236.55 451.164 236.65C451.544 236.78 451.899 236.94 452.229 237.13C452.559 237.31 452.819 237.545 453.009 237.835C453.209 238.115 453.309 238.47 453.309 238.9C453.309 239.32 453.199 239.705 452.979 240.055C452.759 240.395 452.434 240.67 452.004 240.88C451.584 241.08 451.064 241.18 450.444 241.18ZM454.849 241V233.635H456.574V241H454.849ZM455.704 232.345C455.404 232.345 455.154 232.255 454.954 232.075C454.764 231.895 454.669 231.655 454.669 231.355C454.669 231.055 454.764 230.82 454.954 230.65C455.154 230.47 455.404 230.38 455.704 230.38C456.014 230.38 456.264 230.47 456.454 230.65C456.644 230.82 456.739 231.055 456.739 231.355C456.739 231.655 456.644 231.895 456.454 232.075C456.264 232.255 456.014 232.345 455.704 232.345ZM462.345 241.18C462.015 241.18 461.675 241.1 461.325 240.94C460.985 240.77 460.655 240.53 460.335 240.22H460.29L460.14 241H458.775V230.41H460.5V233.14L460.455 234.37C460.765 234.1 461.1 233.88 461.46 233.71C461.83 233.54 462.205 233.455 462.585 233.455C463.195 233.455 463.715 233.61 464.145 233.92C464.585 234.23 464.92 234.665 465.15 235.225C465.38 235.775 465.495 236.43 465.495 237.19C465.495 238.03 465.345 238.75 465.045 239.35C464.745 239.94 464.355 240.395 463.875 240.715C463.405 241.025 462.895 241.18 462.345 241.18ZM461.985 239.755C462.315 239.755 462.61 239.66 462.87 239.47C463.13 239.28 463.335 239 463.485 238.63C463.635 238.25 463.71 237.78 463.71 237.22C463.71 236.73 463.655 236.31 463.545 235.96C463.435 235.61 463.26 235.345 463.02 235.165C462.79 234.975 462.49 234.88 462.12 234.88C461.85 234.88 461.585 234.95 461.325 235.09C461.065 235.22 460.79 235.425 460.5 235.705V239.14C460.76 239.36 461.02 239.52 461.28 239.62C461.54 239.71 461.775 239.755 461.985 239.755ZM468.907 241.15C468.497 241.15 468.167 241.07 467.917 240.91C467.677 240.74 467.502 240.5 467.392 240.19C467.282 239.88 467.227 239.51 467.227 239.08V230.41H468.952V239.17C468.952 239.39 468.992 239.54 469.072 239.62C469.152 239.7 469.242 239.74 469.342 239.74C469.382 239.74 469.417 239.74 469.447 239.74C469.487 239.73 469.537 239.72 469.597 239.71L469.822 241C469.722 241.04 469.592 241.075 469.432 241.105C469.282 241.135 469.107 241.15 468.907 241.15ZM474.464 241.18C473.774 241.18 473.149 241.03 472.589 240.73C472.039 240.42 471.604 239.98 471.284 239.41C470.964 238.83 470.804 238.13 470.804 237.31C470.804 236.51 470.969 235.825 471.299 235.255C471.629 234.675 472.054 234.23 472.574 233.92C473.094 233.61 473.644 233.455 474.224 233.455C474.894 233.455 475.454 233.605 475.904 233.905C476.354 234.205 476.689 234.62 476.909 235.15C477.139 235.67 477.254 236.27 477.254 236.95C477.254 237.11 477.244 237.265 477.224 237.415C477.214 237.565 477.194 237.71 477.164 237.85H472.094V236.53H475.724C475.724 236 475.604 235.585 475.364 235.285C475.124 234.975 474.754 234.82 474.254 234.82C473.974 234.82 473.699 234.895 473.429 235.045C473.169 235.195 472.949 235.45 472.769 235.81C472.599 236.17 472.514 236.67 472.514 237.31C472.514 237.89 472.614 238.365 472.814 238.735C473.014 239.095 473.279 239.365 473.609 239.545C473.939 239.715 474.294 239.8 474.674 239.8C474.994 239.8 475.294 239.755 475.574 239.665C475.864 239.575 476.134 239.45 476.384 239.29L476.984 240.4C476.644 240.64 476.254 240.83 475.814 240.97C475.384 241.11 474.934 241.18 474.464 241.18ZM424.384 258.18C423.874 258.18 423.369 258.085 422.869 257.895C422.379 257.705 421.954 257.44 421.594 257.1L422.359 256.11C422.689 256.38 423.024 256.575 423.364 256.695C423.704 256.815 424.064 256.875 424.444 256.875C424.844 256.875 425.139 256.79 425.329 256.62C425.519 256.45 425.614 256.24 425.614 255.99C425.614 255.79 425.539 255.62 425.389 255.48C425.249 255.34 425.064 255.22 424.834 255.12C424.604 255.02 424.349 254.92 424.069 254.82C423.709 254.69 423.374 254.535 423.064 254.355C422.754 254.165 422.499 253.935 422.299 253.665C422.109 253.385 422.014 253.05 422.014 252.66C422.014 252.01 422.254 251.48 422.734 251.07C423.214 250.66 423.864 250.455 424.684 250.455C425.184 250.455 425.644 250.54 426.064 250.71C426.484 250.87 426.844 251.08 427.144 251.34L426.379 252.315C426.119 252.125 425.854 251.985 425.584 251.895C425.314 251.805 425.029 251.76 424.729 251.76C424.359 251.76 424.084 251.84 423.904 252C423.724 252.16 423.634 252.35 423.634 252.57C423.634 252.75 423.689 252.905 423.799 253.035C423.919 253.155 424.089 253.265 424.309 253.365C424.529 253.455 424.794 253.55 425.104 253.65C425.484 253.78 425.839 253.94 426.169 254.13C426.499 254.31 426.759 254.545 426.949 254.835C427.149 255.115 427.249 255.47 427.249 255.9C427.249 256.32 427.139 256.705 426.919 257.055C426.699 257.395 426.374 257.67 425.944 257.88C425.524 258.08 425.004 258.18 424.384 258.18ZM431.804 258.18C431.194 258.18 430.624 258.03 430.094 257.73C429.564 257.42 429.134 256.98 428.804 256.41C428.474 255.83 428.309 255.135 428.309 254.325C428.309 253.505 428.474 252.81 428.804 252.24C429.134 251.66 429.564 251.22 430.094 250.92C430.624 250.61 431.194 250.455 431.804 250.455C432.424 250.455 432.999 250.61 433.529 250.92C434.059 251.22 434.489 251.66 434.819 252.24C435.149 252.81 435.314 253.505 435.314 254.325C435.314 255.135 435.149 255.83 434.819 256.41C434.489 256.98 434.059 257.42 433.529 257.73C432.999 258.03 432.424 258.18 431.804 258.18ZM431.804 256.77C432.164 256.77 432.474 256.67 432.734 256.47C432.994 256.27 433.194 255.985 433.334 255.615C433.474 255.245 433.544 254.815 433.544 254.325C433.544 253.835 433.474 253.405 433.334 253.035C433.194 252.665 432.994 252.38 432.734 252.18C432.474 251.97 432.164 251.865 431.804 251.865C431.444 251.865 431.134 251.97 430.874 252.18C430.624 252.38 430.429 252.665 430.289 253.035C430.149 253.405 430.079 253.835 430.079 254.325C430.079 254.815 430.149 255.245 430.289 255.615C430.429 255.985 430.624 256.27 430.874 256.47C431.134 256.67 431.444 256.77 431.804 256.77ZM438.702 258.15C438.292 258.15 437.962 258.07 437.712 257.91C437.472 257.74 437.297 257.5 437.187 257.19C437.077 256.88 437.022 256.51 437.022 256.08V247.41H438.747V256.17C438.747 256.39 438.787 256.54 438.867 256.62C438.947 256.7 439.037 256.74 439.137 256.74C439.177 256.74 439.212 256.74 439.242 256.74C439.282 256.73 439.332 256.72 439.392 256.71L439.617 258C439.517 258.04 439.387 258.075 439.227 258.105C439.077 258.135 438.902 258.15 438.702 258.15ZM443.284 258.18C442.494 258.18 441.919 257.925 441.559 257.415C441.199 256.905 441.019 256.185 441.019 255.255V250.635H442.744V255.03C442.744 255.64 442.834 256.07 443.014 256.32C443.194 256.57 443.484 256.695 443.884 256.695C444.204 256.695 444.484 256.615 444.724 256.455C444.974 256.295 445.239 256.035 445.519 255.675V250.635H447.244V258H445.834L445.699 256.92H445.654C445.334 257.3 444.984 257.605 444.604 257.835C444.224 258.065 443.784 258.18 443.284 258.18ZM452.024 258.15C451.174 258.15 450.569 257.905 450.209 257.415C449.859 256.915 449.684 256.27 449.684 255.48V252H448.634V250.71L449.774 250.635L449.984 248.325H451.424V250.635H453.299V252H451.424V255.48C451.424 255.91 451.509 256.235 451.679 256.455C451.849 256.665 452.109 256.77 452.459 256.77C452.589 256.77 452.719 256.76 452.849 256.74C452.979 256.72 453.104 256.68 453.224 256.62L453.539 257.835C453.349 257.925 453.124 258 452.864 258.06C452.604 258.12 452.324 258.15 452.024 258.15ZM454.849 258V250.635H456.574V258H454.849ZM455.704 249.345C455.404 249.345 455.154 249.255 454.954 249.075C454.764 248.895 454.669 248.655 454.669 248.355C454.669 248.055 454.764 247.82 454.954 247.65C455.154 247.47 455.404 247.38 455.704 247.38C456.014 247.38 456.264 247.47 456.454 247.65C456.644 247.82 456.739 248.055 456.739 248.355C456.739 248.655 456.644 248.895 456.454 249.075C456.264 249.255 456.014 249.345 455.704 249.345ZM461.79 258.18C461.18 258.18 460.61 258.03 460.08 257.73C459.55 257.42 459.12 256.98 458.79 256.41C458.46 255.83 458.295 255.135 458.295 254.325C458.295 253.505 458.46 252.81 458.79 252.24C459.12 251.66 459.55 251.22 460.08 250.92C460.61 250.61 461.18 250.455 461.79 250.455C462.41 250.455 462.985 250.61 463.515 250.92C464.045 251.22 464.475 251.66 464.805 252.24C465.135 252.81 465.3 253.505 465.3 254.325C465.3 255.135 465.135 255.83 464.805 256.41C464.475 256.98 464.045 257.42 463.515 257.73C462.985 258.03 462.41 258.18 461.79 258.18ZM461.79 256.77C462.15 256.77 462.46 256.67 462.72 256.47C462.98 256.27 463.18 255.985 463.32 255.615C463.46 255.245 463.53 254.815 463.53 254.325C463.53 253.835 463.46 253.405 463.32 253.035C463.18 252.665 462.98 252.38 462.72 252.18C462.46 251.97 462.15 251.865 461.79 251.865C461.43 251.865 461.12 251.97 460.86 252.18C460.61 252.38 460.415 252.665 460.275 253.035C460.135 253.405 460.065 253.835 460.065 254.325C460.065 254.815 460.135 255.245 460.275 255.615C460.415 255.985 460.61 256.27 460.86 256.47C461.12 256.67 461.43 256.77 461.79 256.77ZM467.007 258V250.635H468.432L468.552 251.625H468.612C468.942 251.305 469.302 251.03 469.692 250.8C470.082 250.57 470.527 250.455 471.027 250.455C471.817 250.455 472.392 250.71 472.752 251.22C473.112 251.73 473.292 252.45 473.292 253.38V258H471.567V253.605C471.567 252.995 471.477 252.565 471.297 252.315C471.117 252.065 470.822 251.94 470.412 251.94C470.092 251.94 469.807 252.02 469.557 252.18C469.317 252.33 469.042 252.555 468.732 252.855V258H467.007ZM477.456 258.18C476.946 258.18 476.441 258.085 475.941 257.895C475.451 257.705 475.026 257.44 474.666 257.1L475.431 256.11C475.761 256.38 476.096 256.575 476.436 256.695C476.776 256.815 477.136 256.875 477.516 256.875C477.916 256.875 478.211 256.79 478.401 256.62C478.591 256.45 478.686 256.24 478.686 255.99C478.686 255.79 478.611 255.62 478.461 255.48C478.321 255.34 478.136 255.22 477.906 255.12C477.676 255.02 477.421 254.92 477.141 254.82C476.781 254.69 476.446 254.535 476.136 254.355C475.826 254.165 475.571 253.935 475.371 253.665C475.181 253.385 475.086 253.05 475.086 252.66C475.086 252.01 475.326 251.48 475.806 251.07C476.286 250.66 476.936 250.455 477.756 250.455C478.256 250.455 478.716 250.54 479.136 250.71C479.556 250.87 479.916 251.08 480.216 251.34L479.451 252.315C479.191 252.125 478.926 251.985 478.656 251.895C478.386 251.805 478.101 251.76 477.801 251.76C477.431 251.76 477.156 251.84 476.976 252C476.796 252.16 476.706 252.35 476.706 252.57C476.706 252.75 476.761 252.905 476.871 253.035C476.991 253.155 477.161 253.265 477.381 253.365C477.601 253.455 477.866 253.55 478.176 253.65C478.556 253.78 478.911 253.94 479.241 254.13C479.571 254.31 479.831 254.545 480.021 254.835C480.221 255.115 480.321 255.47 480.321 255.9C480.321 256.32 480.211 256.705 479.991 257.055C479.771 257.395 479.446 257.67 479.016 257.88C478.596 258.08 478.076 258.18 477.456 258.18Z" fill="#F4F6F4"/>
<path d="M255.715 411.18C255.035 411.18 254.39 411.055 253.78 410.805C253.18 410.555 252.645 410.2 252.175 409.74L253.12 408.6C253.47 408.94 253.875 409.205 254.335 409.395C254.805 409.575 255.275 409.665 255.745 409.665C256.305 409.665 256.73 409.55 257.02 409.32C257.31 409.09 257.455 408.785 257.455 408.405C257.455 408.135 257.39 407.92 257.26 407.76C257.13 407.59 256.95 407.445 256.72 407.325C256.5 407.205 256.24 407.085 255.94 406.965L254.59 406.38C254.27 406.24 253.955 406.06 253.645 405.84C253.345 405.61 253.095 405.33 252.895 405C252.705 404.66 252.61 404.25 252.61 403.77C252.61 403.25 252.75 402.785 253.03 402.375C253.32 401.955 253.71 401.625 254.2 401.385C254.7 401.135 255.27 401.01 255.91 401.01C256.5 401.01 257.055 401.12 257.575 401.34C258.105 401.55 258.555 401.84 258.925 402.21L258.01 403.35C257.69 403.09 257.355 402.89 257.005 402.75C256.655 402.6 256.29 402.525 255.91 402.525C255.45 402.525 255.075 402.63 254.785 402.84C254.505 403.04 254.365 403.32 254.365 403.68C254.365 403.93 254.435 404.14 254.575 404.31C254.725 404.47 254.92 404.61 255.16 404.73C255.41 404.84 255.665 404.95 255.925 405.06L257.26 405.615C257.65 405.785 257.995 405.985 258.295 406.215C258.595 406.445 258.825 406.725 258.985 407.055C259.155 407.385 259.24 407.79 259.24 408.27C259.24 408.8 259.1 409.285 258.82 409.725C258.54 410.165 258.135 410.52 257.605 410.79C257.085 411.05 256.455 411.18 255.715 411.18ZM264.039 411.18C263.349 411.18 262.724 411.03 262.164 410.73C261.614 410.42 261.179 409.98 260.859 409.41C260.539 408.83 260.379 408.13 260.379 407.31C260.379 406.51 260.544 405.825 260.874 405.255C261.204 404.675 261.629 404.23 262.149 403.92C262.669 403.61 263.219 403.455 263.799 403.455C264.469 403.455 265.029 403.605 265.479 403.905C265.929 404.205 266.264 404.62 266.484 405.15C266.714 405.67 266.829 406.27 266.829 406.95C266.829 407.11 266.819 407.265 266.799 407.415C266.789 407.565 266.769 407.71 266.739 407.85H261.669V406.53H265.299C265.299 406 265.179 405.585 264.939 405.285C264.699 404.975 264.329 404.82 263.829 404.82C263.549 404.82 263.274 404.895 263.004 405.045C262.744 405.195 262.524 405.45 262.344 405.81C262.174 406.17 262.089 406.67 262.089 407.31C262.089 407.89 262.189 408.365 262.389 408.735C262.589 409.095 262.854 409.365 263.184 409.545C263.514 409.715 263.869 409.8 264.249 409.8C264.569 409.8 264.869 409.755 265.149 409.665C265.439 409.575 265.709 409.45 265.959 409.29L266.559 410.4C266.219 410.64 265.829 410.83 265.389 410.97C264.959 411.11 264.509 411.18 264.039 411.18ZM270.925 411.15C270.075 411.15 269.47 410.905 269.11 410.415C268.76 409.915 268.585 409.27 268.585 408.48V405H267.535V403.71L268.675 403.635L268.885 401.325H270.325V403.635H272.2V405H270.325V408.48C270.325 408.91 270.41 409.235 270.58 409.455C270.75 409.665 271.01 409.77 271.36 409.77C271.49 409.77 271.62 409.76 271.75 409.74C271.88 409.72 272.005 409.68 272.125 409.62L272.44 410.835C272.25 410.925 272.025 411 271.765 411.06C271.505 411.12 271.225 411.15 270.925 411.15ZM278.538 411.18C278.108 411.18 277.728 411.09 277.398 410.91C277.068 410.73 276.808 410.48 276.618 410.16C276.438 409.83 276.348 409.45 276.348 409.02C276.348 408.19 276.693 407.565 277.383 407.145C278.083 406.715 279.188 406.42 280.698 406.26C280.688 406.01 280.638 405.78 280.548 405.57C280.468 405.36 280.328 405.195 280.128 405.075C279.938 404.945 279.678 404.88 279.348 404.88C278.988 404.88 278.633 404.945 278.283 405.075C277.943 405.205 277.608 405.37 277.278 405.57L276.648 404.4C276.918 404.23 277.213 404.075 277.533 403.935C277.853 403.785 278.193 403.67 278.553 403.59C278.913 403.5 279.288 403.455 279.678 403.455C280.288 403.455 280.793 403.58 281.193 403.83C281.603 404.07 281.908 404.43 282.108 404.91C282.318 405.38 282.423 405.96 282.423 406.65V411H280.998L280.878 410.19H280.818C280.478 410.47 280.123 410.705 279.753 410.895C279.383 411.085 278.978 411.18 278.538 411.18ZM279.078 409.77C279.378 409.77 279.653 409.71 279.903 409.59C280.163 409.46 280.428 409.27 280.698 409.02V407.46C280.028 407.54 279.498 407.645 279.108 407.775C278.718 407.905 278.438 408.065 278.268 408.255C278.108 408.435 278.028 408.65 278.028 408.9C278.028 409.21 278.128 409.435 278.328 409.575C278.528 409.705 278.778 409.77 279.078 409.77ZM251.85 428.18C251.17 428.18 250.56 428.03 250.02 427.73C249.48 427.42 249.05 426.98 248.73 426.41C248.42 425.83 248.265 425.135 248.265 424.325C248.265 423.505 248.435 422.81 248.775 422.24C249.115 421.66 249.565 421.22 250.125 420.92C250.695 420.61 251.305 420.455 251.955 420.455C252.425 420.455 252.835 420.535 253.185 420.695C253.545 420.845 253.855 421.04 254.115 421.28L253.29 422.36C253.13 422.21 252.945 422.09 252.735 422C252.535 421.91 252.305 421.865 252.045 421.865C251.655 421.865 251.31 421.97 251.01 422.18C250.71 422.38 250.47 422.665 250.29 423.035C250.12 423.395 250.035 423.825 250.035 424.325C250.035 424.815 250.12 425.245 250.29 425.615C250.46 425.975 250.69 426.26 250.98 426.47C251.28 426.67 251.625 426.77 252.015 426.77C252.305 426.77 252.575 426.715 252.825 426.605C253.085 426.495 253.315 426.355 253.515 426.185L254.22 427.25C253.91 427.53 253.55 427.755 253.14 427.925C252.74 428.095 252.31 428.18 251.85 428.18ZM258.322 428.18C257.712 428.18 257.142 428.03 256.612 427.73C256.082 427.42 255.652 426.98 255.322 426.41C254.992 425.83 254.827 425.135 254.827 424.325C254.827 423.505 254.992 422.81 255.322 422.24C255.652 421.66 256.082 421.22 256.612 420.92C257.142 420.61 257.712 420.455 258.322 420.455C258.942 420.455 259.517 420.61 260.047 420.92C260.577 421.22 261.007 421.66 261.337 422.24C261.667 422.81 261.832 423.505 261.832 424.325C261.832 425.135 261.667 425.83 261.337 426.41C261.007 426.98 260.577 427.42 260.047 427.73C259.517 428.03 258.942 428.18 258.322 428.18ZM258.322 426.77C258.682 426.77 258.992 426.67 259.252 426.47C259.512 426.27 259.712 425.985 259.852 425.615C259.992 425.245 260.062 424.815 260.062 424.325C260.062 423.835 259.992 423.405 259.852 423.035C259.712 422.665 259.512 422.38 259.252 422.18C258.992 421.97 258.682 421.865 258.322 421.865C257.962 421.865 257.652 421.97 257.392 422.18C257.142 422.38 256.947 422.665 256.807 423.035C256.667 423.405 256.597 423.835 256.597 424.325C256.597 424.815 256.667 425.245 256.807 425.615C256.947 425.985 257.142 426.27 257.392 426.47C257.652 426.67 257.962 426.77 258.322 426.77ZM265.73 428.18C264.94 428.18 264.365 427.925 264.005 427.415C263.645 426.905 263.465 426.185 263.465 425.255V420.635H265.19V425.03C265.19 425.64 265.28 426.07 265.46 426.32C265.64 426.57 265.93 426.695 266.33 426.695C266.65 426.695 266.93 426.615 267.17 426.455C267.42 426.295 267.685 426.035 267.965 425.675V420.635H269.69V428H268.28L268.145 426.92H268.1C267.78 427.3 267.43 427.605 267.05 427.835C266.67 428.065 266.23 428.18 265.73 428.18ZM271.875 428V420.635H273.3L273.42 421.94H273.48C273.74 421.46 274.05 421.095 274.41 420.845C274.78 420.585 275.165 420.455 275.565 420.455C275.755 420.455 275.915 420.465 276.045 420.485C276.175 420.505 276.295 420.545 276.405 420.605L276.06 422.075C275.94 422.045 275.83 422.025 275.73 422.015C275.63 421.995 275.5 421.985 275.34 421.985C275.05 421.985 274.745 422.1 274.425 422.33C274.105 422.55 273.83 422.94 273.6 423.5V428H271.875ZM279.438 428.18C278.928 428.18 278.423 428.085 277.923 427.895C277.433 427.705 277.008 427.44 276.648 427.1L277.413 426.11C277.743 426.38 278.078 426.575 278.418 426.695C278.758 426.815 279.118 426.875 279.498 426.875C279.898 426.875 280.193 426.79 280.383 426.62C280.573 426.45 280.668 426.24 280.668 425.99C280.668 425.79 280.593 425.62 280.443 425.48C280.303 425.34 280.118 425.22 279.888 425.12C279.658 425.02 279.403 424.92 279.123 424.82C278.763 424.69 278.428 424.535 278.118 424.355C277.808 424.165 277.553 423.935 277.353 423.665C277.163 423.385 277.068 423.05 277.068 422.66C277.068 422.01 277.308 421.48 277.788 421.07C278.268 420.66 278.918 420.455 279.738 420.455C280.238 420.455 280.698 420.54 281.118 420.71C281.538 420.87 281.898 421.08 282.198 421.34L281.433 422.315C281.173 422.125 280.908 421.985 280.638 421.895C280.368 421.805 280.083 421.76 279.783 421.76C279.413 421.76 279.138 421.84 278.958 422C278.778 422.16 278.688 422.35 278.688 422.57C278.688 422.75 278.743 422.905 278.853 423.035C278.973 423.155 279.143 423.265 279.363 423.365C279.583 423.455 279.848 423.55 280.158 423.65C280.538 423.78 280.893 423.94 281.223 424.13C281.553 424.31 281.813 424.545 282.003 424.835C282.203 425.115 282.303 425.47 282.303 425.9C282.303 426.32 282.193 426.705 281.973 427.055C281.753 427.395 281.428 427.67 280.998 427.88C280.578 428.08 280.058 428.18 279.438 428.18ZM287.008 428.18C286.318 428.18 285.693 428.03 285.133 427.73C284.583 427.42 284.148 426.98 283.828 426.41C283.508 425.83 283.348 425.13 283.348 424.31C283.348 423.51 283.513 422.825 283.843 422.255C284.173 421.675 284.598 421.23 285.118 420.92C285.638 420.61 286.188 420.455 286.768 420.455C287.438 420.455 287.998 420.605 288.448 420.905C288.898 421.205 289.233 421.62 289.453 422.15C289.683 422.67 289.798 423.27 289.798 423.95C289.798 424.11 289.788 424.265 289.768 424.415C289.758 424.565 289.738 424.71 289.708 424.85H284.638V423.53H288.268C288.268 423 288.148 422.585 287.908 422.285C287.668 421.975 287.298 421.82 286.798 421.82C286.518 421.82 286.243 421.895 285.973 422.045C285.713 422.195 285.493 422.45 285.313 422.81C285.143 423.17 285.058 423.67 285.058 424.31C285.058 424.89 285.158 425.365 285.358 425.735C285.558 426.095 285.823 426.365 286.153 426.545C286.483 426.715 286.838 426.8 287.218 426.8C287.538 426.8 287.838 426.755 288.118 426.665C288.408 426.575 288.678 426.45 288.928 426.29L289.528 427.4C289.188 427.64 288.798 427.83 288.358 427.97C287.928 428.11 287.478 428.18 287.008 428.18Z" fill="#F4F6F4"/>
<path d="M54.1853 231L57.3803 221.19H59.4203L62.6153 231H60.7853L59.2853 225.78C59.1253 225.26 58.9703 224.725 58.8203 224.175C58.6803 223.625 58.5403 223.08 58.4003 222.54H58.3403C58.2103 223.09 58.0703 223.64 57.9203 224.19C57.7803 224.73 57.6303 225.26 57.4703 225.78L55.9553 231H54.1853ZM56.0753 228.345V226.98H60.6953V228.345H56.0753ZM66.7796 231.18C66.0996 231.18 65.4896 231.03 64.9496 230.73C64.4096 230.42 63.9796 229.98 63.6596 229.41C63.3496 228.83 63.1946 228.135 63.1946 227.325C63.1946 226.505 63.3646 225.81 63.7046 225.24C64.0446 224.66 64.4946 224.22 65.0546 223.92C65.6246 223.61 66.2346 223.455 66.8846 223.455C67.3546 223.455 67.7646 223.535 68.1146 223.695C68.4746 223.845 68.7846 224.04 69.0446 224.28L68.2196 225.36C68.0596 225.21 67.8746 225.09 67.6646 225C67.4646 224.91 67.2346 224.865 66.9746 224.865C66.5846 224.865 66.2396 224.97 65.9396 225.18C65.6396 225.38 65.3996 225.665 65.2196 226.035C65.0496 226.395 64.9646 226.825 64.9646 227.325C64.9646 227.815 65.0496 228.245 65.2196 228.615C65.3896 228.975 65.6196 229.26 65.9096 229.47C66.2096 229.67 66.5546 229.77 66.9446 229.77C67.2346 229.77 67.5046 229.715 67.7546 229.605C68.0146 229.495 68.2446 229.355 68.4446 229.185L69.1496 230.25C68.8396 230.53 68.4796 230.755 68.0696 230.925C67.6696 231.095 67.2396 231.18 66.7796 231.18ZM73.0518 231.15C72.2018 231.15 71.5968 230.905 71.2368 230.415C70.8868 229.915 70.7118 229.27 70.7118 228.48V225H69.6618V223.71L70.8018 223.635L71.0118 221.325H72.4518V223.635H74.3268V225H72.4518V228.48C72.4518 228.91 72.5368 229.235 72.7068 229.455C72.8768 229.665 73.1368 229.77 73.4868 229.77C73.6168 229.77 73.7468 229.76 73.8768 229.74C74.0068 229.72 74.1318 229.68 74.2518 229.62L74.5668 230.835C74.3768 230.925 74.1518 231 73.8918 231.06C73.6318 231.12 73.3518 231.15 73.0518 231.15ZM44.8682 248.15C44.0182 248.15 43.4132 247.905 43.0532 247.415C42.7032 246.915 42.5282 246.27 42.5282 245.48V242H41.4782V240.71L42.6182 240.635L42.8282 238.325H44.2682V240.635H46.1432V242H44.2682V245.48C44.2682 245.91 44.3532 246.235 44.5232 246.455C44.6932 246.665 44.9532 246.77 45.3032 246.77C45.4332 246.77 45.5632 246.76 45.6932 246.74C45.8232 246.72 45.9482 246.68 46.0682 246.62L46.3832 247.835C46.1932 247.925 45.9682 248 45.7082 248.06C45.4482 248.12 45.1682 248.15 44.8682 248.15ZM50.4738 248.18C49.8638 248.18 49.2938 248.03 48.7638 247.73C48.2338 247.42 47.8038 246.98 47.4738 246.41C47.1438 245.83 46.9788 245.135 46.9788 244.325C46.9788 243.505 47.1438 242.81 47.4738 242.24C47.8038 241.66 48.2338 241.22 48.7638 240.92C49.2938 240.61 49.8638 240.455 50.4738 240.455C51.0938 240.455 51.6688 240.61 52.1988 240.92C52.7288 241.22 53.1588 241.66 53.4888 242.24C53.8188 242.81 53.9838 243.505 53.9838 244.325C53.9838 245.135 53.8188 245.83 53.4888 246.41C53.1588 246.98 52.7288 247.42 52.1988 247.73C51.6688 248.03 51.0938 248.18 50.4738 248.18ZM50.4738 246.77C50.8338 246.77 51.1438 246.67 51.4038 246.47C51.6638 246.27 51.8638 245.985 52.0038 245.615C52.1438 245.245 52.2138 244.815 52.2138 244.325C52.2138 243.835 52.1438 243.405 52.0038 243.035C51.8638 242.665 51.6638 242.38 51.4038 242.18C51.1438 241.97 50.8338 241.865 50.4738 241.865C50.1138 241.865 49.8038 241.97 49.5438 242.18C49.2938 242.38 49.0988 242.665 48.9588 243.035C48.8188 243.405 48.7488 243.835 48.7488 244.325C48.7488 244.815 48.8188 245.245 48.9588 245.615C49.0988 245.985 49.2938 246.27 49.5438 246.47C49.8038 246.67 50.1138 246.77 50.4738 246.77ZM60.3741 248.15C59.9641 248.15 59.6341 248.07 59.3841 247.91C59.1441 247.74 58.9691 247.5 58.8591 247.19C58.7491 246.88 58.6941 246.51 58.6941 246.08V237.41H60.4191V246.17C60.4191 246.39 60.4591 246.54 60.5391 246.62C60.6191 246.7 60.7091 246.74 60.8091 246.74C60.8491 246.74 60.8841 246.74 60.9141 246.74C60.9541 246.73 61.0041 246.72 61.0641 246.71L61.2891 248C61.1891 248.04 61.0591 248.075 60.8991 248.105C60.7491 248.135 60.5741 248.15 60.3741 248.15ZM65.9314 248.18C65.2414 248.18 64.6164 248.03 64.0564 247.73C63.5064 247.42 63.0714 246.98 62.7514 246.41C62.4314 245.83 62.2714 245.13 62.2714 244.31C62.2714 243.51 62.4364 242.825 62.7664 242.255C63.0964 241.675 63.5214 241.23 64.0414 240.92C64.5614 240.61 65.1114 240.455 65.6914 240.455C66.3614 240.455 66.9214 240.605 67.3714 240.905C67.8214 241.205 68.1564 241.62 68.3764 242.15C68.6064 242.67 68.7214 243.27 68.7214 243.95C68.7214 244.11 68.7114 244.265 68.6914 244.415C68.6814 244.565 68.6614 244.71 68.6314 244.85H63.5614V243.53H67.1914C67.1914 243 67.0714 242.585 66.8314 242.285C66.5914 241.975 66.2214 241.82 65.7214 241.82C65.4414 241.82 65.1664 241.895 64.8964 242.045C64.6364 242.195 64.4164 242.45 64.2364 242.81C64.0664 243.17 63.9814 243.67 63.9814 244.31C63.9814 244.89 64.0814 245.365 64.2814 245.735C64.4814 246.095 64.7464 246.365 65.0764 246.545C65.4064 246.715 65.7614 246.8 66.1414 246.8C66.4614 246.8 66.7614 246.755 67.0414 246.665C67.3314 246.575 67.6014 246.45 67.8514 246.29L68.4514 247.4C68.1114 247.64 67.7214 247.83 67.2814 247.97C66.8514 248.11 66.4014 248.18 65.9314 248.18ZM71.9781 248.18C71.5481 248.18 71.1681 248.09 70.8381 247.91C70.5081 247.73 70.2481 247.48 70.0581 247.16C69.8781 246.83 69.7881 246.45 69.7881 246.02C69.7881 245.19 70.1331 244.565 70.8231 244.145C71.5231 243.715 72.6281 243.42 74.1381 243.26C74.1281 243.01 74.0781 242.78 73.9881 242.57C73.9081 242.36 73.7681 242.195 73.5681 242.075C73.3781 241.945 73.1181 241.88 72.7881 241.88C72.4281 241.88 72.0731 241.945 71.7231 242.075C71.3831 242.205 71.0481 242.37 70.7181 242.57L70.0881 241.4C70.3581 241.23 70.6531 241.075 70.9731 240.935C71.2931 240.785 71.6331 240.67 71.9931 240.59C72.3531 240.5 72.7281 240.455 73.1181 240.455C73.7281 240.455 74.2331 240.58 74.6331 240.83C75.0431 241.07 75.3481 241.43 75.5481 241.91C75.7581 242.38 75.8631 242.96 75.8631 243.65V248H74.4381L74.3181 247.19H74.2581C73.9181 247.47 73.5631 247.705 73.1931 247.895C72.8231 248.085 72.4181 248.18 71.9781 248.18ZM72.5181 246.77C72.8181 246.77 73.0931 246.71 73.3431 246.59C73.6031 246.46 73.8681 246.27 74.1381 246.02V244.46C73.4681 244.54 72.9381 244.645 72.5481 244.775C72.1581 244.905 71.8781 245.065 71.7081 245.255C71.5481 245.435 71.4681 245.65 71.4681 245.9C71.4681 246.21 71.5681 246.435 71.7681 246.575C71.9681 246.705 72.2181 246.77 72.5181 246.77ZM77.9275 248V240.635H79.3525L79.4725 241.94H79.5325C79.7925 241.46 80.1025 241.095 80.4625 240.845C80.8325 240.585 81.2175 240.455 81.6175 240.455C81.8075 240.455 81.9675 240.465 82.0975 240.485C82.2275 240.505 82.3475 240.545 82.4575 240.605L82.1125 242.075C81.9925 242.045 81.8825 242.025 81.7825 242.015C81.6825 241.995 81.5525 241.985 81.3925 241.985C81.1025 241.985 80.7975 242.1 80.4775 242.33C80.1575 242.55 79.8825 242.94 79.6525 243.5V248H77.9275ZM83.5232 248V240.635H84.9482L85.0682 241.625H85.1282C85.4582 241.305 85.8182 241.03 86.2082 240.8C86.5982 240.57 87.0432 240.455 87.5432 240.455C88.3332 240.455 88.9082 240.71 89.2682 241.22C89.6282 241.73 89.8082 242.45 89.8082 243.38V248H88.0832V243.605C88.0832 242.995 87.9932 242.565 87.8132 242.315C87.6332 242.065 87.3382 241.94 86.9282 241.94C86.6082 241.94 86.3232 242.02 86.0732 242.18C85.8332 242.33 85.5582 242.555 85.2482 242.855V248H83.5232Z" fill="#F4F6F4"/>
</svg>
