<svg width="136" height="45" xmlns="http://www.w3.org/2000/svg"><g fill="#6D3075" fill-rule="evenodd"><path d="M37.4857846 15.6c-1.5542857.21-3.1130549.4695-4.6778022.78-9.7591209 1.92-17.6501099 5.43-22.5221978 9.495-2.44949449 1.842-4.25485713 4.413-5.15604394 7.35.41846154-2.91 2.34637363-5.82 5.54461534-8.49 5.1112088-4.29 13.4505495-7.95 23.7028572-9.975l1.2852747-.24-.5230769-.285-.9564835.18C23.721389 16.47 15.3073231 20.205 10.0914989 24.57c-2.61538461 1.965-4.5418022 4.7115-5.49978022 7.8435.44835165-3.1035 2.52571429-6.2085 5.97802202-8.9985C15.561389 19.23 23.4224879 15.6 33.1218286 13.35l-.6426374-.255c-9.6694505 2.295-17.5006593 6-22.52219779 10.155-2.81415385 2.0505-4.90646154 4.944-5.97802198 8.265.47824176-3.315 2.70505494-6.645 6.35164837-9.69 5.8838681-4.503 12.6151209-7.7625 19.7872527-9.585l-.7920879-.225c-7.1168351 1.878-13.7883077 5.1615-19.62285713 9.66-3.00246154 2.25-5.21134066 5.403-6.30681318 9 .50813186-3.555 2.89934066-7.095 6.78505491-10.365 4.9512967-3.897 10.5467253-6.894 16.5292308-8.85l-1.0013187-.15c-5.8719121 1.971-11.3612308 4.938-16.23032965 8.775-3.20421978 2.4015-5.56553846 5.7645-6.74021978 9.6.55296703-3.795 3.09362637-7.59 7.26329673-11.085 3.8946813-3.102 8.2123077-5.628 12.8228571-7.5H21.539411c-4.4192528 1.8735-8.5575385 4.3515-12.29978023 7.365-3.85582418 3.24-6.36659341 6.75-7.20351648 10.275.58285714-4.05 3.30285714-8.115 7.77142857-11.85 2.64527474-2.1735 5.51024174-4.0635 8.54857144-5.64l-1.1358242.135-.538022.075c-2.7244835 1.437-5.3054945 3.129-7.71164832 5.055-4.10989011 3.51-6.78505494 7.26-7.68175824 11.04.62769231-4.335 3.54197802-8.685 8.30945055-12.69 1.09098901-.915 2.36131871-1.83 3.60175821-2.715-.8234725.237-1.632.5235-2.4210989.855-.7502417.4425-1.43771426.9825-2.0474725 1.605-11.83648352 9.315-11.71692308 22.65.83692308 27.69l-.26901099-.285c-.31832967-.3405-.61274725-.675-.88175824-1.005l-.28395605-.36c-.28395604-.375-.53802197-.75-.7621978-1.1115l-.25406593-.4185c-.21969231-.393-.41397802-.798-.58285715-1.215l-.19428571-.495c-.15692308-.4545-.27648352-.921-.35868132-1.395.01494506-.204-.01643956-.4095-.08967033-.6015-.04035165-.4575-.04035165-.9195 0-1.3785-.03736264-.2445-.03736264-.492 0-.735.07472528-.474.1898022-.9405.34373627-1.395.08817582-.2805.19428571-.555.31384615-.825.24061538-.5145.51112088-1.0155.80703297-1.5.9250989-1.389 2.07138461-2.6145 3.39252745-3.63 6.5818022-4.7655 14.1634286-7.9575 22.1635165-9.33 1.643956-.33 3.2879121-.585 4.9318681-.81l-.4334066-.285"/><path d="M8.53706374 28.75515c7.47252746-2.115 24.25582416-2.355 26.99076926 7.0335-4.2772748-2.34-9.3167473-2.8485-13.9736264-1.4085-4.6628571 1.419-8.8145934 4.1655-11.95604396 7.905l-.2989011-.27c3.16237366-3.8235 7.38734066-6.6165 12.13538466-8.025 3.0054505-.876 6.1723076-1.0395 9.250989-.48-3.5090989-.8145-7.1706374-.7065-10.6259341.315-4.4506374 1.3095-8.4693626 3.7905-11.6421978 7.185l-.28395605-.36c3.21916485-3.4275 7.28870325-5.934 11.79164835-7.26 3.2370989-.954 6.6505495-1.134 9.9683517-.525-3.7512088-.8715-7.6623297-.7575-11.3582418.33-4.1308132 1.2165-7.9178901 3.39-11.05934066 6.3435l-.25406594-.4185c3.1907692-2.97 7.0301538-5.1525 11.2087912-6.375 3.4358681-1.005 7.0585495-1.194 10.5810989-.555-4.0142417-.927-8.1973626-.804-12.1503297.36-3.7362637 1.0845-7.21696699 2.9115-10.2373626 5.37l-.19428571-.495c3.04131868-2.448 6.53696701-4.2675 10.28219781-5.355 3.6540659-1.05 7.4994286-1.239 11.2386813-.555-4.2937143-.999-8.7727472-.87-13.0021978.375-3.1907692.8805-6.22013186 2.2725-8.96703296 4.125.01494506-.204-.01643956-.4095-.08967033-.6015 2.74839561-1.863 5.77476919-3.276 8.96703299-4.185 3.9320439-1.146 8.0763077-1.362 12.1054945-.63-4.5911209-1.0635-9.3765275-.924-13.8989011.4065-2.4823736.7245-4.87358243 1.731-7.12879122 3-.02241759-.246-.00747253-.4935.04483516-.735 2.18646154-1.1985 4.49696706-2.154 6.88967036-2.85 4.2040439-1.2285 8.6337582-1.4595 12.9424176-.675-4.9124396-1.14-10.0326154-.99-14.8703297.435-1.58417584.456-3.13248353 1.029-4.63296705 1.71.08967033-.282.19428571-.5565.31384615-.825 1.35252748-.5895 2.73942857-1.0905 4.1547253-1.5 4.499956-1.3155 9.2435165-1.5615 13.8540659-.72-5.2531868-1.218-10.7290549-1.059-15.90153845.465l-1.40483516.435.14945055-.075c.15393406-.2505.32430769-.492.50813186-.72l.55296704-.195z"/><path d="M44.3606593 7.79985c-5.9780219-6.39-10.4615384-7.59-11.9560439-7.8 7.9477802 4.6995 10.9188571 14.7705 6.8 23.055-1.3405714 2.6205-3.0741978 5.019-5.1410989 7.11l.4035165.495c2.2058901-2.1945 4.0530989-4.7265 5.4698901-7.5 1.8711209-3.507 2.4973187-7.548 1.7784615-11.46 1.1567473 4.428.5903297 9.132-1.5841758 13.155-1.2837802 2.517-2.9127912 4.839-4.8421978 6.9l.3885714.6c2.0982857-2.1825 3.8662857-4.665 5.2457143-7.365 1.9906813-3.7425 2.6602198-8.052 1.898022-12.225 1.226989 4.7325.6187253 9.756-1.7037363 14.055-1.2673406 2.4885-2.8545055 4.7985-4.7226373 6.87.1195604.24.2286593.4845.3287912.735 2.0848351-2.2425 3.8453626-4.7655 5.2307692-7.5 2.1401319-4.011 2.856-8.6355 2.0325275-13.11 1.3047033 5.052.6530989 10.4115-1.8232967 15-1.2837803 2.598-2.8963517 5.0175-4.7973627 7.2 0 .315.1494506.63.2092308.96 2.2178461-2.3805 4.0949451-5.061 5.5745055-7.965 2.2552088-4.293 2.992-9.2265 2.0923077-13.995 1.4332308 5.421.7547253 11.1885-1.898022 16.125-1.5124396 2.973-3.4239121 5.7225-5.6791209 8.175-.0209231.4635-.0702417.9225-.1494505 1.38 2.7185055-2.7615 5.0006154-5.922 6.7701099-9.375 2.4494945-4.5885 3.2714725-9.879 2.3314285-15 1.5049671 5.787.7621978 11.931-2.0773626 17.19-2.1610549 4.1805-5.0155604 7.9605-8.443956 11.175 0 .12.3736263.165 1.1358241.105 3.3716044-3.213 6.1857583-6.9705 8.3243956-11.115 2.6183737-4.9065 3.4986374-10.56 2.4958242-16.035 1.5946374 6.192.7876044 12.759-2.2567033 18.375-1.4780659 2.9355-3.3043516 5.6805-5.44 8.175.552967-.165 1.1507692-.36 1.7485714-.585 1.8472088-2.271 3.4448352-4.7355 4.7674726-7.35 2.7977143-5.247 3.7362637-11.292 2.6602198-17.145 1.7231648 6.6255.8727912 13.6605-2.3762638 19.68-.5484835 1.0605-1.1358242 2.1345-1.7635165 3.225.7965715-.492 1.5512967-1.0485 2.2567033-1.665.2391209-.435.4782418-.885.7024176-1.335 5.3652747-10.785 4.4835165-22.035-3.9903297-31.17M61.7562549 26.49045l3.2879121-7.635 3.2879121 7.635h-6.5758242zm3.2879121-13.095l-9.3556044 21.5835h2.6004396l2.6901099-6.3585h8.0553846l2.7050549 6.3585h2.6901099l-9.3854945-21.5835zm67.088352 18.9c-4.344528 4.2645-11.288 4.2645-15.632528 0-4.241406-4.1655-4.317626-10.9935-.167384-15.252.001494-.0015.002989-.0015.002989-.003l.164395-.165c4.360967-4.2255 11.271561-4.2255 15.632528 0 4.239912 4.209 4.280263 11.07.08967 15.33l-.08967.09zM108.504536 13.35l4.184616 21.6h-2.391209l-2.69011-14.1-6.426374 14.85-6.4263733-14.85-2.5406593 14.1h-2.3912088l4.1846154-21.6 7.173626 17.25 7.323077-17.25zm-21.0725272.9v2.25H79.062778v5.85h8.3692308v2.4H79.062778v7.95h8.3692308v2.25H76.5221187v-20.7h10.9098901zm36.9380482 1.83645c4.671824.0555 8.415561 3.9 8.360264 8.589.010461 2.253-.884747 4.4145-2.480879 6l-.119561.12c-1.570725 1.4985-3.657055 2.3370004-5.825582 2.3370004-4.671824.0014996-8.460396-3.7980004-8.46189-8.4870004-.01644-2.286.877275-4.4835 2.480879-6.105 1.608088-1.5975 3.785582-2.481 6.046769-2.454z"/></g></svg>