<?xml version="1.0" encoding="UTF-8" ?>
<!DOCTYPE svg PUBLIC "-//W3C//DTD SVG 1.1//EN" "http://www.w3.org/Graphics/SVG/1.1/DTD/svg11.dtd">
<svg width="592pt" height="165pt" viewBox="0 0 592 165" version="1.1" xmlns="http://www.w3.org/2000/svg">
<g id="g-a90533ff">
<path fill="#a90533" opacity="1.00" d=" M 101.62 0.00 L 103.75 0.00 C 103.75 55.00 103.75 110.00 103.75 165.00 L 101.62 165.00 C 101.62 110.00 101.62 55.00 101.62 0.00 Z" />
<path fill="#a90533" opacity="1.00" d=" M 131.62 7.00 C 140.43 7.05 149.23 6.88 158.03 7.11 C 162.42 7.29 167.31 8.18 170.28 11.73 C 174.30 16.62 175.06 23.62 173.40 29.58 C 172.31 33.46 168.96 36.11 165.30 37.44 C 170.84 39.08 174.82 44.23 175.68 49.85 C 176.55 55.54 175.06 61.80 171.04 66.03 C 167.33 69.56 161.98 70.52 157.04 70.59 C 148.56 70.67 140.09 70.61 131.62 70.62 C 131.63 49.41 131.62 28.21 131.62 7.00 M 145.19 17.38 C 145.18 22.46 145.18 27.54 145.19 32.62 C 148.47 32.55 151.84 32.94 155.06 32.09 C 160.66 30.68 161.58 21.99 157.17 18.78 C 153.55 16.65 149.17 17.57 145.19 17.38 M 145.19 43.01 C 145.19 48.55 145.18 54.08 145.19 59.62 C 149.10 59.49 153.14 60.06 156.94 58.90 C 162.40 57.20 162.87 49.26 159.69 45.33 C 155.80 41.72 149.97 43.38 145.19 43.01 Z" />
<path fill="#a90533" opacity="1.00" d=" M 288.44 7.00 C 292.77 7.00 297.10 7.00 301.44 7.00 C 301.44 28.21 301.43 49.41 301.44 70.62 C 297.35 70.63 293.27 70.63 289.19 70.63 C 289.18 68.16 289.17 65.70 289.24 63.23 C 287.99 65.86 286.63 68.78 283.86 70.11 C 278.72 72.57 271.83 71.21 268.36 66.57 C 264.93 62.15 263.88 56.42 263.47 50.97 C 263.10 44.58 263.45 37.95 265.98 31.99 C 267.44 28.44 270.12 25.19 273.81 23.82 C 278.85 21.95 285.54 22.75 288.49 27.74 C 288.38 20.83 288.46 13.91 288.44 7.00 M 280.29 32.29 C 278.43 33.50 277.82 35.79 277.46 37.85 C 276.74 42.53 277.01 47.29 277.11 52.01 C 277.34 54.95 277.40 58.22 279.26 60.67 C 281.39 63.30 286.08 62.32 287.27 59.23 C 288.88 55.37 288.30 51.07 288.44 47.00 C 288.32 42.92 288.79 38.65 287.27 34.77 C 286.30 32.04 282.77 30.80 280.29 32.29 Z" />
<path fill="#a90533" opacity="1.00" d=" M 308.13 6.62 C 312.58 6.62 317.04 6.62 321.50 6.63 C 321.50 10.98 321.50 15.33 321.50 19.68 C 317.04 19.70 312.59 19.69 308.13 19.69 C 308.12 15.34 308.12 10.98 308.13 6.62 Z" />
<path fill="#a90533" opacity="1.00" d=" M 518.00 7.00 C 520.35 7.00 522.70 7.00 525.06 7.00 C 525.06 28.21 525.06 49.42 525.06 70.62 C 522.93 70.63 520.80 70.63 518.68 70.62 C 518.67 68.51 518.68 66.39 518.73 64.28 C 514.40 73.21 500.57 74.06 494.62 66.44 C 490.35 60.97 489.49 53.72 489.50 47.00 C 489.61 40.15 490.86 32.78 495.50 27.45 C 499.64 22.60 507.17 21.27 512.82 24.11 C 515.20 25.27 516.71 27.52 518.03 29.72 C 517.96 22.15 518.01 14.57 518.00 7.00 M 503.38 29.50 C 500.59 31.00 499.09 34.05 498.36 37.01 C 497.06 42.40 497.11 48.02 497.72 53.50 C 498.26 57.43 499.38 61.82 502.81 64.24 C 506.91 67.01 512.97 65.67 515.73 61.63 C 518.34 57.98 517.95 53.25 518.01 48.99 C 517.83 43.74 518.84 37.94 515.78 33.29 C 513.42 29.08 507.69 27.21 503.38 29.50 Z" />
<path fill="#a90533" opacity="1.00" d=" M 358.95 17.01 C 361.63 14.94 365.25 15.31 368.38 15.80 C 368.37 18.63 368.37 21.47 368.39 24.31 C 366.52 24.24 364.45 23.64 362.74 24.67 C 361.45 25.35 361.10 26.88 360.47 28.07 C 365.39 33.44 365.41 42.91 359.68 47.71 C 354.54 52.08 347.23 52.49 340.89 51.15 C 338.76 51.64 336.59 54.65 338.41 56.60 C 339.43 57.28 340.67 57.49 341.87 57.65 C 347.24 58.33 352.70 58.06 358.03 59.09 C 362.37 59.85 366.31 63.12 367.31 67.50 C 368.39 72.20 367.75 77.69 364.32 81.31 C 361.10 84.70 356.40 86.14 351.89 86.76 C 346.44 87.37 340.87 87.47 335.49 86.36 C 331.96 85.56 328.23 83.95 326.39 80.64 C 324.75 77.45 324.81 73.06 327.44 70.39 C 328.87 68.85 330.88 68.09 332.77 67.26 C 329.60 65.71 326.57 62.82 326.83 59.00 C 326.78 54.15 331.00 50.92 334.84 48.81 C 325.59 44.80 325.78 29.95 334.30 25.27 C 340.79 21.72 349.01 21.71 355.73 24.65 C 356.26 21.96 356.63 18.82 358.95 17.01 M 344.13 30.14 C 342.40 31.11 341.96 33.26 341.77 35.06 C 341.59 37.58 341.45 40.27 342.53 42.62 C 343.71 45.41 348.43 45.53 349.60 42.68 C 350.47 40.59 350.41 38.25 350.37 36.03 C 350.22 33.88 350.05 31.25 348.03 29.97 C 346.70 29.52 345.40 29.57 344.13 30.14 M 336.78 71.86 C 335.82 73.80 336.19 76.62 338.37 77.57 C 341.68 79.13 345.49 78.99 349.08 78.87 C 351.30 78.65 353.91 78.45 355.51 76.66 C 357.30 74.33 356.07 70.43 353.11 69.83 C 348.85 69.03 344.48 69.09 340.17 68.61 C 338.93 69.55 337.39 70.33 336.78 71.86 Z" />
<path fill="#a90533" opacity="1.00" d=" M 417.76 23.74 C 423.57 21.51 430.64 21.62 435.93 25.13 C 439.22 27.24 440.57 31.19 440.86 34.92 C 441.63 46.81 440.19 58.81 441.91 70.64 C 439.65 70.63 437.40 70.63 435.16 70.63 C 434.82 67.92 434.60 65.20 434.61 62.47 C 433.65 64.20 432.69 65.95 431.41 67.46 C 425.68 74.33 412.93 73.28 408.79 65.19 C 405.28 58.21 407.25 48.27 414.32 44.28 C 420.27 40.89 427.42 41.09 434.03 41.66 C 433.97 38.05 434.22 34.00 431.88 30.97 C 429.34 27.77 424.54 27.54 420.98 28.93 C 418.12 30.00 416.73 32.90 415.75 35.58 C 413.45 35.18 411.15 34.80 408.85 34.40 C 409.75 29.58 413.16 25.46 417.76 23.74 M 419.56 48.49 C 414.58 50.95 413.44 57.72 415.48 62.47 C 416.96 65.64 420.91 66.44 424.07 65.95 C 428.32 65.38 431.55 61.85 432.97 57.98 C 434.36 54.59 434.17 50.84 434.03 47.25 C 429.23 46.54 424.02 46.27 419.56 48.49 Z" />
<path fill="#a90533" opacity="1.00" d=" M 464.24 23.21 C 469.31 21.30 475.84 22.17 479.49 26.44 C 482.16 29.64 482.11 34.05 482.24 38.00 C 482.26 48.87 482.24 59.74 482.25 70.62 C 479.89 70.63 477.54 70.63 475.19 70.63 C 475.16 59.76 475.22 48.90 475.17 38.03 C 475.01 34.91 474.97 30.96 472.01 29.07 C 468.28 27.14 463.05 28.17 460.76 31.82 C 458.24 35.71 457.96 40.52 457.84 45.02 C 457.77 53.56 457.84 62.09 457.81 70.63 C 455.45 70.63 453.10 70.63 450.75 70.62 C 450.75 54.95 450.75 39.29 450.75 23.63 C 452.96 23.62 455.16 23.62 457.38 23.63 C 457.38 25.94 457.38 28.26 457.32 30.58 C 458.84 27.53 460.89 24.45 464.24 23.21 Z" />
<path fill="#a90533" opacity="1.00" d=" M 183.91 30.00 C 190.33 20.62 206.06 19.90 213.04 28.99 C 217.31 34.80 217.99 42.32 217.89 49.31 C 209.61 49.32 201.33 49.32 193.05 49.31 C 193.13 52.77 192.83 56.45 194.35 59.67 C 195.92 62.88 200.60 63.27 203.26 61.26 C 205.33 59.61 205.62 56.79 206.11 54.37 C 210.06 54.63 214.01 54.87 217.95 55.16 C 216.75 61.08 213.80 67.27 207.96 69.80 C 200.94 72.74 191.84 72.28 186.08 66.93 C 181.24 62.36 179.63 55.43 179.44 49.00 C 179.36 42.47 180.25 35.57 183.91 30.00 M 195.15 33.21 C 193.34 35.63 193.40 38.81 193.15 41.68 C 197.24 41.69 201.33 41.69 205.42 41.68 C 205.34 38.87 205.39 35.79 203.69 33.40 C 201.77 30.68 197.17 30.52 195.15 33.21 Z" />
<path fill="#a90533" opacity="1.00" d=" M 241.34 23.45 C 246.20 21.90 252.32 22.06 256.10 25.92 C 259.00 28.80 259.16 33.16 259.24 37.00 C 259.26 48.21 259.24 59.41 259.25 70.62 C 254.85 70.64 250.46 70.62 246.07 70.63 C 246.04 60.08 246.07 49.54 246.06 38.99 C 245.98 37.12 246.01 34.91 244.48 33.57 C 242.08 32.22 238.33 32.56 236.86 35.12 C 235.81 37.24 235.87 39.69 235.81 42.00 C 235.82 51.54 235.82 61.09 235.81 70.63 C 231.41 70.62 227.02 70.63 222.62 70.62 C 222.63 54.96 222.62 39.29 222.63 23.63 C 226.79 23.62 230.96 23.62 235.13 23.63 C 235.13 25.69 235.11 27.75 235.05 29.80 C 236.53 27.19 238.36 24.47 241.34 23.45 Z" />
<path fill="#a90533" opacity="1.00" d=" M 377.36 23.49 C 384.29 21.61 392.90 22.26 397.94 27.96 C 402.85 33.72 403.46 41.75 403.31 49.00 C 403.08 55.40 401.84 62.41 397.05 67.07 C 391.62 72.12 383.22 72.52 376.46 70.34 C 370.37 68.29 366.76 62.19 365.69 56.14 C 364.44 48.98 364.44 41.43 366.64 34.45 C 368.23 29.38 372.14 24.94 377.36 23.49 M 382.09 32.14 C 379.97 33.20 379.45 35.78 379.08 37.89 C 378.33 43.54 378.41 49.28 378.91 54.94 C 379.29 57.45 379.61 60.53 382.00 61.99 C 384.19 62.84 387.24 62.34 388.12 59.88 C 389.64 56.13 389.54 51.98 389.67 48.01 C 389.61 43.55 389.78 38.96 388.32 34.69 C 387.57 32.10 384.42 31.08 382.09 32.14 Z" />
<path fill="#a90533" opacity="1.00" d=" M 308.25 23.63 C 312.64 23.62 317.04 23.62 321.43 23.63 C 321.44 39.29 321.43 54.96 321.44 70.62 C 317.04 70.63 312.65 70.62 308.25 70.63 C 308.24 54.96 308.25 39.29 308.25 23.63 Z" />
<path fill="#a90533" opacity="1.00" d=" M 0.00 28.66 C 25.30 46.74 50.69 64.68 76.02 82.70 C 50.71 100.93 25.29 119.01 0.00 137.27 L 0.00 127.90 C 21.02 112.78 42.15 97.80 63.20 82.71 C 42.15 67.75 21.02 52.90 0.00 37.89 L 0.00 28.66 Z" />
<path fill="#a90533" opacity="1.00" d=" M 0.82 46.05 C 17.74 58.27 34.66 70.49 51.59 82.71 C 34.68 94.97 17.75 107.21 0.82 119.45 C 0.81 116.33 0.81 113.22 0.81 110.10 C 13.47 100.96 26.14 91.85 38.80 82.71 C 26.14 73.55 13.46 64.43 0.81 55.26 C 0.81 52.19 0.81 49.12 0.82 46.05 Z" />
<path fill="#a90533" opacity="1.00" d=" M 0.81 64.23 C 9.31 70.39 17.80 76.56 26.29 82.71 C 17.80 88.82 9.32 94.95 0.82 101.04 C 0.81 97.96 0.81 94.89 0.81 91.81 C 5.02 88.77 9.25 85.76 13.45 82.72 C 9.25 79.68 5.03 76.65 0.82 73.63 C 0.81 70.49 0.81 67.36 0.81 64.23 Z" />
<path fill="#a90533" opacity="1.00" d=" M 142.84 94.31 C 147.58 94.31 152.32 94.31 157.05 94.31 C 163.14 115.51 169.21 136.73 175.28 157.94 C 170.50 157.94 165.72 157.94 160.94 157.94 C 159.84 153.59 158.76 149.23 157.67 144.88 C 151.73 144.87 145.78 144.87 139.84 144.88 C 138.78 149.23 137.72 153.58 136.69 157.93 C 132.34 157.95 128.01 157.94 123.67 157.94 C 130.05 136.72 136.44 115.52 142.84 94.31 M 148.70 108.16 C 146.66 116.73 144.58 125.30 142.53 133.87 C 146.71 133.88 150.89 133.88 155.07 133.88 C 152.97 125.30 150.83 116.73 148.70 108.16 Z" />
<path fill="#a90533" opacity="1.00" d=" M 199.56 94.32 C 203.89 94.30 208.23 94.31 212.56 94.31 C 212.56 115.52 212.56 136.73 212.56 157.93 C 208.48 157.95 204.40 157.94 200.32 157.94 C 200.30 155.44 200.29 152.94 200.35 150.44 C 199.18 153.04 197.90 155.87 195.25 157.28 C 190.00 160.01 182.76 158.54 179.28 153.64 C 175.36 148.30 174.60 141.42 174.44 134.98 C 174.45 128.25 175.25 121.02 179.32 115.42 C 183.85 109.03 195.21 108.06 199.62 115.06 C 199.49 108.14 199.60 101.23 199.56 94.32 M 192.12 119.28 C 189.77 120.18 188.98 122.84 188.58 125.09 C 187.86 130.03 188.11 135.06 188.26 140.04 C 188.52 142.87 188.64 146.09 190.66 148.32 C 192.99 150.59 197.35 149.44 198.45 146.43 C 199.99 142.48 199.43 138.13 199.57 133.99 C 199.43 129.92 199.92 125.62 198.24 121.79 C 197.25 119.51 194.42 118.38 192.12 119.28 Z" />
<path fill="#a90533" opacity="1.00" d=" M 260.56 94.32 C 264.95 94.30 269.35 94.31 273.75 94.31 C 273.76 115.52 273.75 136.73 273.75 157.94 C 269.35 157.95 264.96 157.94 260.56 157.94 C 260.56 136.73 260.57 115.52 260.56 94.32 Z" />
<path fill="#a90533" opacity="1.00" d=" M 323.31 93.94 C 327.77 93.93 332.23 93.93 336.69 93.95 C 336.69 98.29 336.69 102.64 336.69 106.99 C 332.23 107.00 327.77 107.00 323.31 106.99 C 323.31 102.64 323.31 98.29 323.31 93.94 Z" />
<path fill="#a90533" opacity="1.00" d=" M 366.31 94.31 C 370.64 94.31 374.98 94.30 379.32 94.32 C 379.31 115.53 379.32 136.73 379.31 157.94 C 375.23 157.94 371.14 157.94 367.06 157.94 C 367.05 155.47 367.05 152.99 367.09 150.53 C 365.87 153.22 364.45 156.17 361.62 157.49 C 356.68 159.75 350.17 158.62 346.64 154.38 C 343.67 150.90 342.36 146.35 341.72 141.92 C 340.86 135.25 340.94 128.35 342.89 121.88 C 344.22 117.51 346.86 113.14 351.25 111.33 C 356.35 109.25 363.28 109.94 366.37 115.02 C 366.24 108.12 366.33 101.22 366.31 94.31 M 358.37 119.51 C 356.13 120.77 355.58 123.53 355.23 125.86 C 354.65 130.55 354.88 135.30 355.02 140.01 C 355.28 142.89 355.39 146.21 357.53 148.43 C 359.96 150.61 364.25 149.34 365.27 146.27 C 366.74 142.36 366.18 138.08 366.32 134.00 C 366.19 130.05 366.65 125.89 365.15 122.14 C 364.24 119.45 360.85 118.15 358.37 119.51 Z" />
<path fill="#a90533" opacity="1.00" d=" M 429.13 94.31 C 436.44 94.35 443.75 94.20 451.06 94.43 C 454.85 94.60 458.95 95.47 461.68 98.32 C 466.09 102.94 467.07 110.14 465.09 116.06 C 463.77 120.02 460.28 122.68 456.54 124.18 C 459.40 125.11 462.30 126.37 464.34 128.67 C 467.89 132.45 468.64 137.99 468.13 142.97 C 467.75 147.29 465.71 151.60 462.08 154.12 C 457.73 157.20 452.22 157.92 447.01 157.94 C 441.05 157.95 435.09 157.94 429.12 157.94 C 429.13 136.73 429.12 115.52 429.13 94.31 M 436.95 100.82 C 436.94 107.65 436.94 114.48 436.95 121.31 C 442.23 121.05 447.79 122.07 452.86 120.17 C 457.89 118.12 458.70 111.69 457.48 107.04 C 456.67 103.63 453.45 101.29 450.04 101.01 C 445.69 100.59 441.31 100.91 436.95 100.82 M 436.95 127.76 C 436.94 135.67 436.94 143.58 436.94 151.50 C 440.94 151.45 444.95 151.62 448.95 151.40 C 452.40 151.18 456.09 149.94 458.17 147.01 C 460.37 143.84 460.52 139.65 459.68 136.00 C 458.63 131.60 454.48 128.43 450.07 128.01 C 445.71 127.55 441.32 127.82 436.95 127.76 Z" />
<path fill="#a90533" opacity="1.00" d=" M 558.82 94.31 C 561.16 94.31 563.51 94.31 565.87 94.31 C 565.89 107.59 565.86 120.87 565.88 134.15 C 571.49 126.42 577.05 118.66 582.66 110.93 C 585.24 110.94 587.82 110.94 590.41 110.95 C 586.30 116.48 582.19 122.01 578.06 127.52 C 582.68 137.64 587.38 147.72 592.00 157.85 L 592.00 157.94 C 589.45 157.94 586.91 157.94 584.38 157.93 C 580.70 149.63 576.99 141.35 573.30 133.05 C 570.82 136.43 568.34 139.81 565.88 143.20 C 565.87 148.11 565.87 153.03 565.88 157.94 C 563.52 157.94 561.16 157.94 558.81 157.94 C 558.81 136.73 558.81 115.52 558.82 94.31 Z" />
<path fill="#a90533" opacity="1.00" d=" M 222.49 116.45 C 229.23 107.94 244.00 107.53 250.84 116.14 C 255.22 121.96 255.92 129.57 255.83 136.62 C 247.55 136.63 239.27 136.62 230.98 136.63 C 231.06 140.03 230.78 143.63 232.20 146.82 C 233.93 150.69 240.12 150.80 242.33 147.33 C 243.42 145.65 243.63 143.61 244.05 141.70 C 247.99 141.95 251.93 142.19 255.86 142.47 C 254.87 146.97 253.21 151.58 249.64 154.69 C 244.91 158.87 238.05 159.54 232.07 158.40 C 227.35 157.45 223.13 154.40 220.81 150.18 C 217.55 144.41 217.01 137.54 217.54 131.06 C 218.05 125.93 219.26 120.60 222.49 116.45 M 232.84 120.87 C 231.28 123.27 231.31 126.24 231.07 128.99 C 235.16 129.01 239.26 129.00 243.36 128.99 C 243.26 126.11 243.32 122.91 241.45 120.51 C 239.37 117.87 234.64 117.95 232.84 120.87 Z" />
<path fill="#a90533" opacity="1.00" d=" M 292.82 110.72 C 299.91 109.05 308.62 109.50 313.83 115.23 C 317.22 119.71 316.34 125.74 316.56 131.00 C 316.82 139.98 315.95 149.03 317.23 157.95 C 313.14 157.93 309.07 157.94 304.99 157.94 C 304.53 155.62 304.37 153.25 304.45 150.89 C 303.10 152.99 301.69 155.16 299.58 156.58 C 295.90 159.11 291.03 159.46 286.82 158.20 C 283.08 157.07 280.23 153.77 279.46 149.97 C 278.31 144.41 279.38 137.79 284.04 134.09 C 289.48 129.79 296.74 129.25 303.39 128.73 C 303.23 125.99 303.69 123.02 302.40 120.49 C 301.21 118.30 298.16 118.24 296.13 119.16 C 293.73 120.44 293.47 123.49 293.00 125.85 C 288.86 125.43 284.73 125.03 280.60 124.59 C 281.13 117.87 286.33 112.21 292.82 110.72 M 295.08 138.10 C 292.75 139.95 292.48 143.26 292.83 146.00 C 293.02 148.14 294.67 150.27 296.99 150.17 C 299.75 150.23 301.62 147.74 302.48 145.39 C 303.54 142.19 303.31 138.76 303.38 135.44 C 300.54 135.99 297.44 136.25 295.08 138.10 Z" />
<path fill="#a90533" opacity="1.00" d=" M 388.89 116.92 C 395.48 107.90 410.87 107.36 417.74 116.32 C 421.99 122.14 422.67 129.64 422.59 136.62 C 414.30 136.64 406.02 136.62 397.73 136.63 C 397.84 140.09 397.51 143.77 399.04 146.98 C 400.68 150.34 405.70 150.67 408.29 148.29 C 410.08 146.58 410.30 143.99 410.79 141.70 C 414.74 141.95 418.68 142.20 422.63 142.47 C 421.45 148.54 418.31 154.85 412.27 157.30 C 405.10 160.12 395.84 159.49 390.25 153.74 C 385.48 148.81 384.12 141.62 384.11 134.99 C 384.22 128.75 385.19 122.13 388.89 116.92 M 399.70 120.72 C 398.03 123.13 398.08 126.19 397.85 128.99 C 401.93 129.00 406.02 129.00 410.11 129.00 C 410.02 126.17 410.08 123.06 408.33 120.67 C 406.36 117.93 401.61 117.87 399.70 120.72 Z" />
<path fill="#a90533" opacity="1.00" d=" M 475.71 121.74 C 476.71 115.63 482.01 111.08 487.96 110.04 C 493.32 109.01 499.46 109.59 503.77 113.23 C 506.34 115.33 507.34 118.70 507.66 121.89 C 508.60 133.89 507.01 146.01 508.75 157.95 C 506.49 157.94 504.25 157.94 502.01 157.94 C 501.67 155.26 501.46 152.56 501.48 149.85 C 499.69 153.12 497.54 156.51 493.98 158.04 C 487.84 160.73 479.40 159.12 475.91 153.01 C 471.96 145.93 474.00 135.45 481.41 131.46 C 487.33 128.22 494.38 128.45 500.91 128.98 C 500.84 125.37 501.07 121.34 498.75 118.30 C 496.10 114.95 490.99 114.82 487.36 116.46 C 484.78 117.65 483.52 120.35 482.63 122.88 C 480.32 122.50 478.01 122.12 475.71 121.74 M 486.00 136.03 C 481.36 138.66 480.39 145.14 482.32 149.75 C 484.74 154.45 491.71 154.27 495.47 151.35 C 500.55 147.49 501.47 140.55 500.90 134.61 C 495.96 133.79 490.53 133.58 486.00 136.03 Z" />
<path fill="#a90533" opacity="1.00" d=" M 531.33 110.44 C 536.34 108.69 542.71 109.54 546.30 113.72 C 548.93 116.84 548.97 121.16 549.08 125.03 C 549.18 136.00 549.10 146.97 549.12 157.94 C 546.76 157.94 544.41 157.94 542.06 157.94 C 542.04 147.30 542.09 136.67 542.04 126.03 C 541.86 122.84 542.02 118.93 539.30 116.69 C 535.71 114.39 530.26 115.29 527.80 118.86 C 525.15 122.67 524.82 127.51 524.70 132.01 C 524.67 140.65 524.70 149.29 524.69 157.93 C 522.33 157.94 519.97 157.94 517.63 157.94 C 517.62 142.27 517.62 126.61 517.63 110.94 C 519.81 110.94 522.00 110.94 524.19 110.94 C 524.19 113.29 524.19 115.64 524.14 117.99 C 525.66 114.81 527.84 111.64 531.33 110.44 Z" />
<path fill="#a90533" opacity="1.00" d=" M 323.37 110.94 C 327.77 110.93 332.16 110.94 336.56 110.94 C 336.57 126.60 336.55 142.27 336.56 157.93 C 332.17 157.95 327.77 157.95 323.37 157.93 C 323.37 142.27 323.37 126.61 323.37 110.94 Z" />
</g>
</svg>
