<svg width="200" height="134" viewBox="0 0 200 134" fill="none" xmlns="http://www.w3.org/2000/svg">
<mask id="mask0_147_36" style="mask-type:alpha" maskUnits="userSpaceOnUse" x="0" y="0" width="200" height="134">
<rect width="200" height="133.131" fill="#021D1F"/>
</mask>
<g mask="url(#mask0_147_36)">
<path d="M153.055 66.1302V63.7363L155.347 63.2984V47.7237L153.055 47.2858V44.8773H169.389V50.4825H166.324L166.105 47.928H159.317V53.6062H166.645V56.6861H159.317V63.094H166.484L166.703 60.4812H169.739V66.1302H153.055Z" fill="#021D1F"/>
<path d="M133.417 66.1302V63.7363L135.709 63.2984V47.7237L133.417 47.2858V44.8773H135.709H139.679H142.204V47.2858L139.679 47.7237V63.094H146L146.233 59.9266H149.269V66.1302H133.417Z" fill="#021D1F"/>
<path d="M111.765 66.1302V63.7363L114.057 63.2984V47.7237L111.765 47.2858V44.8773H114.057H121.151C123.593 44.8773 125.501 45.3639 126.873 46.337C128.245 47.3004 128.931 48.7503 128.931 50.6868C128.931 51.6599 128.658 52.5309 128.113 53.2996C127.578 54.0684 126.819 54.6425 125.836 55.0221C126.683 55.2069 127.393 55.5378 127.968 56.0146C128.542 56.4915 128.975 57.0705 129.267 57.7516C129.568 58.4328 129.719 59.1773 129.719 59.9849C129.719 61.9993 129.053 63.5271 127.719 64.5683C126.396 65.6095 124.537 66.1302 122.143 66.1302H111.765ZM118.027 63.0794H122.143C123.311 63.0794 124.202 62.8167 124.815 62.2912C125.437 61.7657 125.749 60.997 125.749 59.9849C125.749 59.2648 125.632 58.6566 125.398 58.1603C125.175 57.6543 124.819 57.2699 124.333 57.0072C123.856 56.7445 123.243 56.6131 122.494 56.6131H118.027V63.0794ZM118.027 53.8105H121.428C122.547 53.8105 123.413 53.5624 124.026 53.0661C124.649 52.5698 124.961 51.8594 124.961 50.935C124.961 49.9132 124.639 49.159 123.997 48.6725C123.355 48.1859 122.406 47.9426 121.151 47.9426H118.027V53.8105Z" fill="#021D1F"/>
<path d="M79.5234 66.1302V63.7363L81.8005 63.2984V47.7237L79.5234 47.2858V44.8773H81.8005H87.5954L93.6093 59.9703H93.6969L99.521 44.8773H107.637V47.2858L105.345 47.7237V63.2984L107.637 63.7363V66.1302H99.0831V63.7363L101.492 63.2984V58.788L101.55 49.3439L101.477 49.3293L94.996 65.7361H92.062L85.4205 49.4315L85.3329 49.4461L85.5665 58.4377V63.2984L88.0771 63.7363V66.1302H79.5234Z" fill="#021D1F"/>
<path d="M65.1693 66.4367C63.5247 66.4367 62.0747 66.1496 60.8194 65.5755C59.5738 64.9916 58.6007 64.1499 57.9001 63.0503C57.1994 61.9409 56.8491 60.6029 56.8491 59.0362V47.7237L54.572 47.2858V44.8773H63.1111V47.2858L60.8194 47.7237V59.0362C60.8194 59.9995 60.9946 60.8024 61.3449 61.4446C61.705 62.0869 62.211 62.5686 62.863 62.8897C63.515 63.2108 64.2837 63.3714 65.1693 63.3714C66.0742 63.3714 66.8576 63.2157 67.5193 62.9043C68.181 62.5832 68.6871 62.1015 69.0374 61.4592C69.3974 60.817 69.5775 60.0093 69.5775 59.0362V47.7237L67.2858 47.2858V44.8773H75.8395V47.2858L73.5478 47.7237V59.0362C73.5478 60.6126 73.1975 61.9555 72.4968 63.0649C71.7962 64.1645 70.8182 65.0014 69.5629 65.5755C68.3075 66.1496 66.843 66.4367 65.1693 66.4367Z" fill="#021D1F"/>
<path d="M30 66.1302V63.7363L32.2917 63.2984V47.7237L30 47.2858V44.8773H38.5537V47.2858L36.262 47.7237V54.1171H45.239V47.7237L42.9473 47.2858V44.8773H45.239H49.2093H51.501V47.2858L49.2093 47.7237V63.2984L51.501 63.7363V66.1302H42.9473V63.7363L45.239 63.2984V57.1824H36.262V63.2984L38.5537 63.7363V66.1302H30Z" fill="#021D1F"/>
<path d="M168.594 84.4443C168.594 84.055 168.529 83.7079 168.399 83.403C168.27 83.0981 168.056 82.8256 167.757 82.5856C167.465 82.3391 167.069 82.112 166.57 81.9044C166.077 81.6903 165.461 81.4795 164.721 81.2719C164.014 81.0708 163.375 80.8502 162.804 80.6102C162.233 80.3701 161.743 80.0944 161.335 79.783C160.932 79.4716 160.624 79.1083 160.41 78.6931C160.196 78.2715 160.089 77.7817 160.089 77.2237C160.089 76.6788 160.206 76.1825 160.439 75.7349C160.673 75.2872 161 74.9012 161.422 74.5769C161.85 74.2525 162.353 74.0027 162.93 73.8276C163.514 73.6524 164.153 73.5648 164.848 73.5648C165.84 73.5648 166.696 73.753 167.417 74.1292C168.143 74.5055 168.704 75.0148 169.1 75.657C169.502 76.2928 169.703 77.0064 169.703 77.7979H168.506C168.506 77.1816 168.36 76.6334 168.069 76.1533C167.783 75.6667 167.368 75.2872 166.823 75.0148C166.284 74.7358 165.626 74.5963 164.848 74.5963C164.069 74.5963 163.414 74.7163 162.882 74.9564C162.356 75.1899 161.957 75.5046 161.685 75.9003C161.419 76.2895 161.286 76.7242 161.286 77.2043C161.286 77.5416 161.351 77.853 161.481 78.1385C161.61 78.4174 161.821 78.6802 162.113 78.9267C162.411 79.1667 162.804 79.3938 163.291 79.6079C163.777 79.8155 164.377 80.0133 165.091 80.2015C165.843 80.4091 166.512 80.6394 167.095 80.8924C167.679 81.1454 168.172 81.4373 168.575 81.7682C168.977 82.0926 169.282 82.4721 169.489 82.9067C169.697 83.3414 169.801 83.8474 169.801 84.4248C169.801 85.0022 169.677 85.5212 169.431 85.9818C169.191 86.4359 168.85 86.8219 168.409 87.1398C167.974 87.4577 167.459 87.7009 166.862 87.8696C166.272 88.0383 165.626 88.1226 164.925 88.1226C164.296 88.1226 163.67 88.0415 163.047 87.8794C162.424 87.7172 161.854 87.4674 161.335 87.1301C160.822 86.7862 160.41 86.3451 160.099 85.8066C159.794 85.2682 159.641 84.6259 159.641 83.8798H160.829C160.829 84.4767 160.949 84.9795 161.189 85.3882C161.429 85.7969 161.747 86.1277 162.142 86.3808C162.544 86.6338 162.986 86.8187 163.466 86.9354C163.952 87.0457 164.439 87.1009 164.925 87.1009C165.671 87.1009 166.317 86.9906 166.862 86.77C167.413 86.5494 167.838 86.2413 168.137 85.8455C168.442 85.4433 168.594 84.9762 168.594 84.4443Z" fill="#021D1F"/>
<path d="M152.057 86.9062V87.928H144.087V86.9062H152.057ZM144.447 73.7594V87.928H143.25V73.7594H144.447ZM151.064 80.1138V81.1356H144.087V80.1138H151.064ZM152.008 73.7594V74.7909H144.087V73.7594H152.008Z" fill="#021D1F"/>
<path d="M124.572 73.7594H129.175C130.154 73.7594 131.004 73.9183 131.724 74.2362C132.445 74.5541 132.999 75.0244 133.388 75.6472C133.784 76.2636 133.982 77.0226 133.982 77.9243C133.982 78.5925 133.839 79.1991 133.554 79.7441C133.275 80.289 132.889 80.7464 132.396 81.1162C131.903 81.4795 131.332 81.7292 130.683 81.8655L130.265 82.0212H125.351L125.331 80.9994H129.447C130.187 80.9994 130.803 80.8567 131.296 80.5712C131.789 80.2858 132.159 79.9095 132.406 79.4424C132.659 78.9688 132.785 78.4628 132.785 77.9243C132.785 77.2821 132.646 76.7274 132.367 76.2603C132.094 75.7867 131.689 75.4234 131.15 75.1704C130.612 74.9174 129.953 74.7909 129.175 74.7909H125.769V87.928H124.572V73.7594ZM133.32 87.928L129.652 81.593L130.936 81.5832L134.595 87.8015V87.928H133.32Z" fill="#021D1F"/>
<path d="M114.059 73.7594H115.255V83.3543C115.255 84.4183 115.032 85.3038 114.584 86.0109C114.136 86.7181 113.533 87.2468 112.774 87.5971C112.021 87.9474 111.188 88.1226 110.273 88.1226C109.332 88.1226 108.486 87.9474 107.733 87.5971C106.981 87.2468 106.384 86.7181 105.943 86.0109C105.508 85.3038 105.291 84.4183 105.291 83.3543V73.7594H106.478V83.3543C106.478 84.1782 106.64 84.8691 106.965 85.4271C107.289 85.985 107.737 86.4034 108.307 86.6824C108.878 86.9613 109.534 87.1008 110.273 87.1008C111.006 87.1008 111.658 86.9613 112.229 86.6824C112.8 86.4034 113.248 85.985 113.572 85.4271C113.896 84.8691 114.059 84.1782 114.059 83.3543V73.7594Z" fill="#021D1F"/>
<path d="M92.3644 73.7594V87.928H91.1772V73.7594H92.3644ZM97.2202 73.7594V74.7909H86.3311V73.7594H97.2202Z" fill="#021D1F"/>
<path d="M78.3086 73.7594V87.928H77.1019L68.9569 75.8224V87.928H67.76V73.7594H68.9569L77.1214 85.865V73.7594H78.3086Z" fill="#021D1F"/>
<path d="M59.2413 86.9062V87.928H51.2714V86.9062H59.2413ZM51.6315 73.7594V87.928H50.4346V73.7594H51.6315ZM58.2487 80.1138V81.1356H51.2714V80.1138H58.2487ZM59.1926 73.7594V74.7909H51.2714V73.7594H59.1926Z" fill="#021D1F"/>
<path d="M36.583 86.1666L41.0496 73.7594H42.3536L37.0793 87.928H36.116L36.583 86.1666ZM31.9705 73.7594L36.4176 86.1666L36.9042 87.928H35.9311L30.6665 73.7594H31.9705Z" fill="#021D1F"/>
</g>
</svg>
