<svg width="244" height="56" viewBox="0 0 244 56" fill="none" xmlns="http://www.w3.org/2000/svg">
<g clip-path="url(#clip0_75_73)">
<mask id="mask0_75_73" style="mask-type:luminance" maskUnits="userSpaceOnUse" x="0" y="0" width="244" height="56">
<path d="M243.02 0H0V55.3H243.02V0Z" fill="white"/>
</mask>
<g mask="url(#mask0_75_73)">
<path fill-rule="evenodd" clip-rule="evenodd" d="M21.0024 45.1999C14.9024 45.1999 11.0024 40.3999 11.0024 34.2999V34.1999C11.0024 28.3999 15.0024 23.4999 20.5024 23.4999C24.5024 23.4999 27.0024 25.1999 29.5024 27.7999L36.3024 20.4999C32.6024 16.3999 28.0024 13.8999 20.6024 13.8999C8.60244 13.8999 0.00244141 23.0999 0.00244141 34.3999V34.4999C0.00244141 45.6999 8.70244 54.7999 20.5024 54.7999C28.4024 54.7999 32.8024 51.7999 36.6024 47.5999L30.0024 41.0999C27.3024 43.5999 24.7025 45.1999 21.0024 45.1999Z" fill="#2A214D"/>
<path fill-rule="evenodd" clip-rule="evenodd" d="M54.8023 4.6001H43.7024V14.7001H41.1024H39.0024V24.2001H41.1024H43.7024V42.8001C43.7024 51.9001 48.3024 54.6001 55.2024 54.6001C58.9024 54.6001 61.7024 53.7001 64.0024 52.3001V43.3001C62.4024 44.2001 60.5024 44.7001 58.5024 44.7001C56.0024 44.7001 54.9024 43.4001 54.9024 40.9001V24.2001H64.1024V14.7001H54.8023V4.6001Z" fill="#2A214D"/>
<path fill-rule="evenodd" clip-rule="evenodd" d="M88.4024 13.8999C76.1024 13.8999 67.0024 23.0999 67.0024 34.3999V34.4999C67.0024 45.7999 76.0024 54.7999 88.2024 54.7999C100.502 54.7999 109.602 45.5999 109.602 34.2999V34.1999C109.702 22.8999 100.602 13.8999 88.4024 13.8999ZM98.7025 34.4999C98.7025 40.2999 94.9025 45.1999 88.5025 45.1999C82.3025 45.1999 78.2025 40.0999 78.2025 34.2999V34.1999C78.2025 28.3999 82.0025 23.4999 88.4024 23.4999C94.6024 23.4999 98.7025 28.5999 98.7025 34.3999V34.4999Z" fill="#2A214D"/>
<path fill-rule="evenodd" clip-rule="evenodd" d="M117.502 0H121.802V54.3H117.502V0Z" fill="#2A214D"/>
<path fill-rule="evenodd" clip-rule="evenodd" d="M146.002 15.6001C143.402 15.6001 141.002 15.9001 138.902 16.5001C136.802 17.1001 134.702 17.9001 132.602 18.9001L132.302 19.1001L133.902 22.9001L134.302 22.7001C136.002 21.8001 137.802 21.1001 139.702 20.6001C141.602 20.0001 143.702 19.8001 145.902 19.8001C149.702 19.8001 152.602 20.7001 154.702 22.6001C156.802 24.4001 157.802 27.2001 157.802 30.9001V32.0001C156.102 31.6001 154.402 31.2001 152.602 30.9001C150.702 30.6001 148.402 30.5001 145.702 30.5001C143.202 30.5001 141.002 30.8001 138.902 31.3001C136.902 31.9001 135.102 32.7001 133.602 33.7001C132.102 34.8001 131.002 36.1001 130.102 37.6001C129.302 39.2001 128.802 41.0001 128.802 43.0001V43.1001C128.802 45.1001 129.202 46.9001 130.102 48.4001C131.002 49.9001 132.102 51.2001 133.502 52.2001C134.902 53.2001 136.502 54.0001 138.202 54.5001C139.902 55.0001 141.702 55.2001 143.502 55.2001C145.302 55.2001 147.002 55.0001 148.502 54.6001C150.002 54.2001 151.402 53.6001 152.602 53.0001C153.802 52.3001 154.902 51.5001 155.802 50.7001C156.402 50.1001 157.002 49.5001 157.502 48.9001V54.4001H161.802V30.6001C161.802 26.0001 160.502 22.4001 157.902 19.8001C155.302 17.0001 151.302 15.6001 146.002 15.6001ZM157.902 36.0001V40.0001C157.902 41.6001 157.502 43.2001 156.802 44.5001C156.102 45.9001 155.102 47.0001 153.802 48.0001C152.502 49.0001 151.102 49.7001 149.402 50.3001C147.702 50.8001 145.902 51.1001 144.102 51.1001C142.702 51.1001 141.402 50.9001 140.102 50.5001C138.802 50.1001 137.702 49.6001 136.702 48.9001C135.702 48.2001 135.002 47.4001 134.402 46.4001C133.802 45.4001 133.602 44.3001 133.602 43.0001V42.9001C133.602 40.4001 134.602 38.4001 136.602 36.9001C138.702 35.4001 141.702 34.6001 145.502 34.6001C148.202 34.6001 150.602 34.8001 152.602 35.1001C154.602 35.3001 156.402 35.6001 157.902 36.0001Z" fill="#2A214D"/>
<path fill-rule="evenodd" clip-rule="evenodd" d="M203.102 20.5C201.402 18.8 199.402 17.5 197.102 16.6C194.902 15.7 192.602 15.3 190.302 15.3C188.402 15.3 186.702 15.6 185.102 16.1C183.502 16.6 182.102 17.3 180.802 18.2C179.502 19 178.402 20.1 177.302 21.2C176.502 22 175.802 22.9 175.202 23.8V0H170.902V54.3H175.202V47.1C175.802 47.9 176.502 48.8 177.202 49.6C178.202 50.7 179.402 51.7 180.602 52.5C181.902 53.3 183.302 54 184.902 54.5C186.502 55 188.302 55.3 190.102 55.3C192.402 55.3 194.702 54.8 196.902 53.9C199.102 53 201.102 51.7 202.902 49.9C204.602 48.2 206.102 46.1 207.102 43.6C208.202 41.1 208.702 38.3 208.702 35.3V35.1C208.702 32 208.202 29.2 207.102 26.8C206.302 24.3 204.902 22.2 203.102 20.5ZM204.402 35.3V35.4C204.402 37.8 204.002 40.1 203.302 42C202.602 43.9 201.502 45.6 200.302 46.9C199.002 48.2 197.502 49.3 195.802 50C192.402 51.4 188.302 51.5 184.602 49.9C182.802 49.1 181.202 48.1 179.802 46.7C178.402 45.3 177.302 43.7 176.502 41.8C175.702 39.9 175.202 37.7 175.202 35.4V35.3C175.202 33 175.602 30.8 176.502 28.9C177.302 27 178.502 25.3 179.802 23.9C181.202 22.5 182.802 21.4 184.602 20.7C186.402 19.9 188.302 19.6 190.202 19.6C192.102 19.6 194.002 20 195.702 20.7C197.402 21.4 199.002 22.5 200.302 23.8C201.602 25.2 202.702 26.8 203.402 28.8C204.002 30.7 204.402 32.9 204.402 35.3Z" fill="#2A214D"/>
<path fill-rule="evenodd" clip-rule="evenodd" d="M241.902 39.3C241.202 38.1 240.202 37.1 239.002 36.3C237.802 35.5 236.402 34.8 234.902 34.3C233.402 33.8 231.902 33.3 230.402 32.9C229.102 32.5 227.802 32.1 226.502 31.7C225.302 31.3 224.202 30.8 223.202 30.3C222.302 29.8 221.602 29.2 221.002 28.5C220.502 27.8 220.202 27 220.202 26.1V26C220.202 24.2 220.902 22.8 222.402 21.6C223.902 20.4 225.902 19.8 228.402 19.8C230.402 19.8 232.302 20.1 234.302 20.8C236.302 21.5 238.102 22.4 239.802 23.5L240.102 23.7L242.402 20.1L242.102 19.9C240.202 18.6 238.102 17.6 235.702 16.8C231.302 15.4 227.002 15.3 223.502 16.4C221.902 16.9 220.602 17.7 219.502 18.6C218.402 19.6 217.502 20.7 216.902 22C216.302 23.3 215.902 24.7 215.902 26.3V26.4C215.902 28.1 216.302 29.6 217.102 30.8C217.902 32 218.902 32.9 220.202 33.7C221.402 34.5 222.902 35.1 224.402 35.6C225.902 36.1 227.502 36.6 229.002 37C230.302 37.4 231.502 37.8 232.702 38.2C233.802 38.6 234.902 39.1 235.802 39.6C236.702 40.2 237.402 40.8 237.902 41.6C238.402 42.3 238.602 43.2 238.602 44.2V44.3C238.602 46.4 237.802 48 236.102 49.2C234.402 50.4 232.302 51 229.902 51C227.602 51 225.302 50.6 223.102 49.7C220.902 48.9 218.702 47.7 216.702 46.1L216.402 45.9L213.802 49.3L214.102 49.5C216.102 51.1 218.602 52.5 221.302 53.5C224.102 54.5 226.902 55.1 229.702 55.1C231.502 55.1 233.302 54.8 234.902 54.3C236.502 53.8 237.902 53 239.102 52C240.302 51 241.302 49.8 242.002 48.4C242.702 47 243.002 45.4 243.002 43.7V43.6C243.102 41.9 242.702 40.5 241.902 39.3Z" fill="#2A214D"/>
</g>
</g>
<defs>
<clipPath id="clip0_75_73">
<rect width="243.02" height="55.3" fill="white"/>
</clipPath>
</defs>
</svg>
