<svg width="302" height="132" viewBox="0 0 302 132" fill="none" xmlns="http://www.w3.org/2000/svg">
<path d="M38.4297 65V61.1562L42.1094 60.4531V35.4453L38.4297 34.7422V30.875H52.1641V34.7422L48.4844 35.4453V45.7109H62.8984V35.4453L59.2188 34.7422V30.875H62.8984H69.2734H72.9531V34.7422L69.2734 35.4453V60.4531L72.9531 61.1562V65H59.2188V61.1562L62.8984 60.4531V50.6328H48.4844V60.4531L52.1641 61.1562V65H38.4297ZM94.9 65.4922C92.2594 65.4922 89.9313 65.0312 87.9156 64.1094C85.9156 63.1719 84.3531 61.8203 83.2281 60.0547C82.1031 58.2734 81.5406 56.125 81.5406 53.6094V35.4453L77.8844 34.7422V30.875H91.5953V34.7422L87.9156 35.4453V53.6094C87.9156 55.1562 88.1969 56.4453 88.7594 57.4766C89.3375 58.5078 90.15 59.2812 91.1969 59.7969C92.2438 60.3125 93.4781 60.5703 94.9 60.5703C96.3531 60.5703 97.6109 60.3203 98.6734 59.8203C99.7359 59.3047 100.548 58.5312 101.111 57.5C101.689 56.4688 101.978 55.1719 101.978 53.6094V35.4453L98.2984 34.7422V30.875H112.033V34.7422L108.353 35.4453V53.6094C108.353 56.1406 107.791 58.2969 106.666 60.0781C105.541 61.8438 103.97 63.1875 101.955 64.1094C99.9391 65.0312 97.5875 65.4922 94.9 65.4922ZM117.948 65V61.1562L121.604 60.4531V35.4453L117.948 34.7422V30.875H121.604H130.908L140.565 55.1094H140.705L150.057 30.875H163.088V34.7422L159.408 35.4453V60.4531L163.088 61.1562V65H149.354V61.1562L153.221 60.4531V53.2109L153.315 38.0469L153.198 38.0234L142.791 64.3672H138.08L127.416 38.1875L127.276 38.2109L127.651 52.6484V60.4531L131.682 61.1562V65H117.948ZM169.717 65V61.1562L173.397 60.4531V35.4453L169.717 34.7422V30.875H173.397H184.788C188.709 30.875 191.772 31.6562 193.975 33.2188C196.178 34.7656 197.28 37.0938 197.28 40.2031C197.28 41.7656 196.842 43.1641 195.967 44.3984C195.108 45.6328 193.889 46.5547 192.311 47.1641C193.67 47.4609 194.811 47.9922 195.733 48.7578C196.655 49.5234 197.35 50.4531 197.819 51.5469C198.303 52.6406 198.545 53.8359 198.545 55.1328C198.545 58.3672 197.475 60.8203 195.334 62.4922C193.209 64.1641 190.225 65 186.381 65H169.717ZM179.772 60.1016H186.381C188.256 60.1016 189.686 59.6797 190.67 58.8359C191.67 57.9922 192.17 56.7578 192.17 55.1328C192.17 53.3984 191.748 52.0625 190.905 51.125C190.061 50.1875 188.741 49.7188 186.944 49.7188H179.772V60.1016ZM179.772 45.2188H185.233C187.03 45.2188 188.42 44.8203 189.405 44.0234C190.405 43.2266 190.905 42.0859 190.905 40.6016C190.905 38.9609 190.389 37.75 189.358 36.9688C188.327 36.1875 186.803 35.7969 184.788 35.7969H179.772V45.2188ZM204.483 65V61.1562L208.163 60.4531V35.4453L204.483 34.7422V30.875H208.163H214.538H218.593V34.7422L214.538 35.4453V60.125H224.687L225.062 55.0391H229.937V65H204.483ZM236.015 65V61.1562L239.695 60.4531V35.4453L236.015 34.7422V30.875H262.242V39.875H257.32L256.968 35.7734H246.07V44.8906H257.836V49.8359H246.07V60.125H257.578L257.929 55.9297H262.804V65H236.015Z" fill="white"/>
<path d="M49 97.1719L56.1719 77.25H58.2656L49.7969 100H48.25L49 97.1719ZM41.5938 77.25L48.7344 97.1719L49.5156 100H47.9531L39.5 77.25H41.5938ZM85.3813 98.3594V100H72.5844V98.3594H85.3813ZM73.1625 77.25V100H71.2406V77.25H73.1625ZM83.7875 87.4531V89.0938H72.5844V87.4531H83.7875ZM85.3031 77.25V78.9062H72.5844V77.25H85.3031ZM115.997 77.25V100H114.059L100.981 80.5625V100H99.0594V77.25H100.981L114.091 96.6875V77.25H115.997ZM138.566 77.25V100H136.659V77.25H138.566ZM146.363 77.25V78.9062H128.878V77.25H146.363ZM173.4 77.25H175.322V92.6562C175.322 94.3646 174.963 95.7865 174.244 96.9219C173.525 98.0573 172.556 98.9062 171.338 99.4688C170.129 100.031 168.791 100.312 167.322 100.312C165.811 100.312 164.452 100.031 163.244 99.4688C162.035 98.9062 161.077 98.0573 160.369 96.9219C159.671 95.7865 159.322 94.3646 159.322 92.6562V77.25H161.228V92.6562C161.228 93.9792 161.489 95.0885 162.009 95.9844C162.53 96.8802 163.249 97.5521 164.166 98C165.082 98.4479 166.134 98.6719 167.322 98.6719C168.499 98.6719 169.546 98.4479 170.463 98C171.379 97.5521 172.098 96.8802 172.619 95.9844C173.14 95.0885 173.4 93.9792 173.4 92.6562V77.25ZM190.281 77.25H197.672C199.245 77.25 200.609 77.5052 201.766 78.0156C202.922 78.526 203.812 79.2812 204.438 80.2812C205.073 81.2708 205.391 82.4896 205.391 83.9375C205.391 85.0104 205.161 85.9844 204.703 86.8594C204.255 87.7344 203.635 88.4688 202.844 89.0625C202.052 89.6458 201.135 90.0469 200.094 90.2656L199.422 90.5156H191.531L191.5 88.875H198.109C199.297 88.875 200.286 88.6458 201.078 88.1875C201.87 87.7292 202.464 87.125 202.859 86.375C203.266 85.6146 203.469 84.8021 203.469 83.9375C203.469 82.9062 203.245 82.0156 202.797 81.2656C202.359 80.5052 201.708 79.9219 200.844 79.5156C199.979 79.1094 198.922 78.9062 197.672 78.9062H192.203V100H190.281V77.25ZM204.328 100L198.438 89.8281L200.5 89.8125L206.375 99.7969V100H204.328ZM234.413 98.3594V100H221.616V98.3594H234.413ZM222.194 77.25V100H220.272V77.25H222.194ZM232.819 87.4531V89.0938H221.616V87.4531H232.819ZM234.334 77.25V78.9062H221.616V77.25H234.334ZM260.966 94.4062C260.966 93.7812 260.861 93.224 260.653 92.7344C260.445 92.2448 260.101 91.8073 259.622 91.4219C259.153 91.026 258.518 90.6615 257.716 90.3281C256.924 89.9844 255.934 89.6458 254.747 89.3125C253.611 88.9896 252.585 88.6354 251.669 88.25C250.752 87.8646 249.966 87.4219 249.309 86.9219C248.664 86.4219 248.169 85.8385 247.825 85.1719C247.481 84.4948 247.309 83.7083 247.309 82.8125C247.309 81.9375 247.497 81.1406 247.872 80.4219C248.247 79.7031 248.773 79.0833 249.45 78.5625C250.137 78.0417 250.945 77.6406 251.872 77.3594C252.809 77.0781 253.835 76.9375 254.95 76.9375C256.544 76.9375 257.919 77.2396 259.075 77.8438C260.242 78.4479 261.143 79.2656 261.778 80.2969C262.424 81.3177 262.747 82.4635 262.747 83.7344H260.825C260.825 82.7448 260.591 81.8646 260.122 81.0938C259.664 80.3125 258.997 79.7031 258.122 79.2656C257.257 78.8177 256.2 78.5938 254.95 78.5938C253.7 78.5938 252.648 78.7865 251.794 79.1719C250.95 79.5469 250.309 80.0521 249.872 80.6875C249.445 81.3125 249.231 82.0104 249.231 82.7812C249.231 83.3229 249.335 83.8229 249.544 84.2812C249.752 84.7292 250.091 85.151 250.559 85.5469C251.039 85.9323 251.669 86.2969 252.45 86.6406C253.231 86.974 254.195 87.2917 255.341 87.5938C256.549 87.9271 257.622 88.2969 258.559 88.7031C259.497 89.1094 260.289 89.5781 260.934 90.1094C261.58 90.6302 262.07 91.2396 262.403 91.9375C262.736 92.6354 262.903 93.4479 262.903 94.375C262.903 95.3021 262.705 96.1354 262.309 96.875C261.924 97.6042 261.377 98.224 260.669 98.7344C259.971 99.2448 259.143 99.6354 258.184 99.9062C257.236 100.177 256.2 100.312 255.075 100.312C254.065 100.312 253.059 100.182 252.059 99.9219C251.059 99.6615 250.143 99.2604 249.309 98.7188C248.486 98.1667 247.825 97.4583 247.325 96.5938C246.835 95.7292 246.591 94.6979 246.591 93.5H248.497C248.497 94.4583 248.69 95.2656 249.075 95.9219C249.46 96.5781 249.971 97.1094 250.606 97.5156C251.252 97.9219 251.96 98.2188 252.731 98.4062C253.512 98.5833 254.294 98.6719 255.075 98.6719C256.273 98.6719 257.309 98.4948 258.184 98.1406C259.07 97.7865 259.752 97.2917 260.231 96.6562C260.721 96.0104 260.966 95.2604 260.966 94.4062Z" fill="white"/>
</svg>
