<svg width="229" height="93" viewBox="0 0 229 93" fill="none" xmlns="http://www.w3.org/2000/svg">
<path d="M1.42969 50V46.1562L5.10938 45.4531V20.4453L1.42969 19.7422V15.875H15.1641V19.7422L11.4844 20.4453V30.7109H25.8984V20.4453L22.2188 19.7422V15.875H25.8984H32.2734H35.9531V19.7422L32.2734 20.4453V45.4531L35.9531 46.1562V50H22.2188V46.1562L25.8984 45.4531V35.6328H11.4844V45.4531L15.1641 46.1562V50H1.42969ZM57.9 50.4922C55.2594 50.4922 52.9313 50.0312 50.9156 49.1094C48.9156 48.1719 47.3531 46.8203 46.2281 45.0547C45.1031 43.2734 44.5406 41.125 44.5406 38.6094V20.4453L40.8844 19.7422V15.875H54.5953V19.7422L50.9156 20.4453V38.6094C50.9156 40.1562 51.1969 41.4453 51.7594 42.4766C52.3375 43.5078 53.15 44.2812 54.1969 44.7969C55.2438 45.3125 56.4781 45.5703 57.9 45.5703C59.3531 45.5703 60.6109 45.3203 61.6734 44.8203C62.7359 44.3047 63.5484 43.5312 64.1109 42.5C64.6891 41.4688 64.9781 40.1719 64.9781 38.6094V20.4453L61.2984 19.7422V15.875H75.0328V19.7422L71.3531 20.4453V38.6094C71.3531 41.1406 70.7906 43.2969 69.6656 45.0781C68.5406 46.8438 66.9703 48.1875 64.9547 49.1094C62.9391 50.0312 60.5875 50.4922 57.9 50.4922ZM80.9475 50V46.1562L84.6038 45.4531V20.4453L80.9475 19.7422V15.875H84.6038H93.9084L103.565 40.1094H103.705L113.057 15.875H126.088V19.7422L122.408 20.4453V45.4531L126.088 46.1562V50H112.354V46.1562L116.221 45.4531V38.2109L116.315 23.0469L116.198 23.0234L105.791 49.3672H101.08L90.4163 23.1875L90.2756 23.2109L90.6506 37.6484V45.4531L94.6819 46.1562V50H80.9475ZM132.717 50V46.1562L136.397 45.4531V20.4453L132.717 19.7422V15.875H136.397H147.788C151.709 15.875 154.772 16.6562 156.975 18.2188C159.178 19.7656 160.28 22.0938 160.28 25.2031C160.28 26.7656 159.842 28.1641 158.967 29.3984C158.108 30.6328 156.889 31.5547 155.311 32.1641C156.67 32.4609 157.811 32.9922 158.733 33.7578C159.655 34.5234 160.35 35.4531 160.819 36.5469C161.303 37.6406 161.545 38.8359 161.545 40.1328C161.545 43.3672 160.475 45.8203 158.334 47.4922C156.209 49.1641 153.225 50 149.381 50H132.717ZM142.772 45.1016H149.381C151.256 45.1016 152.686 44.6797 153.67 43.8359C154.67 42.9922 155.17 41.7578 155.17 40.1328C155.17 38.9766 154.983 38 154.608 37.2031C154.248 36.3906 153.678 35.7734 152.897 35.3516C152.131 34.9297 151.147 34.7188 149.944 34.7188H142.772V45.1016ZM142.772 30.2188H148.233C150.03 30.2188 151.42 29.8203 152.405 29.0234C153.405 28.2266 153.905 27.0859 153.905 25.6016C153.905 23.9609 153.389 22.75 152.358 21.9688C151.327 21.1875 149.803 20.7969 147.788 20.7969H142.772V30.2188ZM167.483 50V46.1562L171.163 45.4531V20.4453L167.483 19.7422V15.875H171.163H177.538H181.593V19.7422L177.538 20.4453V45.125H187.687L188.062 40.0391H192.937V50H167.483ZM199.015 50V46.1562L202.695 45.4531V20.4453L199.015 19.7422V15.875H225.242V24.875H220.32L219.968 20.7734H209.07V29.8906H220.836V34.8359H209.07V45.125H220.578L220.929 40.9297H225.804V50H199.015Z" fill="white"/>
<path d="M12 82.1719L19.1719 62.25H21.2656L12.7969 85H11.25L12 82.1719ZM4.59375 62.25L11.7344 82.1719L12.5156 85H10.9531L2.5 62.25H4.59375ZM48.3813 83.3594V85H35.5844V83.3594H48.3813ZM36.1625 62.25V85H34.2406V62.25H36.1625ZM46.7875 72.4531V74.0938H35.5844V72.4531H46.7875ZM48.3031 62.25V63.9062H35.5844V62.25H48.3031ZM78.9969 62.25V85H77.0594L63.9813 65.5625V85H62.0594V62.25H63.9813L77.0906 81.6875V62.25H78.9969ZM101.566 62.25V85H99.6594V62.25H101.566ZM109.363 62.25V63.9062H91.8781V62.25H109.363ZM136.4 62.25H138.322V77.6562C138.322 79.3646 137.963 80.7865 137.244 81.9219C136.525 83.0573 135.556 83.9062 134.338 84.4688C133.129 85.0312 131.791 85.3125 130.322 85.3125C128.811 85.3125 127.452 85.0312 126.244 84.4688C125.035 83.9062 124.077 83.0573 123.369 81.9219C122.671 80.7865 122.322 79.3646 122.322 77.6562V62.25H124.228V77.6562C124.228 78.9792 124.489 80.0885 125.009 80.9844C125.53 81.8802 126.249 82.5521 127.166 83C128.082 83.4479 129.134 83.6719 130.322 83.6719C131.499 83.6719 132.546 83.4479 133.463 83C134.379 82.5521 135.098 81.8802 135.619 80.9844C136.14 80.0885 136.4 78.9792 136.4 77.6562V62.25ZM153.281 62.25H160.672C162.245 62.25 163.609 62.5052 164.766 63.0156C165.922 63.526 166.812 64.2812 167.438 65.2812C168.073 66.2708 168.391 67.4896 168.391 68.9375C168.391 70.0104 168.161 70.9844 167.703 71.8594C167.255 72.7344 166.635 73.4688 165.844 74.0625C165.052 74.6458 164.135 75.0469 163.094 75.2656L162.422 75.5156H154.531L154.5 73.875H161.109C162.297 73.875 163.286 73.6458 164.078 73.1875C164.87 72.7292 165.464 72.125 165.859 71.375C166.266 70.6146 166.469 69.8021 166.469 68.9375C166.469 67.9062 166.245 67.0156 165.797 66.2656C165.359 65.5052 164.708 64.9219 163.844 64.5156C162.979 64.1094 161.922 63.9062 160.672 63.9062H155.203V85H153.281V62.25ZM167.328 85L161.438 74.8281L163.5 74.8125L169.375 84.7969V85H167.328ZM197.413 83.3594V85H184.616V83.3594H197.413ZM185.194 62.25V85H183.272V62.25H185.194ZM195.819 72.4531V74.0938H184.616V72.4531H195.819ZM197.334 62.25V63.9062H184.616V62.25H197.334ZM223.966 79.4062C223.966 78.7812 223.861 78.224 223.653 77.7344C223.445 77.2448 223.101 76.8073 222.622 76.4219C222.153 76.026 221.518 75.6615 220.716 75.3281C219.924 74.9844 218.934 74.6458 217.747 74.3125C216.611 73.9896 215.585 73.6354 214.669 73.25C213.752 72.8646 212.966 72.4219 212.309 71.9219C211.664 71.4219 211.169 70.8385 210.825 70.1719C210.481 69.4948 210.309 68.7083 210.309 67.8125C210.309 66.9375 210.497 66.1406 210.872 65.4219C211.247 64.7031 211.773 64.0833 212.45 63.5625C213.137 63.0417 213.945 62.6406 214.872 62.3594C215.809 62.0781 216.835 61.9375 217.95 61.9375C219.544 61.9375 220.919 62.2396 222.075 62.8438C223.242 63.4479 224.143 64.2656 224.778 65.2969C225.424 66.3177 225.747 67.4635 225.747 68.7344H223.825C223.825 67.7448 223.591 66.8646 223.122 66.0938C222.664 65.3125 221.997 64.7031 221.122 64.2656C220.257 63.8177 219.2 63.5938 217.95 63.5938C216.7 63.5938 215.648 63.7865 214.794 64.1719C213.95 64.5469 213.309 65.0521 212.872 65.6875C212.445 66.3125 212.231 67.0104 212.231 67.7812C212.231 68.3229 212.335 68.8229 212.544 69.2812C212.752 69.7292 213.091 70.151 213.559 70.5469C214.039 70.9323 214.669 71.2969 215.45 71.6406C216.231 71.974 217.195 72.2917 218.341 72.5938C219.549 72.9271 220.622 73.2969 221.559 73.7031C222.497 74.1094 223.289 74.5781 223.934 75.1094C224.58 75.6302 225.07 76.2396 225.403 76.9375C225.736 77.6354 225.903 78.4479 225.903 79.375C225.903 80.3021 225.705 81.1354 225.309 81.875C224.924 82.6042 224.377 83.224 223.669 83.7344C222.971 84.2448 222.143 84.6354 221.184 84.9062C220.236 85.1771 219.2 85.3125 218.075 85.3125C217.065 85.3125 216.059 85.1823 215.059 84.9219C214.059 84.6615 213.143 84.2604 212.309 83.7188C211.486 83.1667 210.825 82.4583 210.325 81.5938C209.835 80.7292 209.591 79.6979 209.591 78.5H211.497C211.497 79.4583 211.69 80.2656 212.075 80.9219C212.46 81.5781 212.971 82.1094 213.606 82.5156C214.252 82.9219 214.96 83.2188 215.731 83.4062C216.512 83.5833 217.294 83.6719 218.075 83.6719C219.273 83.6719 220.309 83.4948 221.184 83.1406C222.07 82.7865 222.752 82.2917 223.231 81.6562C223.721 81.0104 223.966 80.2604 223.966 79.4062Z" fill="white"/>
</svg>
