<svg width="595" height="471" viewBox="0 0 595 471" fill="none" xmlns="http://www.w3.org/2000/svg">
<rect width="595" height="471" fill="white"/>
<path opacity="0.8" d="M297.5 6L555.143 452.25H39.8575L297.5 6Z" fill="#033135"/>
<path fill-rule="evenodd" clip-rule="evenodd" d="M382.295 301.869H215.58V286.06H382.295V301.869Z" fill="#B7874A"/>
<path d="M290.314 311.93C290.314 328.599 276.48 342.111 259.414 342.111C242.349 342.111 228.515 328.599 228.515 311.93C228.515 295.262 242.349 281.749 259.414 281.749C276.48 281.749 290.314 295.262 290.314 311.93Z" fill="#E9EDE9"/>
<path fill-rule="evenodd" clip-rule="evenodd" d="M258.696 281.988C242.16 281.988 228.754 295.394 228.754 311.93C228.754 328.466 242.16 341.872 258.696 341.872C275.232 341.872 288.638 328.466 288.638 311.93C288.638 295.394 275.232 281.988 258.696 281.988ZM222.766 311.93C222.766 292.086 238.853 276 258.696 276C278.54 276 294.626 292.086 294.626 311.93C294.626 331.774 278.54 347.86 258.696 347.86C238.853 347.86 222.766 331.774 222.766 311.93Z" fill="#B7874A"/>
<path d="M367.923 311.93C367.923 328.599 354.088 342.111 337.023 342.111C319.957 342.111 306.123 328.599 306.123 311.93C306.123 295.262 319.957 281.749 337.023 281.749C354.088 281.749 367.923 295.262 367.923 311.93Z" fill="#E9EDE9"/>
<path fill-rule="evenodd" clip-rule="evenodd" d="M337.741 281.988C321.205 281.988 307.8 295.394 307.8 311.93C307.8 328.466 321.205 341.872 337.741 341.872C354.278 341.872 367.683 328.466 367.683 311.93C367.683 295.394 354.278 281.988 337.741 281.988ZM301.812 311.93C301.812 292.086 317.898 276 337.741 276C357.585 276 373.671 292.086 373.671 311.93C373.671 331.774 357.585 347.86 337.741 347.86C317.898 347.86 301.812 331.774 301.812 311.93Z" fill="#B7874A"/>
<path d="M225.332 197V181.304H229.532C231.132 181.304 232.5 181.592 233.636 182.168C234.772 182.744 235.644 183.608 236.252 184.76C236.86 185.912 237.164 187.352 237.164 189.08C237.164 190.808 236.86 192.264 236.252 193.448C235.66 194.616 234.804 195.504 233.684 196.112C232.564 196.704 231.228 197 229.676 197H225.332ZM228.116 194.744H229.34C230.396 194.744 231.292 194.544 232.028 194.144C232.78 193.728 233.348 193.104 233.732 192.272C234.116 191.44 234.308 190.376 234.308 189.08C234.308 187.8 234.116 186.752 233.732 185.936C233.348 185.12 232.78 184.52 232.028 184.136C231.292 183.752 230.396 183.56 229.34 183.56H228.116V194.744ZM240.092 197V185.216H242.852V197H240.092ZM241.46 183.152C240.98 183.152 240.58 183.008 240.26 182.72C239.956 182.432 239.804 182.048 239.804 181.568C239.804 181.088 239.956 180.712 240.26 180.44C240.58 180.152 240.98 180.008 241.46 180.008C241.956 180.008 242.356 180.152 242.66 180.44C242.964 180.712 243.116 181.088 243.116 181.568C243.116 182.048 242.964 182.432 242.66 182.72C242.356 183.008 241.956 183.152 241.46 183.152ZM246.853 197V184.184C246.853 183.368 246.989 182.648 247.261 182.024C247.549 181.384 247.997 180.888 248.605 180.536C249.213 180.184 249.989 180.008 250.933 180.008C251.381 180.008 251.805 180.048 252.205 180.128C252.621 180.208 252.965 180.312 253.237 180.44L252.709 182.504C252.485 182.392 252.261 182.312 252.037 182.264C251.813 182.216 251.541 182.192 251.221 182.192C250.741 182.192 250.349 182.36 250.045 182.696C249.757 183.032 249.613 183.528 249.613 184.184V197H246.853ZM254.077 197V183.992C254.077 183.176 254.205 182.448 254.461 181.808C254.733 181.168 255.149 180.672 255.709 180.32C256.285 179.952 257.037 179.768 257.965 179.768C258.397 179.768 258.797 179.808 259.165 179.888C259.549 179.968 259.869 180.064 260.125 180.176L259.597 182.24C259.389 182.144 259.173 182.072 258.949 182.024C258.741 181.976 258.533 181.952 258.325 181.952C257.845 181.952 257.477 182.112 257.221 182.432C256.965 182.752 256.837 183.256 256.837 183.944V197H254.077ZM245.101 187.4V185.336L246.877 185.216H259.141V187.4H245.101ZM266.039 197.288C264.935 197.288 263.935 197.048 263.039 196.568C262.159 196.072 261.463 195.368 260.951 194.456C260.439 193.528 260.183 192.408 260.183 191.096C260.183 189.816 260.447 188.72 260.975 187.808C261.503 186.88 262.183 186.168 263.015 185.672C263.847 185.176 264.727 184.928 265.655 184.928C266.727 184.928 267.623 185.168 268.343 185.648C269.063 186.128 269.599 186.792 269.951 187.64C270.319 188.472 270.503 189.432 270.503 190.52C270.503 190.776 270.487 191.024 270.455 191.264C270.439 191.504 270.407 191.736 270.359 191.96H262.247V189.848H268.055C268.055 189 267.863 188.336 267.479 187.856C267.095 187.36 266.503 187.112 265.703 187.112C265.255 187.112 264.815 187.232 264.383 187.472C263.967 187.712 263.615 188.12 263.327 188.696C263.055 189.272 262.919 190.072 262.919 191.096C262.919 192.024 263.079 192.784 263.399 193.376C263.719 193.952 264.143 194.384 264.671 194.672C265.199 194.944 265.767 195.08 266.375 195.08C266.887 195.08 267.367 195.008 267.815 194.864C268.279 194.72 268.711 194.52 269.111 194.264L270.071 196.04C269.527 196.424 268.903 196.728 268.199 196.952C267.511 197.176 266.791 197.288 266.039 197.288ZM273.139 197V185.216H275.419L275.611 187.304H275.707C276.123 186.536 276.619 185.952 277.195 185.552C277.787 185.136 278.403 184.928 279.043 184.928C279.347 184.928 279.603 184.944 279.811 184.976C280.019 185.008 280.211 185.072 280.387 185.168L279.835 187.52C279.643 187.472 279.467 187.44 279.307 187.424C279.147 187.392 278.939 187.376 278.683 187.376C278.219 187.376 277.731 187.56 277.219 187.928C276.707 188.28 276.267 188.904 275.899 189.8V197H273.139ZM286.921 197.288C285.817 197.288 284.817 197.048 283.921 196.568C283.041 196.072 282.345 195.368 281.833 194.456C281.321 193.528 281.065 192.408 281.065 191.096C281.065 189.816 281.329 188.72 281.857 187.808C282.385 186.88 283.065 186.168 283.897 185.672C284.729 185.176 285.609 184.928 286.537 184.928C287.609 184.928 288.505 185.168 289.225 185.648C289.945 186.128 290.481 186.792 290.833 187.64C291.201 188.472 291.385 189.432 291.385 190.52C291.385 190.776 291.369 191.024 291.337 191.264C291.321 191.504 291.289 191.736 291.241 191.96H283.129V189.848H288.937C288.937 189 288.745 188.336 288.361 187.856C287.977 187.36 287.385 187.112 286.585 187.112C286.137 187.112 285.697 187.232 285.265 187.472C284.849 187.712 284.497 188.12 284.209 188.696C283.937 189.272 283.801 190.072 283.801 191.096C283.801 192.024 283.961 192.784 284.281 193.376C284.601 193.952 285.025 194.384 285.553 194.672C286.081 194.944 286.649 195.08 287.257 195.08C287.769 195.08 288.249 195.008 288.697 194.864C289.161 194.72 289.593 194.52 289.993 194.264L290.953 196.04C290.409 196.424 289.785 196.728 289.081 196.952C288.393 197.176 287.673 197.288 286.921 197.288ZM294.022 197V185.216H296.302L296.494 186.8H296.59C297.118 186.288 297.694 185.848 298.318 185.48C298.942 185.112 299.654 184.928 300.454 184.928C301.718 184.928 302.638 185.336 303.214 186.152C303.79 186.968 304.078 188.12 304.078 189.608V197H301.318V189.968C301.318 188.992 301.174 188.304 300.886 187.904C300.598 187.504 300.126 187.304 299.47 187.304C298.958 187.304 298.502 187.432 298.102 187.688C297.718 187.928 297.278 188.288 296.782 188.768V197H294.022ZM311.603 197.24C310.243 197.24 309.275 196.848 308.699 196.064C308.139 195.264 307.859 194.232 307.859 192.968V187.4H306.179V185.336L308.003 185.216L308.339 181.52H310.643V185.216H313.643V187.4H310.643V192.968C310.643 193.656 310.779 194.176 311.051 194.528C311.323 194.864 311.739 195.032 312.299 195.032C312.507 195.032 312.715 195.016 312.923 194.984C313.131 194.952 313.331 194.888 313.523 194.792L314.027 196.736C313.723 196.88 313.363 197 312.947 197.096C312.531 197.192 312.083 197.24 311.603 197.24ZM316.123 197V185.216H318.883V197H316.123ZM317.491 183.152C317.011 183.152 316.611 183.008 316.291 182.72C315.987 182.432 315.835 182.048 315.835 181.568C315.835 181.088 315.987 180.712 316.291 180.44C316.611 180.152 317.011 180.008 317.491 180.008C317.987 180.008 318.387 180.152 318.691 180.44C318.995 180.712 319.147 181.088 319.147 181.568C319.147 182.048 318.995 182.432 318.691 182.72C318.387 183.008 317.987 183.152 317.491 183.152ZM325.26 197.288C324.572 197.288 323.964 197.144 323.436 196.856C322.908 196.568 322.492 196.168 322.188 195.656C321.9 195.128 321.756 194.52 321.756 193.832C321.756 192.504 322.308 191.504 323.412 190.832C324.532 190.144 326.3 189.672 328.716 189.416C328.7 189.016 328.62 188.648 328.476 188.312C328.348 187.976 328.124 187.712 327.804 187.52C327.5 187.312 327.084 187.208 326.556 187.208C325.98 187.208 325.412 187.312 324.852 187.52C324.308 187.728 323.772 187.992 323.244 188.312L322.236 186.44C322.668 186.168 323.14 185.92 323.652 185.696C324.164 185.456 324.708 185.272 325.284 185.144C325.86 185 326.46 184.928 327.084 184.928C328.06 184.928 328.868 185.128 329.508 185.528C330.164 185.912 330.652 186.488 330.972 187.256C331.308 188.008 331.476 188.936 331.476 190.04V197H329.196L329.004 195.704H328.908C328.364 196.152 327.796 196.528 327.204 196.832C326.612 197.136 325.964 197.288 325.26 197.288ZM326.124 195.032C326.604 195.032 327.044 194.936 327.444 194.744C327.86 194.536 328.284 194.232 328.716 193.832V191.336C327.644 191.464 326.796 191.632 326.172 191.84C325.548 192.048 325.1 192.304 324.828 192.608C324.572 192.896 324.444 193.24 324.444 193.64C324.444 194.136 324.604 194.496 324.924 194.72C325.244 194.928 325.644 195.032 326.124 195.032ZM338.556 197.24C337.196 197.24 336.228 196.848 335.652 196.064C335.092 195.264 334.812 194.232 334.812 192.968V187.4H333.132V185.336L334.956 185.216L335.292 181.52H337.596V185.216H340.596V187.4H337.596V192.968C337.596 193.656 337.732 194.176 338.004 194.528C338.276 194.864 338.692 195.032 339.252 195.032C339.46 195.032 339.668 195.016 339.876 194.984C340.084 194.952 340.284 194.888 340.476 194.792L340.98 196.736C340.676 196.88 340.316 197 339.9 197.096C339.484 197.192 339.036 197.24 338.556 197.24ZM347.765 197.288C346.661 197.288 345.661 197.048 344.765 196.568C343.885 196.072 343.189 195.368 342.677 194.456C342.165 193.528 341.909 192.408 341.909 191.096C341.909 189.816 342.173 188.72 342.701 187.808C343.229 186.88 343.909 186.168 344.741 185.672C345.573 185.176 346.453 184.928 347.381 184.928C348.453 184.928 349.349 185.168 350.069 185.648C350.789 186.128 351.325 186.792 351.677 187.64C352.045 188.472 352.229 189.432 352.229 190.52C352.229 190.776 352.213 191.024 352.181 191.264C352.165 191.504 352.133 191.736 352.085 191.96H343.973V189.848H349.781C349.781 189 349.589 188.336 349.205 187.856C348.821 187.36 348.229 187.112 347.429 187.112C346.981 187.112 346.541 187.232 346.109 187.472C345.693 187.712 345.341 188.12 345.053 188.696C344.781 189.272 344.645 190.072 344.645 191.096C344.645 192.024 344.805 192.784 345.125 193.376C345.445 193.952 345.869 194.384 346.397 194.672C346.925 194.944 347.493 195.08 348.101 195.08C348.613 195.08 349.093 195.008 349.541 194.864C350.005 194.72 350.437 194.52 350.837 194.264L351.797 196.04C351.253 196.424 350.629 196.728 349.925 196.952C349.237 197.176 348.517 197.288 347.765 197.288ZM358.993 197.288C357.521 197.288 356.345 196.744 355.465 195.656C354.585 194.568 354.145 193.056 354.145 191.12C354.145 189.84 354.377 188.736 354.841 187.808C355.321 186.88 355.937 186.168 356.689 185.672C357.457 185.176 358.273 184.928 359.137 184.928C359.809 184.928 360.377 185.04 360.841 185.264C361.321 185.488 361.785 185.808 362.233 186.224L362.137 184.328V180.056H364.897V197H362.617L362.425 195.728H362.329C361.897 196.16 361.393 196.528 360.817 196.832C360.241 197.136 359.633 197.288 358.993 197.288ZM359.665 195.008C360.129 195.008 360.561 194.904 360.961 194.696C361.361 194.472 361.753 194.136 362.137 193.688V188.192C361.737 187.824 361.337 187.568 360.937 187.424C360.537 187.28 360.137 187.208 359.737 187.208C359.225 187.208 358.761 187.36 358.345 187.664C357.945 187.968 357.617 188.408 357.361 188.984C357.121 189.56 357.001 190.264 357.001 191.096C357.001 192.36 357.233 193.328 357.697 194C358.161 194.672 358.817 195.008 359.665 195.008ZM271.415 225L266.615 209.304H269.567L271.679 217.2C271.839 217.792 271.991 218.368 272.135 218.928C272.279 219.472 272.423 220.024 272.567 220.584C272.727 221.128 272.895 221.696 273.071 222.288H273.167C273.327 221.696 273.479 221.128 273.623 220.584C273.767 220.024 273.911 219.472 274.055 218.928C274.215 218.368 274.375 217.792 274.535 217.2L276.815 209.304H279.671L274.703 225H271.415ZM283.506 225.288C282.818 225.288 282.21 225.144 281.682 224.856C281.154 224.568 280.738 224.168 280.434 223.656C280.146 223.128 280.002 222.52 280.002 221.832C280.002 220.504 280.554 219.504 281.658 218.832C282.778 218.144 284.546 217.672 286.962 217.416C286.946 217.016 286.866 216.648 286.722 216.312C286.594 215.976 286.37 215.712 286.05 215.52C285.746 215.312 285.33 215.208 284.802 215.208C284.226 215.208 283.658 215.312 283.098 215.52C282.554 215.728 282.018 215.992 281.49 216.312L280.482 214.44C280.914 214.168 281.386 213.92 281.898 213.696C282.41 213.456 282.954 213.272 283.53 213.144C284.106 213 284.706 212.928 285.33 212.928C286.306 212.928 287.114 213.128 287.754 213.528C288.41 213.912 288.898 214.488 289.218 215.256C289.554 216.008 289.722 216.936 289.722 218.04V225H287.442L287.25 223.704H287.154C286.61 224.152 286.042 224.528 285.45 224.832C284.858 225.136 284.21 225.288 283.506 225.288ZM284.37 223.032C284.85 223.032 285.29 222.936 285.69 222.744C286.106 222.536 286.53 222.232 286.962 221.832V219.336C285.89 219.464 285.042 219.632 284.418 219.84C283.794 220.048 283.346 220.304 283.074 220.608C282.818 220.896 282.69 221.24 282.69 221.64C282.69 222.136 282.85 222.496 283.17 222.72C283.49 222.928 283.89 223.032 284.37 223.032ZM295.713 225.24C295.057 225.24 294.529 225.112 294.129 224.856C293.745 224.584 293.465 224.2 293.289 223.704C293.113 223.208 293.025 222.616 293.025 221.928V208.056H295.785V222.072C295.785 222.424 295.849 222.664 295.977 222.792C296.105 222.92 296.249 222.984 296.409 222.984C296.473 222.984 296.529 222.984 296.577 222.984C296.641 222.968 296.721 222.952 296.817 222.936L297.177 225C297.017 225.064 296.809 225.12 296.553 225.168C296.313 225.216 296.033 225.24 295.713 225.24ZM303.045 225.288C301.781 225.288 300.861 224.88 300.285 224.064C299.709 223.248 299.421 222.096 299.421 220.608V213.216H302.181V220.248C302.181 221.224 302.325 221.912 302.613 222.312C302.901 222.712 303.365 222.912 304.005 222.912C304.517 222.912 304.965 222.784 305.349 222.528C305.749 222.272 306.173 221.856 306.621 221.28V213.216H309.381V225H307.125L306.909 223.272H306.837C306.325 223.88 305.765 224.368 305.157 224.736C304.549 225.104 303.845 225.288 303.045 225.288ZM317.941 225.288C316.837 225.288 315.837 225.048 314.941 224.568C314.061 224.072 313.365 223.368 312.853 222.456C312.341 221.528 312.085 220.408 312.085 219.096C312.085 217.816 312.349 216.72 312.877 215.808C313.405 214.88 314.085 214.168 314.917 213.672C315.749 213.176 316.629 212.928 317.557 212.928C318.629 212.928 319.525 213.168 320.245 213.648C320.965 214.128 321.501 214.792 321.853 215.64C322.221 216.472 322.405 217.432 322.405 218.52C322.405 218.776 322.389 219.024 322.357 219.264C322.341 219.504 322.309 219.736 322.261 219.96H314.149V217.848H319.957C319.957 217 319.765 216.336 319.381 215.856C318.997 215.36 318.405 215.112 317.605 215.112C317.157 215.112 316.717 215.232 316.285 215.472C315.869 215.712 315.517 216.12 315.229 216.696C314.957 217.272 314.821 218.072 314.821 219.096C314.821 220.024 314.981 220.784 315.301 221.376C315.621 221.952 316.045 222.384 316.573 222.672C317.101 222.944 317.669 223.08 318.277 223.08C318.789 223.08 319.269 223.008 319.717 222.864C320.181 222.72 320.613 222.52 321.013 222.264L321.973 224.04C321.429 224.424 320.805 224.728 320.101 224.952C319.413 225.176 318.693 225.288 317.941 225.288Z" fill="white"/>
<path d="M111.457 395V379.304H116.401C117.569 379.304 118.609 379.456 119.521 379.76C120.433 380.064 121.153 380.568 121.681 381.272C122.209 381.976 122.473 382.936 122.473 384.152C122.473 385.304 122.209 386.256 121.681 387.008C121.169 387.76 120.457 388.32 119.545 388.688C118.649 389.056 117.633 389.24 116.497 389.24H114.241V395H111.457ZM114.241 387.008H116.281C117.449 387.008 118.313 386.768 118.873 386.288C119.449 385.808 119.737 385.096 119.737 384.152C119.737 383.16 119.433 382.48 118.825 382.112C118.233 381.728 117.353 381.536 116.185 381.536H114.241V387.008ZM125.186 395V383.216H127.466L127.658 385.304H127.754C128.17 384.536 128.666 383.952 129.242 383.552C129.834 383.136 130.45 382.928 131.09 382.928C131.394 382.928 131.65 382.944 131.858 382.976C132.066 383.008 132.258 383.072 132.434 383.168L131.882 385.52C131.69 385.472 131.514 385.44 131.354 385.424C131.194 385.392 130.986 385.376 130.73 385.376C130.266 385.376 129.778 385.56 129.266 385.928C128.754 386.28 128.314 386.904 127.946 387.8V395H125.186ZM138.728 395.288C137.752 395.288 136.84 395.048 135.992 394.568C135.144 394.072 134.456 393.368 133.928 392.456C133.4 391.528 133.136 390.416 133.136 389.12C133.136 387.808 133.4 386.696 133.928 385.784C134.456 384.856 135.144 384.152 135.992 383.672C136.84 383.176 137.752 382.928 138.728 382.928C139.72 382.928 140.64 383.176 141.488 383.672C142.336 384.152 143.024 384.856 143.552 385.784C144.08 386.696 144.344 387.808 144.344 389.12C144.344 390.416 144.08 391.528 143.552 392.456C143.024 393.368 142.336 394.072 141.488 394.568C140.64 395.048 139.72 395.288 138.728 395.288ZM138.728 393.032C139.304 393.032 139.8 392.872 140.216 392.552C140.632 392.232 140.952 391.776 141.176 391.184C141.4 390.592 141.512 389.904 141.512 389.12C141.512 388.336 141.4 387.648 141.176 387.056C140.952 386.464 140.632 386.008 140.216 385.688C139.8 385.352 139.304 385.184 138.728 385.184C138.152 385.184 137.656 385.352 137.24 385.688C136.84 386.008 136.528 386.464 136.304 387.056C136.08 387.648 135.968 388.336 135.968 389.12C135.968 389.904 136.08 390.592 136.304 391.184C136.528 391.776 136.84 392.232 137.24 392.552C137.656 392.872 138.152 393.032 138.728 393.032ZM151.204 395.288C149.732 395.288 148.556 394.744 147.676 393.656C146.796 392.568 146.356 391.056 146.356 389.12C146.356 387.84 146.588 386.736 147.052 385.808C147.532 384.88 148.148 384.168 148.9 383.672C149.668 383.176 150.484 382.928 151.348 382.928C152.02 382.928 152.588 383.04 153.052 383.264C153.532 383.488 153.996 383.808 154.444 384.224L154.348 382.328V378.056H157.108V395H154.828L154.636 393.728H154.54C154.108 394.16 153.604 394.528 153.028 394.832C152.452 395.136 151.844 395.288 151.204 395.288ZM151.876 393.008C152.34 393.008 152.772 392.904 153.172 392.696C153.572 392.472 153.964 392.136 154.348 391.688V386.192C153.948 385.824 153.548 385.568 153.148 385.424C152.748 385.28 152.348 385.208 151.948 385.208C151.436 385.208 150.972 385.36 150.556 385.664C150.156 385.968 149.828 386.408 149.572 386.984C149.332 387.56 149.212 388.264 149.212 389.096C149.212 390.36 149.444 391.328 149.908 392C150.372 392.672 151.028 393.008 151.876 393.008ZM164.127 395.288C162.863 395.288 161.943 394.88 161.367 394.064C160.791 393.248 160.503 392.096 160.503 390.608V383.216H163.263V390.248C163.263 391.224 163.407 391.912 163.695 392.312C163.983 392.712 164.447 392.912 165.087 392.912C165.599 392.912 166.047 392.784 166.431 392.528C166.831 392.272 167.255 391.856 167.703 391.28V383.216H170.463V395H168.207L167.991 393.272H167.919C167.407 393.88 166.847 394.368 166.239 394.736C165.631 395.104 164.927 395.288 164.127 395.288ZM178.927 395.288C177.839 395.288 176.863 395.048 175.999 394.568C175.135 394.072 174.447 393.368 173.935 392.456C173.439 391.528 173.191 390.416 173.191 389.12C173.191 387.808 173.463 386.696 174.007 385.784C174.551 384.856 175.271 384.152 176.167 383.672C177.079 383.176 178.055 382.928 179.095 382.928C179.847 382.928 180.503 383.056 181.063 383.312C181.639 383.552 182.135 383.864 182.551 384.248L181.231 385.976C180.975 385.736 180.679 385.544 180.343 385.4C180.023 385.256 179.655 385.184 179.239 385.184C178.615 385.184 178.063 385.352 177.583 385.688C177.103 386.008 176.719 386.464 176.431 387.056C176.159 387.632 176.023 388.32 176.023 389.12C176.023 389.904 176.159 390.592 176.431 391.184C176.703 391.76 177.071 392.216 177.535 392.552C178.015 392.872 178.567 393.032 179.191 393.032C179.655 393.032 180.087 392.944 180.487 392.768C180.903 392.592 181.271 392.368 181.591 392.096L182.719 393.8C182.223 394.248 181.647 394.608 180.991 394.88C180.351 395.152 179.663 395.288 178.927 395.288ZM188.963 395.24C187.603 395.24 186.635 394.848 186.059 394.064C185.499 393.264 185.219 392.232 185.219 390.968V385.4H183.539V383.336L185.363 383.216L185.699 379.52H188.003V383.216H191.003V385.4H188.003V390.968C188.003 391.656 188.139 392.176 188.411 392.528C188.683 392.864 189.099 393.032 189.659 393.032C189.867 393.032 190.075 393.016 190.283 392.984C190.491 392.952 190.691 392.888 190.883 392.792L191.387 394.736C191.083 394.88 190.723 395 190.307 395.096C189.891 395.192 189.443 395.24 188.963 395.24ZM99.5506 423V407.304H109.007V409.656H102.335V413.664H107.975V416.016H102.335V420.648H109.247V423H99.5506ZM116.958 423.288C115.87 423.288 114.894 423.048 114.03 422.568C113.166 422.072 112.478 421.368 111.966 420.456C111.47 419.528 111.222 418.416 111.222 417.12C111.222 415.808 111.494 414.696 112.038 413.784C112.582 412.856 113.302 412.152 114.198 411.672C115.11 411.176 116.086 410.928 117.126 410.928C117.878 410.928 118.534 411.056 119.094 411.312C119.67 411.552 120.166 411.864 120.582 412.248L119.262 413.976C119.006 413.736 118.71 413.544 118.374 413.4C118.054 413.256 117.686 413.184 117.27 413.184C116.646 413.184 116.094 413.352 115.614 413.688C115.134 414.008 114.75 414.464 114.462 415.056C114.19 415.632 114.054 416.32 114.054 417.12C114.054 417.904 114.19 418.592 114.462 419.184C114.734 419.76 115.102 420.216 115.566 420.552C116.046 420.872 116.598 421.032 117.222 421.032C117.686 421.032 118.118 420.944 118.518 420.768C118.934 420.592 119.302 420.368 119.622 420.096L120.75 421.8C120.254 422.248 119.678 422.608 119.022 422.88C118.382 423.152 117.694 423.288 116.958 423.288ZM127.314 423.288C126.338 423.288 125.426 423.048 124.578 422.568C123.73 422.072 123.042 421.368 122.514 420.456C121.986 419.528 121.722 418.416 121.722 417.12C121.722 415.808 121.986 414.696 122.514 413.784C123.042 412.856 123.73 412.152 124.578 411.672C125.426 411.176 126.338 410.928 127.314 410.928C128.306 410.928 129.226 411.176 130.074 411.672C130.922 412.152 131.61 412.856 132.138 413.784C132.666 414.696 132.93 415.808 132.93 417.12C132.93 418.416 132.666 419.528 132.138 420.456C131.61 421.368 130.922 422.072 130.074 422.568C129.226 423.048 128.306 423.288 127.314 423.288ZM127.314 421.032C127.89 421.032 128.386 420.872 128.802 420.552C129.218 420.232 129.538 419.776 129.762 419.184C129.986 418.592 130.098 417.904 130.098 417.12C130.098 416.336 129.986 415.648 129.762 415.056C129.538 414.464 129.218 414.008 128.802 413.688C128.386 413.352 127.89 413.184 127.314 413.184C126.738 413.184 126.242 413.352 125.826 413.688C125.426 414.008 125.114 414.464 124.89 415.056C124.666 415.648 124.554 416.336 124.554 417.12C124.554 417.904 124.666 418.592 124.89 419.184C125.114 419.776 125.426 420.232 125.826 420.552C126.242 420.872 126.738 421.032 127.314 421.032ZM135.662 423V411.216H137.942L138.134 412.8H138.23C138.758 412.288 139.334 411.848 139.958 411.48C140.582 411.112 141.294 410.928 142.094 410.928C143.358 410.928 144.278 411.336 144.854 412.152C145.43 412.968 145.718 414.12 145.718 415.608V423H142.958V415.968C142.958 414.992 142.814 414.304 142.526 413.904C142.238 413.504 141.766 413.304 141.11 413.304C140.598 413.304 140.142 413.432 139.742 413.688C139.358 413.928 138.918 414.288 138.422 414.768V423H135.662ZM153.916 423.288C152.94 423.288 152.028 423.048 151.18 422.568C150.332 422.072 149.644 421.368 149.116 420.456C148.588 419.528 148.324 418.416 148.324 417.12C148.324 415.808 148.588 414.696 149.116 413.784C149.644 412.856 150.332 412.152 151.18 411.672C152.028 411.176 152.94 410.928 153.916 410.928C154.908 410.928 155.828 411.176 156.676 411.672C157.524 412.152 158.212 412.856 158.74 413.784C159.268 414.696 159.532 415.808 159.532 417.12C159.532 418.416 159.268 419.528 158.74 420.456C158.212 421.368 157.524 422.072 156.676 422.568C155.828 423.048 154.908 423.288 153.916 423.288ZM153.916 421.032C154.492 421.032 154.988 420.872 155.404 420.552C155.82 420.232 156.14 419.776 156.364 419.184C156.588 418.592 156.7 417.904 156.7 417.12C156.7 416.336 156.588 415.648 156.364 415.056C156.14 414.464 155.82 414.008 155.404 413.688C154.988 413.352 154.492 413.184 153.916 413.184C153.34 413.184 152.844 413.352 152.428 413.688C152.028 414.008 151.716 414.464 151.492 415.056C151.268 415.648 151.156 416.336 151.156 417.12C151.156 417.904 151.268 418.592 151.492 419.184C151.716 419.776 152.028 420.232 152.428 420.552C152.844 420.872 153.34 421.032 153.916 421.032ZM162.264 423V411.216H164.544L164.736 412.824H164.832C165.328 412.296 165.864 411.848 166.44 411.48C167.032 411.112 167.696 410.928 168.432 410.928C169.312 410.928 170.008 411.112 170.52 411.48C171.032 411.848 171.424 412.368 171.696 413.04C172.256 412.432 172.84 411.928 173.448 411.528C174.056 411.128 174.736 410.928 175.488 410.928C176.736 410.928 177.656 411.336 178.248 412.152C178.84 412.968 179.136 414.12 179.136 415.608V423H176.352V415.968C176.352 414.992 176.208 414.304 175.92 413.904C175.632 413.504 175.176 413.304 174.552 413.304C174.168 413.304 173.776 413.424 173.376 413.664C172.976 413.904 172.544 414.272 172.08 414.768V423H169.32V415.968C169.32 414.992 169.168 414.304 168.864 413.904C168.576 413.504 168.12 413.304 167.496 413.304C166.76 413.304 165.936 413.792 165.024 414.768V423H162.264ZM182.49 423V411.216H185.25V423H182.49ZM183.858 409.152C183.378 409.152 182.978 409.008 182.658 408.72C182.354 408.432 182.202 408.048 182.202 407.568C182.202 407.088 182.354 406.712 182.658 406.44C182.978 406.152 183.378 406.008 183.858 406.008C184.354 406.008 184.754 406.152 185.058 406.44C185.362 406.712 185.514 407.088 185.514 407.568C185.514 408.048 185.362 408.432 185.058 408.72C184.754 409.008 184.354 409.152 183.858 409.152ZM193.74 423.288C192.652 423.288 191.676 423.048 190.812 422.568C189.948 422.072 189.26 421.368 188.748 420.456C188.252 419.528 188.004 418.416 188.004 417.12C188.004 415.808 188.276 414.696 188.82 413.784C189.364 412.856 190.084 412.152 190.98 411.672C191.892 411.176 192.868 410.928 193.908 410.928C194.66 410.928 195.316 411.056 195.876 411.312C196.452 411.552 196.948 411.864 197.364 412.248L196.044 413.976C195.788 413.736 195.492 413.544 195.156 413.4C194.836 413.256 194.468 413.184 194.052 413.184C193.428 413.184 192.876 413.352 192.396 413.688C191.916 414.008 191.532 414.464 191.244 415.056C190.972 415.632 190.836 416.32 190.836 417.12C190.836 417.904 190.972 418.592 191.244 419.184C191.516 419.76 191.884 420.216 192.348 420.552C192.828 420.872 193.38 421.032 194.004 421.032C194.468 421.032 194.9 420.944 195.3 420.768C195.716 420.592 196.084 420.368 196.404 420.096L197.532 421.8C197.036 422.248 196.46 422.608 195.804 422.88C195.164 423.152 194.476 423.288 193.74 423.288ZM203.145 423.288C202.329 423.288 201.521 423.136 200.721 422.832C199.937 422.528 199.257 422.104 198.681 421.56L199.905 419.976C200.433 420.408 200.969 420.72 201.513 420.912C202.057 421.104 202.633 421.2 203.241 421.2C203.881 421.2 204.353 421.064 204.657 420.792C204.961 420.52 205.113 420.184 205.113 419.784C205.113 419.464 204.993 419.192 204.753 418.968C204.529 418.744 204.233 418.552 203.865 418.392C203.497 418.232 203.089 418.072 202.641 417.912C202.065 417.704 201.529 417.456 201.033 417.168C200.537 416.864 200.129 416.496 199.809 416.064C199.505 415.616 199.353 415.08 199.353 414.456C199.353 413.416 199.737 412.568 200.505 411.912C201.273 411.256 202.313 410.928 203.625 410.928C204.425 410.928 205.161 411.064 205.833 411.336C206.505 411.592 207.081 411.928 207.561 412.344L206.337 413.904C205.921 413.6 205.497 413.376 205.065 413.232C204.633 413.088 204.177 413.016 203.697 413.016C203.105 413.016 202.665 413.144 202.377 413.4C202.089 413.656 201.945 413.96 201.945 414.312C201.945 414.6 202.033 414.848 202.209 415.056C202.401 415.248 202.673 415.424 203.025 415.584C203.377 415.728 203.801 415.88 204.297 416.04C204.905 416.248 205.473 416.504 206.001 416.808C206.529 417.096 206.945 417.472 207.249 417.936C207.569 418.384 207.729 418.952 207.729 419.64C207.729 420.312 207.553 420.928 207.201 421.488C206.849 422.032 206.329 422.472 205.641 422.808C204.969 423.128 204.137 423.288 203.145 423.288Z" fill="white"/>
<path d="M408.457 395V379.304H413.401C414.569 379.304 415.609 379.456 416.521 379.76C417.433 380.064 418.153 380.568 418.681 381.272C419.209 381.976 419.473 382.936 419.473 384.152C419.473 385.304 419.209 386.256 418.681 387.008C418.169 387.76 417.457 388.32 416.545 388.688C415.649 389.056 414.633 389.24 413.497 389.24H411.241V395H408.457ZM411.241 387.008H413.281C414.449 387.008 415.313 386.768 415.873 386.288C416.449 385.808 416.737 385.096 416.737 384.152C416.737 383.16 416.433 382.48 415.825 382.112C415.233 381.728 414.353 381.536 413.185 381.536H411.241V387.008ZM422.186 395V383.216H424.466L424.658 385.304H424.754C425.17 384.536 425.666 383.952 426.242 383.552C426.834 383.136 427.45 382.928 428.09 382.928C428.394 382.928 428.65 382.944 428.858 382.976C429.066 383.008 429.258 383.072 429.434 383.168L428.882 385.52C428.69 385.472 428.514 385.44 428.354 385.424C428.194 385.392 427.986 385.376 427.73 385.376C427.266 385.376 426.778 385.56 426.266 385.928C425.754 386.28 425.314 386.904 424.946 387.8V395H422.186ZM435.728 395.288C434.752 395.288 433.84 395.048 432.992 394.568C432.144 394.072 431.456 393.368 430.928 392.456C430.4 391.528 430.136 390.416 430.136 389.12C430.136 387.808 430.4 386.696 430.928 385.784C431.456 384.856 432.144 384.152 432.992 383.672C433.84 383.176 434.752 382.928 435.728 382.928C436.72 382.928 437.64 383.176 438.488 383.672C439.336 384.152 440.024 384.856 440.552 385.784C441.08 386.696 441.344 387.808 441.344 389.12C441.344 390.416 441.08 391.528 440.552 392.456C440.024 393.368 439.336 394.072 438.488 394.568C437.64 395.048 436.72 395.288 435.728 395.288ZM435.728 393.032C436.304 393.032 436.8 392.872 437.216 392.552C437.632 392.232 437.952 391.776 438.176 391.184C438.4 390.592 438.512 389.904 438.512 389.12C438.512 388.336 438.4 387.648 438.176 387.056C437.952 386.464 437.632 386.008 437.216 385.688C436.8 385.352 436.304 385.184 435.728 385.184C435.152 385.184 434.656 385.352 434.24 385.688C433.84 386.008 433.528 386.464 433.304 387.056C433.08 387.648 432.968 388.336 432.968 389.12C432.968 389.904 433.08 390.592 433.304 391.184C433.528 391.776 433.84 392.232 434.24 392.552C434.656 392.872 435.152 393.032 435.728 393.032ZM448.204 395.288C446.732 395.288 445.556 394.744 444.676 393.656C443.796 392.568 443.356 391.056 443.356 389.12C443.356 387.84 443.588 386.736 444.052 385.808C444.532 384.88 445.148 384.168 445.9 383.672C446.668 383.176 447.484 382.928 448.348 382.928C449.02 382.928 449.588 383.04 450.052 383.264C450.532 383.488 450.996 383.808 451.444 384.224L451.348 382.328V378.056H454.108V395H451.828L451.636 393.728H451.54C451.108 394.16 450.604 394.528 450.028 394.832C449.452 395.136 448.844 395.288 448.204 395.288ZM448.876 393.008C449.34 393.008 449.772 392.904 450.172 392.696C450.572 392.472 450.964 392.136 451.348 391.688V386.192C450.948 385.824 450.548 385.568 450.148 385.424C449.748 385.28 449.348 385.208 448.948 385.208C448.436 385.208 447.972 385.36 447.556 385.664C447.156 385.968 446.828 386.408 446.572 386.984C446.332 387.56 446.212 388.264 446.212 389.096C446.212 390.36 446.444 391.328 446.908 392C447.372 392.672 448.028 393.008 448.876 393.008ZM461.127 395.288C459.863 395.288 458.943 394.88 458.367 394.064C457.791 393.248 457.503 392.096 457.503 390.608V383.216H460.263V390.248C460.263 391.224 460.407 391.912 460.695 392.312C460.983 392.712 461.447 392.912 462.087 392.912C462.599 392.912 463.047 392.784 463.431 392.528C463.831 392.272 464.255 391.856 464.703 391.28V383.216H467.463V395H465.207L464.991 393.272H464.919C464.407 393.88 463.847 394.368 463.239 394.736C462.631 395.104 461.927 395.288 461.127 395.288ZM475.927 395.288C474.839 395.288 473.863 395.048 472.999 394.568C472.135 394.072 471.447 393.368 470.935 392.456C470.439 391.528 470.191 390.416 470.191 389.12C470.191 387.808 470.463 386.696 471.007 385.784C471.551 384.856 472.271 384.152 473.167 383.672C474.079 383.176 475.055 382.928 476.095 382.928C476.847 382.928 477.503 383.056 478.063 383.312C478.639 383.552 479.135 383.864 479.551 384.248L478.231 385.976C477.975 385.736 477.679 385.544 477.343 385.4C477.023 385.256 476.655 385.184 476.239 385.184C475.615 385.184 475.063 385.352 474.583 385.688C474.103 386.008 473.719 386.464 473.431 387.056C473.159 387.632 473.023 388.32 473.023 389.12C473.023 389.904 473.159 390.592 473.431 391.184C473.703 391.76 474.071 392.216 474.535 392.552C475.015 392.872 475.567 393.032 476.191 393.032C476.655 393.032 477.087 392.944 477.487 392.768C477.903 392.592 478.271 392.368 478.591 392.096L479.719 393.8C479.223 394.248 478.647 394.608 477.991 394.88C477.351 395.152 476.663 395.288 475.927 395.288ZM485.963 395.24C484.603 395.24 483.635 394.848 483.059 394.064C482.499 393.264 482.219 392.232 482.219 390.968V385.4H480.539V383.336L482.363 383.216L482.699 379.52H485.003V383.216H488.003V385.4H485.003V390.968C485.003 391.656 485.139 392.176 485.411 392.528C485.683 392.864 486.099 393.032 486.659 393.032C486.867 393.032 487.075 393.016 487.283 392.984C487.491 392.952 487.691 392.888 487.883 392.792L488.387 394.736C488.083 394.88 487.723 395 487.307 395.096C486.891 395.192 486.443 395.24 485.963 395.24ZM420.471 423.288C419.111 423.288 417.911 422.96 416.871 422.304C415.831 421.632 415.015 420.688 414.423 419.472C413.847 418.24 413.559 416.776 413.559 415.08C413.559 413.4 413.847 411.96 414.423 410.76C415.015 409.544 415.831 408.616 416.871 407.976C417.911 407.336 419.111 407.016 420.471 407.016C421.831 407.016 423.031 407.336 424.071 407.976C425.111 408.616 425.927 409.544 426.519 410.76C427.111 411.96 427.407 413.4 427.407 415.08C427.407 416.776 427.111 418.24 426.519 419.472C425.927 420.688 425.111 421.632 424.071 422.304C423.031 422.96 421.831 423.288 420.471 423.288ZM420.471 421.008C421.303 421.008 422.023 420.768 422.631 420.288C423.239 419.808 423.703 419.128 424.023 418.248C424.359 417.368 424.527 416.312 424.527 415.08C424.527 413.912 424.359 412.912 424.023 412.08C423.703 411.232 423.239 410.584 422.631 410.136C422.023 409.672 421.303 409.44 420.471 409.44C419.655 409.44 418.943 409.672 418.335 410.136C417.727 410.584 417.255 411.232 416.919 412.08C416.583 412.912 416.415 413.912 416.415 415.08C416.415 416.312 416.583 417.368 416.919 418.248C417.255 419.128 417.727 419.808 418.335 420.288C418.943 420.768 419.655 421.008 420.471 421.008ZM425.463 427.176C423.847 427.176 422.495 426.768 421.407 425.952C420.319 425.136 419.535 424.12 419.055 422.904L421.911 422.664C422.119 423.176 422.415 423.6 422.799 423.936C423.199 424.272 423.655 424.512 424.167 424.656C424.679 424.816 425.215 424.896 425.775 424.896C426.127 424.896 426.439 424.872 426.711 424.824C426.999 424.792 427.255 424.744 427.479 424.68L427.983 426.696C427.727 426.824 427.375 426.936 426.927 427.032C426.495 427.128 426.007 427.176 425.463 427.176ZM433.811 423.288C432.547 423.288 431.627 422.88 431.051 422.064C430.475 421.248 430.187 420.096 430.187 418.608V411.216H432.947V418.248C432.947 419.224 433.091 419.912 433.379 420.312C433.667 420.712 434.131 420.912 434.771 420.912C435.283 420.912 435.731 420.784 436.115 420.528C436.515 420.272 436.939 419.856 437.387 419.28V411.216H440.147V423H437.891L437.675 421.272H437.603C437.091 421.88 436.531 422.368 435.923 422.736C435.315 423.104 434.611 423.288 433.811 423.288ZM446.499 423.288C445.811 423.288 445.203 423.144 444.675 422.856C444.147 422.568 443.731 422.168 443.427 421.656C443.139 421.128 442.995 420.52 442.995 419.832C442.995 418.504 443.547 417.504 444.651 416.832C445.771 416.144 447.539 415.672 449.955 415.416C449.939 415.016 449.859 414.648 449.715 414.312C449.587 413.976 449.363 413.712 449.043 413.52C448.739 413.312 448.323 413.208 447.795 413.208C447.219 413.208 446.651 413.312 446.091 413.52C445.547 413.728 445.011 413.992 444.483 414.312L443.475 412.44C443.907 412.168 444.379 411.92 444.891 411.696C445.403 411.456 445.947 411.272 446.523 411.144C447.099 411 447.699 410.928 448.323 410.928C449.299 410.928 450.107 411.128 450.747 411.528C451.403 411.912 451.891 412.488 452.211 413.256C452.547 414.008 452.715 414.936 452.715 416.04V423H450.435L450.243 421.704H450.147C449.603 422.152 449.035 422.528 448.443 422.832C447.851 423.136 447.203 423.288 446.499 423.288ZM447.363 421.032C447.843 421.032 448.283 420.936 448.683 420.744C449.099 420.536 449.523 420.232 449.955 419.832V417.336C448.883 417.464 448.035 417.632 447.411 417.84C446.787 418.048 446.339 418.304 446.067 418.608C445.811 418.896 445.683 419.24 445.683 419.64C445.683 420.136 445.843 420.496 446.163 420.72C446.483 420.928 446.883 421.032 447.363 421.032ZM458.706 423.24C458.05 423.24 457.522 423.112 457.122 422.856C456.738 422.584 456.458 422.2 456.282 421.704C456.106 421.208 456.018 420.616 456.018 419.928V406.056H458.778V420.072C458.778 420.424 458.842 420.664 458.97 420.792C459.098 420.92 459.242 420.984 459.402 420.984C459.466 420.984 459.522 420.984 459.57 420.984C459.634 420.968 459.714 420.952 459.81 420.936L460.17 423C460.01 423.064 459.802 423.12 459.546 423.168C459.306 423.216 459.026 423.24 458.706 423.24ZM462.533 423V411.216H465.293V423H462.533ZM463.901 409.152C463.421 409.152 463.021 409.008 462.701 408.72C462.397 408.432 462.245 408.048 462.245 407.568C462.245 407.088 462.397 406.712 462.701 406.44C463.021 406.152 463.421 406.008 463.901 406.008C464.397 406.008 464.797 406.152 465.101 406.44C465.405 406.712 465.557 407.088 465.557 407.568C465.557 408.048 465.405 408.432 465.101 408.72C464.797 409.008 464.397 409.152 463.901 409.152ZM472.967 423.24C471.607 423.24 470.639 422.848 470.062 422.064C469.503 421.264 469.223 420.232 469.223 418.968V413.4H467.543V411.336L469.367 411.216L469.703 407.52H472.007V411.216H475.007V413.4H472.007V418.968C472.007 419.656 472.143 420.176 472.415 420.528C472.687 420.864 473.103 421.032 473.663 421.032C473.871 421.032 474.079 421.016 474.287 420.984C474.495 420.952 474.695 420.888 474.887 420.792L475.391 422.736C475.087 422.88 474.727 423 474.311 423.096C473.895 423.192 473.447 423.24 472.967 423.24ZM478.278 427.848C477.958 427.848 477.67 427.824 477.414 427.776C477.174 427.728 476.95 427.656 476.742 427.56L477.27 425.496C477.43 425.544 477.574 425.576 477.702 425.592C477.83 425.608 477.958 425.616 478.086 425.616C478.71 425.616 479.206 425.424 479.574 425.04C479.958 424.656 480.246 424.176 480.438 423.6L480.654 422.856L476.022 411.216H478.83L480.87 417C481.046 417.512 481.214 418.056 481.374 418.632C481.55 419.192 481.726 419.752 481.902 420.312H481.998C482.142 419.768 482.286 419.216 482.43 418.656C482.59 418.08 482.742 417.528 482.886 417L484.662 411.216H487.326L483.054 423.528C482.734 424.408 482.366 425.168 481.95 425.808C481.534 426.464 481.03 426.968 480.438 427.32C479.846 427.672 479.126 427.848 478.278 427.848Z" fill="white"/>
</svg>
