<svg width="272" height="172" viewBox="0 0 272 172" fill="none" xmlns="http://www.w3.org/2000/svg">
<rect width="271.5" height="171.5" fill="white"/>
<path d="M222.3 52.0498H184.16V57.7398H222.3V52.0498Z" fill="#E9EDE9"/>
<path d="M216.33 59.7397H183.88V65.4297H216.33V59.7397Z" fill="#E9EDE9"/>
<path d="M222.02 73.3999H183.88V93.3199H222.02V73.3999Z" fill="#E9EDE9"/>
<path d="M140.47 52.0498H117.26V57.7398H140.47V52.0498Z" fill="#E9EDE9"/>
<path d="M149.02 59.7397H116.98V65.4297H149.02V59.7397Z" fill="#E9EDE9"/>
<path d="M155.12 73.3999H116.98V87.6299H155.12V73.3999Z" fill="#E9EDE9"/>
<path d="M81.4096 52.0498H46.8096V57.7398H81.4096V52.0498Z" fill="#E9EDE9"/>
<path d="M68.4598 59.7397H46.5298V65.4297H68.4598V59.7397Z" fill="#E9EDE9"/>
<path d="M84.6698 73.3999H46.5298V85.3499H84.6698V73.3999Z" fill="#E9EDE9"/>
<path d="M221.1 120.21H182.96V125.9H221.1V120.21Z" fill="#E9EDE9"/>
<path d="M215.13 127.9H182.68V133.59H215.13V127.9Z" fill="#E9EDE9"/>
<path d="M220.82 141.56H182.68V161.48H220.82V141.56Z" fill="#E9EDE9"/>
<path d="M68.8799 120.21H45.6699V125.9H68.8799V120.21Z" fill="#E9EDE9"/>
<path d="M77.4301 127.9H45.3901V133.59H77.4301V127.9Z" fill="#E9EDE9"/>
<path d="M83.5301 141.56H45.3901V155.79H83.5301V141.56Z" fill="#E9EDE9"/>
<path d="M150.72 120.21H116.12V125.9H150.72V120.21Z" fill="#E9EDE9"/>
<path d="M137.77 127.9H115.84V133.59H137.77V127.9Z" fill="#E9EDE9"/>
<path d="M153.98 141.56H115.84V153.51H153.98V141.56Z" fill="#E9EDE9"/>
<path d="M51.07 39.7401C53.5829 39.7401 55.62 37.703 55.62 35.1901C55.62 32.6772 53.5829 30.6401 51.07 30.6401C48.5571 30.6401 46.52 32.6772 46.52 35.1901C46.52 37.703 48.5571 39.7401 51.07 39.7401Z" stroke="#B7874A" stroke-width="2" stroke-miterlimit="10"/>
<path d="M192.47 30.8901H183.88V39.4801H192.47V30.8901Z" stroke="#B7874A" stroke-width="2" stroke-miterlimit="10"/>
<path d="M121.82 30.5801L126.66 34.1101L124.81 39.8101H118.83L116.98 34.1101L121.82 30.5801Z" fill="#F7F8F9" stroke="#B7874A" stroke-width="2" stroke-miterlimit="10"/>
<path d="M125.57 99.6499H116.98V108.24H125.57V99.6499Z" stroke="#B7874A" stroke-width="2" stroke-miterlimit="10"/>
<path d="M51.07 108.5C53.5829 108.5 55.62 106.463 55.62 103.95C55.62 101.437 53.5829 99.3999 51.07 99.3999C48.5571 99.3999 46.52 101.437 46.52 103.95C46.52 106.463 48.5571 108.5 51.07 108.5Z" stroke="#B7874A" stroke-width="2" stroke-miterlimit="10"/>
<path d="M188.36 108.5C190.873 108.5 192.91 106.463 192.91 103.95C192.91 101.437 190.873 99.3999 188.36 99.3999C185.847 99.3999 183.81 101.437 183.81 103.95C183.81 106.463 185.847 108.5 188.36 108.5Z" stroke="#B7874A" stroke-width="2" stroke-miterlimit="10"/>
<path d="M42.7901 39.48C42.7901 39.48 19.4901 70.69 37.1401 97.11" stroke="#033135" stroke-width="2" stroke-miterlimit="10"/>
<path d="M33.7202 97.3299L42.7902 103.95L38.2402 93.6899L33.7202 97.3299Z" fill="#033135"/>
<path d="M62.48 39.48L105.11 95.12" stroke="#033135" stroke-width="2" stroke-miterlimit="10"/>
<path d="M101.6 95.3098L110.5 102.15L106.22 91.7798L101.6 95.3098Z" fill="#033135"/>
<path d="M59.4502 103.95L99.0202 47.79" stroke="#033135" stroke-width="2" stroke-miterlimit="10"/>
<path d="M100.26 51.0798L104.13 40.5498L95.5103 47.7398L100.26 51.0798Z" fill="#033135"/>
<path d="M134.91 35.1999L166.45 35.1899" stroke="#033135" stroke-width="2" stroke-miterlimit="10"/>
<path d="M164.46 38.0898L175.3 35.1898L164.46 32.2798V38.0898Z" fill="#033135"/>
<path d="M128.87 103.95L234.23 19.1899" stroke="#033135" stroke-width="2" stroke-miterlimit="10"/>
<path d="M234.45 22L239.75 14.75L231.54 18.37L234.45 22Z" fill="#033135"/>
<path d="M133.42 105.56L169.5 102.82" stroke="#033135" stroke-width="2" stroke-miterlimit="10"/>
<path d="M167.74 105.87L178.33 102.15L167.3 100.07L167.74 105.87Z" fill="#033135"/>
<path d="M198.9 103.04L227.55 23.6299L200.1 35.1999" stroke="#033135" stroke-width="2" stroke-miterlimit="10"/>
</svg>
