<svg width="240" height="100" viewBox="0 0 240 100" fill="none" xmlns="http://www.w3.org/2000/svg">
<rect width="240" height="100" fill="white"/>
<path d="M85.4857 22C83.0076 22 81 23.9994 81 26.4673C81 28.9352 83.0076 30.9362 85.4857 30.9362C87.9637 30.9362 89.973 28.9352 89.973 26.4673C89.973 23.9994 87.9637 22 85.4857 22ZM143.916 33.0296C135.195 33.0296 128.1 40.0972 128.1 48.7828C128.1 55.69 132.586 61.5678 138.808 63.6878C134.643 65.6499 131.754 69.8741 131.754 74.7593C131.754 81.5085 137.268 87 144.046 87C150.823 87 156.337 81.5085 156.337 74.7593C156.337 69.8307 153.395 65.5762 149.171 63.6378C155.317 61.4754 159.732 55.6353 159.732 48.7828C159.732 45.9609 158.98 43.3109 157.669 41.0175H159.668V33.0328H144.062C144.013 33.0328 143.965 33.0296 143.916 33.0296ZM108.27 33.0441C99.5407 33.0441 92.4636 40.0906 92.4636 48.7845C92.4636 57.4783 99.5407 64.5264 108.27 64.5264C111.474 64.5264 114.453 63.5752 116.942 61.9444V64.0458H124.966V33.5876H116.942V35.6261C114.453 33.9953 111.474 33.0441 108.27 33.0441ZM81.4745 33.5876V64.0458H89.4985V33.5876H81.4745ZM108.27 40.2627C112.989 40.2627 116.827 44.0861 116.827 48.7845C116.827 53.4839 112.989 57.3078 108.27 57.3078C103.552 57.3078 99.7135 53.4839 99.7135 48.7845C99.7135 44.0861 103.552 40.2627 108.27 40.2627ZM143.916 40.3466C148.586 40.3466 152.385 44.1319 152.385 48.7828C152.385 53.4348 148.586 57.2175 143.916 57.2175C139.246 57.2175 135.447 53.4348 135.447 48.7828C135.447 44.1319 139.246 40.3466 143.916 40.3466ZM144.046 69.8356C146.771 69.8356 148.988 72.0447 148.988 74.7593C148.988 77.4739 146.771 79.6814 144.046 79.6814C141.32 79.6814 139.102 77.4739 139.102 74.7593C139.102 72.0447 141.32 69.8356 144.046 69.8356Z" fill="#582583"/>
</svg>
