<svg width="240" height="100" viewBox="0 0 240 100" fill="none" xmlns="http://www.w3.org/2000/svg">
<rect width="240" height="100" fill="white"/>
<path d="M79.7477 63.9545V49.5522C79.7477 44.334 76.982 43.186 74.2163 43.186C71.4507 43.186 68.685 44.2818 68.685 49.3956V63.9023H61.6926V22H68.685V39.0114C70.1983 37.8634 72.0769 36.5066 75.7818 36.5066C81.6784 36.5066 86.7922 39.9507 86.7922 48.4042V63.9545H79.7477Z" fill="#001A13"/>
<path d="M111.631 63.9545V62.1803C109.491 63.9545 106.935 64.685 104.169 64.685C96.2372 64.685 89.871 58.3188 89.871 50.5958C89.871 42.7685 96.2372 36.5588 104.169 36.5588C106.882 36.5588 109.439 37.2894 111.631 39.0636V37.0807H118.623V64.0067H111.631V63.9545ZM104.169 43.186C100.099 43.186 96.759 46.5778 96.759 50.5437C96.759 54.5617 100.099 57.9535 104.169 57.9535C108.291 57.9535 111.631 54.5617 111.631 50.5437C111.631 46.63 108.291 43.186 104.169 43.186Z" fill="#001A13"/>
<path d="M140.905 63.9545V49.5522C140.905 44.334 138.139 43.186 135.374 43.186C132.608 43.186 129.843 44.2818 129.843 49.3956V63.9023H122.85V37.0285H129.843V39.0114C131.356 37.8634 133.234 36.5067 136.939 36.5067C142.836 36.5067 147.95 39.9507 147.95 48.4042V63.9545H140.905Z" fill="#001A13"/>
<path d="M167.466 64.0066C167.466 64.0066 165.431 64.685 162.091 64.685C156.821 64.685 154.107 61.241 154.107 55.9706V43.7078H149.88V37.0285H154.107V27.8966H161.1V37.0285H168.249V43.7078H161.1V54.4573C161.1 56.3359 161.621 58.11 164.126 58.11C165.9 58.11 167.518 57.8491 167.518 57.8491V64.0066H167.466Z" fill="#001A13"/>
<path d="M207.49 63.9545V49.5522C207.49 44.0731 205.037 43.186 202.585 43.186C199.819 43.186 196.949 44.2818 196.949 49.3956V63.9023H189.956V49.5522C189.956 44.0731 187.504 43.186 185.051 43.186C182.286 43.186 179.416 44.2818 179.416 49.3956V63.9023H172.423V37.0285H179.416V39.0114C181.138 37.759 182.807 36.5067 186.408 36.5067C189.904 36.5067 193.035 37.759 194.914 40.5247C197.471 37.4459 201.071 36.5067 203.941 36.5067C209.89 36.5067 214.482 39.9507 214.482 48.4042V63.9545H207.49Z" fill="#001A13"/>
<path d="M44.1594 36.5067C38.1063 36.5067 32.9924 40.1594 30.9051 45.3254H38.9934C40.3501 44.0209 42.1765 43.186 44.1594 43.186C48.2818 43.186 51.6214 46.5778 51.6214 50.5437C51.6214 54.5617 48.2818 57.9535 44.1594 57.9535C41.0285 57.9535 38.315 55.9184 37.2192 53.1528H42.8027V47.4127H42.1765H26V77H31.74V57.6404C34.1926 61.8672 38.7846 64.7372 44.1594 64.7372C52.1433 64.7372 58.5095 58.371 58.5095 50.5958C58.5095 42.7685 52.1433 36.5067 44.1594 36.5067Z" fill="#001A13"/>
</svg>
