<svg width="240" height="100" viewBox="0 0 240 100" fill="none" xmlns="http://www.w3.org/2000/svg">
<rect width="240" height="100" fill="white"/>
<path d="M104.128 80.4584C98.7304 80.4584 92.904 80.4144 86.8736 80.0984C86.0352 80.0544 85.2592 79.692 84.6824 79.076C84.4256 78.844 84.2272 78.604 84.0768 78.3432C83.5216 77.3816 83.5224 76.2344 84.0792 75.2744L117.863 16.916C118.418 15.9584 119.41 15.3864 120.517 15.3864C121.623 15.3864 122.617 15.9584 123.17 16.9168L156.907 75.1888L156.958 75.276C157.514 76.236 157.514 77.3824 156.961 78.344C156.681 78.8304 156.266 79.2312 155.761 79.5032C155.294 79.7904 154.776 79.9488 154.259 79.96C141.368 80.2712 127.04 80.4352 111.675 80.448L108.215 80.4528C106.841 80.456 105.48 80.4584 104.129 80.4584H104.128Z" fill="#FFEE52"/>
<path d="M120.517 16.2184C121.323 16.2184 122.046 16.6344 122.45 17.3328L156.237 75.692H156.238C156.643 76.392 156.643 77.228 156.239 77.928C156.023 78.304 155.709 78.5896 155.344 78.7816C155.009 78.9928 154.63 79.1192 154.239 79.128C141.357 79.4392 127.034 79.6032 111.673 79.616L108.365 79.6208C106.938 79.624 105.527 79.6264 104.126 79.6264C98.3744 79.6264 92.78 79.5752 86.9152 79.2672C86.2752 79.2336 85.6896 78.9488 85.2648 78.4824C85.0848 78.3232 84.9208 78.144 84.7944 77.9264C84.3904 77.2264 84.3912 76.3912 84.796 75.692L118.583 17.3328C118.987 16.6352 119.71 16.2184 120.517 16.2184ZM120.517 14.5536C119.11 14.5536 117.849 15.28 117.143 16.4976L83.3576 74.8576C82.6504 76.0776 82.6496 77.536 83.3544 78.7584C83.5448 79.088 83.7888 79.3856 84.0984 79.6696C84.82 80.428 85.7864 80.8744 86.8296 80.9288C92.8784 81.2464 98.7184 81.2904 104.127 81.2904C105.515 81.2904 106.943 81.2872 108.325 81.2848H108.369L111.675 81.28C127.044 81.2672 141.378 81.1032 154.279 80.792C154.934 80.7768 155.59 80.5808 156.176 80.224C156.808 79.8784 157.327 79.3728 157.681 78.7584C158.385 77.5368 158.384 76.0792 157.677 74.8584L157.57 74.6752L123.89 16.4984C123.187 15.2808 121.926 14.5536 120.518 14.5536H120.517Z" fill="#FF705C"/>
<path d="M151.302 54.0664C151.258 52.472 150.95 51.044 150.357 49.7024C147.734 43.7624 142.267 40.796 135.731 41.772C134.634 41.9352 133.546 42.2056 132.494 42.5776C132.127 42.1056 131.61 41.9048 130.818 41.9032H126.905C126.466 41.904 126.066 42.1808 125.905 42.624C125.345 44.1624 120.389 57.7768 118.797 62.004C118.518 62.7448 117.396 65.1328 114.702 64.6704C114.111 64.5712 113.579 64.2072 113.244 63.6752C112.928 63.1736 112.835 62.5824 112.987 62.052L113.054 61.8168C113.213 61.2624 113.393 60.6336 113.606 60.0704L119.838 43.6224C119.96 43.3 119.917 42.936 119.719 42.6488C119.522 42.3648 119.199 42.2 118.853 42.1952C116.869 42.1664 114.802 42.1824 114.244 42.1896C113.234 42.2024 112.515 42.6984 112.183 43.6384C111.247 46.3016 110.296 48.9072 109.358 51.3816C108.838 52.7528 108.35 54.1976 107.918 55.4712C107.349 57.1528 106.761 58.892 106.089 60.5496C105.656 61.6184 105.074 62.8256 104.054 63.6776C102.781 64.74 100.802 65.2952 98.9448 64.9128C96.58 64.4248 96.2544 62.0968 96.3312 60.7936C96.4096 59.4608 96.8544 58.1712 97.3344 56.8584C98.4032 53.9256 100.576 48.1048 102.221 43.8152C102.346 43.4904 102.302 43.1256 102.106 42.8408C101.91 42.5544 101.704 42.3816 101.238 42.3832C100.726 42.3848 97.456 42.3656 96.9976 42.3824C96.4368 42.4024 95.996 42.5136 95.5904 42.7824C94.668 43.3952 93.4584 44.552 92.0544 45.8936C90.128 47.7352 87.7288 50.0256 85.3912 51.54C85.0968 51.7296 84.9168 52.0544 84.9096 52.4056C84.9024 52.756 85.0712 53.0864 85.3632 53.2904C85.6216 53.4712 85.864 53.4664 86.292 53.3856C86.328 53.3816 86.364 53.3744 86.3992 53.3648C87.0568 53.2304 88.516 52.8616 91.7736 52.0272C90.8464 54.3728 89.9048 56.8872 89.436 59.588C88.8632 62.872 89.676 65.9416 91.784 68.4656C95.1736 72.5224 100.753 72.68 104.506 71.1136C105.918 70.5224 107.005 69.5616 107.891 68.6072C109.662 70.948 112.81 71.9424 115.413 71.6824C115.2 72.2536 114.962 72.8984 114.709 73.5848L114.433 74.3304C113.273 77.468 111.83 81.3728 111.042 83.3928C110.775 84.0752 110.841 84.7816 111.221 85.3336C111.595 85.8768 112.231 86.188 112.991 86.188L116.806 86.1584H116.81C117.261 86.1584 117.651 85.8848 117.805 85.46C118.425 83.7328 119.345 81.1784 120.273 78.6016L121.199 76.0296C122.208 73.2296 123.106 70.7384 123.481 69.684L124.394 67.1328C124.804 67.6112 125.243 68.0472 125.708 68.44C128.885 71.1176 132.582 72.1264 136.698 71.448C140.213 70.8656 143.231 69.4152 145.67 67.1352C149.548 63.512 151.443 59.1136 151.306 54.0616L151.307 54.0664H151.302ZM143.467 55.3968C143.004 58.8408 141.392 61.4592 138.671 63.18C137.246 64.0808 135.718 64.5376 134.128 64.5376H134.097C131.588 64.5304 129.468 62.9656 128.696 60.5504C128.568 60.1504 128.472 59.7152 128.401 59.2224C128.378 59.0608 128.37 58.8992 128.355 58.6752L128.338 58.5168C128.473 56.0608 129.33 53.8712 130.886 52.0104C132.546 50.024 134.713 48.9288 137.323 48.7552C137.459 48.7464 137.594 48.7416 137.729 48.7416C139.936 48.7416 141.787 49.9408 142.81 52.0304C143.386 53.2088 143.608 54.3408 143.466 55.396L143.467 55.3968Z" fill="#1A1A1C"/>
<path d="M138.142 41.5888C143.596 41.5888 148.065 44.5088 150.358 49.7024C150.95 51.0448 151.259 52.472 151.302 54.0664C151.441 59.1176 149.545 63.5152 145.666 67.14C143.228 69.42 140.21 70.8704 136.695 71.4528C135.867 71.5896 135.056 71.6576 134.262 71.6576C131.112 71.6576 128.242 70.5832 125.705 68.4456C125.241 68.0544 124.801 67.6168 124.39 67.1384L123.478 69.6896C123.101 70.7448 122.204 73.2352 121.196 76.0368L120.269 78.6088C119.342 81.1856 118.421 83.74 117.801 85.4672C117.647 85.8912 117.258 86.1648 116.806 86.1648H116.802L112.987 86.1944C112.227 86.1944 111.591 85.8824 111.217 85.34C110.837 84.7896 110.771 84.0824 111.038 83.3992C111.826 81.3776 113.27 77.4736 114.429 74.3368L114.705 73.5912C114.958 72.904 115.197 72.2608 115.409 71.6888C115.14 71.7152 114.866 71.7288 114.587 71.7288C112.171 71.7288 109.476 70.712 107.888 68.6128C107.002 69.5672 105.916 70.528 104.502 71.1192C103.118 71.6976 101.487 72.0408 99.808 72.0408C96.9328 72.0408 93.9208 71.0336 91.78 68.4728C89.672 65.9488 88.86 62.8792 89.432 59.5944C89.9008 56.8936 90.8424 54.38 91.7696 52.0336C88.512 52.868 87.0536 53.2368 86.3952 53.3712C86.36 53.3808 86.324 53.3872 86.288 53.3912C86.1128 53.4248 85.9696 53.444 85.8424 53.444C85.6592 53.444 85.5128 53.4016 85.3592 53.2944C85.0672 53.0896 84.8992 52.7592 84.9056 52.408C84.9136 52.0568 85.0936 51.732 85.3872 51.5424C87.7248 50.028 90.124 47.7368 92.0504 45.896C93.4536 44.5544 94.6648 43.3976 95.5864 42.7848C95.992 42.5152 96.4336 42.404 96.9936 42.3848C97.1312 42.38 97.5224 42.3776 98.0168 42.3776C99.088 42.3776 100.642 42.3856 101.142 42.3856H101.243C101.705 42.3856 101.909 42.5576 102.103 42.8416C102.3 43.1256 102.344 43.492 102.218 43.816C100.573 48.1064 98.4 53.9256 97.332 56.8592C96.852 58.172 96.4072 59.4616 96.3288 60.7944C96.252 62.0976 96.5776 64.4256 98.9424 64.9136C99.3408 64.996 99.744 65.0344 100.146 65.0344C101.615 65.0344 103.051 64.512 104.051 63.6784C105.071 62.8264 105.653 61.6208 106.086 60.5504C106.758 58.892 107.347 57.1536 107.915 55.4712C108.347 54.1976 108.835 52.7528 109.354 51.3816C110.293 48.9072 111.243 46.3016 112.18 43.6384C112.511 42.6984 113.23 42.2024 114.241 42.1896C114.555 42.1856 115.354 42.1784 116.349 42.1784C117.111 42.1784 117.988 42.1824 118.85 42.1944C119.196 42.1992 119.518 42.3632 119.716 42.648C119.914 42.9352 119.957 43.2992 119.835 43.6216L113.603 60.0696C113.39 60.6344 113.21 61.2624 113.051 61.8176L112.984 62.052C112.831 62.5808 112.925 63.172 113.241 63.6736C113.576 64.2064 114.108 64.5696 114.699 64.6696C114.934 64.7096 115.157 64.7288 115.368 64.7288C117.582 64.7288 118.54 62.6792 118.794 62.0032C120.386 57.776 125.342 44.1616 125.902 42.6232C126.064 42.18 126.463 41.9032 126.902 41.9016H130.814C131.605 41.9032 132.125 42.104 132.491 42.576C133.544 42.2048 134.63 41.9344 135.728 41.7704C136.55 41.6472 137.354 41.5872 138.138 41.5872M134.097 64.5376H134.128C135.718 64.5376 137.246 64.0816 138.671 63.1792C141.392 61.46 143.004 58.8416 143.467 55.3976C143.608 54.3424 143.386 53.2104 142.81 52.032C141.786 49.9408 139.936 48.7424 137.729 48.7424C137.595 48.7424 137.46 48.7472 137.323 48.756C134.713 48.9288 132.546 50.0248 130.886 52.0112C129.33 53.872 128.472 56.0616 128.338 58.5176L128.355 58.6752C128.369 58.8976 128.378 59.0608 128.401 59.2224C128.472 59.7144 128.568 60.1496 128.696 60.5504C129.468 62.9648 131.588 64.5296 134.097 64.5376ZM138.142 40.1392C137.284 40.1392 136.402 40.2064 135.518 40.3376C134.608 40.4736 133.703 40.6768 132.817 40.9456C132.275 40.616 131.614 40.4536 130.82 40.4528H126.906C125.837 40.4568 124.912 41.1136 124.542 42.1272C124.488 42.2768 119.124 57.0208 117.439 61.4936C117.238 62.0304 116.632 63.28 115.37 63.28C115.237 63.28 115.094 63.2672 114.947 63.2424C114.762 63.2112 114.584 63.084 114.47 62.9024C114.377 62.7528 114.342 62.5856 114.38 62.456L114.448 62.22C114.598 61.6928 114.769 61.0976 114.962 60.5864L121.194 44.1392C121.484 43.3712 121.379 42.5088 120.914 41.8296C120.449 41.1608 119.689 40.7584 118.874 40.7464C118.004 40.7336 117.12 40.7296 116.35 40.7296C115.348 40.7296 114.542 40.7368 114.225 40.7408C112.591 40.7616 111.349 41.6424 110.815 43.1584C109.881 45.816 108.934 48.4096 108.002 50.8696C107.482 52.2408 106.997 53.6744 106.569 54.9384L106.545 55.008C105.984 56.6656 105.406 58.3776 104.746 60.0072C104.381 60.908 103.902 61.9176 103.126 62.5656C102.36 63.204 101.249 63.5848 100.15 63.5848C99.8392 63.5848 99.5336 63.5544 99.2408 63.4944C97.8536 63.208 97.732 61.7352 97.7824 60.8808C97.848 59.7632 98.2368 58.6248 98.7 57.3576C99.7536 54.4656 101.918 48.6656 103.578 44.336C103.875 43.5672 103.773 42.6984 103.302 42.0168C102.806 41.2896 102.132 40.9352 101.25 40.9352H101.148L100.127 40.932C99.4704 40.9304 98.6616 40.9272 98.0232 40.9272C97.504 40.9272 97.0928 40.9288 96.948 40.9352C96.0896 40.9656 95.4032 41.1696 94.7888 41.5776C93.7608 42.2608 92.5088 43.4568 91.0584 44.844C89.1728 46.6456 86.8312 48.8832 84.604 50.3256C83.9064 50.7752 83.4792 51.5416 83.4592 52.3744C83.4416 53.2136 83.8424 54 84.5312 54.4824C84.9288 54.76 85.3576 54.8936 85.8456 54.8936C86.0912 54.8936 86.3208 54.8592 86.5176 54.8224C86.5864 54.8128 86.6544 54.8 86.7208 54.7832C87.1936 54.6848 88.008 54.4864 89.4264 54.1264C88.8432 55.7696 88.3248 57.5008 88.0048 59.3432C87.3568 63.06 88.2784 66.5376 90.668 69.4C92.8712 72.0368 96.1176 73.4896 99.8088 73.4896C101.627 73.4896 103.444 73.1328 105.063 72.456C106.192 71.984 107.114 71.324 107.842 70.6856C109.309 71.9904 111.262 72.8536 113.338 73.1032L113.069 73.832C111.978 76.784 110.485 80.8248 109.686 82.872C109.243 84.0088 109.365 85.208 110.022 86.1616C110.672 87.1048 111.753 87.644 112.987 87.644L116.812 87.6144C117.875 87.6144 118.802 86.964 119.165 85.9592C119.63 84.6632 120.263 82.904 120.941 81.02L121.632 79.1L122.558 76.528C123.567 73.7256 124.466 71.2328 124.842 70.1776L124.997 69.7448C127.741 71.9776 130.855 73.1088 134.259 73.1088C135.129 73.1088 136.026 73.0328 136.929 72.8848C140.732 72.2552 144.003 70.6784 146.654 68.2C150.85 64.2808 152.9 59.512 152.75 54.028C152.702 52.2432 152.352 50.636 151.682 49.1184C149.162 43.4128 144.226 40.1408 138.138 40.1408H138.142V40.1392ZM129.794 58.4824C129.93 56.392 130.672 54.5288 131.998 52.9408C133.395 51.2696 135.219 50.3488 137.42 50.2024C137.522 50.1968 137.626 50.1912 137.729 50.1912C139.384 50.1912 140.726 51.0704 141.506 52.668C141.956 53.5856 142.131 54.4384 142.029 55.2032C141.626 58.2008 140.235 60.4728 137.896 61.9512C136.707 62.704 135.439 63.0856 134.129 63.0856H134.102C132.235 63.08 130.655 61.9104 130.078 60.1072C129.975 59.7864 129.897 59.4272 129.837 59.0136C129.822 58.9056 129.816 58.7904 129.807 58.64L129.804 58.5848L129.802 58.5512L129.798 58.5176L129.794 58.4816H129.794V58.4824Z" fill="#FF705C"/>
</svg>
