<svg width="272" height="172" viewBox="0 0 272 172" fill="none" xmlns="http://www.w3.org/2000/svg">
<g clip-path="url(#clip0_63_134)">
<path d="M0.25 0.25V120.74L193.17 0.25H0.25Z" fill="white"/>
<path opacity="0.8" d="M271.25 52.8799L81.73 171.25H271.25V52.8799Z" fill="#033135"/>
<path d="M271.25 0.25H193.17L0.25 120.74V171.25H81.73L271.25 52.88V0.25Z" fill="#F4F6F4"/>
<path d="M59.78 36.52H39.98V56.32H59.78V36.52Z" fill="#B7874A"/>
<mask id="mask0_63_134" style="mask-type:luminance" maskUnits="userSpaceOnUse" x="39" y="36" width="21" height="21">
<path d="M59.78 36.52H39.98V56.32H59.78V36.52Z" fill="white"/>
</mask>
<g mask="url(#mask0_63_134)">
<path d="M59.1801 37.1201H40.5801V55.7201H59.1801V37.1201Z" fill="#B7874A" stroke="white" stroke-width="0.5" stroke-miterlimit="10"/>
<path d="M59.1801 37.1201H40.5801V55.7201H59.1801V37.1201Z" fill="#B7874A" stroke="white" stroke-width="0.5" stroke-miterlimit="10"/>
</g>
<path d="M59.78 36.52H39.98V56.32H59.78V36.52Z" stroke="white" stroke-width="0.5" stroke-miterlimit="10"/>
<path d="M205.78 129.52H185.98V149.32H205.78V129.52Z" fill="#B7874A"/>
<mask id="mask1_63_134" style="mask-type:luminance" maskUnits="userSpaceOnUse" x="185" y="129" width="21" height="21">
<path d="M205.78 129.52H185.98V149.32H205.78V129.52Z" fill="white"/>
</mask>
<g mask="url(#mask1_63_134)">
<path d="M205.18 130.12H186.58V148.72H205.18V130.12Z" fill="#B7874A" stroke="white" stroke-width="0.5" stroke-miterlimit="10"/>
<path d="M205.18 130.12H186.58V148.72H205.18V130.12Z" fill="#B7874A" stroke="white" stroke-width="0.5" stroke-miterlimit="10"/>
</g>
<path d="M205.78 129.52H185.98V149.32H205.78V129.52Z" stroke="white" stroke-width="0.5" stroke-miterlimit="10"/>
<path d="M229.78 81.52H209.98V101.32H229.78V81.52Z" fill="#B7874A"/>
<mask id="mask2_63_134" style="mask-type:luminance" maskUnits="userSpaceOnUse" x="209" y="81" width="21" height="21">
<path d="M229.78 81.52H209.98V101.32H229.78V81.52Z" fill="white"/>
</mask>
<g mask="url(#mask2_63_134)">
<path d="M229.18 82.1201H210.58V100.72H229.18V82.1201Z" fill="#B7874A" stroke="white" stroke-width="0.5" stroke-miterlimit="10"/>
<path d="M229.18 82.1201H210.58V100.72H229.18V82.1201Z" fill="#B7874A" stroke="white" stroke-width="0.5" stroke-miterlimit="10"/>
</g>
<path d="M229.78 81.52H209.98V101.32H229.78V81.52Z" stroke="white" stroke-width="0.5" stroke-miterlimit="10"/>
<path d="M249.78 143.52H229.98V163.32H249.78V143.52Z" fill="#B7874A"/>
<mask id="mask3_63_134" style="mask-type:luminance" maskUnits="userSpaceOnUse" x="229" y="143" width="21" height="21">
<path d="M249.78 143.52H229.98V163.32H249.78V143.52Z" fill="white"/>
</mask>
<g mask="url(#mask3_63_134)">
<path d="M249.18 144.12H230.58V162.72H249.18V144.12Z" fill="#B7874A" stroke="white" stroke-width="0.5" stroke-miterlimit="10"/>
<path d="M249.18 144.12H230.58V162.72H249.18V144.12Z" fill="#B7874A" stroke="white" stroke-width="0.5" stroke-miterlimit="10"/>
</g>
<path d="M249.78 143.52H229.98V163.32H249.78V143.52Z" stroke="white" stroke-width="0.5" stroke-miterlimit="10"/>
<path d="M37.4499 94.8101H17.6499V114.61H37.4499V94.8101Z" fill="#B7874A"/>
<mask id="mask4_63_134" style="mask-type:luminance" maskUnits="userSpaceOnUse" x="17" y="94" width="21" height="21">
<path d="M37.4499 94.8101H17.6499V114.61H37.4499V94.8101Z" fill="white"/>
</mask>
<g mask="url(#mask4_63_134)">
<path d="M36.85 95.3999H18.25V114H36.85V95.3999Z" fill="#B7874A" stroke="white" stroke-width="0.5" stroke-miterlimit="10"/>
<path d="M36.85 95.3999H18.25V114H36.85V95.3999Z" fill="#B7874A" stroke="white" stroke-width="0.5" stroke-miterlimit="10"/>
</g>
<path d="M37.4499 94.8101H17.6499V114.61H37.4499V94.8101Z" stroke="white" stroke-width="0.5" stroke-miterlimit="10"/>
<path d="M161.45 67.8101H141.65V87.6101H161.45V67.8101Z" fill="#B7874A"/>
<mask id="mask5_63_134" style="mask-type:luminance" maskUnits="userSpaceOnUse" x="141" y="67" width="21" height="21">
<path d="M161.45 67.8101H141.65V87.6101H161.45V67.8101Z" fill="white"/>
</mask>
<g mask="url(#mask5_63_134)">
<path d="M160.85 68.3999H142.25V86.9999H160.85V68.3999Z" fill="#B7874A" stroke="white" stroke-width="0.5" stroke-miterlimit="10"/>
<path d="M160.85 68.3999H142.25V86.9999H160.85V68.3999Z" fill="#B7874A" stroke="white" stroke-width="0.5" stroke-miterlimit="10"/>
</g>
<path d="M161.45 67.8101H141.65V87.6101H161.45V67.8101Z" stroke="white" stroke-width="0.5" stroke-miterlimit="10"/>
<path d="M109.45 26.8101H89.6499V46.6101H109.45V26.8101Z" fill="#B7874A"/>
<mask id="mask6_63_134" style="mask-type:luminance" maskUnits="userSpaceOnUse" x="89" y="26" width="21" height="21">
<path d="M109.45 26.8101H89.6499V46.6101H109.45V26.8101Z" fill="white"/>
</mask>
<g mask="url(#mask6_63_134)">
<path d="M108.85 27.3999H90.25V45.9999H108.85V27.3999Z" fill="#B7874A" stroke="white" stroke-width="0.5" stroke-miterlimit="10"/>
<path d="M108.85 27.3999H90.25V45.9999H108.85V27.3999Z" fill="#B7874A" stroke="white" stroke-width="0.5" stroke-miterlimit="10"/>
</g>
<path d="M109.45 26.8101H89.6499V46.6101H109.45V26.8101Z" stroke="white" stroke-width="0.5" stroke-miterlimit="10"/>
<path d="M93.9602 107.21H74.1602V127.01H93.9602V107.21Z" fill="#B7874A"/>
<mask id="mask7_63_134" style="mask-type:luminance" maskUnits="userSpaceOnUse" x="74" y="107" width="20" height="21">
<path d="M93.9602 107.21H74.1602V127.01H93.9602V107.21Z" fill="white"/>
</mask>
<g mask="url(#mask7_63_134)">
<path d="M93.3603 107.8H74.7603V126.4H93.3603V107.8Z" fill="#B7874A" stroke="white" stroke-width="0.5" stroke-miterlimit="10"/>
<path d="M93.3603 107.8H74.7603V126.4H93.3603V107.8Z" fill="#B7874A" stroke="white" stroke-width="0.5" stroke-miterlimit="10"/>
</g>
<path d="M93.9602 107.21H74.1602V127.01H93.9602V107.21Z" stroke="white" stroke-width="0.5" stroke-miterlimit="10"/>
<path d="M232.96 30.21H213.16V50.01H232.96V30.21Z" fill="#B7874A"/>
<mask id="mask8_63_134" style="mask-type:luminance" maskUnits="userSpaceOnUse" x="213" y="30" width="20" height="21">
<path d="M232.96 30.21H213.16V50.01H232.96V30.21Z" fill="white"/>
</mask>
<g mask="url(#mask8_63_134)">
<path d="M232.36 30.7998H213.76V49.3998H232.36V30.7998Z" fill="#B7874A" stroke="white" stroke-width="0.5" stroke-miterlimit="10"/>
<path d="M232.36 30.7998H213.76V49.3998H232.36V30.7998Z" fill="#B7874A" stroke="white" stroke-width="0.5" stroke-miterlimit="10"/>
</g>
<path d="M232.96 30.21H213.16V50.01H232.96V30.21Z" stroke="white" stroke-width="0.5" stroke-miterlimit="10"/>
</g>
<defs>
<clipPath id="clip0_63_134">
<rect width="271.5" height="171.5" fill="white"/>
</clipPath>
</defs>
</svg>
