<svg width="254" height="35" viewBox="0 0 254 35" fill="none" xmlns="http://www.w3.org/2000/svg">
<mask id="mask0_72_9" style="mask-type:luminance" maskUnits="userSpaceOnUse" x="0" y="0" width="22" height="27">
<path d="M0 0.271484H21.3377V26.7233H0V0.271484Z" fill="white"/>
</mask>
<g mask="url(#mask0_72_9)">
<path fill-rule="evenodd" clip-rule="evenodd" d="M19.6103 0.271484C19.1133 0.271484 18.696 0.43536 18.3574 0.76257C18.0185 1.09005 17.8489 1.51358 17.8489 2.03261V20.559L3.0819 0.91505C2.72078 0.486368 2.2693 0.271484 1.72775 0.271484C1.23043 0.271484 0.818295 0.43536 0.491085 0.76257C0.163876 1.09005 0 1.51358 0 2.03261V24.9619C0 25.459 0.163876 25.8766 0.491085 26.2152C0.818295 26.554 1.23043 26.7233 1.72775 26.7233C2.24678 26.7233 2.67004 26.554 2.99752 26.2152C3.32446 25.8766 3.48888 25.459 3.48888 24.9619V6.46947L18.2556 26.1137C18.4133 26.3169 18.6222 26.4694 18.8821 26.5709C19.1415 26.6723 19.3843 26.7233 19.6103 26.7233C20.1296 26.7233 20.5469 26.554 20.8633 26.2152C21.1793 25.8766 21.3378 25.459 21.3378 24.9619V2.03261C21.3378 1.51358 21.1793 1.09005 20.8633 0.76257C20.5469 0.43536 20.1296 0.271484 19.6103 0.271484Z" fill="black"/>
</g>
<path fill-rule="evenodd" clip-rule="evenodd" d="M37.9161 20.7625C37.4082 21.7107 36.7022 22.456 35.7998 22.9976C34.8958 23.5394 33.8572 23.8104 32.6834 23.8104C31.5089 23.8104 30.47 23.5394 29.5673 22.9976C28.6639 22.456 27.9527 21.7107 27.4334 20.7625C26.9136 19.8142 26.6548 18.7192 26.6548 17.4771C26.6548 16.2355 26.9136 15.1348 27.4334 14.1749C27.9527 13.2155 28.6639 12.4647 29.5673 11.9226C30.47 11.3806 31.5089 11.1098 32.6834 11.1098C33.8572 11.1098 34.8958 11.3806 35.7998 11.9226C36.7022 12.4647 37.4082 13.2155 37.9161 14.1749C38.4245 15.1348 38.6782 16.2355 38.6782 17.4771C38.6782 18.7192 38.4245 19.8142 37.9161 20.7625ZM37.4925 9.26373C36.0923 8.46253 34.4896 8.06152 32.6834 8.06152C30.8547 8.06152 29.2396 8.46253 27.8404 9.26373C26.4399 10.0655 25.3394 11.1722 24.5377 12.5828C23.7362 13.9942 23.3354 15.6259 23.3354 17.4771C23.3354 19.306 23.7362 20.9263 24.5377 22.3375C25.3394 23.7488 26.4399 24.8553 27.8404 25.6565C29.2396 26.4582 30.8547 26.8587 32.6834 26.8587C34.5124 26.8587 36.1267 26.4582 37.5265 25.6565C38.9265 24.8553 40.0215 23.7488 40.8118 22.3375C41.6022 20.9263 41.9972 19.306 41.9972 17.4771C41.9972 15.6259 41.5965 13.9942 40.7953 12.5828C39.9933 11.1722 38.8928 10.0655 37.4925 9.26373Z" fill="black"/>
<mask id="mask1_72_9" style="mask-type:luminance" maskUnits="userSpaceOnUse" x="44" y="0" width="19" height="27">
<path d="M44.0918 0.271484H62.7536V26.8587H44.0918V0.271484Z" fill="white"/>
</mask>
<g mask="url(#mask1_72_9)">
<path fill-rule="evenodd" clip-rule="evenodd" d="M58.6385 20.6944C58.1081 21.6657 57.3907 22.4278 56.4875 22.9808C55.5845 23.534 54.5571 23.8105 53.4056 23.8105C52.2766 23.8105 51.2554 23.534 50.3408 22.9808C49.4264 22.4278 48.7094 21.6657 48.1901 20.6944C47.6702 19.7239 47.4108 18.6402 47.4108 17.4429C47.4108 16.2239 47.6702 15.14 48.1901 14.1917C48.7094 13.2432 49.4264 12.493 50.3408 11.9392C51.2554 11.3863 52.2766 11.1095 53.4056 11.1095C54.5571 11.1095 55.5845 11.3863 56.4875 11.9392C57.3907 12.493 58.1081 13.2432 58.6385 14.1917C59.1687 15.14 59.4345 16.2239 59.4345 17.4429C59.4345 18.6402 59.1687 19.7239 58.6385 20.6944ZM58.5199 9.29769C57.21 8.47369 55.7311 8.06129 54.0831 8.06129C52.7506 8.06129 51.5259 8.33803 50.4086 8.89098C49.2905 9.44474 48.3366 10.1949 47.5468 11.1435V1.99869C47.5468 1.47966 47.388 1.0621 47.0722 0.745748C46.7561 0.429663 46.3383 0.271484 45.819 0.271484C45.3222 0.271484 44.9098 0.429663 44.5829 0.745748C44.2557 1.0621 44.0918 1.47966 44.0918 1.99869V17.4429C44.114 19.2271 44.5319 20.8301 45.345 22.2526C46.1579 23.6748 47.2638 24.7983 48.6643 25.6226C50.0638 26.4471 51.6442 26.8587 53.4056 26.8587C55.189 26.8587 56.7811 26.4471 58.1816 25.6226C59.5811 24.7983 60.6929 23.6748 61.5177 22.2526C62.3409 20.8301 62.7536 19.2271 62.7536 17.4429C62.7536 15.6595 62.3754 14.0618 61.6189 12.6506C60.8622 11.2395 59.8296 10.1219 58.5199 9.29769Z" fill="black"/>
</g>
<path fill-rule="evenodd" clip-rule="evenodd" d="M78.9167 20.7625C78.4082 21.7107 77.7014 22.456 76.7988 22.9976C75.8961 23.5394 74.8569 23.8104 73.6832 23.8104C72.5089 23.8104 71.4695 23.5394 70.5671 22.9976C69.6636 22.456 68.9522 21.7107 68.4332 20.7625C67.9134 19.8142 67.654 18.7192 67.654 17.4771C67.654 16.2355 67.9134 15.1348 68.4332 14.1749C68.9522 13.2155 69.6636 12.4647 70.5671 11.9226C71.4695 11.3806 72.5089 11.1098 73.6832 11.1098C74.8569 11.1098 75.8961 11.3806 76.7988 11.9226C77.7014 12.4647 78.4082 13.2155 78.9167 14.1749C79.4235 15.1348 79.6783 16.2355 79.6783 17.4771C79.6783 18.7192 79.4235 19.8142 78.9167 20.7625ZM78.4931 9.26373C77.0918 8.46253 75.4896 8.06152 73.6832 8.06152C71.854 8.06152 70.2394 8.46253 68.8391 9.26373C67.4394 10.0655 66.3386 11.1722 65.5377 12.5828C64.7357 13.9942 64.335 15.6259 64.335 17.4771C64.335 19.306 64.7357 20.9263 65.5377 22.3375C66.3386 23.7488 67.4394 24.8553 68.8391 25.6565C70.2394 26.4582 71.854 26.8587 73.6832 26.8587C75.5119 26.8587 77.1262 26.4582 78.5262 25.6565C79.9262 24.8553 81.021 23.7488 81.8116 22.3375C82.602 20.9263 82.9973 19.306 82.9973 17.4771C82.9973 15.6259 82.5965 13.9942 81.7943 12.5828C80.9928 11.1722 79.8926 10.0655 78.4931 9.26373Z" fill="black"/>
<mask id="mask2_72_9" style="mask-type:luminance" maskUnits="userSpaceOnUse" x="84" y="0" width="20" height="27">
<path d="M84.5781 0.271484H103.24V26.8587H84.5781V0.271484Z" fill="white"/>
</mask>
<g mask="url(#mask2_72_9)">
<path fill-rule="evenodd" clip-rule="evenodd" d="M99.1422 20.6944C98.6229 21.6657 97.9115 22.4278 97.0091 22.9808C96.1051 23.534 95.0781 23.8105 93.9264 23.8105C92.7969 23.8105 91.7754 23.534 90.8613 22.9808C89.9467 22.4278 89.2242 21.6657 88.6932 20.6944C88.1625 19.7239 87.898 18.6402 87.898 17.4429C87.898 16.2239 88.1625 15.14 88.6932 14.1917C89.2242 13.2432 89.9467 12.493 90.8613 11.9392C91.7754 11.3863 92.7969 11.1095 93.9264 11.1095C95.0781 11.1095 96.1051 11.3863 97.0091 11.9392C97.9115 12.493 98.6229 13.2432 99.1422 14.1917C99.6615 15.14 99.9217 16.2239 99.9217 17.4429C99.9217 18.6402 99.6615 19.7239 99.1422 20.6944ZM101.513 0.271484C101.016 0.271484 100.604 0.429663 100.277 0.745748C99.9499 1.0621 99.7858 1.47966 99.7858 1.99869V11.1435C99.0177 10.1949 98.0699 9.44474 96.941 8.89098C95.8118 8.33803 94.5811 8.06129 93.2494 8.06129C91.6004 8.06129 90.1211 8.47369 88.8123 9.29769C87.5024 10.1219 86.4695 11.2395 85.7136 12.6506C84.9563 14.0618 84.5781 15.6595 84.5781 17.4429C84.5781 19.2271 84.99 20.8301 85.8148 22.2526C86.6385 23.6748 87.7561 24.7983 89.168 25.6226C90.5786 26.4471 92.1653 26.8587 93.9264 26.8587C95.6875 26.8587 97.2679 26.4471 98.6682 25.6226C100.068 24.7983 101.18 23.6748 102.004 22.2526C102.829 20.8301 103.24 19.2271 103.24 17.4429V1.99869C103.24 1.47966 103.082 1.0621 102.766 0.745748C102.45 0.429663 102.032 0.271484 101.513 0.271484Z" fill="black"/>
</g>
<path fill-rule="evenodd" clip-rule="evenodd" d="M122.182 8.36641C121.211 7.95998 120.499 8.23075 120.048 9.17928L114.605 21.4757L108.397 9.14536C108.194 8.71641 107.9 8.42881 107.516 8.28176C107.132 8.13498 106.725 8.15207 106.297 8.3325C105.868 8.51346 105.569 8.80133 105.399 9.19637C105.23 9.59141 105.258 10.0035 105.484 10.4325L113.094 24.8883L109.718 32.5156C109.266 33.4861 109.537 34.197 110.531 34.649C110.847 34.7841 111.118 34.8522 111.344 34.8522C111.953 34.8522 112.394 34.5019 112.664 33.8025L123.029 10.4998C123.48 9.50676 123.198 8.79536 122.182 8.36641Z" fill="black"/>
<path fill-rule="evenodd" clip-rule="evenodd" d="M141.559 12.1945C140.082 11.9452 138.867 11.5816 137.913 11.1047C136.959 10.6274 136.262 10.0547 135.819 9.38397C135.376 8.71462 135.154 7.9704 135.154 7.15265C135.154 5.60858 135.687 4.41641 136.755 3.57559C137.822 2.73559 139.287 2.31559 141.149 2.31559C142.217 2.31559 143.125 2.46346 143.875 2.75838C144.625 3.05385 145.249 3.428 145.749 3.88245C146.248 4.33691 146.657 4.80222 146.976 5.2792C147.134 5.50656 147.338 5.65959 147.588 5.73908C147.838 5.81912 148.087 5.81315 148.338 5.72226C148.632 5.60858 148.821 5.40997 148.9 5.1259C148.979 4.8421 148.939 4.57513 148.781 4.32552C148.372 3.64397 147.793 2.99145 147.043 2.3666C146.294 1.74203 145.419 1.23656 144.42 0.850205C143.42 0.464391 142.331 0.271484 141.149 0.271484C139.56 0.271484 138.157 0.549585 136.942 1.10579C135.728 1.66253 134.785 2.4404 134.115 3.43966C133.444 4.43947 133.11 5.60858 133.11 6.94862C133.11 8.78815 133.825 10.3499 135.256 11.6326C136.687 12.9157 138.674 13.7397 141.218 14.1025C143.42 14.3979 145.061 15.0624 146.14 16.0956C147.219 17.1295 147.759 18.395 147.759 19.8943C147.759 21.0978 147.503 22.1202 146.992 22.9602C146.481 23.8007 145.754 24.4367 144.812 24.8681C143.87 25.2995 142.751 25.5149 141.456 25.5149C140.298 25.5149 139.258 25.3733 138.339 25.0897C137.419 24.8054 136.624 24.3906 135.955 23.8457C135.285 23.3009 134.744 22.665 134.336 21.9384C134.2 21.6885 134.006 21.5067 133.757 21.3928C133.507 21.2794 133.257 21.2682 133.008 21.3588C132.712 21.45 132.502 21.6201 132.377 21.8697C132.252 22.1202 132.258 22.3812 132.394 22.6536C132.894 23.6534 133.575 24.5221 134.439 25.2596C135.302 25.9978 136.329 26.566 137.522 26.9629C138.714 27.3601 140.025 27.5593 141.456 27.5593C142.705 27.5593 143.841 27.3829 144.864 27.0313C145.885 26.6791 146.765 26.1742 147.503 25.5149C148.241 24.8564 148.809 24.0503 149.207 23.0966C149.603 22.1427 149.803 21.0753 149.803 19.8943C149.803 17.8727 149.161 16.2095 147.878 14.9028C146.595 13.597 144.489 12.6946 141.559 12.1945Z" fill="black"/>
<path fill-rule="evenodd" clip-rule="evenodd" d="M160.773 25.1407H160.023C158.729 25.1407 157.672 24.7258 156.855 23.897C156.037 23.0681 155.628 21.995 155.628 20.6778V11.1049H160.125C160.398 11.1049 160.619 11.0194 160.79 10.8487C160.959 10.6786 161.045 10.4575 161.045 10.1848C161.045 9.91216 160.959 9.69049 160.79 9.52065C160.619 9.35026 160.398 9.26452 160.125 9.26452H155.628V3.71227C155.628 3.39402 155.532 3.13871 155.339 2.94526C155.146 2.75262 154.89 2.65576 154.572 2.65576C154.278 2.65576 154.032 2.75262 153.84 2.94526C153.647 3.13871 153.55 3.39402 153.55 3.71227V9.26452H150.893C150.621 9.26452 150.399 9.35026 150.229 9.52065C150.059 9.69049 149.973 9.91216 149.973 10.1848C149.973 10.4575 150.059 10.6786 150.229 10.8487C150.399 11.0194 150.621 11.1049 150.893 11.1049H153.55V20.6778C153.55 21.9267 153.823 23.0456 154.368 24.0334C154.912 25.021 155.674 25.7935 156.651 26.3497C157.627 26.9064 158.739 27.1959 159.989 27.2184H160.773C161.09 27.2184 161.345 27.1218 161.539 26.9292C161.732 26.736 161.829 26.4921 161.829 26.1964C161.829 25.8787 161.732 25.6234 161.539 25.4299C161.345 25.2375 161.09 25.1407 160.773 25.1407Z" fill="black"/>
<path fill-rule="evenodd" clip-rule="evenodd" d="M179.135 8.5835C178.839 8.5835 178.595 8.6752 178.403 8.85644C178.209 9.0385 178.113 9.28784 178.113 9.60582V20.0304C178.113 21.0527 177.828 21.9668 177.261 22.7726C176.693 23.5795 175.921 24.2209 174.944 24.6976C173.967 25.1746 172.866 25.4131 171.64 25.4131C170.39 25.4131 169.272 25.1692 168.284 24.6808C167.296 24.1924 166.513 23.4539 165.933 22.4663C165.355 21.4784 165.065 20.2466 165.065 18.7699V9.60582C165.065 9.3109 164.968 9.06644 164.775 8.87326C164.582 8.68036 164.338 8.5835 164.043 8.5835C163.747 8.5835 163.503 8.68036 163.311 8.87326C163.117 9.06644 163.021 9.3109 163.021 9.60582V18.7699C163.021 20.6327 163.401 22.2107 164.162 23.5054C164.923 24.7999 165.95 25.7823 167.245 26.4522C168.54 27.1221 170.005 27.4572 171.64 27.4572C173.116 27.4572 174.45 27.1338 175.643 26.4861C176.614 25.959 177.436 25.2706 178.113 24.4271V26.1966C178.113 26.4921 178.209 26.7363 178.403 26.9292C178.595 27.1221 178.839 27.2187 179.135 27.2187C179.452 27.2187 179.702 27.1221 179.884 26.9292C180.066 26.7363 180.157 26.4921 180.157 26.1966V9.60582C180.157 9.28784 180.066 9.0385 179.884 8.85644C179.702 8.6752 179.452 8.5835 179.135 8.5835Z" fill="black"/>
<path fill-rule="evenodd" clip-rule="evenodd" d="M198.57 21.7849C197.923 22.932 197.037 23.841 195.913 24.5103C194.788 25.1807 193.511 25.515 192.08 25.515C190.672 25.515 189.4 25.1807 188.265 24.5103C187.129 23.841 186.232 22.932 185.573 21.7849C184.914 20.6381 184.585 19.3379 184.585 17.8845C184.585 16.431 184.914 15.1363 185.573 14.0003C186.232 12.8651 187.129 11.9621 188.265 11.292C189.4 10.6224 190.672 10.287 192.08 10.287C193.511 10.287 194.788 10.6224 195.913 11.292C197.037 11.9621 197.923 12.8651 198.57 14.0003C199.218 15.1363 199.541 16.431 199.541 17.8845C199.541 19.3379 199.218 20.6381 198.57 21.7849ZM200.563 0.611816C200.268 0.611816 200.023 0.702979 199.83 0.884219C199.637 1.06655 199.541 1.31616 199.541 1.63414V12.263C198.814 11.0822 197.798 10.1394 196.492 9.43534C195.185 8.73182 193.716 8.37937 192.08 8.37937C190.263 8.37937 188.633 8.79395 187.191 9.62282C185.749 10.452 184.614 11.5817 183.784 13.0124C182.956 14.4431 182.541 16.0672 182.541 17.8845C182.541 19.7012 182.956 21.3313 183.784 22.7725C184.614 24.2151 185.749 25.3506 187.191 26.1795C188.633 27.0091 190.263 27.4232 192.08 27.4232C193.874 27.4232 195.481 27.0143 196.901 26.1965C198.319 25.3791 199.45 24.2661 200.291 22.8583C201.13 21.4501 201.562 19.8596 201.585 18.0885V1.63414C201.585 1.31616 201.494 1.06655 201.312 0.884219C201.13 0.702979 200.881 0.611816 200.563 0.611816Z" fill="black"/>
<path fill-rule="evenodd" clip-rule="evenodd" d="M205.824 8.5835C205.529 8.5835 205.284 8.6752 205.092 8.85644C204.898 9.0385 204.802 9.28784 204.802 9.60582V26.1966C204.802 26.4921 204.898 26.7363 205.092 26.9292C205.284 27.1221 205.529 27.2187 205.824 27.2187C206.142 27.2187 206.392 27.1221 206.574 26.9292C206.756 26.7363 206.847 26.4921 206.847 26.1966V9.60582C206.847 9.28784 206.756 9.0385 206.574 8.85644C206.392 8.6752 206.142 8.5835 205.824 8.5835Z" fill="black"/>
<path fill-rule="evenodd" clip-rule="evenodd" d="M206.897 1.88961C206.568 1.62861 206.21 1.49756 205.824 1.49756C205.415 1.49756 205.046 1.62861 204.717 1.88961C204.388 2.15089 204.223 2.5424 204.223 3.06496C204.223 3.51969 204.376 3.89954 204.683 4.20612C204.989 4.51244 205.359 4.66601 205.79 4.66601C206.244 4.66601 206.625 4.51244 206.932 4.20612C207.238 3.89954 207.391 3.51969 207.391 3.06496C207.391 2.5424 207.227 2.15089 206.897 1.88961Z" fill="black"/>
<path fill-rule="evenodd" clip-rule="evenodd" d="M225.506 21.7849C224.858 22.9321 223.973 23.841 222.848 24.5103C221.724 25.1808 220.447 25.515 219.016 25.515C217.608 25.515 216.336 25.1808 215.2 24.5103C214.064 23.841 213.168 22.9321 212.509 21.7849C211.85 20.6381 211.521 19.3488 211.521 17.9184C211.521 16.4652 211.85 15.1645 212.509 14.0179C213.168 12.8711 214.064 11.9621 215.2 11.292C216.336 10.6224 217.608 10.287 219.016 10.287C220.447 10.287 221.724 10.6224 222.848 11.292C223.973 11.9621 224.858 12.8711 225.506 14.0179C226.154 15.1645 226.476 16.453 226.476 17.8845C226.476 19.3379 226.154 20.6381 225.506 21.7849ZM223.888 9.62284C222.457 8.79397 220.833 8.37939 219.016 8.37939C217.199 8.37939 215.569 8.79397 214.128 9.62284C212.685 10.452 211.549 11.5875 210.721 13.0295C209.891 14.4721 209.477 16.1011 209.477 17.9184C209.477 19.7123 209.891 21.3313 210.721 22.7725C211.549 24.2151 212.685 25.3506 214.128 26.1795C215.569 27.0092 217.199 27.4232 219.016 27.4232C220.833 27.4232 222.457 27.0092 223.888 26.1795C225.319 25.3506 226.448 24.2151 227.278 22.7725C228.107 21.3313 228.521 19.7123 228.521 17.9184C228.521 16.1011 228.107 14.4721 227.278 13.0295C226.448 11.5875 225.319 10.452 223.888 9.62284Z" fill="black"/>
<mask id="mask3_72_9" style="mask-type:luminance" maskUnits="userSpaceOnUse" x="229" y="8" width="15" height="20">
<path d="M229.192 8.37939H243.696V27.4229H229.192V8.37939Z" fill="white"/>
</mask>
<g mask="url(#mask3_72_9)">
<path fill-rule="evenodd" clip-rule="evenodd" d="M243.065 19.8768C242.645 19.1613 241.941 18.5316 240.953 17.9859C239.966 17.4414 238.62 17.0556 236.916 16.828C235.667 16.6464 234.668 16.402 233.918 16.0957C233.168 15.7888 232.629 15.4144 232.3 14.9716C231.97 14.5285 231.806 14.012 231.806 13.4213C231.806 12.5585 232.204 11.8202 232.999 11.2068C233.793 10.5936 234.907 10.287 236.337 10.287C237.404 10.287 238.341 10.4745 239.148 10.8489C239.954 11.2236 240.641 11.7749 241.209 12.5015C241.391 12.7292 241.606 12.8648 241.856 12.9104C242.106 12.9557 242.344 12.9221 242.572 12.8078C242.866 12.6494 243.042 12.4389 243.099 12.1776C243.156 11.9171 243.094 11.6727 242.913 11.4453C242.253 10.5144 241.391 9.77044 240.323 9.2137C239.255 8.65777 237.949 8.37939 236.405 8.37939C235.133 8.37939 234.003 8.57854 233.015 8.97521C232.027 9.37323 231.249 9.96362 230.682 10.7469C230.114 11.5302 229.831 12.4899 229.831 13.6256C229.831 14.83 230.376 15.8859 231.465 16.794C232.556 17.7027 234.236 18.3156 236.507 18.6339C238.279 18.884 239.59 19.298 240.442 19.8768C241.294 20.456 241.72 21.1883 241.72 22.0744C241.72 22.9831 241.323 23.7778 240.527 24.4593C239.732 25.1406 238.382 25.4808 236.473 25.4808C235.36 25.4808 234.332 25.3281 233.39 25.0209C232.448 24.7146 231.647 24.1752 230.989 23.4028C230.829 23.1985 230.619 23.074 230.358 23.0281C230.097 22.9831 229.852 23.0398 229.626 23.1985C229.376 23.3806 229.234 23.6017 229.2 23.8627C229.166 24.1242 229.24 24.3684 229.421 24.5952C230.285 25.6176 231.363 26.3444 232.658 26.7756C233.953 27.2075 235.19 27.4229 236.371 27.4229C237.666 27.4229 238.87 27.2129 239.983 26.7927C241.095 26.3727 241.993 25.7654 242.674 24.9699C243.355 24.1752 243.696 23.2444 243.696 22.1767C243.696 21.359 243.485 20.5925 243.065 19.8768Z" fill="black"/>
</g>
<path d="M253.412 12.5161C253.524 12.5161 253.622 12.4761 253.706 12.3961C253.79 12.3161 253.832 12.2241 253.832 12.1201V8.86806C253.832 8.73206 253.776 8.63006 253.664 8.56206C253.552 8.49406 253.428 8.46806 253.292 8.48406C253.156 8.50006 253.056 8.56806 252.992 8.68806L251.596 11.2391L250.16 8.68806C250.109 8.59206 250.035 8.52934 249.937 8.4999L249.86 8.48406C249.724 8.46806 249.6 8.49406 249.488 8.56206C249.376 8.63006 249.32 8.73206 249.32 8.86806V12.1201C249.32 12.2321 249.36 12.3261 249.44 12.4021C249.52 12.4781 249.62 12.5161 249.74 12.5161C249.86 12.5161 249.96 12.4761 250.04 12.3961C250.12 12.3161 250.16 12.2241 250.16 12.1201V10.1631L251.192 12.0361C251.256 12.1513 251.348 12.2229 251.469 12.2511L251.564 12.2641C251.732 12.2721 251.856 12.2041 251.936 12.0601L252.992 10.1381V12.1201C252.992 12.2041 253.015 12.2779 253.06 12.3417L253.112 12.4021C253.192 12.4781 253.292 12.5161 253.412 12.5161ZM245.576 8.48406C245.464 8.48406 245.37 8.51806 245.294 8.58606C245.218 8.65406 245.18 8.74406 245.18 8.85606C245.18 8.96006 245.218 9.04806 245.294 9.12006C245.37 9.19206 245.464 9.22806 245.576 9.22806H246.608V12.1201C246.608 12.2041 246.631 12.2779 246.676 12.3417L246.728 12.4021C246.808 12.4781 246.908 12.5161 247.028 12.5161C247.148 12.5161 247.248 12.4781 247.328 12.4021C247.408 12.3261 247.448 12.2321 247.448 12.1201V9.22806H248.468C248.552 9.22806 248.627 9.20781 248.693 9.16731L248.756 9.12006C248.836 9.04806 248.876 8.96006 248.876 8.85606C248.876 8.74406 248.836 8.65406 248.756 8.58606C248.676 8.51806 248.58 8.48406 248.468 8.48406H246.608H245.576Z" fill="white"/>
</svg>
