<svg width="272" height="172" viewBox="0 0 272 172" fill="none" xmlns="http://www.w3.org/2000/svg">
<rect width="271.5" height="171.5" fill="white"/>
<path d="M20.0601 90.9302H241.04" stroke="#033135" stroke-width="2" stroke-miterlimit="10"/>
<path d="M239.06 93.83L249.9 90.93L239.06 88.02V93.83Z" fill="#033135"/>
<path d="M134.69 160.11V23.6099" stroke="#033135" stroke-width="2" stroke-miterlimit="10"/>
<path d="M137.6 25.59L134.69 14.75L131.79 25.59H137.6Z" fill="#033135"/>
<path d="M25.33 64.8402C28.1356 64.8402 30.41 62.5658 30.41 59.7602C30.41 56.9546 28.1356 54.6802 25.33 54.6802C22.5244 54.6802 20.25 56.9546 20.25 59.7602C20.25 62.5658 22.5244 64.8402 25.33 64.8402Z" stroke="#B7874A" stroke-width="2" stroke-miterlimit="10"/>
<path d="M158.09 40.6302C160.895 40.6302 163.17 38.3558 163.17 35.5502C163.17 32.7446 160.895 30.4702 158.09 30.4702C155.284 30.4702 153.01 32.7446 153.01 35.5502C153.01 38.3558 155.284 40.6302 158.09 40.6302Z" stroke="#B7874A" stroke-width="2" stroke-miterlimit="10"/>
<path d="M224.48 131.22C227.286 131.22 229.56 128.946 229.56 126.14C229.56 123.334 227.286 121.06 224.48 121.06C221.674 121.06 219.4 123.334 219.4 126.14C219.4 128.946 221.674 131.22 224.48 131.22Z" stroke="#B7874A" stroke-width="2" stroke-miterlimit="10"/>
<path d="M54.6102 23.4399H45.2402V32.8099H54.6102V23.4399Z" stroke="#B7874A" stroke-width="2" stroke-miterlimit="10"/>
<path d="M115 85.1401L120.38 89.0401L118.32 95.3601H111.68L109.63 89.0401L115 85.1401Z" fill="#F7F8F9" stroke="#B7874A" stroke-width="2" stroke-miterlimit="10"/>
<path d="M195.19 42.9702H185.82V52.3402H195.19V42.9702Z" stroke="#B7874A" stroke-width="2" stroke-miterlimit="10"/>
<path d="M203.78 99.98H194.41V109.35H203.78V99.98Z" stroke="#B7874A" stroke-width="2" stroke-miterlimit="10"/>
<path d="M101.47 69.52H92.1001V78.89H101.47V69.52Z" stroke="#B7874A" stroke-width="2" stroke-miterlimit="10"/>
<path d="M79.8202 104.81L85.1902 108.71L83.1402 115.03H76.5002L74.4502 108.71L79.8202 104.81Z" fill="#F7F8F9" stroke="#B7874A" stroke-width="2" stroke-miterlimit="10"/>
<path d="M202.43 68.8799L207.81 72.7799L205.75 79.0999H199.11L197.06 72.7799L202.43 68.8799Z" fill="#F7F8F9" stroke="#B7874A" stroke-width="2" stroke-miterlimit="10"/>
<path d="M227.86 39.9902L233.23 43.8902L231.18 50.2002H224.54L222.49 43.8902L227.86 39.9902Z" fill="#F7F8F9" stroke="#B7874A" stroke-width="2" stroke-miterlimit="10"/>
<path d="M148.72 135.91C151.526 135.91 153.8 133.636 153.8 130.83C153.8 128.024 151.526 125.75 148.72 125.75C145.915 125.75 143.64 128.024 143.64 130.83C143.64 133.636 145.915 135.91 148.72 135.91Z" stroke="#B7874A" stroke-width="2" stroke-miterlimit="10"/>
<path d="M176.31 117.28L181.69 121.18L179.63 127.49H172.99L170.94 121.18L176.31 117.28Z" fill="#F7F8F9" stroke="#B7874A" stroke-width="2" stroke-miterlimit="10"/>
</svg>
