<?xml version="1.0" encoding="utf-8"?>
<!-- Generator: Adobe Illustrator 24.1.3, SVG Export Plug-In . SVG Version: 6.00 Build 0)  -->
<svg version="1.1" id="Layer_1" xmlns="http://www.w3.org/2000/svg" xmlns:xlink="http://www.w3.org/1999/xlink" x="0px" y="0px"
	 viewBox="0 0 9624 2350" style="enable-background:new 0 0 9624 2350;" xml:space="preserve">
<style type="text/css">
	.st0{fill:#9D2536;}
</style>
<path class="st0" d="M8026.8,564.1h-416.6v1344.1h416.6V564.1z M1014.3,1234.8c0,224.5-143.3,335.3-305.6,335.3
	c-159.5,0-302.9-113.6-302.9-335.3c0-224.4,143.3-332.6,302.9-332.6C870.9,902.2,1014.3,1010.4,1014.3,1234.8z M1417.3,1232.1
	c0-402.9-235.3-700.4-624.7-700.4c-192,0-338,83.8-394.8,170.4V564.1H0.2v1785.8h411.1v-547.2c62.2,75.7,192,135.2,365.1,135.2
	C1152.2,1937.9,1417.3,1643.2,1417.3,1232.1L1417.3,1232.1z M2509.9,1234.8c0,227.2-146.1,335.3-302.9,335.3
	c-154.1,0-302.9-110.9-302.9-335.3c0-227.2,148.8-332.6,302.9-332.6C2363.9,902.2,2509.9,1007.7,2509.9,1234.8z M2921,1234.8
	c0-416.4-311-711.2-714-711.2c-400.2,0-713.9,294.8-713.9,711.2c0,416.5,313.7,713.9,713.9,713.9
	C2610,1948.8,2921,1651.3,2921,1234.8z M3616.9,246.4c0-132.7-111.4-241.8-244.1-241.8c-132.7,0-241.8,109-241.8,241.8
	c0,130.4,109,244.1,241.8,244.1C3505.5,490.5,3616.9,376.7,3616.9,246.4z M3564.6,923.8H3827V564.1h-906v359.7h238v576
	c0,267.8,170.4,432.7,448.9,432.7c129.8,0,197.4-29.7,213.6-37.9V1554c-24.3,5.4-64.9,13.5-108.2,13.5
	c-89.2,0-148.7-29.7-148.7-140.6V923.8z M4802,1075.3h-538.1c8.1-100.1,94.6-227.2,267.7-227.2
	C4726.3,848.1,4796.6,972.5,4802,1075.3z M5191.4,1340.3c2.7-8.1,8.1-70.3,8.1-127.1c0-432.7-256.9-689.6-673.4-689.6
	c-348.9,0-670.7,275.8-670.7,708.5c0,451.6,329.9,716.7,700.4,716.7c340.8,0,554.4-194.7,619.3-427.3l-343.4-97.4
	c-37.9,105.5-121.7,175.8-270.5,175.8c-159.6,0-297.5-108.2-305.6-259.6H5191.4z M6142.9,1908.2h411v-843.8
	c0-294.8-151.4-535.5-489.5-535.5c-137.9,0-302.9,62.2-375.9,189.3V564.1H5291v1344.1h411.1v-770.8c0-135.2,86.5-235.3,221.7-235.3
	c148.8,0,219.1,100,219.1,232.6L6142.9,1908.2L6142.9,1908.2z M7292.7,246.4c0-132.7-111.4-241.8-244.1-241.8
	c-132.7,0-241.7,109-241.7,241.8c0,130.4,109,244.1,241.7,244.1C7181.3,490.5,7292.7,376.7,7292.7,246.4z M7507.9,923.8V564.1h-906
	v359.7h238v576c0,267.8,170.4,432.7,448.9,432.7c129.8,0,197.4-29.7,213.6-37.9V1554c-24.3,5.4-64.9,13.5-108.2,13.5
	c-89.2,0-148.7-29.7-148.7-140.6v-503L7507.9,923.8L7507.9,923.8z M8059.1,241.7C8059.1,109.2,7951,1,7815.8,1
	c-129.8,0-238,108.2-238,240.7s108.2,240.7,238,240.7C7951,482.4,8059.1,374.2,8059.1,241.7L8059.1,241.7z M8921.5,1380.9
	c0,208.2-124.4,267.7-246.1,267.7c-113.6,0-159.5-67.6-159.5-137.9c0-94.6,64.9-135.2,151.4-148.7l254.2-40.6V1380.9L8921.5,1380.9z
	 M9337.9,1908.2c-2.7-13.5-16.2-102.8-16.2-208.3v-657.1c0-275.8-159.5-519.2-595-519.2c-394.8,0-573.3,254.2-589.5,446.2l357,73
	c8.1-100.1,86.5-197.4,229.8-197.4c129.8,0,197.4,67.6,197.4,146c0,46-24.3,81.1-97.4,92l-316.4,48.7
	c-221.7,32.4-397.5,167.7-397.5,405.6c0,213.6,170.4,408.4,465.2,408.4c178.5,0,308.3-75.7,378.6-189.3c0,92,10.8,140.6,13.5,151.5
	L9337.9,1908.2L9337.9,1908.2z M9489.4,1806.4v-36.1h20.7c5.9,0,11.6,1.2,17,3.4c5.4,2.3,8.2,6.9,8.2,13.8c0,7.6-3,12.6-8.9,15.1
	c-5.9,2.5-12.2,3.7-18.8,3.7L9489.4,1806.4L9489.4,1806.4L9489.4,1806.4z M9489.4,1877.5v-52.8h16.3l29.6,52.8h27.7l-34.1-55.3
	c8.9-2,16-5.8,21.2-11.6c5.3-5.8,7.9-13.2,7.9-22.5c0-6.9-1.3-12.7-4-17.3s-6.2-8.4-10.6-11.4c-4.5-3-9.5-5.1-15.1-6.4
	c-5.7-1.3-11.5-2-17.3-2h-44.4v126.4L9489.4,1877.5L9489.4,1877.5z M9423.2,1777.8c5-11.5,11.7-21.6,20.2-30.1
	c8.6-8.6,18.6-15.3,30.1-20.2c11.5-4.9,23.9-7.4,37-7.4c13.2,0,25.5,2.5,37,7.4c11.5,4.9,21.6,11.7,30.1,20.2
	c8.5,8.6,15.3,18.6,20.2,30.1c4.9,11.5,7.4,23.9,7.4,37.1c0,12.8-2.5,25-7.4,36.5c-5,11.5-11.7,21.6-20.2,30.3
	c-8.6,8.7-18.6,15.6-30.1,20.5c-11.5,4.9-23.9,7.4-37,7.4c-13.2,0-25.5-2.5-37-7.4c-11.5-4.9-21.6-11.8-30.1-20.5
	c-8.6-8.7-15.3-18.8-20.2-30.3c-4.9-11.5-7.4-23.7-7.4-36.5C9415.8,1801.6,9418.3,1789.3,9423.2,1777.8z M9406.9,1858.3
	c5.9,13.5,14,25.3,24.2,35.3c10.2,10.1,22.1,18,35.8,23.7c13.7,5.8,28.2,8.7,43.7,8.7c15.5,0,30-2.9,43.7-8.7
	c13.6-5.8,25.6-13.6,35.8-23.7c10.2-10,18.3-21.8,24.2-35.3s8.9-28,8.9-43.4s-3-30-8.9-43.7c-5.9-13.6-14-25.5-24.2-35.6
	c-10.2-10-22.2-18-35.8-23.9c-13.7-5.9-28.2-8.9-43.7-8.9c-15.5,0-30.1,3-43.7,8.9c-13.7,5.9-25.6,13.9-35.8,23.9
	c-10.2,10.1-18.3,21.9-24.2,35.6c-5.9,13.7-8.9,28.2-8.9,43.7S9401,1844.8,9406.9,1858.3z"/>
</svg>
