<svg width="272" height="172" viewBox="0 0 272 172" fill="none" xmlns="http://www.w3.org/2000/svg">
<rect width="271.5" height="171.5" fill="white"/>
<path d="M52.5123 63L52.6923 62.2L55.2323 61.9H55.5923L57.9923 62.2L57.8323 63H52.5123ZM54.2123 63L55.5723 55.8C55.7589 54.7733 55.9389 53.74 56.1123 52.7C56.2989 51.66 56.4723 50.6267 56.6323 49.6H58.4323L57.0723 56.8C56.8856 57.8267 56.6989 58.86 56.5123 59.9C56.3389 60.94 56.1723 61.9733 56.0123 63H54.2123ZM54.6523 50.42L54.8123 49.6H60.1123L59.9523 50.42L57.4523 50.72H57.0723L54.6523 50.42ZM60.7096 63.16L60.5096 63L62.2696 54.7L62.6296 54.98L60.2296 54.84L60.3096 54.26L63.7096 53.24L63.9696 53.44L63.4696 55.94L63.4296 56.12L62.8496 58.8C62.7029 59.4933 62.5629 60.1933 62.4296 60.9C62.3096 61.5933 62.1829 62.2933 62.0496 63L60.7096 63.16ZM66.9096 63.26C66.6029 63.26 66.3563 63.18 66.1696 63.02C65.9963 62.86 65.9096 62.6533 65.9096 62.4C65.9096 62.1733 65.9363 61.9533 65.9896 61.74C66.0563 61.5133 66.1363 61.1933 66.2296 60.78L67.0896 57.24C67.1696 56.8933 67.2429 56.5667 67.3096 56.26C67.3763 55.9533 67.4096 55.7 67.4096 55.5C67.4096 55.1533 67.3496 54.9133 67.2296 54.78C67.1096 54.6467 66.9363 54.58 66.7096 54.58C66.4563 54.58 66.1496 54.6533 65.7896 54.8C65.4429 54.9333 65.0496 55.1467 64.6096 55.44C64.1696 55.7333 63.6829 56.1 63.1496 56.54L63.1296 55.8H63.2496C63.7029 55.3333 64.1896 54.9067 64.7096 54.52C65.2296 54.1333 65.7496 53.8267 66.2696 53.6C66.8029 53.36 67.2896 53.24 67.7296 53.24C68.1563 53.24 68.4763 53.3533 68.6896 53.58C68.9029 53.8067 69.0096 54.1533 69.0096 54.62C69.0096 54.94 68.9696 55.2667 68.8896 55.6C68.8229 55.92 68.7496 56.2467 68.6696 56.58L67.7696 60.3C67.7029 60.58 67.6429 60.82 67.5896 61.02C67.5496 61.2067 67.5296 61.3533 67.5296 61.46C67.5296 61.5933 67.5629 61.7 67.6296 61.78C67.6963 61.8467 67.7896 61.88 67.9096 61.88C68.1629 61.88 68.4629 61.7533 68.8096 61.5C69.1696 61.2467 69.5296 60.8933 69.8896 60.44L70.3696 60.82C70.1163 61.2067 69.8029 61.5933 69.4296 61.98C69.0696 62.3533 68.6763 62.66 68.2496 62.9C67.8229 63.14 67.3763 63.26 66.9096 63.26ZM74.3191 63.26C73.7458 63.26 73.2325 63.1267 72.7791 62.86C72.3258 62.58 71.9725 62.16 71.7191 61.6C71.4658 61.04 71.3391 60.3467 71.3391 59.52C71.3391 58.68 71.4858 57.88 71.7791 57.12C72.0725 56.36 72.4658 55.6933 72.9591 55.12C73.4525 54.5333 74.0058 54.0733 74.6191 53.74C75.2325 53.4067 75.8525 53.24 76.4791 53.24C76.8925 53.24 77.2458 53.3067 77.5391 53.44C77.8325 53.56 78.0725 53.7267 78.2591 53.94C78.4458 54.1533 78.5725 54.4067 78.6391 54.7C78.5991 54.9533 78.4925 55.1333 78.3191 55.24C78.1591 55.3467 77.9858 55.4 77.7991 55.4C77.5858 55.4 77.3791 55.3333 77.1791 55.2C76.9925 55.0533 76.8058 54.88 76.6191 54.68L75.7191 53.64H76.8591V53.86H76.5591C76.0791 53.94 75.6125 54.14 75.1591 54.46C74.7191 54.7667 74.3191 55.1733 73.9591 55.68C73.6125 56.1733 73.3391 56.7333 73.1391 57.36C72.9391 57.9733 72.8391 58.62 72.8391 59.3C72.8391 60.1667 73.0458 60.8133 73.4591 61.24C73.8725 61.6667 74.4058 61.88 75.0591 61.88C75.4191 61.88 75.7458 61.8067 76.0391 61.66C76.3325 61.5133 76.5991 61.3267 76.8391 61.1C77.0925 60.8733 77.3125 60.6467 77.4991 60.42L77.9591 60.78C77.7591 61.1267 77.5191 61.4533 77.2391 61.76C76.9725 62.0533 76.6791 62.3133 76.3591 62.54C76.0391 62.7667 75.7058 62.94 75.3591 63.06C75.0125 63.1933 74.6658 63.26 74.3191 63.26ZM82.4237 57.9L82.1637 56.92H82.4237C82.717 56.3333 83.0503 55.76 83.4237 55.2C83.797 54.6267 84.1903 54.16 84.6037 53.8C85.0303 53.4267 85.4503 53.24 85.8637 53.24C86.1437 53.24 86.4037 53.2867 86.6437 53.38C86.8837 53.46 87.0703 53.6133 87.2037 53.84C87.1903 54.1733 87.0903 54.4467 86.9037 54.66C86.7303 54.86 86.477 54.96 86.1437 54.96C85.9303 54.96 85.697 54.8933 85.4437 54.76C85.1903 54.6133 84.9503 54.4333 84.7237 54.22L84.4837 53.98L85.4837 53.92V54.04C85.0703 54.32 84.6837 54.6533 84.3237 55.04C83.977 55.4267 83.6437 55.86 83.3237 56.34C83.017 56.8067 82.717 57.3267 82.4237 57.9ZM79.9237 63L81.6837 54.7L82.0437 54.98L79.6437 54.84L79.7237 54.26L83.0237 53.24L83.2837 53.44L82.8037 56.42L82.7037 56.82L82.2637 58.8C82.117 59.4933 81.977 60.1933 81.8437 60.9C81.7237 61.5933 81.597 62.2933 81.4637 63L80.1237 63.16L79.9237 63ZM89.9837 63.26C89.4103 63.26 88.897 63.1267 88.4437 62.86C87.9903 62.5933 87.6303 62.1867 87.3637 61.64C87.1103 61.0933 86.9837 60.3933 86.9837 59.54C86.9837 58.74 87.1237 57.9667 87.4037 57.22C87.6837 56.46 88.0637 55.78 88.5437 55.18C89.0237 54.58 89.577 54.1067 90.2037 53.76C90.8437 53.4133 91.5103 53.24 92.2037 53.24C92.8437 53.24 93.337 53.4 93.6837 53.72C94.0303 54.04 94.2037 54.4933 94.2037 55.08C94.2037 55.4133 94.1037 55.7733 93.9037 56.16C93.717 56.5467 93.3837 56.9467 92.9037 57.36C92.437 57.76 91.797 58.1533 90.9837 58.54C90.1837 58.9267 89.1637 59.2867 87.9237 59.62L87.8437 58.86C89.097 58.54 90.0837 58.1733 90.8037 57.76C91.537 57.3467 92.0637 56.9267 92.3837 56.5C92.7037 56.06 92.8637 55.6533 92.8637 55.28C92.8637 54.9067 92.7637 54.62 92.5637 54.42C92.3637 54.2067 92.097 54.1 91.7637 54.1C91.4437 54.1 91.0837 54.2333 90.6837 54.5C90.297 54.7667 89.9237 55.14 89.5637 55.62C89.217 56.0867 88.9303 56.62 88.7037 57.22C88.477 57.82 88.3637 58.4533 88.3637 59.12C88.3637 60.1067 88.5437 60.8133 88.9037 61.24C89.277 61.6667 89.7903 61.88 90.4437 61.88C90.8703 61.88 91.2503 61.8067 91.5837 61.66C91.9303 61.5133 92.2303 61.3267 92.4837 61.1C92.7503 60.8733 92.9703 60.6467 93.1437 60.42L93.6037 60.78C93.3903 61.1133 93.1503 61.4333 92.8837 61.74C92.6303 62.0333 92.3437 62.3 92.0237 62.54C91.717 62.7667 91.3903 62.94 91.0437 63.06C90.7103 63.1933 90.357 63.26 89.9837 63.26ZM96.7505 63.26C96.4305 63.26 96.1239 63.18 95.8305 63.02C95.5505 62.86 95.3172 62.6067 95.1305 62.26C94.9439 61.9133 94.8505 61.46 94.8505 60.9C94.8505 60.2067 94.9772 59.5 95.2305 58.78C95.4972 58.06 95.8439 57.3733 96.2705 56.72C96.7105 56.0533 97.1972 55.46 97.7305 54.94C98.2772 54.42 98.8305 54.0067 99.3905 53.7C99.9639 53.3933 100.511 53.24 101.031 53.24C101.324 53.24 101.577 53.3133 101.791 53.46C102.017 53.6067 102.217 53.8067 102.391 54.06C102.577 54.3 102.757 54.5733 102.931 54.88L102.191 55.4C101.937 55.1867 101.651 54.9933 101.331 54.82C101.011 54.6467 100.677 54.56 100.331 54.56C100.117 54.56 99.8839 54.6067 99.6305 54.7C99.3905 54.7933 99.1372 54.9267 98.8705 55.1C98.6172 55.26 98.3705 55.4667 98.1305 55.72C97.8105 56.0533 97.5172 56.4467 97.2505 56.9C96.9972 57.3533 96.7905 57.8533 96.6305 58.4C96.4839 58.9333 96.4105 59.4933 96.4105 60.08C96.4105 60.6933 96.5172 61.1467 96.7305 61.44C96.9572 61.7333 97.2505 61.88 97.6105 61.88C97.8905 61.88 98.1905 61.8 98.5105 61.64C98.8439 61.4667 99.2239 61.18 99.6505 60.78C100.091 60.38 100.597 59.84 101.171 59.16L101.411 59.6H101.351C100.884 60.2933 100.384 60.92 99.8505 61.48C99.3172 62.0267 98.7839 62.46 98.2505 62.78C97.7305 63.1 97.2305 63.26 96.7505 63.26ZM101.211 63.26C100.944 63.26 100.704 63.1667 100.491 62.98C100.277 62.7933 100.171 62.5 100.171 62.1C100.171 61.9 100.177 61.72 100.191 61.56C100.204 61.3867 100.224 61.2133 100.251 61.04C100.291 60.8533 100.331 60.6533 100.371 60.44L100.391 60.34L101.731 54.14L101.871 54.02L103.091 53.04L103.451 53.22L101.851 60.3C101.797 60.5533 101.751 60.78 101.711 60.98C101.684 61.18 101.671 61.3333 101.671 61.44C101.671 61.5733 101.717 61.68 101.811 61.76C101.904 61.84 102.017 61.88 102.151 61.88C102.404 61.88 102.704 61.7467 103.051 61.48C103.411 61.2133 103.764 60.8667 104.111 60.44L104.591 60.82C104.337 61.2067 104.031 61.5867 103.671 61.96C103.311 62.3333 102.924 62.6467 102.511 62.9C102.097 63.14 101.664 63.26 101.211 63.26ZM107.502 63.26C106.982 63.26 106.542 63.1733 106.182 63C105.835 62.84 105.569 62.6133 105.382 62.32C105.195 62.0267 105.075 61.68 105.022 61.28C105.075 61.1067 105.169 60.9733 105.302 60.88C105.449 60.7733 105.602 60.72 105.762 60.72C106.055 60.72 106.269 60.8 106.402 60.96C106.549 61.1067 106.655 61.32 106.722 61.6L107.062 62.98L106.282 62.3C106.495 62.3667 106.662 62.4133 106.782 62.44C106.902 62.4667 107.049 62.48 107.222 62.48C107.689 62.48 108.082 62.4133 108.402 62.28C108.735 62.1333 108.989 61.9333 109.162 61.68C109.335 61.4267 109.422 61.1267 109.422 60.78C109.422 60.46 109.349 60.1533 109.202 59.86C109.055 59.5667 108.695 59.2133 108.122 58.8C107.789 58.5467 107.489 58.2867 107.222 58.02C106.955 57.7533 106.742 57.46 106.582 57.14C106.435 56.82 106.362 56.4533 106.362 56.04C106.362 55.52 106.495 55.0467 106.762 54.62C107.029 54.1933 107.395 53.86 107.862 53.62C108.342 53.3667 108.902 53.24 109.542 53.24C109.942 53.24 110.302 53.3 110.622 53.42C110.942 53.5267 111.215 53.7067 111.442 53.96C111.669 54.2133 111.829 54.56 111.922 55C111.869 55.1867 111.775 55.3267 111.642 55.42C111.509 55.5133 111.349 55.56 111.162 55.56C110.935 55.56 110.735 55.48 110.562 55.32C110.389 55.1467 110.249 54.9133 110.142 54.62L109.782 53.5L110.402 54.12C110.309 54.0933 110.202 54.0733 110.082 54.06C109.975 54.0333 109.842 54.02 109.682 54.02C108.989 54.02 108.495 54.18 108.202 54.5C107.922 54.82 107.782 55.2067 107.782 55.66C107.782 56.0733 107.882 56.42 108.082 56.7C108.295 56.98 108.689 57.3333 109.262 57.76C109.662 58.0533 109.982 58.3333 110.222 58.6C110.462 58.8533 110.629 59.1267 110.722 59.42C110.829 59.7 110.882 60.0333 110.882 60.42C110.882 60.9667 110.742 61.46 110.462 61.9C110.182 62.3267 109.789 62.66 109.282 62.9C108.775 63.14 108.182 63.26 107.502 63.26ZM115.589 63.26C115.016 63.26 114.502 63.1267 114.049 62.86C113.596 62.5933 113.236 62.1867 112.969 61.64C112.716 61.0933 112.589 60.3933 112.589 59.54C112.589 58.74 112.729 57.9667 113.009 57.22C113.289 56.46 113.669 55.78 114.149 55.18C114.629 54.58 115.182 54.1067 115.809 53.76C116.449 53.4133 117.116 53.24 117.809 53.24C118.449 53.24 118.942 53.4 119.289 53.72C119.636 54.04 119.809 54.4933 119.809 55.08C119.809 55.4133 119.709 55.7733 119.509 56.16C119.322 56.5467 118.989 56.9467 118.509 57.36C118.042 57.76 117.402 58.1533 116.589 58.54C115.789 58.9267 114.769 59.2867 113.529 59.62L113.449 58.86C114.702 58.54 115.689 58.1733 116.409 57.76C117.142 57.3467 117.669 56.9267 117.989 56.5C118.309 56.06 118.469 55.6533 118.469 55.28C118.469 54.9067 118.369 54.62 118.169 54.42C117.969 54.2067 117.702 54.1 117.369 54.1C117.049 54.1 116.689 54.2333 116.289 54.5C115.902 54.7667 115.529 55.14 115.169 55.62C114.822 56.0867 114.536 56.62 114.309 57.22C114.082 57.82 113.969 58.4533 113.969 59.12C113.969 60.1067 114.149 60.8133 114.509 61.24C114.882 61.6667 115.396 61.88 116.049 61.88C116.476 61.88 116.856 61.8067 117.189 61.66C117.536 61.5133 117.836 61.3267 118.089 61.1C118.356 60.8733 118.576 60.6467 118.749 60.42L119.209 60.78C118.996 61.1133 118.756 61.4333 118.489 61.74C118.236 62.0333 117.949 62.3 117.629 62.54C117.322 62.7667 116.996 62.94 116.649 63.06C116.316 63.1933 115.962 63.26 115.589 63.26ZM159.034 63.26C158.421 63.26 157.861 63.1267 157.354 62.86C156.861 62.5933 156.461 62.2 156.154 61.68C155.861 61.1467 155.714 60.5 155.714 59.74C155.714 58.8333 155.847 57.9933 156.114 57.22C156.394 56.4333 156.774 55.74 157.254 55.14C157.734 54.54 158.287 54.0733 158.914 53.74C159.554 53.4067 160.227 53.24 160.934 53.24C161.561 53.24 162.114 53.3733 162.594 53.64C163.087 53.9067 163.474 54.3 163.754 54.82C164.034 55.34 164.174 55.98 164.174 56.74C164.174 57.6067 164.041 58.4333 163.774 59.22C163.507 60.0067 163.134 60.7067 162.654 61.32C162.187 61.92 161.641 62.3933 161.014 62.74C160.401 63.0867 159.741 63.26 159.034 63.26ZM159.274 62.46C159.661 62.46 160.021 62.36 160.354 62.16C160.701 61.96 161.007 61.6867 161.274 61.34C161.541 60.98 161.767 60.5733 161.954 60.12C162.154 59.6533 162.301 59.16 162.394 58.64C162.501 58.1067 162.554 57.5733 162.554 57.04C162.554 55.96 162.381 55.1933 162.034 54.74C161.701 54.2733 161.261 54.04 160.714 54.04C160.341 54.04 159.981 54.1333 159.634 54.32C159.301 54.5067 158.987 54.7667 158.694 55.1C158.414 55.4333 158.174 55.8333 157.974 56.3C157.774 56.7533 157.614 57.2533 157.494 57.8C157.387 58.3333 157.334 58.9 157.334 59.5C157.334 60.5533 157.514 61.3133 157.874 61.78C158.247 62.2333 158.714 62.46 159.274 62.46ZM166.12 63.16L165.92 63L167.68 54.7L168.04 54.98L165.64 54.84L165.72 54.26L169.12 53.24L169.38 53.44L168.88 55.94L168.84 56.12L168.26 58.8C168.113 59.4933 167.973 60.1933 167.84 60.9C167.72 61.5933 167.593 62.2933 167.46 63L166.12 63.16ZM172.32 63.26C172.013 63.26 171.766 63.18 171.58 63.02C171.406 62.86 171.32 62.6533 171.32 62.4C171.32 62.1733 171.346 61.9533 171.4 61.74C171.466 61.5133 171.546 61.1933 171.64 60.78L172.5 57.24C172.58 56.8933 172.653 56.5667 172.72 56.26C172.786 55.9533 172.82 55.7 172.82 55.5C172.82 55.1533 172.76 54.9133 172.64 54.78C172.52 54.6467 172.346 54.58 172.12 54.58C171.866 54.58 171.56 54.6533 171.2 54.8C170.853 54.9333 170.46 55.1467 170.02 55.44C169.58 55.7333 169.093 56.1 168.56 56.54L168.54 55.8H168.66C169.113 55.3333 169.6 54.9067 170.12 54.52C170.64 54.1333 171.16 53.8267 171.68 53.6C172.213 53.36 172.7 53.24 173.14 53.24C173.566 53.24 173.886 53.3533 174.1 53.58C174.313 53.8067 174.42 54.1533 174.42 54.62C174.42 54.94 174.38 55.2667 174.3 55.6C174.233 55.92 174.16 56.2467 174.08 56.58L173.18 60.3C173.113 60.58 173.053 60.82 173 61.02C172.96 61.2067 172.94 61.3533 172.94 61.46C172.94 61.5933 172.973 61.7 173.04 61.78C173.106 61.8467 173.2 61.88 173.32 61.88C173.573 61.88 173.873 61.7533 174.22 61.5C174.58 61.2467 174.94 60.8933 175.3 60.44L175.78 60.82C175.526 61.2067 175.213 61.5933 174.84 61.98C174.48 62.3533 174.086 62.66 173.66 62.9C173.233 63.14 172.786 63.26 172.32 63.26ZM176.689 58.48V57.2H181.309V58.48H176.689ZM183.18 54.44L183.34 53.68L186.04 53.44V53.5H189.42L189.2 54.58L185.94 54.48L185.9 54.44H183.18ZM184.78 63.26C184.487 63.26 184.227 63.1733 184 63C183.787 62.8267 183.68 62.5733 183.68 62.24C183.68 62.0933 183.687 61.92 183.7 61.72C183.727 61.5067 183.78 61.1933 183.86 60.78L185.34 53.9L186.42 50.82H187.44L185.44 60.26C185.387 60.5267 185.34 60.76 185.3 60.96C185.274 61.16 185.26 61.3133 185.26 61.42C185.26 61.5667 185.307 61.68 185.4 61.76C185.507 61.84 185.62 61.88 185.74 61.88C185.927 61.88 186.114 61.8267 186.3 61.72C186.5 61.6133 186.714 61.4533 186.94 61.24C187.167 61.0267 187.42 60.76 187.7 60.44L188.18 60.82C187.914 61.22 187.6 61.6067 187.24 61.98C186.88 62.3533 186.494 62.66 186.08 62.9C185.667 63.14 185.234 63.26 184.78 63.26ZM190.262 62.24C190.262 62.0933 190.276 61.92 190.302 61.72C190.329 61.5067 190.382 61.1933 190.462 60.78L191.742 54.7L192.082 54.98L189.702 54.84L189.782 54.26L193.182 53.24L193.442 53.44L192.022 60.3C191.969 60.5533 191.922 60.78 191.882 60.98C191.856 61.18 191.842 61.3333 191.842 61.44C191.842 61.5733 191.889 61.68 191.982 61.76C192.076 61.84 192.176 61.88 192.282 61.88C192.522 61.88 192.802 61.76 193.122 61.52C193.442 61.28 193.802 60.92 194.202 60.44L194.702 60.82C194.409 61.22 194.089 61.6067 193.742 61.98C193.409 62.3533 193.042 62.66 192.642 62.9C192.256 63.14 191.822 63.26 191.342 63.26C191.062 63.26 190.809 63.1733 190.582 63C190.369 62.8267 190.262 62.5733 190.262 62.24ZM193.382 50.48C193.089 50.48 192.842 50.3867 192.642 50.2C192.456 50 192.362 49.7333 192.362 49.4C192.362 49.0667 192.469 48.78 192.682 48.54C192.909 48.3 193.169 48.18 193.462 48.18C193.769 48.18 194.016 48.28 194.202 48.48C194.402 48.6667 194.502 48.92 194.502 49.24C194.502 49.5733 194.389 49.8667 194.162 50.12C193.936 50.36 193.676 50.48 193.382 50.48ZM196.276 63.16L196.076 63L197.836 54.7L198.196 54.98L195.796 54.84L195.876 54.26L199.276 53.24L199.536 53.44L199.036 55.9V55.94L198.416 58.8C198.269 59.4933 198.129 60.1933 197.996 60.9C197.876 61.5933 197.749 62.2933 197.616 63L196.276 63.16ZM201.616 63.16L201.416 63L202.796 56.46C202.823 56.2867 202.849 56.1133 202.876 55.94C202.916 55.7667 202.936 55.6 202.936 55.44C202.936 55.12 202.876 54.9 202.756 54.78C202.649 54.6467 202.483 54.58 202.256 54.58C202.003 54.58 201.703 54.6533 201.356 54.8C201.009 54.9333 200.616 55.1467 200.176 55.44C199.736 55.7333 199.249 56.1 198.716 56.54V55.8H198.816C199.269 55.3333 199.756 54.9067 200.276 54.52C200.796 54.1333 201.316 53.8267 201.836 53.6C202.369 53.36 202.856 53.24 203.296 53.24C203.709 53.24 204.023 53.3533 204.236 53.58C204.449 53.8067 204.556 54.1533 204.556 54.62C204.556 54.8067 204.536 55.0067 204.496 55.22C204.456 55.42 204.416 55.6267 204.376 55.84L204.336 56L203.736 58.8C203.589 59.4933 203.449 60.1933 203.316 60.9C203.183 61.5933 203.049 62.2933 202.916 63L201.616 63.16ZM207.596 63.26C207.276 63.26 207.023 63.18 206.836 63.02C206.663 62.86 206.576 62.6533 206.576 62.4C206.576 62.1733 206.603 61.9533 206.656 61.74C206.723 61.5133 206.803 61.1933 206.896 60.78L207.756 57.24C207.836 56.8933 207.909 56.5667 207.976 56.26C208.043 55.9533 208.076 55.7 208.076 55.5C208.076 55.1533 208.016 54.9133 207.896 54.78C207.776 54.6467 207.603 54.58 207.376 54.58C207.136 54.58 206.856 54.6533 206.536 54.8C206.216 54.9467 205.849 55.1667 205.436 55.46C205.023 55.74 204.556 56.1 204.036 56.54V55.78H204.136C204.576 55.3267 205.043 54.9067 205.536 54.52C206.043 54.1333 206.543 53.8267 207.036 53.6C207.529 53.36 207.989 53.24 208.416 53.24C208.843 53.24 209.163 53.3533 209.376 53.58C209.589 53.8067 209.696 54.1533 209.696 54.62C209.696 54.94 209.656 55.2667 209.576 55.6C209.509 55.92 209.436 56.2467 209.356 56.58L208.456 60.3C208.389 60.58 208.329 60.82 208.276 61.02C208.223 61.2067 208.196 61.3533 208.196 61.46C208.196 61.5933 208.236 61.7 208.316 61.78C208.396 61.8467 208.489 61.88 208.596 61.88C208.863 61.88 209.156 61.76 209.476 61.52C209.796 61.28 210.156 60.92 210.556 60.44L211.036 60.82C210.743 61.22 210.416 61.6067 210.056 61.98C209.709 62.3533 209.329 62.66 208.916 62.9C208.516 63.14 208.076 63.26 207.596 63.26ZM215.003 63.26C214.43 63.26 213.917 63.1267 213.463 62.86C213.01 62.5933 212.65 62.1867 212.383 61.64C212.13 61.0933 212.003 60.3933 212.003 59.54C212.003 58.74 212.143 57.9667 212.423 57.22C212.703 56.46 213.083 55.78 213.563 55.18C214.043 54.58 214.597 54.1067 215.223 53.76C215.863 53.4133 216.53 53.24 217.223 53.24C217.863 53.24 218.357 53.4 218.703 53.72C219.05 54.04 219.223 54.4933 219.223 55.08C219.223 55.4133 219.123 55.7733 218.923 56.16C218.737 56.5467 218.403 56.9467 217.923 57.36C217.457 57.76 216.817 58.1533 216.003 58.54C215.203 58.9267 214.183 59.2867 212.943 59.62L212.863 58.86C214.117 58.54 215.103 58.1733 215.823 57.76C216.557 57.3467 217.083 56.9267 217.403 56.5C217.723 56.06 217.883 55.6533 217.883 55.28C217.883 54.9067 217.783 54.62 217.583 54.42C217.383 54.2067 217.117 54.1 216.783 54.1C216.463 54.1 216.103 54.2333 215.703 54.5C215.317 54.7667 214.943 55.14 214.583 55.62C214.237 56.0867 213.95 56.62 213.723 57.22C213.497 57.82 213.383 58.4533 213.383 59.12C213.383 60.1067 213.563 60.8133 213.923 61.24C214.297 61.6667 214.81 61.88 215.463 61.88C215.89 61.88 216.27 61.8067 216.603 61.66C216.95 61.5133 217.25 61.3267 217.503 61.1C217.77 60.8733 217.99 60.6467 218.163 60.42L218.623 60.78C218.41 61.1133 218.17 61.4333 217.903 61.74C217.65 62.0333 217.363 62.3 217.043 62.54C216.737 62.7667 216.41 62.94 216.063 63.06C215.73 63.1933 215.377 63.26 215.003 63.26ZM44.0343 90.26C43.7143 90.26 43.4143 90.1733 43.1343 90C42.8676 89.84 42.6476 89.5733 42.4743 89.2C42.3143 88.8267 42.2343 88.34 42.2343 87.74C42.2343 87.0733 42.3543 86.3933 42.5943 85.7C42.8343 84.9933 43.161 84.32 43.5743 83.68C43.9876 83.0267 44.4543 82.44 44.9743 81.92C45.5076 81.4 46.0543 80.9933 46.6143 80.7C47.1876 80.3933 47.7476 80.24 48.2943 80.24C48.5343 80.24 48.7476 80.28 48.9343 80.36C49.1343 80.44 49.3276 80.5667 49.5143 80.74C49.7143 80.9 49.921 81.12 50.1343 81.4L49.2943 82.44C49.041 82.12 48.7743 81.8933 48.4943 81.76C48.2276 81.6267 47.961 81.56 47.6943 81.56C47.4143 81.56 47.1276 81.6133 46.8343 81.72C46.5543 81.8133 46.281 81.9533 46.0143 82.14C45.761 82.3267 45.521 82.5467 45.2943 82.8C45.0676 83.0533 44.861 83.34 44.6743 83.66C44.4876 83.9667 44.3276 84.3 44.1943 84.66C44.061 85.02 43.9543 85.4 43.8743 85.8C43.8076 86.1867 43.7743 86.58 43.7743 86.98C43.7743 87.6333 43.8943 88.1133 44.1343 88.42C44.3743 88.7267 44.6743 88.88 45.0343 88.88C45.3143 88.88 45.6143 88.8 45.9343 88.64C46.2543 88.4667 46.621 88.18 47.0343 87.78C47.461 87.38 47.9543 86.84 48.5143 86.16L48.8943 86.6H48.6943C48.2543 87.2933 47.761 87.92 47.2143 88.48C46.681 89.0267 46.1343 89.46 45.5743 89.78C45.0276 90.1 44.5143 90.26 44.0343 90.26ZM48.7143 90.26C48.4076 90.26 48.141 90.1733 47.9143 90C47.701 89.8267 47.5943 89.5667 47.5943 89.22C47.5943 89.0733 47.601 88.9 47.6143 88.7C47.6276 88.5 47.6743 88.1933 47.7543 87.78L47.7943 87.58L49.0143 81.54L49.2143 80.88L50.1143 76.48L50.3543 76.94L48.0143 76.78L48.0943 76.2L51.5143 75.2L51.7543 75.36L49.3343 87.3C49.281 87.5533 49.241 87.78 49.2143 87.98C49.1876 88.18 49.1743 88.3333 49.1743 88.44C49.1743 88.5733 49.221 88.68 49.3143 88.76C49.4076 88.84 49.5143 88.88 49.6343 88.88C49.901 88.88 50.2076 88.7467 50.5543 88.48C50.9143 88.2133 51.261 87.8667 51.5943 87.44L52.0743 87.82C51.821 88.2067 51.5143 88.5867 51.1543 88.96C50.8076 89.3333 50.4276 89.6467 50.0143 89.9C49.601 90.14 49.1676 90.26 48.7143 90.26ZM55.8626 90.26C55.2892 90.26 54.7759 90.1267 54.3226 89.86C53.8692 89.5933 53.5092 89.1867 53.2426 88.64C52.9892 88.0933 52.8626 87.3933 52.8626 86.54C52.8626 85.74 53.0026 84.9667 53.2826 84.22C53.5626 83.46 53.9426 82.78 54.4226 82.18C54.9026 81.58 55.4559 81.1067 56.0826 80.76C56.7226 80.4133 57.3892 80.24 58.0826 80.24C58.7226 80.24 59.2159 80.4 59.5626 80.72C59.9092 81.04 60.0826 81.4933 60.0826 82.08C60.0826 82.4133 59.9826 82.7733 59.7826 83.16C59.5959 83.5467 59.2626 83.9467 58.7826 84.36C58.3159 84.76 57.6759 85.1533 56.8626 85.54C56.0626 85.9267 55.0426 86.2867 53.8026 86.62L53.7226 85.86C54.9759 85.54 55.9626 85.1733 56.6826 84.76C57.4159 84.3467 57.9426 83.9267 58.2626 83.5C58.5826 83.06 58.7426 82.6533 58.7426 82.28C58.7426 81.9067 58.6426 81.62 58.4426 81.42C58.2426 81.2067 57.9759 81.1 57.6426 81.1C57.3226 81.1 56.9626 81.2333 56.5626 81.5C56.1759 81.7667 55.8026 82.14 55.4426 82.62C55.0959 83.0867 54.8092 83.62 54.5826 84.22C54.3559 84.82 54.2426 85.4533 54.2426 86.12C54.2426 87.1067 54.4226 87.8133 54.7826 88.24C55.1559 88.6667 55.6692 88.88 56.3226 88.88C56.7492 88.88 57.1292 88.8067 57.4626 88.66C57.8092 88.5133 58.1092 88.3267 58.3626 88.1C58.6292 87.8733 58.8492 87.6467 59.0226 87.42L59.4826 87.78C59.2692 88.1133 59.0292 88.4333 58.7626 88.74C58.5092 89.0333 58.2226 89.3 57.9026 89.54C57.5959 89.7667 57.2692 89.94 56.9226 90.06C56.5892 90.1933 56.2359 90.26 55.8626 90.26ZM62.3318 90.26C62.0251 90.26 61.7585 90.1667 61.5318 89.98C61.3185 89.78 61.2118 89.4867 61.2118 89.1C61.2118 88.9533 61.2251 88.78 61.2518 88.58C61.2918 88.38 61.3385 88.1067 61.3918 87.76L62.8318 80.44C62.9785 79.7467 63.1118 79.06 63.2318 78.38C63.3518 77.7 63.4585 77.0133 63.5518 76.32L63.9318 76.94L61.5918 76.78L61.6718 76.2L65.1118 75.2L65.3318 75.36L62.9318 87.26C62.8785 87.5267 62.8318 87.76 62.7918 87.96C62.7651 88.16 62.7518 88.3133 62.7518 88.42C62.7518 88.5667 62.7985 88.68 62.8918 88.76C62.9985 88.84 63.1185 88.88 63.2518 88.88C63.4651 88.88 63.7318 88.7533 64.0518 88.5C64.3851 88.2467 64.7518 87.8933 65.1518 87.44L65.6118 87.82C65.3318 88.2067 65.0251 88.5933 64.6918 88.98C64.3718 89.3533 64.0185 89.66 63.6318 89.9C63.2451 90.14 62.8118 90.26 62.3318 90.26ZM67.1177 89.24C67.1177 89.0933 67.1311 88.92 67.1577 88.72C67.1844 88.5067 67.2377 88.1933 67.3177 87.78L68.5977 81.7L68.9377 81.98L66.5577 81.84L66.6377 81.26L70.0377 80.24L70.2977 80.44L68.8777 87.3C68.8244 87.5533 68.7777 87.78 68.7377 87.98C68.7111 88.18 68.6977 88.3333 68.6977 88.44C68.6977 88.5733 68.7444 88.68 68.8377 88.76C68.9311 88.84 69.0311 88.88 69.1377 88.88C69.3777 88.88 69.6577 88.76 69.9777 88.52C70.2977 88.28 70.6577 87.92 71.0577 87.44L71.5577 87.82C71.2644 88.22 70.9444 88.6067 70.5977 88.98C70.2644 89.3533 69.8977 89.66 69.4977 89.9C69.1111 90.14 68.6777 90.26 68.1977 90.26C67.9177 90.26 67.6644 90.1733 67.4377 90C67.2244 89.8267 67.1177 89.5733 67.1177 89.24ZM70.2377 77.48C69.9444 77.48 69.6977 77.3867 69.4977 77.2C69.3111 77 69.2177 76.7333 69.2177 76.4C69.2177 76.0667 69.3244 75.78 69.5377 75.54C69.7644 75.3 70.0244 75.18 70.3177 75.18C70.6244 75.18 70.8711 75.28 71.0577 75.48C71.2577 75.6667 71.3577 75.92 71.3577 76.24C71.3577 76.5733 71.2444 76.8667 71.0177 77.12C70.7911 77.36 70.5311 77.48 70.2377 77.48ZM74.7762 90.04C74.7495 88.9867 74.7095 88.0333 74.6562 87.18C74.6162 86.3133 74.5628 85.5067 74.4962 84.76C74.4295 84 74.3495 83.2667 74.2562 82.56C74.2028 82.16 74.1295 81.9067 74.0362 81.8C73.9562 81.68 73.8428 81.62 73.6962 81.62C73.5228 81.62 73.3362 81.7133 73.1362 81.9C72.9495 82.0733 72.6828 82.42 72.3362 82.94L71.8762 82.62C72.2228 81.8333 72.6095 81.24 73.0362 80.84C73.4762 80.44 73.9295 80.24 74.3962 80.24C74.8095 80.24 75.1095 80.3667 75.2962 80.62C75.4962 80.8733 75.6428 81.2733 75.7362 81.82C75.8428 82.4467 75.9228 83.14 75.9762 83.9C76.0295 84.66 76.0628 85.4467 76.0762 86.26C76.1028 87.0733 76.1162 87.8867 76.1162 88.7L75.8962 88.68L75.9962 88.56C76.3695 88.12 76.7162 87.6933 77.0362 87.28C77.3562 86.8533 77.6562 86.4333 77.9362 86.02C78.2162 85.5933 78.4895 85.16 78.7562 84.72C79.0228 84.28 79.2828 83.82 79.5362 83.34C79.6028 83.22 79.6628 83.1 79.7162 82.98C79.7695 82.86 79.8228 82.74 79.8762 82.62L79.7162 83.84L79.4562 82.44C79.4428 82.3067 79.4228 82.1667 79.3962 82.02C79.3828 81.8733 79.3762 81.7533 79.3762 81.66C79.3762 81.1533 79.4695 80.7933 79.6562 80.58C79.8562 80.3533 80.1162 80.24 80.4362 80.24C80.6228 80.24 80.7828 80.2667 80.9162 80.32C81.0628 80.3733 81.1628 80.4333 81.2162 80.5C81.2562 80.5533 81.2828 80.62 81.2962 80.7C81.3095 80.78 81.3162 80.9 81.3162 81.06C81.3162 81.1933 81.2962 81.36 81.2562 81.56C81.2295 81.76 81.1428 82.0333 80.9962 82.38C80.8628 82.7133 80.6362 83.18 80.3162 83.78C80.0762 84.22 79.7895 84.7 79.4562 85.22C79.1228 85.74 78.7428 86.2733 78.3162 86.82C77.9028 87.3667 77.4562 87.92 76.9762 88.48C76.4962 89.0267 76.0028 89.56 75.4962 90.08L74.9162 90.14L74.7762 90.04ZM84.847 90.26C84.2736 90.26 83.7603 90.1267 83.307 89.86C82.8536 89.5933 82.4936 89.1867 82.227 88.64C81.9736 88.0933 81.847 87.3933 81.847 86.54C81.847 85.74 81.987 84.9667 82.267 84.22C82.547 83.46 82.927 82.78 83.407 82.18C83.887 81.58 84.4403 81.1067 85.067 80.76C85.707 80.4133 86.3736 80.24 87.067 80.24C87.707 80.24 88.2003 80.4 88.547 80.72C88.8936 81.04 89.067 81.4933 89.067 82.08C89.067 82.4133 88.967 82.7733 88.767 83.16C88.5803 83.5467 88.247 83.9467 87.767 84.36C87.3003 84.76 86.6603 85.1533 85.847 85.54C85.047 85.9267 84.027 86.2867 82.787 86.62L82.707 85.86C83.9603 85.54 84.947 85.1733 85.667 84.76C86.4003 84.3467 86.927 83.9267 87.247 83.5C87.567 83.06 87.727 82.6533 87.727 82.28C87.727 81.9067 87.627 81.62 87.427 81.42C87.227 81.2067 86.9603 81.1 86.627 81.1C86.307 81.1 85.947 81.2333 85.547 81.5C85.1603 81.7667 84.787 82.14 84.427 82.62C84.0803 83.0867 83.7936 83.62 83.567 84.22C83.3403 84.82 83.227 85.4533 83.227 86.12C83.227 87.1067 83.407 87.8133 83.767 88.24C84.1403 88.6667 84.6536 88.88 85.307 88.88C85.7336 88.88 86.1136 88.8067 86.447 88.66C86.7936 88.5133 87.0936 88.3267 87.347 88.1C87.6136 87.8733 87.8336 87.6467 88.007 87.42L88.467 87.78C88.2536 88.1133 88.0136 88.4333 87.747 88.74C87.4936 89.0333 87.207 89.3 86.887 89.54C86.5803 89.7667 86.2536 89.94 85.907 90.06C85.5736 90.1933 85.2203 90.26 84.847 90.26ZM92.9315 84.9L92.6715 83.92H92.9315C93.2248 83.3333 93.5582 82.76 93.9315 82.2C94.3048 81.6267 94.6982 81.16 95.1115 80.8C95.5382 80.4267 95.9582 80.24 96.3715 80.24C96.6515 80.24 96.9115 80.2867 97.1515 80.38C97.3915 80.46 97.5782 80.6133 97.7115 80.84C97.6982 81.1733 97.5982 81.4467 97.4115 81.66C97.2382 81.86 96.9848 81.96 96.6515 81.96C96.4382 81.96 96.2048 81.8933 95.9515 81.76C95.6982 81.6133 95.4582 81.4333 95.2315 81.22L94.9915 80.98L95.9915 80.92V81.04C95.5782 81.32 95.1915 81.6533 94.8315 82.04C94.4848 82.4267 94.1515 82.86 93.8315 83.34C93.5248 83.8067 93.2248 84.3267 92.9315 84.9ZM90.4315 90L92.1915 81.7L92.5515 81.98L90.1515 81.84L90.2315 81.26L93.5315 80.24L93.7915 80.44L93.3115 83.42L93.2115 83.82L92.7715 85.8C92.6248 86.4933 92.4848 87.1933 92.3515 87.9C92.2315 88.5933 92.1048 89.2933 91.9715 90L90.6315 90.16L90.4315 90ZM96.8946 94.8C96.4546 94.8 96.1146 94.6867 95.8746 94.46C95.6346 94.2467 95.5013 93.9733 95.4746 93.64C95.5279 93.3467 95.6546 93.12 95.8546 92.96C96.0413 92.8133 96.2746 92.74 96.5546 92.74C96.8479 92.74 97.1213 92.8 97.3746 92.92C97.6146 93.0533 97.8813 93.2267 98.1746 93.44L98.7546 93.84V94H97.5946V93.86C97.8879 93.7133 98.1746 93.5467 98.4546 93.36C98.7346 93.1733 99.0079 92.9667 99.2746 92.74C99.5413 92.5133 99.7946 92.2733 100.035 92.02C100.421 91.6333 100.775 91.2267 101.095 90.8C101.428 90.3733 101.741 89.92 102.035 89.44C102.408 88.76 102.735 88.1467 103.015 87.6C103.308 87.04 103.568 86.5133 103.795 86.02C104.021 85.5133 104.221 85.0067 104.395 84.5C104.581 83.98 104.761 83.4267 104.935 82.84C105.161 82.0667 105.348 81.4867 105.495 81.1C105.655 80.7133 105.808 80.4533 105.955 80.32C106.101 80.1867 106.268 80.12 106.455 80.12C106.681 80.12 106.861 80.1867 106.995 80.32C107.128 80.44 107.195 80.6 107.195 80.8C107.195 81.0533 107.161 81.2867 107.095 81.5C107.028 81.7133 106.895 82.02 106.695 82.42C106.481 82.8467 106.255 83.2933 106.015 83.76C105.788 84.2267 105.481 84.8 105.095 85.48C104.908 85.8133 104.715 86.16 104.515 86.52C104.315 86.8667 104.101 87.2333 103.875 87.62C103.661 87.9933 103.435 88.38 103.195 88.78C102.955 89.18 102.695 89.5867 102.415 90C102.241 90.2533 102.061 90.5133 101.875 90.78C101.688 91.06 101.481 91.34 101.255 91.62C101.041 91.9133 100.795 92.2133 100.515 92.52C100.088 92.9867 99.6679 93.3933 99.2546 93.74C98.8546 94.0867 98.4546 94.3467 98.0546 94.52C97.6679 94.7067 97.2813 94.8 96.8946 94.8ZM101.095 90.9C101.041 90.1 100.975 89.3867 100.895 88.76C100.828 88.12 100.748 87.4667 100.655 86.8C100.575 86.12 100.475 85.3333 100.355 84.44C100.248 83.5867 100.155 82.9667 100.075 82.58C100.008 82.18 99.9346 81.92 99.8546 81.8C99.7879 81.68 99.6946 81.62 99.5746 81.62C99.4013 81.62 99.2213 81.7067 99.0346 81.88C98.8613 82.04 98.5946 82.3933 98.2346 82.94L97.7746 82.62C98.1746 81.7667 98.5946 81.16 99.0346 80.8C99.4746 80.4267 99.9013 80.24 100.315 80.24C100.568 80.24 100.781 80.3067 100.955 80.44C101.141 80.5733 101.295 80.8333 101.415 81.22C101.548 81.5933 101.655 82.1533 101.735 82.9C101.801 83.5267 101.855 84.1333 101.895 84.72C101.948 85.3067 101.995 85.88 102.035 86.44C102.075 86.9867 102.108 87.52 102.135 88.04C102.175 88.56 102.201 89.0667 102.215 89.56H102.495L101.095 90.9ZM115.334 84.9L115.074 83.92H115.334C115.627 83.3333 115.96 82.76 116.334 82.2C116.707 81.6267 117.1 81.16 117.514 80.8C117.94 80.4267 118.36 80.24 118.774 80.24C119.054 80.24 119.314 80.2867 119.554 80.38C119.794 80.46 119.98 80.6133 120.114 80.84C120.1 81.1733 120 81.4467 119.814 81.66C119.64 81.86 119.387 81.96 119.054 81.96C118.84 81.96 118.607 81.8933 118.354 81.76C118.1 81.6133 117.86 81.4333 117.634 81.22L117.394 80.98L118.394 80.92V81.04C117.98 81.32 117.594 81.6533 117.234 82.04C116.887 82.4267 116.554 82.86 116.234 83.34C115.927 83.8067 115.627 84.3267 115.334 84.9ZM112.834 90L114.594 81.7L114.954 81.98L112.554 81.84L112.634 81.26L115.934 80.24L116.194 80.44L115.714 83.42L115.614 83.82L115.174 85.8C115.027 86.4933 114.887 87.1933 114.754 87.9C114.634 88.5933 114.507 89.2933 114.374 90L113.034 90.16L112.834 90ZM121.126 90.26C120.806 90.26 120.499 90.18 120.206 90.02C119.926 89.86 119.692 89.6067 119.506 89.26C119.319 88.9133 119.226 88.46 119.226 87.9C119.226 87.2067 119.352 86.5 119.606 85.78C119.872 85.06 120.219 84.3733 120.646 83.72C121.086 83.0533 121.572 82.46 122.106 81.94C122.652 81.42 123.206 81.0067 123.766 80.7C124.339 80.3933 124.886 80.24 125.406 80.24C125.699 80.24 125.952 80.3133 126.166 80.46C126.392 80.6067 126.592 80.8067 126.766 81.06C126.952 81.3 127.132 81.5733 127.306 81.88L126.566 82.4C126.312 82.1867 126.026 81.9933 125.706 81.82C125.386 81.6467 125.052 81.56 124.706 81.56C124.492 81.56 124.259 81.6067 124.006 81.7C123.766 81.7933 123.512 81.9267 123.246 82.1C122.992 82.26 122.746 82.4667 122.506 82.72C122.186 83.0533 121.892 83.4467 121.626 83.9C121.372 84.3533 121.166 84.8533 121.006 85.4C120.859 85.9333 120.786 86.4933 120.786 87.08C120.786 87.6933 120.892 88.1467 121.106 88.44C121.332 88.7333 121.626 88.88 121.986 88.88C122.266 88.88 122.566 88.8 122.886 88.64C123.219 88.4667 123.599 88.18 124.026 87.78C124.466 87.38 124.972 86.84 125.546 86.16L125.786 86.6H125.726C125.259 87.2933 124.759 87.92 124.226 88.48C123.692 89.0267 123.159 89.46 122.626 89.78C122.106 90.1 121.606 90.26 121.126 90.26ZM125.586 90.26C125.319 90.26 125.079 90.1667 124.866 89.98C124.652 89.7933 124.546 89.5 124.546 89.1C124.546 88.9 124.552 88.72 124.566 88.56C124.579 88.3867 124.599 88.2133 124.626 88.04C124.666 87.8533 124.706 87.6533 124.746 87.44L124.766 87.34L126.106 81.14L126.246 81.02L127.466 80.04L127.826 80.22L126.226 87.3C126.172 87.5533 126.126 87.78 126.086 87.98C126.059 88.18 126.046 88.3333 126.046 88.44C126.046 88.5733 126.092 88.68 126.186 88.76C126.279 88.84 126.392 88.88 126.526 88.88C126.779 88.88 127.079 88.7467 127.426 88.48C127.786 88.2133 128.139 87.8667 128.486 87.44L128.966 87.82C128.712 88.2067 128.406 88.5867 128.046 88.96C127.686 89.3333 127.299 89.6467 126.886 89.9C126.472 90.14 126.039 90.26 125.586 90.26ZM129.977 81.44L130.137 80.68L132.837 80.44V80.5H136.217L135.997 81.58L132.737 81.48L132.697 81.44H129.977ZM131.577 90.26C131.284 90.26 131.024 90.1733 130.797 90C130.584 89.8267 130.477 89.5733 130.477 89.24C130.477 89.0933 130.484 88.92 130.497 88.72C130.524 88.5067 130.577 88.1933 130.657 87.78L132.137 80.9L133.217 77.82H134.237L132.237 87.26C132.184 87.5267 132.137 87.76 132.097 87.96C132.07 88.16 132.057 88.3133 132.057 88.42C132.057 88.5667 132.104 88.68 132.197 88.76C132.304 88.84 132.417 88.88 132.537 88.88C132.724 88.88 132.91 88.8267 133.097 88.72C133.297 88.6133 133.51 88.4533 133.737 88.24C133.964 88.0267 134.217 87.76 134.497 87.44L134.977 87.82C134.71 88.22 134.397 88.6067 134.037 88.98C133.677 89.3533 133.29 89.66 132.877 89.9C132.464 90.14 132.03 90.26 131.577 90.26ZM139.339 90.26C138.766 90.26 138.252 90.1267 137.799 89.86C137.346 89.5933 136.986 89.1867 136.719 88.64C136.466 88.0933 136.339 87.3933 136.339 86.54C136.339 85.74 136.479 84.9667 136.759 84.22C137.039 83.46 137.419 82.78 137.899 82.18C138.379 81.58 138.932 81.1067 139.559 80.76C140.199 80.4133 140.866 80.24 141.559 80.24C142.199 80.24 142.692 80.4 143.039 80.72C143.386 81.04 143.559 81.4933 143.559 82.08C143.559 82.4133 143.459 82.7733 143.259 83.16C143.072 83.5467 142.739 83.9467 142.259 84.36C141.792 84.76 141.152 85.1533 140.339 85.54C139.539 85.9267 138.519 86.2867 137.279 86.62L137.199 85.86C138.452 85.54 139.439 85.1733 140.159 84.76C140.892 84.3467 141.419 83.9267 141.739 83.5C142.059 83.06 142.219 82.6533 142.219 82.28C142.219 81.9067 142.119 81.62 141.919 81.42C141.719 81.2067 141.452 81.1 141.119 81.1C140.799 81.1 140.439 81.2333 140.039 81.5C139.652 81.7667 139.279 82.14 138.919 82.62C138.572 83.0867 138.286 83.62 138.059 84.22C137.832 84.82 137.719 85.4533 137.719 86.12C137.719 87.1067 137.899 87.8133 138.259 88.24C138.632 88.6667 139.146 88.88 139.799 88.88C140.226 88.88 140.606 88.8067 140.939 88.66C141.286 88.5133 141.586 88.3267 141.839 88.1C142.106 87.8733 142.326 87.6467 142.499 87.42L142.959 87.78C142.746 88.1133 142.506 88.4333 142.239 88.74C141.986 89.0333 141.699 89.3 141.379 89.54C141.072 89.7667 140.746 89.94 140.399 90.06C140.066 90.1933 139.712 90.26 139.339 90.26ZM197.146 90.22C196.466 90.22 195.872 90.1133 195.366 89.9C194.872 89.6733 194.486 89.3533 194.206 88.94C193.939 88.5267 193.806 88.0267 193.806 87.44C193.806 86.8533 193.959 86.3 194.266 85.78C194.586 85.26 195.019 84.7933 195.566 84.38C196.112 83.9667 196.739 83.6467 197.446 83.42V83.26L197.706 83.86C197.132 84.1267 196.659 84.4333 196.286 84.78C195.912 85.1267 195.632 85.5067 195.446 85.92C195.259 86.32 195.166 86.7533 195.166 87.22C195.166 87.7 195.246 88.1133 195.406 88.46C195.579 88.8067 195.819 89.0733 196.126 89.26C196.446 89.4467 196.832 89.54 197.286 89.54C197.792 89.54 198.239 89.4467 198.626 89.26C199.012 89.06 199.312 88.78 199.526 88.42C199.752 88.0467 199.866 87.6133 199.866 87.12C199.866 86.7067 199.799 86.3467 199.666 86.04C199.546 85.7333 199.312 85.42 198.966 85.1C198.619 84.7667 198.119 84.38 197.466 83.94C196.932 83.5533 196.492 83.1733 196.146 82.8C195.812 82.4133 195.566 82.0267 195.406 81.64C195.246 81.24 195.166 80.8333 195.166 80.42C195.166 79.74 195.339 79.1267 195.686 78.58C196.046 78.0333 196.526 77.6 197.126 77.28C197.726 76.96 198.392 76.8 199.126 76.8C199.779 76.8 200.339 76.9267 200.806 77.18C201.272 77.42 201.632 77.7533 201.886 78.18C202.139 78.5933 202.266 79.06 202.266 79.58C202.266 80.2067 202.152 80.7467 201.926 81.2C201.699 81.6533 201.319 82.06 200.786 82.42C200.266 82.7667 199.559 83.1133 198.666 83.46V83.58L198.366 83.02C199.019 82.7 199.526 82.38 199.886 82.06C200.246 81.7267 200.499 81.3733 200.646 81C200.806 80.6133 200.886 80.1933 200.886 79.74C200.886 79.3 200.819 78.92 200.686 78.6C200.552 78.2667 200.346 78.0067 200.066 77.82C199.786 77.6333 199.432 77.54 199.006 77.54C198.526 77.54 198.106 77.6467 197.746 77.86C197.386 78.06 197.099 78.3533 196.886 78.74C196.686 79.1133 196.586 79.5533 196.586 80.06C196.586 80.4467 196.652 80.7933 196.786 81.1C196.932 81.4067 197.159 81.7067 197.466 82C197.772 82.28 198.186 82.5933 198.706 82.94C199.346 83.3533 199.859 83.7533 200.246 84.14C200.632 84.5133 200.912 84.9 201.086 85.3C201.259 85.7 201.346 86.16 201.346 86.68C201.346 87.3867 201.159 88.0067 200.786 88.54C200.412 89.0733 199.906 89.4867 199.266 89.78C198.639 90.0733 197.932 90.22 197.146 90.22ZM203.521 90L203.781 88.72L206.721 85.94C207.601 85.1133 208.327 84.4067 208.901 83.82C209.474 83.2333 209.921 82.72 210.241 82.28C210.574 81.84 210.807 81.44 210.941 81.08C211.087 80.7067 211.161 80.3333 211.161 79.96C211.161 79.44 211.067 79.0067 210.881 78.66C210.707 78.3133 210.447 78.0533 210.101 77.88C209.754 77.7067 209.334 77.62 208.841 77.62C208.534 77.62 208.241 77.66 207.961 77.74C207.694 77.8067 207.441 77.92 207.201 78.08C206.961 78.2267 206.734 78.4333 206.521 78.7L207.341 77.44L207.141 79.24C207.074 79.84 206.954 80.24 206.781 80.44C206.607 80.6267 206.387 80.72 206.121 80.72C205.907 80.72 205.727 80.6467 205.581 80.5C205.434 80.3533 205.347 80.18 205.321 79.98C205.481 79.2333 205.727 78.6267 206.061 78.16C206.407 77.6933 206.841 77.3533 207.361 77.14C207.894 76.9133 208.521 76.8 209.241 76.8C210.054 76.8 210.714 76.94 211.221 77.22C211.741 77.4867 212.121 77.8533 212.361 78.32C212.614 78.7733 212.741 79.2933 212.741 79.88C212.741 80.44 212.621 80.96 212.381 81.44C212.141 81.92 211.794 82.4 211.341 82.88C210.901 83.3467 210.354 83.86 209.701 84.42C209.061 84.98 208.334 85.6267 207.521 86.36L204.841 88.78L205.001 88.14V88.46H211.421L211.101 90H203.521ZM216.815 84.66C216.122 84.66 215.569 84.4333 215.155 83.98C214.742 83.5133 214.535 82.8333 214.535 81.94C214.535 81.1533 214.635 80.42 214.835 79.74C215.035 79.06 215.302 78.4733 215.635 77.98C215.982 77.4733 216.375 77.08 216.815 76.8C217.269 76.52 217.742 76.38 218.235 76.38C218.942 76.38 219.502 76.6133 219.915 77.08C220.329 77.5467 220.535 78.2467 220.535 79.18C220.535 79.98 220.435 80.7133 220.235 81.38C220.035 82.0467 219.755 82.6267 219.395 83.12C219.049 83.6 218.649 83.98 218.195 84.26C217.755 84.5267 217.295 84.66 216.815 84.66ZM216.895 84.08C217.122 84.08 217.342 83.9867 217.555 83.8C217.782 83.6133 217.989 83.3533 218.175 83.02C218.362 82.6867 218.529 82.3 218.675 81.86C218.822 81.42 218.935 80.9533 219.015 80.46C219.109 79.9533 219.155 79.4333 219.155 78.9C219.155 78.1533 219.055 77.6533 218.855 77.4C218.669 77.1333 218.442 77 218.175 77C217.962 77 217.749 77.0867 217.535 77.26C217.322 77.42 217.115 77.6533 216.915 77.96C216.729 78.2667 216.562 78.6333 216.415 79.06C216.269 79.4733 216.149 79.9333 216.055 80.44C215.975 80.9467 215.935 81.4867 215.935 82.06C215.935 82.8467 216.022 83.38 216.195 83.66C216.382 83.94 216.615 84.08 216.895 84.08ZM217.335 90.3L216.655 89.8L226.595 76.68L227.255 77.2L217.335 90.3ZM225.775 90.16C225.082 90.16 224.529 89.9333 224.115 89.48C223.702 89.0133 223.495 88.3333 223.495 87.44C223.495 86.6533 223.595 85.92 223.795 85.24C223.995 84.56 224.262 83.9733 224.595 83.48C224.942 82.9733 225.335 82.58 225.775 82.3C226.229 82.02 226.702 81.88 227.195 81.88C227.902 81.88 228.462 82.1133 228.875 82.58C229.289 83.0467 229.495 83.7467 229.495 84.68C229.495 85.48 229.395 86.2133 229.195 86.88C228.995 87.5467 228.715 88.1267 228.355 88.62C228.009 89.1 227.609 89.48 227.155 89.76C226.715 90.0267 226.255 90.16 225.775 90.16ZM225.855 89.58C226.082 89.58 226.302 89.4867 226.515 89.3C226.742 89.1133 226.949 88.8533 227.135 88.52C227.322 88.1867 227.489 87.8 227.635 87.36C227.782 86.92 227.895 86.4533 227.975 85.96C228.069 85.4533 228.115 84.9333 228.115 84.4C228.115 83.6533 228.015 83.1533 227.815 82.9C227.629 82.6333 227.402 82.5 227.135 82.5C226.922 82.5 226.709 82.5867 226.495 82.76C226.282 82.92 226.075 83.1533 225.875 83.46C225.689 83.7667 225.522 84.1333 225.375 84.56C225.229 84.9733 225.109 85.4333 225.015 85.94C224.935 86.4467 224.895 86.9867 224.895 87.56C224.895 88.3467 224.982 88.88 225.155 89.16C225.342 89.44 225.575 89.58 225.855 89.58ZM74.846 116.52C76.0327 116.12 77.0727 115.653 77.966 115.12C78.8593 114.573 79.5993 113.96 80.186 113.28C80.786 112.587 81.2327 111.82 81.526 110.98C81.8193 110.127 81.966 109.193 81.966 108.18C81.966 107.433 81.8793 106.8 81.706 106.28C81.546 105.747 81.2993 105.34 80.966 105.06C80.6327 104.767 80.2127 104.62 79.706 104.62C79.3327 104.62 78.9793 104.707 78.646 104.88C78.3127 105.053 78.0193 105.3 77.766 105.62C77.5127 105.927 77.3127 106.287 77.166 106.7C77.0327 107.113 76.966 107.56 76.966 108.04C76.966 108.6 77.066 109.087 77.266 109.5C77.466 109.9 77.7527 110.213 78.126 110.44C78.5127 110.653 78.966 110.76 79.486 110.76C79.8727 110.76 80.266 110.693 80.666 110.56C81.0793 110.427 81.5327 110.227 82.026 109.96L82.266 110.4H82.146C81.5593 110.84 80.9927 111.167 80.446 111.38C79.8993 111.593 79.3527 111.7 78.806 111.7C78.126 111.7 77.5327 111.56 77.026 111.28C76.5327 110.987 76.146 110.587 75.866 110.08C75.5993 109.573 75.466 108.993 75.466 108.34C75.466 107.687 75.5793 107.087 75.806 106.54C76.046 105.993 76.3727 105.52 76.786 105.12C77.1993 104.707 77.6727 104.387 78.206 104.16C78.7527 103.933 79.326 103.82 79.926 103.82C80.6993 103.82 81.346 104 81.866 104.36C82.3993 104.72 82.7993 105.227 83.066 105.88C83.346 106.533 83.486 107.3 83.486 108.18C83.486 109.26 83.2927 110.273 82.906 111.22C82.5327 112.167 81.9793 113.033 81.246 113.82C80.526 114.607 79.6393 115.293 78.586 115.88C77.546 116.467 76.3593 116.933 75.026 117.28L74.846 116.52ZM87.8409 117.26C87.1342 117.26 86.5475 117.14 86.0809 116.9C85.6142 116.66 85.2542 116.307 85.0009 115.84C84.7609 115.36 84.6275 114.78 84.6009 114.1C84.6942 113.887 84.8209 113.74 84.9809 113.66C85.1409 113.567 85.3075 113.52 85.4809 113.52C85.8009 113.52 86.0209 113.64 86.1409 113.88C86.2609 114.107 86.3409 114.493 86.3809 115.04L86.4609 116.62L86.0409 115.92C86.2142 116.067 86.3875 116.18 86.5609 116.26C86.7342 116.34 86.9209 116.4 87.1209 116.44C87.3342 116.467 87.5609 116.48 87.8009 116.48C88.4409 116.48 89.0142 116.347 89.5209 116.08C90.0275 115.8 90.4275 115.393 90.7209 114.86C91.0142 114.313 91.1609 113.653 91.1609 112.88C91.1609 112.28 91.0609 111.767 90.8609 111.34C90.6742 110.913 90.3942 110.587 90.0209 110.36C89.6475 110.133 89.1875 110.02 88.6409 110.02C88.2275 110.02 87.8675 110.053 87.5609 110.12C87.2542 110.187 86.9875 110.28 86.7609 110.4L86.2209 110.28L87.7009 104.06H93.9609L93.6009 105.68H87.7609L88.3809 104.76L87.1809 109.88L86.6809 109.7C86.8942 109.593 87.1275 109.507 87.3809 109.44C87.6342 109.373 87.9009 109.32 88.1809 109.28C88.4742 109.24 88.7609 109.22 89.0409 109.22C89.8675 109.22 90.5542 109.367 91.1009 109.66C91.6609 109.953 92.0809 110.36 92.3609 110.88C92.6409 111.4 92.7809 112.013 92.7809 112.72C92.7809 113.72 92.5542 114.56 92.1009 115.24C91.6475 115.907 91.0475 116.413 90.3009 116.76C89.5542 117.093 88.7342 117.26 87.8409 117.26ZM97.6357 111.66C96.9424 111.66 96.389 111.433 95.9757 110.98C95.5624 110.513 95.3557 109.833 95.3557 108.94C95.3557 108.153 95.4557 107.42 95.6557 106.74C95.8557 106.06 96.1224 105.473 96.4557 104.98C96.8024 104.473 97.1957 104.08 97.6357 103.8C98.089 103.52 98.5624 103.38 99.0557 103.38C99.7624 103.38 100.322 103.613 100.736 104.08C101.149 104.547 101.356 105.247 101.356 106.18C101.356 106.98 101.256 107.713 101.056 108.38C100.856 109.047 100.576 109.627 100.216 110.12C99.869 110.6 99.469 110.98 99.0157 111.26C98.5757 111.527 98.1157 111.66 97.6357 111.66ZM97.7157 111.08C97.9424 111.08 98.1624 110.987 98.3757 110.8C98.6024 110.613 98.809 110.353 98.9957 110.02C99.1824 109.687 99.349 109.3 99.4957 108.86C99.6424 108.42 99.7557 107.953 99.8357 107.46C99.929 106.953 99.9757 106.433 99.9757 105.9C99.9757 105.153 99.8757 104.653 99.6757 104.4C99.489 104.133 99.2624 104 98.9957 104C98.7824 104 98.569 104.087 98.3557 104.26C98.1424 104.42 97.9357 104.653 97.7357 104.96C97.549 105.267 97.3824 105.633 97.2357 106.06C97.089 106.473 96.969 106.933 96.8757 107.44C96.7957 107.947 96.7557 108.487 96.7557 109.06C96.7557 109.847 96.8424 110.38 97.0157 110.66C97.2024 110.94 97.4357 111.08 97.7157 111.08ZM98.1557 117.3L97.4757 116.8L107.416 103.68L108.076 104.2L98.1557 117.3ZM106.596 117.16C105.902 117.16 105.349 116.933 104.936 116.48C104.522 116.013 104.316 115.333 104.316 114.44C104.316 113.653 104.416 112.92 104.616 112.24C104.816 111.56 105.082 110.973 105.416 110.48C105.762 109.973 106.156 109.58 106.596 109.3C107.049 109.02 107.522 108.88 108.016 108.88C108.722 108.88 109.282 109.113 109.696 109.58C110.109 110.047 110.316 110.747 110.316 111.68C110.316 112.48 110.216 113.213 110.016 113.88C109.816 114.547 109.536 115.127 109.176 115.62C108.829 116.1 108.429 116.48 107.976 116.76C107.536 117.027 107.076 117.16 106.596 117.16ZM106.676 116.58C106.902 116.58 107.122 116.487 107.336 116.3C107.562 116.113 107.769 115.853 107.956 115.52C108.142 115.187 108.309 114.8 108.456 114.36C108.602 113.92 108.716 113.453 108.796 112.96C108.889 112.453 108.936 111.933 108.936 111.4C108.936 110.653 108.836 110.153 108.636 109.9C108.449 109.633 108.222 109.5 107.956 109.5C107.742 109.5 107.529 109.587 107.316 109.76C107.102 109.92 106.896 110.153 106.696 110.46C106.509 110.767 106.342 111.133 106.196 111.56C106.049 111.973 105.929 112.433 105.836 112.94C105.756 113.447 105.716 113.987 105.716 114.56C105.716 115.347 105.802 115.88 105.976 116.16C106.162 116.44 106.396 116.58 106.676 116.58ZM138.996 117L139.156 116.2L141.296 115.9H141.656L143.636 116.2L143.476 117H138.996ZM140.236 117L147.676 103.6H148.836L150.736 117H148.936L147.336 105.1H147.636L147.516 105.34L141.336 117H140.236ZM143.476 112.14L143.756 111.22H149.436L149.196 112.14H143.476ZM146.896 117L147.056 116.2L149.616 115.9H149.976L152.356 116.2L152.196 117H146.896ZM155.71 117.26C155.417 117.26 155.157 117.207 154.93 117.1C154.717 116.993 154.55 116.833 154.43 116.62C154.31 116.393 154.25 116.12 154.25 115.8C154.25 115.427 154.297 115.013 154.39 114.56C154.497 114.093 154.59 113.667 154.67 113.28L155.69 108.52L155.83 108.96L153.61 108.84L153.69 108.24L157.17 107.24L157.43 107.44L156.17 113.12C156.117 113.387 156.064 113.64 156.01 113.88C155.97 114.107 155.937 114.32 155.91 114.52C155.884 114.707 155.87 114.873 155.87 115.02C155.87 115.313 155.937 115.533 156.07 115.68C156.204 115.813 156.39 115.88 156.63 115.88C156.95 115.88 157.284 115.8 157.63 115.64C157.977 115.48 158.384 115.227 158.85 114.88C159.317 114.533 159.877 114.093 160.53 113.56L160.67 114.12H160.53C159.877 114.76 159.27 115.313 158.71 115.78C158.15 116.247 157.624 116.613 157.13 116.88C156.637 117.133 156.164 117.26 155.71 117.26ZM160.53 117.26C160.264 117.26 160.017 117.173 159.79 117C159.577 116.827 159.47 116.567 159.47 116.22C159.47 116.073 159.484 115.893 159.51 115.68C159.55 115.453 159.637 115.093 159.77 114.6H159.69L160.35 111.48C160.484 110.84 160.61 110.2 160.73 109.56C160.85 108.92 160.964 108.28 161.07 107.64L162.37 107.24L162.63 107.44L161.21 114.3C161.157 114.553 161.11 114.78 161.07 114.98C161.044 115.18 161.03 115.333 161.03 115.44C161.03 115.573 161.077 115.68 161.17 115.76C161.264 115.84 161.37 115.88 161.49 115.88C161.757 115.88 162.044 115.76 162.35 115.52C162.67 115.28 163.037 114.92 163.45 114.44L163.95 114.82C163.644 115.22 163.317 115.607 162.97 115.98C162.624 116.353 162.25 116.66 161.85 116.9C161.45 117.14 161.01 117.26 160.53 117.26ZM166.476 121.82C165.862 121.82 165.309 121.74 164.816 121.58C164.336 121.433 163.956 121.2 163.676 120.88C163.382 120.573 163.236 120.18 163.236 119.7C163.236 119.233 163.382 118.787 163.676 118.36C163.969 117.933 164.356 117.553 164.836 117.22C165.316 116.887 165.829 116.627 166.376 116.44L166.776 116.68C166.122 117.08 165.629 117.453 165.296 117.8C164.962 118.16 164.796 118.573 164.796 119.04C164.796 119.613 165.022 120.06 165.476 120.38C165.929 120.713 166.562 120.88 167.376 120.88C168.082 120.88 168.696 120.793 169.216 120.62C169.749 120.447 170.162 120.2 170.456 119.88C170.749 119.56 170.896 119.187 170.896 118.76C170.896 118.507 170.822 118.273 170.676 118.06C170.542 117.847 170.296 117.66 169.936 117.5C169.576 117.34 169.049 117.22 168.356 117.14L166.756 116.96C166.649 116.947 166.536 116.933 166.416 116.92C166.309 116.893 166.189 116.867 166.056 116.84V116.78C165.576 116.62 165.256 116.407 165.096 116.14C164.936 115.86 164.856 115.6 164.856 115.36C164.856 114.907 165.042 114.487 165.416 114.1C165.802 113.713 166.322 113.327 166.976 112.94V112.84L167.216 113.14C166.802 113.567 166.549 113.887 166.456 114.1C166.362 114.3 166.316 114.493 166.316 114.68C166.316 114.853 166.382 115.033 166.516 115.22C166.662 115.407 166.942 115.527 167.356 115.58L169.316 115.82C170.036 115.913 170.609 116.06 171.036 116.26C171.476 116.46 171.789 116.707 171.976 117C172.176 117.28 172.276 117.613 172.276 118C172.276 118.52 172.129 119.013 171.836 119.48C171.556 119.947 171.149 120.353 170.616 120.7C170.096 121.047 169.482 121.32 168.776 121.52C168.082 121.72 167.316 121.82 166.476 121.82ZM168.356 113.9C167.729 113.9 167.196 113.787 166.756 113.56C166.316 113.333 165.976 113.02 165.736 112.62C165.509 112.207 165.396 111.727 165.396 111.18C165.396 110.633 165.489 110.127 165.676 109.66C165.876 109.18 166.149 108.76 166.496 108.4C166.856 108.04 167.262 107.76 167.716 107.56C168.169 107.347 168.656 107.24 169.176 107.24C169.642 107.24 170.056 107.327 170.416 107.5C170.789 107.673 171.089 107.927 171.316 108.26C171.542 108.593 171.676 109 171.716 109.48L171.576 109.5C171.696 108.873 171.856 108.38 172.056 108.02C172.256 107.66 172.482 107.407 172.736 107.26C172.989 107.1 173.249 107.02 173.516 107.02C173.649 107.02 173.762 107.033 173.856 107.06C173.962 107.073 174.049 107.1 174.116 107.14C174.169 107.193 174.209 107.26 174.236 107.34C174.276 107.407 174.296 107.48 174.296 107.56C174.296 107.987 174.102 108.287 173.716 108.46C173.329 108.633 172.769 108.827 172.036 109.04L172.496 108.5C172.429 108.66 172.362 108.827 172.296 109C172.242 109.16 172.189 109.333 172.136 109.52C172.082 109.707 172.029 109.913 171.976 110.14C171.829 110.78 171.629 111.34 171.376 111.82C171.136 112.287 170.856 112.673 170.536 112.98C170.216 113.287 169.869 113.52 169.496 113.68C169.136 113.827 168.756 113.9 168.356 113.9ZM168.516 113.26C168.822 113.26 169.102 113.187 169.356 113.04C169.609 112.893 169.822 112.68 169.996 112.4C170.182 112.107 170.322 111.753 170.416 111.34C170.509 110.927 170.556 110.453 170.556 109.92C170.556 109.28 170.402 108.78 170.096 108.42C169.802 108.06 169.442 107.88 169.016 107.88C168.669 107.88 168.362 107.96 168.096 108.12C167.842 108.28 167.629 108.507 167.456 108.8C167.282 109.08 167.149 109.413 167.056 109.8C166.976 110.187 166.936 110.613 166.936 111.08C166.936 111.547 166.996 111.947 167.116 112.28C167.236 112.6 167.409 112.847 167.636 113.02C167.876 113.18 168.169 113.26 168.516 113.26ZM178.97 117L179.23 115.72L182.17 112.94C183.05 112.113 183.776 111.407 184.35 110.82C184.923 110.233 185.37 109.72 185.69 109.28C186.023 108.84 186.256 108.44 186.39 108.08C186.536 107.707 186.61 107.333 186.61 106.96C186.61 106.44 186.516 106.007 186.33 105.66C186.156 105.313 185.896 105.053 185.55 104.88C185.203 104.707 184.783 104.62 184.29 104.62C183.983 104.62 183.69 104.66 183.41 104.74C183.143 104.807 182.89 104.92 182.65 105.08C182.41 105.227 182.183 105.433 181.97 105.7L182.79 104.44L182.59 106.24C182.523 106.84 182.403 107.24 182.23 107.44C182.056 107.627 181.836 107.72 181.57 107.72C181.356 107.72 181.176 107.647 181.03 107.5C180.883 107.353 180.796 107.18 180.77 106.98C180.93 106.233 181.176 105.627 181.51 105.16C181.856 104.693 182.29 104.353 182.81 104.14C183.343 103.913 183.97 103.8 184.69 103.8C185.503 103.8 186.163 103.94 186.67 104.22C187.19 104.487 187.57 104.853 187.81 105.32C188.063 105.773 188.19 106.293 188.19 106.88C188.19 107.44 188.07 107.96 187.83 108.44C187.59 108.92 187.243 109.4 186.79 109.88C186.35 110.347 185.803 110.86 185.15 111.42C184.51 111.98 183.783 112.627 182.97 113.36L180.29 115.78L180.45 115.14V115.46H186.87L186.55 117H178.97ZM192.725 117.18C192.031 117.18 191.438 117.007 190.945 116.66C190.451 116.313 190.071 115.813 189.805 115.16C189.551 114.493 189.425 113.693 189.425 112.76C189.425 111.76 189.518 110.82 189.705 109.94C189.905 109.047 190.178 108.233 190.525 107.5C190.885 106.753 191.305 106.113 191.785 105.58C192.278 105.033 192.811 104.613 193.385 104.32C193.971 104.027 194.585 103.88 195.225 103.88C195.931 103.88 196.531 104.04 197.025 104.36C197.518 104.68 197.891 105.167 198.145 105.82C198.411 106.473 198.545 107.3 198.545 108.3C198.545 109.287 198.438 110.227 198.225 111.12C198.025 112.013 197.745 112.827 197.385 113.56C197.025 114.293 196.598 114.933 196.105 115.48C195.611 116.027 195.078 116.447 194.505 116.74C193.931 117.033 193.338 117.18 192.725 117.18ZM192.925 116.34C193.245 116.34 193.565 116.247 193.885 116.06C194.218 115.873 194.531 115.613 194.825 115.28C195.131 114.933 195.411 114.52 195.665 114.04C195.918 113.56 196.138 113.02 196.325 112.42C196.525 111.82 196.678 111.173 196.785 110.48C196.891 109.773 196.945 109.04 196.945 108.28C196.945 107.387 196.858 106.687 196.685 106.18C196.511 105.66 196.278 105.293 195.985 105.08C195.705 104.853 195.385 104.74 195.025 104.74C194.718 104.74 194.405 104.833 194.085 105.02C193.765 105.207 193.451 105.473 193.145 105.82C192.851 106.153 192.571 106.56 192.305 107.04C192.051 107.507 191.825 108.033 191.625 108.62C191.438 109.207 191.285 109.84 191.165 110.52C191.058 111.2 191.005 111.907 191.005 112.64C191.005 113.56 191.078 114.293 191.225 114.84C191.385 115.373 191.611 115.76 191.905 116C192.198 116.227 192.538 116.34 192.925 116.34ZM199.399 117L199.659 115.72L202.599 112.94C203.479 112.113 204.206 111.407 204.779 110.82C205.353 110.233 205.799 109.72 206.119 109.28C206.453 108.84 206.686 108.44 206.819 108.08C206.966 107.707 207.039 107.333 207.039 106.96C207.039 106.44 206.946 106.007 206.759 105.66C206.586 105.313 206.326 105.053 205.979 104.88C205.633 104.707 205.213 104.62 204.719 104.62C204.413 104.62 204.119 104.66 203.839 104.74C203.573 104.807 203.319 104.92 203.079 105.08C202.839 105.227 202.613 105.433 202.399 105.7L203.219 104.44L203.019 106.24C202.953 106.84 202.833 107.24 202.659 107.44C202.486 107.627 202.266 107.72 201.999 107.72C201.786 107.72 201.606 107.647 201.459 107.5C201.313 107.353 201.226 107.18 201.199 106.98C201.359 106.233 201.606 105.627 201.939 105.16C202.286 104.693 202.719 104.353 203.239 104.14C203.773 103.913 204.399 103.8 205.119 103.8C205.933 103.8 206.593 103.94 207.099 104.22C207.619 104.487 207.999 104.853 208.239 105.32C208.493 105.773 208.619 106.293 208.619 106.88C208.619 107.44 208.499 107.96 208.259 108.44C208.019 108.92 207.673 109.4 207.219 109.88C206.779 110.347 206.233 110.86 205.579 111.42C204.939 111.98 204.213 112.627 203.399 113.36L200.719 115.78L200.879 115.14V115.46H207.299L206.979 117H199.399ZM213.114 117.26C212.408 117.26 211.821 117.14 211.354 116.9C210.888 116.66 210.528 116.307 210.274 115.84C210.034 115.36 209.901 114.78 209.874 114.1C209.968 113.887 210.094 113.74 210.254 113.66C210.414 113.567 210.581 113.52 210.754 113.52C211.074 113.52 211.294 113.64 211.414 113.88C211.534 114.107 211.614 114.493 211.654 115.04L211.734 116.62L211.314 115.92C211.488 116.067 211.661 116.18 211.834 116.26C212.008 116.34 212.194 116.4 212.394 116.44C212.608 116.467 212.834 116.48 213.074 116.48C213.714 116.48 214.288 116.347 214.794 116.08C215.301 115.8 215.701 115.393 215.994 114.86C216.288 114.313 216.434 113.653 216.434 112.88C216.434 112.28 216.334 111.767 216.134 111.34C215.948 110.913 215.668 110.587 215.294 110.36C214.921 110.133 214.461 110.02 213.914 110.02C213.501 110.02 213.141 110.053 212.834 110.12C212.528 110.187 212.261 110.28 212.034 110.4L211.494 110.28L212.974 104.06H219.234L218.874 105.68H213.034L213.654 104.76L212.454 109.88L211.954 109.7C212.168 109.593 212.401 109.507 212.654 109.44C212.908 109.373 213.174 109.32 213.454 109.28C213.748 109.24 214.034 109.22 214.314 109.22C215.141 109.22 215.828 109.367 216.374 109.66C216.934 109.953 217.354 110.36 217.634 110.88C217.914 111.4 218.054 112.013 218.054 112.72C218.054 113.72 217.828 114.56 217.374 115.24C216.921 115.907 216.321 116.413 215.574 116.76C214.828 117.093 214.008 117.26 213.114 117.26Z" fill="#B84B86"/>
<path d="M125.641 54.44L125.801 53.68L128.501 53.44V53.5H131.881L131.661 54.58L128.401 54.48L128.361 54.44H125.641ZM127.241 63.26C126.948 63.26 126.688 63.1733 126.461 63C126.248 62.8267 126.141 62.5733 126.141 62.24C126.141 62.0933 126.148 61.92 126.161 61.72C126.188 61.5067 126.241 61.1933 126.321 60.78L127.801 53.9L128.881 50.82H129.901L127.901 60.26C127.848 60.5267 127.801 60.76 127.761 60.96C127.735 61.16 127.721 61.3133 127.721 61.42C127.721 61.5667 127.768 61.68 127.861 61.76C127.968 61.84 128.081 61.88 128.201 61.88C128.388 61.88 128.575 61.8267 128.761 61.72C128.961 61.6133 129.175 61.4533 129.401 61.24C129.628 61.0267 129.881 60.76 130.161 60.44L130.641 60.82C130.375 61.22 130.061 61.6067 129.701 61.98C129.341 62.3533 128.955 62.66 128.541 62.9C128.128 63.14 127.695 63.26 127.241 63.26ZM132.363 63.16L132.163 63L134.103 53.44C134.25 52.7467 134.383 52.06 134.503 51.38C134.637 50.7 134.75 50.0133 134.843 49.32L135.203 49.94L132.863 49.78L132.943 49.2L136.403 48.2L136.603 48.36L135.103 55.7L135.043 56.04L134.463 58.8C134.37 59.2667 134.277 59.7333 134.183 60.2C134.103 60.6667 134.023 61.1333 133.943 61.6C133.863 62.0667 133.783 62.5333 133.703 63L132.363 63.16ZM138.483 63.26C138.163 63.26 137.91 63.18 137.723 63.02C137.55 62.86 137.463 62.6533 137.463 62.4C137.463 62.1733 137.49 61.9533 137.543 61.74C137.61 61.5133 137.69 61.1933 137.783 60.78L138.643 57.24C138.723 56.8933 138.797 56.5667 138.863 56.26C138.93 55.9533 138.963 55.7 138.963 55.5C138.963 55.1533 138.903 54.9133 138.783 54.78C138.663 54.6467 138.49 54.58 138.263 54.58C138.01 54.58 137.71 54.6533 137.363 54.8C137.017 54.9333 136.617 55.1467 136.163 55.44C135.723 55.7333 135.237 56.1 134.703 56.54V55.8H134.803C135.257 55.3333 135.743 54.9067 136.263 54.52C136.783 54.1333 137.303 53.8267 137.823 53.6C138.357 53.36 138.843 53.24 139.283 53.24C139.71 53.24 140.03 53.3533 140.243 53.58C140.47 53.8067 140.583 54.1533 140.583 54.62C140.583 54.94 140.543 55.2667 140.463 55.6C140.397 55.92 140.323 56.2467 140.243 56.58L139.343 60.3C139.277 60.58 139.217 60.82 139.163 61.02C139.11 61.2067 139.083 61.3533 139.083 61.46C139.083 61.5933 139.117 61.7 139.183 61.78C139.263 61.8467 139.363 61.88 139.483 61.88C139.723 61.88 140.017 61.7533 140.363 61.5C140.723 61.2467 141.083 60.8933 141.443 60.44L141.923 60.82C141.67 61.2067 141.357 61.5933 140.983 61.98C140.623 62.3533 140.23 62.66 139.803 62.9C139.377 63.14 138.937 63.26 138.483 63.26ZM145.882 63.26C145.309 63.26 144.795 63.1267 144.342 62.86C143.889 62.5933 143.529 62.1867 143.262 61.64C143.009 61.0933 142.882 60.3933 142.882 59.54C142.882 58.74 143.022 57.9667 143.302 57.22C143.582 56.46 143.962 55.78 144.442 55.18C144.922 54.58 145.475 54.1067 146.102 53.76C146.742 53.4133 147.409 53.24 148.102 53.24C148.742 53.24 149.235 53.4 149.582 53.72C149.929 54.04 150.102 54.4933 150.102 55.08C150.102 55.4133 150.002 55.7733 149.802 56.16C149.615 56.5467 149.282 56.9467 148.802 57.36C148.335 57.76 147.695 58.1533 146.882 58.54C146.082 58.9267 145.062 59.2867 143.822 59.62L143.742 58.86C144.995 58.54 145.982 58.1733 146.702 57.76C147.435 57.3467 147.962 56.9267 148.282 56.5C148.602 56.06 148.762 55.6533 148.762 55.28C148.762 54.9067 148.662 54.62 148.462 54.42C148.262 54.2067 147.995 54.1 147.662 54.1C147.342 54.1 146.982 54.2333 146.582 54.5C146.195 54.7667 145.822 55.14 145.462 55.62C145.115 56.0867 144.829 56.62 144.602 57.22C144.375 57.82 144.262 58.4533 144.262 59.12C144.262 60.1067 144.442 60.8133 144.802 61.24C145.175 61.6667 145.689 61.88 146.342 61.88C146.769 61.88 147.149 61.8067 147.482 61.66C147.829 61.5133 148.129 61.3267 148.382 61.1C148.649 60.8733 148.869 60.6467 149.042 60.42L149.502 60.78C149.289 61.1133 149.049 61.4333 148.782 61.74C148.529 62.0333 148.242 62.3 147.922 62.54C147.615 62.7667 147.289 62.94 146.942 63.06C146.609 63.1933 146.255 63.26 145.882 63.26ZM146.931 95C146.638 95 146.365 94.9467 146.111 94.84C145.845 94.7467 145.625 94.6067 145.451 94.42C145.265 94.2333 145.138 94.0133 145.071 93.76C145.111 93.5467 145.225 93.3733 145.411 93.24C145.585 93.1067 145.778 93.04 145.991 93.04C146.191 93.04 146.371 93.0733 146.531 93.14C146.691 93.22 146.845 93.32 146.991 93.44C147.138 93.5733 147.285 93.7133 147.431 93.86L147.931 94.34V94.4H147.331V94.34C147.518 94.2333 147.711 94.0933 147.911 93.92C148.111 93.7467 148.305 93.52 148.491 93.24C148.665 92.9867 148.818 92.6867 148.951 92.34C149.098 91.9933 149.231 91.5733 149.351 91.08C149.485 90.5867 149.611 89.9933 149.731 89.3C149.998 87.78 150.245 86.3 150.471 84.86C150.711 83.4067 150.951 81.8933 151.191 80.32C151.365 79.2133 151.625 78.3133 151.971 77.62C152.318 76.9267 152.698 76.3933 153.111 76.02C153.538 75.6333 153.958 75.3667 154.371 75.22C154.798 75.0733 155.171 75 155.491 75C155.878 75 156.231 75.0733 156.551 75.22C156.871 75.3533 157.138 75.5333 157.351 75.76C157.565 75.9733 157.698 76.2067 157.751 76.46C157.685 76.7 157.578 76.8733 157.431 76.98C157.298 77.0867 157.145 77.14 156.971 77.14C156.678 77.14 156.418 77.06 156.191 76.9C155.965 76.7267 155.698 76.44 155.391 76.04L154.871 75.38V75.24H155.971V75.38C155.638 75.4467 155.305 75.56 154.971 75.72C154.638 75.8667 154.325 76.1133 154.031 76.46C153.751 76.7933 153.491 77.2667 153.251 77.88C153.011 78.4933 152.811 79.2933 152.651 80.28C152.411 81.72 152.165 83.22 151.911 84.78C151.671 86.3267 151.405 87.8333 151.111 89.3C150.978 90.0067 150.818 90.6533 150.631 91.24C150.458 91.84 150.245 92.3667 149.991 92.82C149.738 93.2867 149.425 93.6867 149.051 94.02C148.785 94.26 148.531 94.4533 148.291 94.6C148.038 94.7467 147.805 94.8467 147.591 94.9C147.365 94.9667 147.145 95 146.931 95ZM148.951 81.44L149.111 80.68L151.751 80.44V80.5H155.231L154.991 81.56L151.571 81.44H148.951ZM158.185 84.9L157.925 83.92H158.185C158.479 83.3333 158.812 82.76 159.185 82.2C159.559 81.6267 159.952 81.16 160.365 80.8C160.792 80.4267 161.212 80.24 161.625 80.24C161.905 80.24 162.165 80.2867 162.405 80.38C162.645 80.46 162.832 80.6133 162.965 80.84C162.952 81.1733 162.852 81.4467 162.665 81.66C162.492 81.86 162.239 81.96 161.905 81.96C161.692 81.96 161.459 81.8933 161.205 81.76C160.952 81.6133 160.712 81.4333 160.485 81.22L160.245 80.98L161.245 80.92V81.04C160.832 81.32 160.445 81.6533 160.085 82.04C159.739 82.4267 159.405 82.86 159.085 83.34C158.779 83.8067 158.479 84.3267 158.185 84.9ZM155.685 90L157.445 81.7L157.805 81.98L155.405 81.84L155.485 81.26L158.785 80.24L159.045 80.44L158.565 83.42L158.465 83.82L158.025 85.8C157.879 86.4933 157.739 87.1933 157.605 87.9C157.485 88.5933 157.359 89.2933 157.225 90L155.885 90.16L155.685 90ZM166.065 90.26C165.452 90.26 164.892 90.1267 164.385 89.86C163.892 89.5933 163.492 89.2 163.185 88.68C162.892 88.1467 162.745 87.5 162.745 86.74C162.745 85.8333 162.879 84.9933 163.145 84.22C163.425 83.4333 163.805 82.74 164.285 82.14C164.765 81.54 165.319 81.0733 165.945 80.74C166.585 80.4067 167.259 80.24 167.965 80.24C168.592 80.24 169.145 80.3733 169.625 80.64C170.119 80.9067 170.505 81.3 170.785 81.82C171.065 82.34 171.205 82.98 171.205 83.74C171.205 84.6067 171.072 85.4333 170.805 86.22C170.539 87.0067 170.165 87.7067 169.685 88.32C169.219 88.92 168.672 89.3933 168.045 89.74C167.432 90.0867 166.772 90.26 166.065 90.26ZM166.305 89.46C166.692 89.46 167.052 89.36 167.385 89.16C167.732 88.96 168.039 88.6867 168.305 88.34C168.572 87.98 168.799 87.5733 168.985 87.12C169.185 86.6533 169.332 86.16 169.425 85.64C169.532 85.1067 169.585 84.5733 169.585 84.04C169.585 82.96 169.412 82.1933 169.065 81.74C168.732 81.2733 168.292 81.04 167.745 81.04C167.372 81.04 167.012 81.1333 166.665 81.32C166.332 81.5067 166.019 81.7667 165.725 82.1C165.445 82.4333 165.205 82.8333 165.005 83.3C164.805 83.7533 164.645 84.2533 164.525 84.8C164.419 85.3333 164.365 85.9 164.365 86.5C164.365 87.5533 164.545 88.3133 164.905 88.78C165.279 89.2333 165.745 89.46 166.305 89.46ZM173.151 90.16L172.951 90L174.711 81.7L175.071 81.98L172.671 81.84L172.751 81.26L176.151 80.24L176.411 80.44L175.911 82.9V82.94L175.291 85.8C175.144 86.4933 175.004 87.1933 174.871 87.9C174.751 88.5933 174.624 89.2933 174.491 90L173.151 90.16ZM178.491 90.16L178.291 90L179.671 83.46C179.698 83.2867 179.724 83.1133 179.751 82.94C179.791 82.7667 179.811 82.6 179.811 82.44C179.811 82.12 179.751 81.9 179.631 81.78C179.524 81.6467 179.358 81.58 179.131 81.58C178.878 81.58 178.578 81.6533 178.231 81.8C177.884 81.9333 177.491 82.1467 177.051 82.44C176.611 82.7333 176.124 83.1 175.591 83.54V82.8H175.691C176.144 82.3333 176.631 81.9067 177.151 81.52C177.671 81.1333 178.191 80.8267 178.711 80.6C179.244 80.36 179.731 80.24 180.171 80.24C180.584 80.24 180.898 80.3533 181.111 80.58C181.324 80.8067 181.431 81.1533 181.431 81.62C181.431 81.8067 181.411 82.0067 181.371 82.22C181.331 82.42 181.291 82.6267 181.251 82.84L181.211 83L180.611 85.8C180.464 86.4933 180.324 87.1933 180.191 87.9C180.058 88.5933 179.924 89.2933 179.791 90L178.491 90.16ZM184.471 90.26C184.151 90.26 183.898 90.18 183.711 90.02C183.538 89.86 183.451 89.6533 183.451 89.4C183.451 89.1733 183.478 88.9533 183.531 88.74C183.598 88.5133 183.678 88.1933 183.771 87.78L184.631 84.24C184.711 83.8933 184.784 83.5667 184.851 83.26C184.918 82.9533 184.951 82.7 184.951 82.5C184.951 82.1533 184.891 81.9133 184.771 81.78C184.651 81.6467 184.478 81.58 184.251 81.58C184.011 81.58 183.731 81.6533 183.411 81.8C183.091 81.9467 182.724 82.1667 182.311 82.46C181.898 82.74 181.431 83.1 180.911 83.54V82.78H181.011C181.451 82.3267 181.918 81.9067 182.411 81.52C182.918 81.1333 183.418 80.8267 183.911 80.6C184.404 80.36 184.864 80.24 185.291 80.24C185.718 80.24 186.038 80.3533 186.251 80.58C186.464 80.8067 186.571 81.1533 186.571 81.62C186.571 81.94 186.531 82.2667 186.451 82.6C186.384 82.92 186.311 83.2467 186.231 83.58L185.331 87.3C185.264 87.58 185.204 87.82 185.151 88.02C185.098 88.2067 185.071 88.3533 185.071 88.46C185.071 88.5933 185.111 88.7 185.191 88.78C185.271 88.8467 185.364 88.88 185.471 88.88C185.738 88.88 186.031 88.76 186.351 88.52C186.671 88.28 187.031 87.92 187.431 87.44L187.911 87.82C187.618 88.22 187.291 88.6067 186.931 88.98C186.584 89.3533 186.204 89.66 185.791 89.9C185.391 90.14 184.951 90.26 184.471 90.26ZM53.5709 108.44L53.7309 107.68L56.4309 107.44V107.5H59.8109L59.5909 108.58L56.3309 108.48L56.2909 108.44H53.5709ZM55.1709 117.26C54.8775 117.26 54.6175 117.173 54.3909 117C54.1775 116.827 54.0709 116.573 54.0709 116.24C54.0709 116.093 54.0775 115.92 54.0909 115.72C54.1175 115.507 54.1709 115.193 54.2509 114.78L55.7309 107.9L56.8109 104.82H57.8309L55.8309 114.26C55.7775 114.527 55.7309 114.76 55.6909 114.96C55.6642 115.16 55.6509 115.313 55.6509 115.42C55.6509 115.567 55.6975 115.68 55.7909 115.76C55.8975 115.84 56.0109 115.88 56.1309 115.88C56.3175 115.88 56.5042 115.827 56.6909 115.72C56.8909 115.613 57.1042 115.453 57.3309 115.24C57.5575 115.027 57.8109 114.76 58.0909 114.44L58.5709 114.82C58.3042 115.22 57.9909 115.607 57.6309 115.98C57.2709 116.353 56.8842 116.66 56.4709 116.9C56.0575 117.14 55.6242 117.26 55.1709 117.26ZM63.2529 117.26C62.6396 117.26 62.0796 117.127 61.5729 116.86C61.0796 116.593 60.6796 116.2 60.3729 115.68C60.0796 115.147 59.9329 114.5 59.9329 113.74C59.9329 112.833 60.0662 111.993 60.3329 111.22C60.6129 110.433 60.9929 109.74 61.4729 109.14C61.9529 108.54 62.5062 108.073 63.1329 107.74C63.7729 107.407 64.4462 107.24 65.1529 107.24C65.7796 107.24 66.3329 107.373 66.8129 107.64C67.3062 107.907 67.6929 108.3 67.9729 108.82C68.2529 109.34 68.3929 109.98 68.3929 110.74C68.3929 111.607 68.2596 112.433 67.9929 113.22C67.7262 114.007 67.3529 114.707 66.8729 115.32C66.4062 115.92 65.8596 116.393 65.2329 116.74C64.6196 117.087 63.9596 117.26 63.2529 117.26ZM63.4929 116.46C63.8796 116.46 64.2396 116.36 64.5729 116.16C64.9196 115.96 65.2262 115.687 65.4929 115.34C65.7596 114.98 65.9862 114.573 66.1729 114.12C66.3729 113.653 66.5196 113.16 66.6129 112.64C66.7196 112.107 66.7729 111.573 66.7729 111.04C66.7729 109.96 66.5996 109.193 66.2529 108.74C65.9196 108.273 65.4796 108.04 64.9329 108.04C64.5596 108.04 64.1996 108.133 63.8529 108.32C63.5196 108.507 63.2062 108.767 62.9129 109.1C62.6329 109.433 62.3929 109.833 62.1929 110.3C61.9929 110.753 61.8329 111.253 61.7129 111.8C61.6062 112.333 61.5529 112.9 61.5529 113.5C61.5529 114.553 61.7329 115.313 62.0929 115.78C62.4662 116.233 62.9329 116.46 63.4929 116.46ZM118.854 117.26C118.64 117.26 118.434 117.22 118.234 117.14C118.034 117.073 117.854 116.967 117.694 116.82C117.547 116.673 117.427 116.5 117.334 116.3C117.254 116.087 117.214 115.853 117.214 115.6C117.214 115.173 117.254 114.713 117.334 114.22C117.427 113.713 117.54 113.127 117.674 112.46L119.434 103.6L119.734 103.94L117.394 103.78L117.494 103.2L120.954 102.2L121.174 102.36L119.574 110.1L119.514 110.4L119.154 112.14C119.047 112.647 118.96 113.06 118.894 113.38C118.84 113.687 118.8 113.96 118.774 114.2C118.76 114.427 118.754 114.667 118.754 114.92C118.754 115.253 118.84 115.52 119.014 115.72C119.187 115.907 119.434 116 119.754 116C120.167 116 120.567 115.907 120.954 115.72C121.354 115.533 121.74 115.267 122.114 114.92C122.474 114.573 122.787 114.16 123.054 113.68C123.32 113.2 123.527 112.687 123.674 112.14C123.82 111.593 123.894 111.047 123.894 110.5C123.894 109.86 123.787 109.38 123.574 109.06C123.36 108.74 123.067 108.58 122.694 108.58C122.374 108.58 122.02 108.68 121.634 108.88C121.26 109.08 120.854 109.38 120.414 109.78C119.987 110.167 119.534 110.64 119.054 111.2L118.714 111.08H118.814C119.24 110.293 119.727 109.613 120.274 109.04C120.834 108.467 121.407 108.027 121.994 107.72C122.58 107.4 123.114 107.24 123.594 107.24C123.927 107.24 124.227 107.32 124.494 107.48C124.774 107.64 124.994 107.9 125.154 108.26C125.327 108.62 125.414 109.1 125.414 109.7C125.414 110.38 125.294 111.073 125.054 111.78C124.814 112.487 124.48 113.167 124.054 113.82C123.627 114.473 123.134 115.06 122.574 115.58C122.014 116.1 121.414 116.513 120.774 116.82C120.147 117.113 119.507 117.26 118.854 117.26ZM125.156 121.8C124.716 121.8 124.376 121.687 124.136 121.46C123.896 121.247 123.763 120.973 123.736 120.64C123.79 120.347 123.916 120.12 124.116 119.96C124.303 119.813 124.536 119.74 124.816 119.74C125.11 119.74 125.383 119.8 125.636 119.92C125.876 120.053 126.143 120.227 126.436 120.44L127.016 120.84V121H125.856V120.86C126.15 120.713 126.436 120.547 126.716 120.36C126.996 120.173 127.27 119.967 127.536 119.74C127.803 119.513 128.056 119.273 128.296 119.02C128.683 118.633 129.036 118.227 129.356 117.8C129.69 117.373 130.003 116.92 130.296 116.44C130.67 115.76 130.996 115.147 131.276 114.6C131.57 114.04 131.83 113.513 132.056 113.02C132.283 112.513 132.483 112.007 132.656 111.5C132.843 110.98 133.023 110.427 133.196 109.84C133.423 109.067 133.61 108.487 133.756 108.1C133.916 107.713 134.07 107.453 134.216 107.32C134.363 107.187 134.53 107.12 134.716 107.12C134.943 107.12 135.123 107.187 135.256 107.32C135.39 107.44 135.456 107.6 135.456 107.8C135.456 108.053 135.423 108.287 135.356 108.5C135.29 108.713 135.156 109.02 134.956 109.42C134.743 109.847 134.516 110.293 134.276 110.76C134.05 111.227 133.743 111.8 133.356 112.48C133.17 112.813 132.976 113.16 132.776 113.52C132.576 113.867 132.363 114.233 132.136 114.62C131.923 114.993 131.696 115.38 131.456 115.78C131.216 116.18 130.956 116.587 130.676 117C130.503 117.253 130.323 117.513 130.136 117.78C129.95 118.06 129.743 118.34 129.516 118.62C129.303 118.913 129.056 119.213 128.776 119.52C128.35 119.987 127.93 120.393 127.516 120.74C127.116 121.087 126.716 121.347 126.316 121.52C125.93 121.707 125.543 121.8 125.156 121.8ZM129.356 117.9C129.303 117.1 129.236 116.387 129.156 115.76C129.09 115.12 129.01 114.467 128.916 113.8C128.836 113.12 128.736 112.333 128.616 111.44C128.51 110.587 128.416 109.967 128.336 109.58C128.27 109.18 128.196 108.92 128.116 108.8C128.05 108.68 127.956 108.62 127.836 108.62C127.663 108.62 127.483 108.707 127.296 108.88C127.123 109.04 126.856 109.393 126.496 109.94L126.036 109.62C126.436 108.767 126.856 108.16 127.296 107.8C127.736 107.427 128.163 107.24 128.576 107.24C128.83 107.24 129.043 107.307 129.216 107.44C129.403 107.573 129.556 107.833 129.676 108.22C129.81 108.593 129.916 109.153 129.996 109.9C130.063 110.527 130.116 111.133 130.156 111.72C130.21 112.307 130.256 112.88 130.296 113.44C130.336 113.987 130.37 114.52 130.396 115.04C130.436 115.56 130.463 116.067 130.476 116.56H130.756L129.356 117.9Z" fill="#F1DBE7"/>
</svg>
