<svg width="256" height="256" viewBox="0 0 256 256" fill="none" xmlns="http://www.w3.org/2000/svg">
<rect width="256" height="256" fill="#B84B86"/>
<path d="M208.203 117.159V113.537L211.671 112.874V89.307L208.203 88.6444V85H232.919V93.4815H228.281L227.949 89.6163H217.679V98.2082H228.767V102.869H217.679V112.565H228.524L228.855 108.611H233.449V117.159H208.203Z" fill="white"/>
<path d="M178.488 117.159V113.537L181.956 112.874V89.307L178.488 88.6444V85H181.956H187.964H191.785V88.6444L187.964 89.307V112.565H197.527L197.881 107.772H202.475V117.159H178.488Z" fill="white"/>
<path d="M145.725 117.159V113.537L149.192 112.874V89.307L145.725 88.6444V85H149.192H159.927C163.623 85 166.509 85.7362 168.585 87.2087C170.661 88.6665 171.699 90.8605 171.699 93.7908C171.699 95.2633 171.287 96.5811 170.462 97.7444C169.653 98.9077 168.504 99.7764 167.017 100.351C168.298 100.63 169.373 101.131 170.242 101.853C171.11 102.574 171.766 103.45 172.207 104.481C172.664 105.512 172.892 106.638 172.892 107.86C172.892 110.908 171.883 113.22 169.866 114.796C167.863 116.371 165.051 117.159 161.429 117.159H145.725ZM155.2 112.543H161.429C163.196 112.543 164.543 112.145 165.471 111.35C166.413 110.555 166.884 109.392 166.884 107.86C166.884 106.771 166.708 105.85 166.354 105.099C166.016 104.334 165.478 103.752 164.742 103.355C164.02 102.957 163.093 102.758 161.959 102.758H155.2V112.543ZM155.2 98.5175H160.346C162.04 98.5175 163.35 98.142 164.278 97.391C165.22 96.64 165.692 95.5651 165.692 94.1662C165.692 92.6201 165.206 91.479 164.234 90.7427C163.262 90.0065 161.826 89.6383 159.927 89.6383H155.2V98.5175Z" fill="white"/>
<path d="M96.937 117.159V113.537L100.383 112.874V89.307L96.937 88.6444V85H100.383H109.151L118.251 107.838H118.384L127.197 85H139.477V88.6444L136.01 89.307V112.874L139.477 113.537V117.159H126.534V113.537L130.178 112.874V106.049L130.267 91.7587L130.156 91.7366L120.35 116.563H115.91L105.86 91.8913L105.728 91.9133L106.081 105.519V112.874L109.88 113.537V117.159H96.937Z" fill="white"/>
<path d="M75.2171 117.623C72.7285 117.623 70.5345 117.189 68.635 116.32C66.7502 115.436 65.2777 114.163 64.2176 112.499C63.1574 110.82 62.6273 108.795 62.6273 106.425V89.307L59.1816 88.6444V85H72.1027V88.6444L68.635 89.307V106.425C68.635 107.882 68.9001 109.097 69.4302 110.069C69.975 111.041 70.7407 111.77 71.7273 112.256C72.7138 112.742 73.8771 112.985 75.2171 112.985C76.5865 112.985 77.7718 112.749 78.7731 112.278C79.7744 111.792 80.5401 111.063 81.0702 110.091C81.615 109.119 81.8874 107.897 81.8874 106.425V89.307L78.4197 88.6444V85H91.3629V88.6444L87.8952 89.307V106.425C87.8952 108.81 87.3651 110.842 86.3049 112.521C85.2447 114.185 83.7649 115.451 81.8653 116.32C79.9658 117.189 77.7497 117.623 75.2171 117.623Z" fill="white"/>
<path d="M22 117.159V113.537L25.4677 112.874V89.307L22 88.6444V85H34.9432V88.6444L31.4755 89.307V98.9813H45.0592V89.307L41.5915 88.6444V85H45.0592H51.0669H54.5347V88.6444L51.0669 89.307V112.874L54.5347 113.537V117.159H41.5915V113.537L45.0592 112.874V103.62H31.4755V112.874L34.9432 113.537V117.159H22Z" fill="white"/>
<path d="M231.716 144.871C231.716 144.282 231.618 143.757 231.422 143.296C231.225 142.834 230.901 142.422 230.45 142.059C230.008 141.686 229.409 141.342 228.653 141.028C227.907 140.704 226.975 140.385 225.856 140.071C224.786 139.767 223.819 139.433 222.955 139.07C222.091 138.707 221.35 138.289 220.731 137.818C220.123 137.347 219.656 136.797 219.332 136.169C219.009 135.531 218.847 134.79 218.847 133.945C218.847 133.121 219.023 132.37 219.377 131.693C219.73 131.015 220.226 130.431 220.864 129.94C221.512 129.449 222.273 129.072 223.146 128.807C224.03 128.541 224.997 128.409 226.047 128.409C227.549 128.409 228.845 128.694 229.934 129.263C231.034 129.832 231.883 130.603 232.482 131.575C233.09 132.537 233.395 133.617 233.395 134.814H231.584C231.584 133.882 231.363 133.052 230.921 132.326C230.489 131.59 229.861 131.015 229.036 130.603C228.221 130.181 227.225 129.97 226.047 129.97C224.869 129.97 223.878 130.151 223.073 130.515C222.277 130.868 221.674 131.344 221.261 131.943C220.859 132.532 220.658 133.19 220.658 133.916C220.658 134.427 220.756 134.898 220.952 135.33C221.149 135.752 221.468 136.149 221.909 136.522C222.361 136.886 222.955 137.229 223.691 137.553C224.427 137.867 225.335 138.167 226.415 138.451C227.554 138.765 228.565 139.114 229.448 139.497C230.332 139.88 231.078 140.321 231.687 140.822C232.295 141.313 232.757 141.887 233.071 142.545C233.385 143.203 233.542 143.968 233.542 144.842C233.542 145.716 233.355 146.501 232.982 147.198C232.619 147.885 232.104 148.469 231.436 148.95C230.779 149.431 229.998 149.799 229.095 150.055C228.202 150.31 227.225 150.437 226.165 150.437C225.213 150.437 224.265 150.315 223.323 150.069C222.381 149.824 221.517 149.446 220.731 148.935C219.956 148.415 219.332 147.748 218.861 146.933C218.4 146.118 218.169 145.146 218.169 144.017H219.966C219.966 144.92 220.147 145.681 220.51 146.3C220.874 146.918 221.355 147.419 221.953 147.802C222.562 148.184 223.23 148.464 223.956 148.641C224.692 148.808 225.429 148.891 226.165 148.891C227.294 148.891 228.27 148.724 229.095 148.391C229.929 148.057 230.572 147.591 231.024 146.992C231.485 146.383 231.716 145.676 231.716 144.871Z" fill="white"/>
<path d="M206.693 148.597V150.143H194.633V148.597H206.693ZM195.178 128.703V150.143H193.367V128.703H195.178ZM205.191 138.319V139.865H194.633V138.319H205.191ZM206.619 128.703V130.264H194.633V128.703H206.619Z" fill="white"/>
<path d="M165.104 128.703H172.068C173.551 128.703 174.837 128.944 175.926 129.425C177.016 129.906 177.855 130.618 178.444 131.56C179.043 132.493 179.342 133.641 179.342 135.006C179.342 136.017 179.127 136.935 178.695 137.759C178.272 138.584 177.688 139.276 176.942 139.836C176.196 140.385 175.332 140.763 174.351 140.969L173.718 141.205H166.282L166.252 139.659H172.481C173.6 139.659 174.532 139.443 175.278 139.011C176.024 138.579 176.584 138.01 176.957 137.303C177.34 136.586 177.531 135.821 177.531 135.006C177.531 134.034 177.32 133.195 176.898 132.488C176.486 131.771 175.872 131.221 175.058 130.839C174.243 130.456 173.246 130.264 172.068 130.264H166.915V150.143H165.104V128.703ZM178.341 150.143L172.79 140.557L174.734 140.542L180.27 149.952V150.143H178.341Z" fill="white"/>
<path d="M149.195 128.703H151.006V143.222C151.006 144.832 150.667 146.172 149.99 147.242C149.312 148.312 148.399 149.112 147.251 149.642C146.112 150.172 144.851 150.437 143.467 150.437C142.043 150.437 140.762 150.172 139.623 149.642C138.485 149.112 137.582 148.312 136.914 147.242C136.256 146.172 135.927 144.832 135.927 143.222V128.703H137.724V143.222C137.724 144.469 137.969 145.514 138.46 146.359C138.951 147.203 139.628 147.836 140.492 148.258C141.356 148.68 142.348 148.891 143.467 148.891C144.576 148.891 145.562 148.68 146.426 148.258C147.29 147.836 147.968 147.203 148.458 146.359C148.949 145.514 149.195 144.469 149.195 143.222V128.703Z" fill="white"/>
<path d="M116.367 128.703V150.143H114.571V128.703H116.367ZM123.715 128.703V130.264H107.238V128.703H123.715Z" fill="white"/>
<path d="M95.0983 128.703V150.143H93.2724L80.9476 131.825V150.143H79.1365V128.703H80.9476L93.3018 147.021V128.703H95.0983Z" fill="white"/>
<path d="M66.2467 148.597V150.143H54.187V148.597H66.2467ZM54.7318 128.703V150.143H52.9207V128.703H54.7318ZM64.7447 138.319V139.865H54.187V138.319H64.7447ZM66.1731 128.703V130.264H54.187V128.703H66.1731Z" fill="white"/>
<path d="M31.9613 147.478L38.72 128.703H40.6931L32.7123 150.143H31.2545L31.9613 147.478ZM24.9817 128.703L31.711 147.478L32.4472 150.143H30.9747L23.0085 128.703H24.9817Z" fill="white"/>
</svg>
